<svg width="80" height="40" xmlns="http://www.w3.org/2000/svg">
 <defs>
  <style type="text/css">
   <![CDATA[
    .fil0 {fill:none}
    .fil1 {fill:#48678E;fill-rule:nonzero}
   ]]>
  </style>
 </defs>
 <g>
  <title>background</title>
  <rect fill="none" id="canvas_background" height="42" width="82" y="-1" x="-1"/>
 </g>
 <g>
  <title>Layer 1</title>
  <g id="图层_x0020_1">
   <metadata transform="translate(-110,-80) " id="CorelCorpID_0Corel-Layer"/>
   <rect id="svg_1" height="162.278" width="192.617" y="-59.5462" x="-57.497" class="fil0"/>
   <path id="svg_2" d="m24.489,32.273l10.1637,0l0,-2.3768l-10.1637,0l0,2.3768zm25.2754,-8.2999l7.5356,0l0,-0.9343l-7.5356,0l0,0.9343zm10.7828,0.788l0,2.4592l-10.7828,0l0,0.8159l12.9628,0l0,-5.1388c-0.0617,0.0764 -0.123,0.1537 -0.1834,0.231c-0.2472,0.3295 -0.4591,0.6298 -0.6297,0.9062c-0.4737,-0.2457 -0.9287,-0.5237 -1.3669,-0.8337l0,0.7722l0,0.788zm2.18,6.5223l-16.21,0l0,-0.4329l0,-2.8143l0,-0.5994l0,-3.2472l0,-1.1508l0,-0.2005c-0.7519,0.5246 -1.5267,0.9974 -2.2969,1.4084c-0.1357,-0.2415 -0.3299,-0.5355 -0.5711,-0.8771c-0.0731,-0.1011 -0.1478,-0.2022 -0.224,-0.3031l0,9.2015l19.302,0l0,-0.9846zm-12.7351,-11.4918l7.162,0c-0.0889,-0.1329 -0.1814,-0.2736 -0.2788,-0.4247c-0.1195,-0.1873 -0.2364,-0.3772 -0.3485,-0.5681l-5.7244,0c-0.252,0.3384 -0.5232,0.6698 -0.8103,0.9928zm-6.0816,-4.24l5.1148,0c0.0578,-0.0922 0.1141,-0.186 0.1686,-0.2814l0.0299,-0.0513l-5.3133,0l0,-3.2472l2.7439,0c-0.0792,-0.2511 -0.1844,-0.5153 -0.3154,-0.7923c-0.147,-0.3239 -0.3178,-0.6475 -0.5061,-0.9653c-0.1555,-0.2631 -0.3193,-0.5055 -0.4845,-0.7315l3.1993,0c0.1986,0.3095 0.3702,0.6154 0.5226,0.9259c0.1648,0.347 0.2767,0.6708 0.3416,0.9826l-1.5097,0.5806l2.8246,0c0.2107,-0.6135 0.3912,-1.2433 0.551,-1.899c0.0454,-0.1937 0.0892,-0.3905 0.1314,-0.5901l3.4775,0c-0.0565,0.2559 -0.1156,0.5076 -0.1775,0.7551c-0.1479,0.5966 -0.3111,1.1731 -0.4895,1.734l2.3839,0c0.1635,-0.3559 0.3265,-0.7259 0.4897,-1.1101c0.1881,-0.4298 0.3648,-0.8538 0.5295,-1.2714l0.0416,-0.1076l3.3405,0c-0.2089,0.3951 -0.4183,0.791 -0.6274,1.1904c-0.2398,0.4537 -0.4801,0.8882 -0.7204,1.2987l2.7865,0l0,0.1257l0,2.437l0,0.6845l-9.4978,0l-0.026,0.0513c-0.0455,0.0954 -0.0914,0.1892 -0.1384,0.2814l9.6622,0l0,3.2472l-2.2131,0c0.504,0.5152 1.0593,0.9839 1.6658,1.4099c0.2717,0.191 0.5486,0.3683 0.8309,0.5313l0,-12.0144l-19.302,0l0,12.0741c0.3771,-0.2063 0.7403,-0.4228 1.0891,-0.6498c0.6321,-0.4081 1.2227,-0.8586 1.7743,-1.3511l-2.3781,0l0,-3.2472zm18.8167,19.9636l-19.302,0l-3.2472,0l0,-3.2472l0,-26.7897l0.9546,0l2.2926,0l19.302,0l3.2472,0l0,3.2473l0,19.5271l0,3.2472l0,0.7681l0,3.2472l-3.2472,0zm-42.0329,-26.71l-1.2508,1.2508l0.2994,0.1373l0.9514,0.4364l0,1.035l0,2.5084l0,4.3949l0,3.6622l3.3801,-3.2169l-2.8326,0l0,-3.2472l5.9655,0l0,-4.5549l-5.9655,0l0,-3.2472l5.9655,0l0,-2.0538l1.6236,0l0.2165,0l1.4071,0l0,2.0538l7.4455,0l0,3.2472l-0.9292,0l-4.7861,4.5549l5.7153,0l0,3.2472l-9.1273,0l-2.0462,1.9473l7.9262,0l3.2473,0l0,3.2472l0,8.0652l0,3.2472l-3.2473,0l-10.1637,0l-3.2472,0l0,-3.2472l0,-6.0927l-0.5877,0.5594c-0.1046,1.3918 -0.4109,2.4722 -0.9034,3.4369c-0.6016,1.1785 -1.4344,2.0845 -2.5008,3.1508l0.0033,0.0033l-5.5212,5.543l0,-4.6011l3.2252,-3.2379l0.0065,0c0.8431,-0.843 1.4924,-1.5409 1.8948,-2.3293c0.386,-0.7562 0.5886,-1.6961 0.5886,-3.1033l0,-3.7869l-5.7997,5.7995l0,-4.5919l5.7997,-5.7995l0,-4.5238l-0.4435,-0.2035l-5.3562,5.3559l0,-4.592l2.2083,-2.2083l-2.1237,-0.9743l0,-3.5596l4.5639,2.094l4.2999,-4.3l0.0985,0.0985l0,4.395zm11.5785,2.406l-1.8183,0l0,1.7303l1.8183,-1.7303zm2.3799,12.9966l-10.1637,0l0,2.4412l10.1637,0l0,-2.4412z" class="fil1"/>
  </g>
 </g>
</svg>