<svg width="100" height="100" xmlns="http://www.w3.org/2000/svg">
 <defs>
  <style type="text/css">
   <![CDATA[
    .fil3 {fill:none}
    .fil2 {fill:#5F5D5D}
    .fil0 {fill:#48678E}
    .fil1 {fill:#5F5D5D;fill-rule:nonzero}
   ]]>
  </style>
 </defs>
 <g>
  <title>background</title>
  <rect fill="none" id="canvas_background" height="102" width="102" y="-1" x="-1"/>
 </g>
 <g>
  <title>Layer 1</title>
  <g id="图层_x0020_1">
   <metadata transform="translate(9,9) translate(0,-1) translate(0,-1) translate(0,-1) translate(0,-1) translate(0,-1) translate(0,-1) translate(0,-1) translate(0,-1) translate(0,-1) translate(0,-1) translate(0,-1) translate(-1,0) translate(-1,0) translate(-1,0) translate(-1,0) translate(-1,0) translate(-1,0) translate(-1,0) translate(-1,0) translate(-1,0) translate(-1,0) translate(-1,0) translate(-1,0) translate(-1,0) translate(-1,0) translate(-1,0) translate(-1,0) translate(-1,0) translate(-1,0) translate(-1,0) translate(-1,0) translate(-1,0) translate(-1,0) translate(-1,0) translate(-1,0) translate(-1,0) translate(-1,0) translate(-1,0) translate(-1,0) translate(-1,0) translate(-1,0) translate(-1,0) translate(-1,0) translate(-1,0) translate(-1,0) translate(-1,0) translate(-1,0) translate(-1,0) translate(-1,0) translate(-1,0) translate(-1,0) translate(-1,0) translate(-1,0) translate(-1,0) translate(-1,0) translate(-1,0) translate(-1,0) translate(-1,0) translate(-1,0) translate(-1,0) translate(-1,0) translate(-1,0) translate(-1,0) translate(-1,0) translate(-1,0) translate(-1,0) translate(-1,0) translate(-1,0) translate(-1,0) translate(-1,0) translate(-1,0) translate(-1,0) translate(-1,0) translate(-1,0) translate(-1,0) translate(-1,0) translate(-1,0) translate(-1,0) translate(-1,0) translate(-1,0) translate(-1,0) translate(-1,0) translate(-1,0) translate(-1,0) translate(-1,0) translate(-1,0) translate(-1,0) translate(-1,0) translate(-1,0) translate(-1,0) translate(-1,0) translate(-1,0) translate(-1,0) translate(-1,0) translate(-1,0) translate(-1,0) translate(-1,0) translate(-1,0) translate(-1,0) translate(-1,0) translate(-1,0) translate(-1,0) translate(-1,0) translate(-1,0) translate(-1,0) translate(-1,0) translate(-1,0) translate(-1,0) translate(-1,0) translate(-1,0) translate(-1,0) translate(-1,0) translate(-1,0) translate(-1,0) translate(-1,0) translate(-1,0) translate(-1,0) translate(-1,0) translate(-1,0) translate(-1,0) translate(-1,0) translate(-1,0) translate(-1,0) translate(-1,0) translate(-1,0) translate(-1,0) translate(0,-1) translate(0,-1) translate(0,-1) translate(0,-1) translate(0,-1) translate(0,-1) translate(0,-1) translate(0,-1) translate(0,-1) translate(0,-1) translate(0,-1) translate(0,-1) translate(0,-1) translate(0,-1) translate(0,-1) translate(0,-1) translate(0,-1) translate(0,-1) translate(0,-1) translate(0,-1) translate(0,-1) translate(0,-1) translate(0,-1) translate(0,-1) translate(0,-1) translate(0,-1) translate(0,-1) translate(0,-1) translate(0,-1) translate(0,-1) translate(0,-1) translate(0,-1) translate(0,-1) translate(0,-1) translate(0,-1) translate(0,-1) translate(0,-1) translate(0,-1) translate(0,-1) translate(0,-1) translate(0,-1) translate(0,-1) translate(0,-1) translate(0,-1) translate(0,-1) translate(0,-1) translate(0,-1) translate(0,-1) translate(0,-1) translate(0,-1) translate(0,-1) translate(0,-1) translate(0,-1) translate(0,-1) translate(0,-1) translate(-1,0) " id="CorelCorpID_0Corel-Layer"/>
   <g id="_391227008">
    <path d="m77.229,43.655c0,0 -12.5931,23.0898 -39.1007,7.5421c0,0 22.2407,10.1004 39.1007,-7.5421z" class="fil0" id="_392747920"/>
    <path d="m29.315,52.883c5.7662,1.7067 16.5154,-2.7047 9.3697,-10.1889c0,0 4.804,6.8346 -3.2687,7.3794c-8.0726,0.5447 -7.4288,-5.9431 -7.4288,-5.9431c0,0 1.2805,-0.7115 2.8204,-1.7914c2.094,-1.4687 4.6677,-3.6189 5.1529,-5.588c2.0707,-8.4044 14.9677,-16.9599 21.9892,-14.6597c0,0 -0.7429,-3.6649 6.0421,-7.5279c-0.6502,8.3948 9.0858,15.4078 -0.2971,19.7607c-4.804,2.2286 -9.0136,-1.5353 -8.8155,-6.7355c0,0 -1.0401,7.0326 4.4573,8.6174c5.4973,1.5849 11.7375,-3.12 10.4994,-10.3013c0,0 10.3509,4.5832 8.9147,20.8998c-1.0824,12.2971 -15.9385,20.3053 -27.83,12.7381c-12.9809,-8.2605 -10.217,12.8617 2.4528,12.5003c-9.1926,-0.2357 -10.9748,-14.9117 -3.7439,-10.6779c0,0 8.0161,4.8688 16.046,3.0197c20.1533,-4.6409 22.9965,-26.2075 9.9057,-40.263c-4.3175,-4.5093 -12.7197,-5.1091 -3.8877,-15.229c0,0 -13.0748,-0.7429 -16.2444,9.3108c0,0 -12.4443,0.4258 -18.1892,9.2412c-6.5443,10.0423 -2.2706,7.9894 -13.6889,15.8511c1.2951,3.3951 2.1348,8.5191 5.744,9.5872z" class="fil0" id="_392745232"/>
    <path d="m38.731,24.6773c1.9142,0 3.0442,1.7314 3.8126,3.9433l12.2833,-0.4853c-0.0078,0.4529 -0.0374,1.1836 0.0326,1.6965c-5.0798,-0.0838 -11.5089,0.4358 -12.0047,4.1839c-0.4422,3.3419 -2.1209,5.8286 -4.1238,5.8286c-2.3405,0 -4.2378,-3.3952 -4.2378,-7.5835c0,-4.1883 2.3236,-7.5835 4.2378,-7.5835z" class="fil0" id="_392743240"/>
    <g id="svg_1">
     <path d="m13.531,68.015l5.1026,-6.0085l-3.3102,1.3665l6.8436,-6.118l-5.1274,1.709l12.0236,-8.0222l4.0283,-4.0601c0.9097,-1.3896 2.2246,-3.4097 3.3405,-2.9474c0.0003,0.0001 0.0004,0.0004 0.0008,0.0006c0.0002,-0.0002 0.0005,-0.0007 0.0007,-0.0009c-0.0286,-0.0468 -0.0502,-0.1037 -0.0572,-0.1726c-0.0452,-0.4476 -0.8424,-0.1237 -0.7577,-0.1305c0.3501,-0.0275 0.8159,-0.5038 0.9764,0.1699c0.1544,-0.3878 0.4453,-0.723 0.5049,-0.7117c0.0748,0.014 -0.3249,0.4259 -0.3899,0.839c-0.0019,0.0126 -0.0037,0.0264 -0.0054,0.0414c0.0271,-0.0083 0.0523,-0.0097 0.0723,-0.0029c0.0302,-0.0894 0.0766,-0.1887 0.1473,-0.2887c0.3533,-0.4994 0.7062,-0.6535 0.7391,-0.5916c0.0327,0.0618 -0.2217,0.108 -0.5168,0.5218c-0.0777,0.109 -0.2092,0.3277 -0.3057,0.4914c0.0378,-0.01 0.0707,-0.0064 0.0908,0.0138c0.0277,0.0281 0.0236,0.0805 -0.0052,0.1355c0.0553,-0.0281 0.1077,-0.0317 0.1354,-0.0037c0.0277,0.0281 0.0236,0.0804 -0.0053,0.1354c0.0554,-0.0281 0.1077,-0.0316 0.1355,-0.0036c0.0311,0.0314 0.0222,0.0934 -0.0168,0.1555c0.125,-0.038 0.2517,-0.079 0.3294,-0.1106c0.4346,-0.1772 0.7563,-0.42 0.7941,-0.3623c0.0378,0.0577 -0.3256,0.4153 -0.849,0.6262c-0.0767,0.0309 -0.2279,0.0026 -0.293,0.0099c1.2001,1.9292 -2.103,3 -3.5798,3.7668l-9.5179,10.4422l4.9457,-6.9566c-4.2122,4.2163 -8.5863,9.3764 -12.7365,13.3183c-2.5241,2.3974 -2.7372,2.7487 -2.7372,2.7487z" class="fil0" id="_392746984"/>
     <path d="m8.547,63.424l5.7073,-5.4374l-3.4357,1.0101l7.4501,-5.363l-5.2789,1.1593l12.8018,-6.7107l0.9142,-0.7449l0.8106,1.441l-7.5401,6.695l5.6511,-6.3967c-4.6329,3.749 -9.5264,8.4196 -14.0688,11.9022c-2.7626,2.1182 -3.0116,2.4451 -3.0116,2.4451z" class="fil0" id="_392746840"/>
    </g>
    <path d="m31.555,72.732c0.2583,-0.0041 0.4878,-0.0697 0.6968,-0.1927c0.205,-0.1271 0.3689,-0.2951 0.4919,-0.5083c0.123,-0.209 0.1844,-0.4427 0.1885,-0.7009c-0.0041,-0.2582 -0.0655,-0.4877 -0.1885,-0.6968c-0.123,-0.205 -0.2869,-0.3689 -0.4919,-0.4918c-0.209,-0.123 -0.4385,-0.1845 -0.6968,-0.1886c-0.2664,0.0041 -0.5041,0.0656 -0.7132,0.1886c-0.209,0.1229 -0.3771,0.2868 -0.5001,0.4918c-0.1229,0.2091 -0.1844,0.4386 -0.1885,0.6968c0.0041,0.2582 0.0656,0.4919 0.1885,0.7009c0.123,0.2132 0.2911,0.3812 0.5001,0.5083c0.2091,0.123 0.4468,0.1886 0.7132,0.1927zm-1.0575,13.0836l2.115,0l0,-11.2638l-2.115,0l0,11.2638z" class="fil1" id="_392522080"/>
    <path d="m43.919,74.552l0,1.3035c-0.3526,-0.2992 -0.7337,-0.5615 -1.1395,-0.7952c-0.4058,-0.2336 -0.8321,-0.414 -1.2789,-0.5492c-0.4427,-0.1353 -0.9018,-0.2009 -1.369,-0.205c-0.7911,0 -1.5453,0.1476 -2.2585,0.4345c-0.7091,0.2869 -1.3526,0.7091 -1.9224,1.2625c-0.5575,0.5697 -0.9796,1.2132 -1.2747,1.9223c-0.2951,0.7133 -0.4427,1.4675 -0.4468,2.2585c0.0041,0.7911 0.1517,1.5453 0.4468,2.2585c0.2951,0.7091 0.7172,1.3527 1.2747,1.9224c0.5698,0.5534 1.2133,0.9755 1.9224,1.2625c0.7132,0.2869 1.4674,0.4345 2.2585,0.4345c0.4672,-0.0041 0.9263,-0.0697 1.369,-0.2049c0.4468,-0.1353 0.8731,-0.3157 1.2789,-0.5493c0.4058,-0.2337 0.7869,-0.496 1.1395,-0.7952l0,1.8445c-0.0041,0.5247 -0.1025,1.0206 -0.2993,1.4797c-0.1926,0.4632 -0.4631,0.8689 -0.8115,1.2214c-0.3443,0.3525 -0.746,0.6313 -1.201,0.8321c-0.4591,0.1968 -0.9509,0.2992 -1.4756,0.3033c-0.3074,-0.0163 -0.6149,-0.0696 -0.9263,-0.1557c-0.3157,-0.0902 -0.619,-0.2049 -0.91,-0.3484c-0.291,-0.1476 -0.5534,-0.3156 -0.7952,-0.5042l-1.5986,1.4019c0.1599,0.1475 0.3321,0.2951 0.5083,0.4344c0.1804,0.1394 0.3648,0.2665 0.5492,0.3771c0.455,0.2746 0.951,0.4837 1.4838,0.6312c0.5329,0.1517 1.0985,0.2255 1.6888,0.2296c0.7911,-0.0041 1.5453,-0.1517 2.2544,-0.4468c0.7091,-0.2951 1.3445,-0.7173 1.9019,-1.2747c0.5697,-0.5616 1.0001,-1.1969 1.2993,-1.9142c0.2951,-0.7173 0.4468,-1.4715 0.4468,-2.2667l0,-11.8049l-2.115,0zm-3.7874,9.444c-0.5246,-0.0042 -1.0166,-0.1025 -1.4756,-0.3034c-0.455,-0.1967 -0.8566,-0.4673 -1.201,-0.8198c-0.3484,-0.3484 -0.6189,-0.7542 -0.8115,-1.2092c-0.1968,-0.459 -0.2952,-0.955 -0.2993,-1.4797c0.0041,-0.5246 0.1025,-1.0206 0.2993,-1.4797c0.1926,-0.455 0.4631,-0.8608 0.8115,-1.2092c0.3444,-0.3525 0.746,-0.623 1.201,-0.8238c0.459,-0.1967 0.951,-0.2951 1.4756,-0.2992c0.5247,0.0041 1.0165,0.1025 1.4756,0.2992c0.455,0.2008 0.8567,0.4713 1.201,0.8238c0.3484,0.3484 0.6189,0.7501 0.8115,1.2092c0.1968,0.4591 0.2952,0.9551 0.2993,1.4797c-0.0041,0.5247 -0.1025,1.0207 -0.2993,1.4757c-0.1926,0.459 -0.4631,0.8648 -0.8115,1.2132c-0.3443,0.3525 -0.746,0.6231 -1.201,0.8198c-0.4591,0.2009 -0.9509,0.2992 -1.4756,0.3034z" class="fil1" id="_392523544"/>
    <path d="m62.621,85.816l2.4839,0l-0.541,-2.0166l-1.8937,0c-0.2992,-0.0041 -0.5738,-0.0902 -0.828,-0.2582c-0.25,-0.164 -0.455,-0.3812 -0.6066,-0.6477c-0.1558,-0.2705 -0.2337,-0.5574 -0.2378,-0.8648l0,-5.4598l3.4677,0l0,-2.0167l-3.4677,0l0,-4.353l-2.115,0l0,4.353l-1.6723,0l0,2.0167l1.6723,0l0,5.5089c0.0041,0.5247 0.1025,1.0125 0.2951,1.4675c0.1927,0.4509 0.4591,0.8443 0.7993,1.1845c0.3402,0.3402 0.7378,0.6066 1.1887,0.7952c0.4509,0.1926 0.9346,0.2869 1.4551,0.291z" class="fil1" id="_392528128"/>
    <polygon points="77.81300354003906,74.552001953125 75.5260009765625,74.552001953125 72.10800170898438,83.01199340820312 68.68899536132812,74.552001953125 66.40199279785156,74.552001953125 70.97599792480469,85.81599426269531 68.34500122070312,92.25900268554688 70.63200378417969,92.25900268554688 " class="fil1" id="_392525824"/>
    <path d="m18.576,68.305l1.5074,0l4.2108,0c2.7277,0 4.9594,2.2316 4.9594,4.9593l0,0.0001c0,2.7276 -2.2317,4.9593 -4.9594,4.9593l-4.2108,0l0,7.5917l-2.1888,0l0,-17.5104l0.6814,0zm1.5074,7.8193l4.2294,0c1.573,0 2.8599,-1.2869 2.8599,-2.8599l0,-0.0001c0,-1.573 -1.2869,-2.8599 -2.8599,-2.8599l-4.2294,0l0,5.7199z" class="fil2" id="_392525200"/>
    <path d="m56.014,81.075c-0.0897,-0.1195 -0.1879,-0.2306 -0.2904,-0.3373c-0.1024,-0.1068 -0.2263,-0.2178 -0.3757,-0.3245c-0.1495,-0.1068 -0.3374,-0.2178 -0.5637,-0.3374c-0.1238,-0.0683 -0.2903,-0.1366 -0.5038,-0.2092c-0.2178,-0.0726 -0.4484,-0.1452 -0.7003,-0.2135c-0.2477,-0.0683 -0.4868,-0.1324 -0.7131,-0.1879c-0.2263,-0.0555 -0.4142,-0.0982 -0.5637,-0.1324c-0.1452,-0.0341 -0.2263,-0.0512 -0.2348,-0.0512c-0.7729,-0.1623 -1.3323,-0.3587 -1.6739,-0.5935c-0.3416,-0.2349 -0.5124,-0.5381 -0.5039,-0.9181c0.0043,-0.2349 0.0812,-0.4569 0.2306,-0.6661c0.1495,-0.2093 0.3544,-0.3801 0.6149,-0.5125c0.1793,-0.0896 0.3758,-0.1537 0.5893,-0.1964c0.2135,-0.0427 0.4355,-0.0598 0.6661,-0.0598c0.1665,-0.0042 0.38,0.0171 0.6448,0.0641c0.2647,0.0512 0.5679,0.1494 0.9052,0.2946c0.3416,0.1495 0.7046,0.3715 1.0889,0.6662l1.281,-1.486c-0.4654,-0.3715 -0.965,-0.679 -1.4988,-0.9181c-0.5337,-0.2348 -1.0846,-0.4014 -1.6525,-0.491c-0.1409,-0.0129 -0.2861,-0.0257 -0.4355,-0.0342c-0.1495,-0.0128 -0.2947,-0.0171 -0.4356,-0.0171c-0.3715,0 -0.7259,0.0384 -1.059,0.111c-0.3373,0.0769 -0.6575,0.1836 -0.965,0.3246c-0.3331,0.1537 -0.6149,0.3202 -0.854,0.5038c-0.2391,0.1879 -0.4398,0.3929 -0.6064,0.6235c-0.1793,0.269 -0.3202,0.5551 -0.4142,0.8582c-0.0982,0.3032 -0.1494,0.6149 -0.1494,0.9352c0,0.5893 0.1409,1.1187 0.4185,1.5799c0.2732,0.4654 0.6832,0.8498 1.2212,1.1615c0.1495,0.0811 0.3331,0.1622 0.5551,0.2391c0.2178,0.0726 0.4526,0.1452 0.696,0.2092c0.2477,0.0641 0.4783,0.1239 0.7003,0.1751c0.2178,0.047 0.4014,0.0897 0.5423,0.1196c0.1452,0.0299 0.2263,0.0469 0.2477,0.0512c0.7899,0.1366 1.3707,0.3331 1.7379,0.5893c0.3672,0.2519 0.5466,0.5807 0.5423,0.9735c-0.0043,0.2648 -0.0598,0.4868 -0.1665,0.6662c-0.1025,0.1793 -0.2263,0.3202 -0.3673,0.427c-0.1409,0.111 -0.2732,0.1879 -0.3885,0.2391c-0.205,0.0897 -0.4228,0.158 -0.6491,0.2092c-0.2306,0.047 -0.4654,0.0726 -0.7088,0.0726c-0.2391,0.0043 -0.5252,-0.0299 -0.854,-0.1025c-0.3288,-0.0725 -0.6918,-0.2092 -1.0932,-0.4099c-0.4014,-0.2007 -0.8284,-0.491 -1.281,-0.8711l-1.3835,1.5116c0.5167,0.4356 1.0675,0.7943 1.6611,1.0761c0.5892,0.2818 1.2041,0.4868 1.8489,0.6149c0.205,0.0384 0.4057,0.0683 0.6021,0.0939c0.1964,0.0214 0.3971,0.0342 0.6021,0.0342c0.3757,0 0.7387,-0.0384 1.0974,-0.111c0.3587,-0.0769 0.6917,-0.1837 1.0034,-0.3246c0.3459,-0.1665 0.6491,-0.3544 0.9053,-0.5636c0.2605,-0.2092 0.4782,-0.4484 0.6576,-0.7174c0.1921,-0.269 0.333,-0.5636 0.427,-0.8753c0.0897,-0.3118 0.1366,-0.6363 0.1366,-0.9694c0,-0.333 -0.0427,-0.6533 -0.1323,-0.9564c-0.0897,-0.299 -0.2264,-0.5808 -0.4057,-0.837z" class="fil1" id="_392521816"/>
   </g>
   <rect id="svg_2" height="127" width="178.858" y="-12.9303" x="-43.3782" class="fil3"/>
  </g>
 </g>
</svg>