<svg width="80" height="40" xmlns="http://www.w3.org/2000/svg">
 <defs>
  <style type="text/css">
   <![CDATA[
    .fil2 {fill:none}
    .fil1 {fill:#5F5D5D}
    .fil0 {fill:#5F5D5D;fill-rule:nonzero}
   ]]>
  </style>
 </defs>
 <g>
  <title>background</title>
  <rect fill="none" id="canvas_background" height="42" width="82" y="-1" x="-1"/>
 </g>
 <g>
  <title>Layer 1</title>
  <g id="图层_x0020_1">
   <metadata transform="translate(4,3) translate(-12,-7) translate(13,6) translate(-15,-9) translate(-97,-74) " id="CorelCorpID_0Corel-Layer"/>
   <g id="_396393064">
    <path d="m25.512,13.0427c0.2583,-0.0041 0.4878,-0.0697 0.6968,-0.1927c0.205,-0.1271 0.3689,-0.2951 0.4919,-0.5083c0.123,-0.209 0.1844,-0.4427 0.1885,-0.7009c-0.0041,-0.2582 -0.0655,-0.4877 -0.1885,-0.6968c-0.123,-0.205 -0.2869,-0.3689 -0.4919,-0.4918c-0.209,-0.123 -0.4385,-0.1845 -0.6968,-0.1886c-0.2664,0.0041 -0.5041,0.0656 -0.7132,0.1886c-0.209,0.1229 -0.3771,0.2868 -0.5001,0.4918c-0.1229,0.2091 -0.1844,0.4386 -0.1885,0.6968c0.0041,0.2582 0.0656,0.4919 0.1885,0.7009c0.123,0.2132 0.2911,0.3812 0.5001,0.5083c0.2091,0.123 0.4468,0.1886 0.7132,0.1927zm-1.0575,13.0836l2.115,0l0,-11.2638l-2.115,0l0,11.2638z" class="fil0" id="_396392512"/>
    <path d="m37.876,14.8625l0,1.3035c-0.3526,-0.2992 -0.7337,-0.5615 -1.1395,-0.7952c-0.4058,-0.2336 -0.8321,-0.414 -1.2789,-0.5492c-0.4427,-0.1353 -0.9018,-0.2009 -1.369,-0.205c-0.7911,0 -1.5453,0.1476 -2.2585,0.4345c-0.7091,0.2869 -1.3526,0.7091 -1.9224,1.2625c-0.5575,0.5697 -0.9796,1.2132 -1.2747,1.9223c-0.2951,0.7133 -0.4427,1.4675 -0.4468,2.2585c0.0041,0.7911 0.1517,1.5453 0.4468,2.2585c0.2951,0.7091 0.7172,1.3527 1.2747,1.9224c0.5698,0.5534 1.2133,0.9755 1.9224,1.2625c0.7132,0.2869 1.4674,0.4345 2.2585,0.4345c0.4672,-0.0041 0.9263,-0.0697 1.369,-0.2049c0.4468,-0.1353 0.8731,-0.3157 1.2789,-0.5493c0.4058,-0.2337 0.7869,-0.496 1.1395,-0.7952l0,1.8445c-0.0041,0.5247 -0.1025,1.0206 -0.2993,1.4797c-0.1926,0.4632 -0.4631,0.8689 -0.8115,1.2214c-0.3443,0.3525 -0.746,0.6313 -1.201,0.8321c-0.4591,0.1968 -0.9509,0.2992 -1.4756,0.3033c-0.3074,-0.0163 -0.6149,-0.0696 -0.9263,-0.1557c-0.3157,-0.0902 -0.619,-0.2049 -0.91,-0.3484c-0.291,-0.1476 -0.5534,-0.3156 -0.7952,-0.5042l-1.5986,1.4019c0.1599,0.1475 0.3321,0.2951 0.5083,0.4344c0.1804,0.1394 0.3648,0.2665 0.5492,0.3771c0.455,0.2746 0.951,0.4837 1.4838,0.6312c0.5329,0.1517 1.0985,0.2255 1.6888,0.2296c0.7911,-0.0041 1.5453,-0.1517 2.2544,-0.4468c0.7091,-0.2951 1.3445,-0.7173 1.9019,-1.2747c0.5697,-0.5616 1.0001,-1.1969 1.2993,-1.9142c0.2951,-0.7173 0.4468,-1.4715 0.4468,-2.2667l0,-11.8049l-2.115,0zm-3.7874,9.444c-0.5246,-0.0042 -1.0166,-0.1025 -1.4756,-0.3034c-0.455,-0.1967 -0.8566,-0.4673 -1.201,-0.8198c-0.3484,-0.3484 -0.6189,-0.7542 -0.8115,-1.2092c-0.1968,-0.459 -0.2952,-0.955 -0.2993,-1.4797c0.0041,-0.5246 0.1025,-1.0206 0.2993,-1.4797c0.1926,-0.455 0.4631,-0.8608 0.8115,-1.2092c0.3444,-0.3525 0.746,-0.623 1.201,-0.8238c0.459,-0.1967 0.951,-0.2951 1.4756,-0.2992c0.5247,0.0041 1.0165,0.1025 1.4756,0.2992c0.455,0.2008 0.8567,0.4713 1.201,0.8238c0.3484,0.3484 0.6189,0.7501 0.8115,1.2092c0.1968,0.4591 0.2952,0.9551 0.2993,1.4797c-0.0041,0.5247 -0.1025,1.0207 -0.2993,1.4757c-0.1926,0.459 -0.4631,0.8648 -0.8115,1.2132c-0.3443,0.3525 -0.746,0.6231 -1.201,0.8198c-0.4591,0.2009 -0.9509,0.2992 -1.4756,0.3034z" class="fil0" id="_396385072"/>
    <path d="m56.579,26.126l2.4839,0l-0.541,-2.0166l-1.8937,0c-0.2992,-0.0041 -0.5738,-0.0902 -0.828,-0.2582c-0.25,-0.164 -0.455,-0.3812 -0.6066,-0.6477c-0.1558,-0.2705 -0.2337,-0.5574 -0.2378,-0.8648l0,-5.4598l3.4677,0l0,-2.0167l-3.4677,0l0,-4.353l-2.115,0l0,4.353l-1.6723,0l0,2.0167l1.6723,0l0,5.5089c0.0041,0.5247 0.1025,1.0125 0.2951,1.4675c0.1927,0.4509 0.4591,0.8443 0.7993,1.1845c0.3402,0.3402 0.7378,0.6066 1.1887,0.7952c0.4509,0.1926 0.9346,0.2869 1.4551,0.291z" class="fil0" id="_391221680"/>
    <polygon points="71.77099609375,14.862503051757812 69.48399353027344,14.862503051757812 66.06500244140625,23.322998046875 62.647003173828125,14.862503051757812 60.36000061035156,14.862503051757812 64.93400573730469,26.125999450683594 62.302001953125,32.56999969482422 64.58999633789062,32.56999969482422 " class="fil0" id="_396387592"/>
    <path d="m12.533,8.6159l1.5074,0l4.2108,0c2.7277,0 4.9594,2.2316 4.9594,4.9593l0,0.0001c0,2.7276 -2.2317,4.9593 -4.9594,4.9593l-4.2108,0l0,7.5917l-2.1888,0l0,-17.5104l0.6814,0zm1.5074,7.8193l4.2294,0c1.573,0 2.8599,-1.2869 2.8599,-2.8599l0,-0.0001c0,-1.573 -1.2869,-2.8599 -2.8599,-2.8599l-4.2294,0l0,5.7199z" class="fil1" id="_396389296"/>
    <path d="m49.971,21.386c-0.0897,-0.1195 -0.1879,-0.2306 -0.2904,-0.3373c-0.1024,-0.1068 -0.2263,-0.2178 -0.3757,-0.3245c-0.1495,-0.1068 -0.3374,-0.2178 -0.5637,-0.3374c-0.1238,-0.0683 -0.2903,-0.1366 -0.5038,-0.2092c-0.2178,-0.0726 -0.4484,-0.1452 -0.7003,-0.2135c-0.2477,-0.0683 -0.4868,-0.1324 -0.7131,-0.1879c-0.2263,-0.0555 -0.4142,-0.0982 -0.5637,-0.1324c-0.1452,-0.0341 -0.2263,-0.0512 -0.2348,-0.0512c-0.7729,-0.1623 -1.3323,-0.3587 -1.6739,-0.5935c-0.3416,-0.2349 -0.5124,-0.5381 -0.5039,-0.9181c0.0043,-0.2349 0.0812,-0.4569 0.2306,-0.6661c0.1495,-0.2093 0.3544,-0.3801 0.6149,-0.5125c0.1793,-0.0896 0.3758,-0.1537 0.5893,-0.1964c0.2135,-0.0427 0.4355,-0.0598 0.6661,-0.0598c0.1665,-0.0042 0.38,0.0171 0.6448,0.0641c0.2647,0.0512 0.5679,0.1494 0.9052,0.2946c0.3416,0.1495 0.7046,0.3715 1.0889,0.6662l1.281,-1.486c-0.4654,-0.3715 -0.965,-0.679 -1.4988,-0.9181c-0.5337,-0.2348 -1.0846,-0.4014 -1.6525,-0.491c-0.1409,-0.0129 -0.2861,-0.0257 -0.4355,-0.0342c-0.1495,-0.0128 -0.2947,-0.0171 -0.4356,-0.0171c-0.3715,0 -0.7259,0.0384 -1.059,0.111c-0.3373,0.0769 -0.6575,0.1836 -0.965,0.3246c-0.3331,0.1537 -0.6149,0.3202 -0.854,0.5038c-0.2391,0.1879 -0.4398,0.3929 -0.6064,0.6235c-0.1793,0.269 -0.3202,0.5551 -0.4142,0.8582c-0.0982,0.3032 -0.1494,0.6149 -0.1494,0.9352c0,0.5893 0.1409,1.1187 0.4185,1.5799c0.2732,0.4654 0.6832,0.8498 1.2212,1.1615c0.1495,0.0811 0.3331,0.1622 0.5551,0.2391c0.2178,0.0726 0.4526,0.1452 0.696,0.2092c0.2477,0.0641 0.4783,0.1239 0.7003,0.1751c0.2178,0.047 0.4014,0.0897 0.5423,0.1196c0.1452,0.0299 0.2263,0.0469 0.2477,0.0512c0.7899,0.1366 1.3707,0.3331 1.7379,0.5893c0.3672,0.2519 0.5466,0.5807 0.5423,0.9735c-0.0043,0.2648 -0.0598,0.4868 -0.1665,0.6662c-0.1025,0.1793 -0.2263,0.3202 -0.3673,0.427c-0.1409,0.111 -0.2732,0.1879 -0.3885,0.2391c-0.205,0.0897 -0.4228,0.158 -0.6491,0.2092c-0.2306,0.047 -0.4654,0.0726 -0.7088,0.0726c-0.2391,0.0043 -0.5252,-0.0299 -0.854,-0.1025c-0.3288,-0.0725 -0.6918,-0.2092 -1.0932,-0.4099c-0.4014,-0.2007 -0.8284,-0.491 -1.281,-0.8711l-1.3835,1.5116c0.5167,0.4356 1.0675,0.7943 1.6611,1.0761c0.5892,0.2818 1.2041,0.4868 1.8489,0.6149c0.205,0.0384 0.4057,0.0683 0.6021,0.0939c0.1964,0.0214 0.3971,0.0342 0.6021,0.0342c0.3757,0 0.7387,-0.0384 1.0974,-0.111c0.3587,-0.0769 0.6917,-0.1837 1.0034,-0.3246c0.3459,-0.1665 0.6491,-0.3544 0.9053,-0.5636c0.2605,-0.2092 0.4782,-0.4484 0.6576,-0.7174c0.1921,-0.269 0.333,-0.5636 0.427,-0.8753c0.0897,-0.3118 0.1366,-0.6363 0.1366,-0.9694c0,-0.333 -0.0427,-0.6533 -0.1323,-0.9564c-0.0897,-0.299 -0.2264,-0.5808 -0.4057,-0.837z" class="fil0" id="_391225088"/>
   </g>
   <rect id="svg_1" height="162.278" width="192.617" y="-60.5462" x="-54.497" class="fil2"/>
  </g>
 </g>
</svg>