<svg width="80" height="80" xmlns="http://www.w3.org/2000/svg">
 <defs>
  <style type="text/css">
   <![CDATA[
    .str0 {stroke:#332C2B;stroke-width:0.2}
    .fil0 {fill:#332C2B}
    .fil4 {fill:#5F5D5D}
    .fil1 {fill:#FEFEFE}
    .fil2 {fill:#48678E}
    .fil3 {fill:#5F5D5D;fill-rule:nonzero}
   ]]>
  </style>
 </defs>
 <g>
  <title>background</title>
  <rect fill="none" id="canvas_background" height="82" width="82" y="-1" x="-1"/>
 </g>
 <g>
  <title>Pigsty Logo</title>
  <g id="pigsty-logo">
   <metadata transform="translate(7.476635456085205,3.7383177280426025) translate(1.6822429895401,-1.3084112405776978) translate(-121,-66) " id="CorelCorpID_0Corel-Layer"/>
   <path id="svg_1" d="m31.768878,44.937906c-0.4493,-0.135 -0.8902,-0.2973 -1.3197,-0.4863l-0.0066,0.0054c-0.6666,0.5367 -1.2923,1.1365 -1.8794,1.7726c0.1955,-0.129 0.407,-0.24 0.6314,-0.3304c0.3666,-0.1479 0.7461,-0.2477 1.13,-0.3379c0.4979,-0.1169 0.9861,-0.3374 1.4443,-0.6234zm-4.3507,2.6315c-0.1672,0.2102 -0.3307,0.4221 -0.4908,0.6349c-0.7798,1.0372 -1.7035,2.0598 -2.8247,2.7325c-1.1555,0.6932 -2.4666,0.9625 -3.7832,0.6071c-0.4387,-0.1184 -0.8545,-0.2998 -1.2427,-0.5355c-1.8123,-1.1006 -2.5407,-2.9147 -3.6803,-4.5608c-1.4709,-2.1245 -2.5508,-4.7526 -3.4226,-7.179c-1.1284,-3.1402 -2.0036,-6.3857 -2.6351,-9.6617c-1.2299,-6.3801 -2.3621,-17.4824 3.7358,-21.771c3.1187,-2.1933 6.8736,-2.8928 10.6276,-2.692c2.6717,0.1429 5.3746,0.7292 7.8999,1.6047l0.6601,0.2288c3.6059,-2.1629 7.8622,-2.3381 11.9298,-1.4657l3.0394,-0.7016c6.0283,-1.3914 15.5413,0.9548 19.4748,5.9343c3.7603,4.7604 1.6072,12.9705 -0.2522,18.1449c-1.4273,3.9718 -3.2945,8.0033 -5.5592,11.5678l-0.8143,1.2816c0.6456,0.995 2.3121,0.463 3.3321,0.2587c0.4584,-0.0918 0.9204,-0.1655 1.3893,-0.1658c1.3332,-0.001 2.5274,0.7034 2.9873,1.9902c0.4731,1.3238 -0.0463,2.607 -1.0762,3.4857c-0.3156,0.2693 -0.658,0.5017 -1.008,0.7233c-2.6598,1.6846 -7.1143,2.4153 -10.1675,1.64c-0.4054,-0.103 -0.7885,-0.2751 -1.1333,-0.509c-0.0378,0.0188 -0.0758,0.0372 -0.1141,0.0552c-1.585,0.7446 -3.2216,0.8388 -4.8466,0.152c-0.6198,-0.2618 -1.1541,-0.6071 -1.7206,-0.9613c-0.0452,-0.0282 -0.0953,-0.0601 -0.148,-0.0927c-0.1907,0.1086 -0.3777,0.2355 -0.5308,0.3378c-0.6972,0.4659 -1.3516,0.9158 -2.1296,1.246c-1.8909,0.8027 -3.7773,0.6059 -5.5873,-0.302c-0.0281,-0.0141 -0.0561,-0.0285 -0.0838,-0.043c-2.1939,2.2638 -5.3679,2.8542 -8.5307,2.3301c-0.2967,-0.0492 -0.5916,-0.1014 -0.8835,-0.1745c-1.4451,-0.3618 -2.5563,-1.2436 -2.6405,-2.8381c-0.0248,-0.4684 0.0589,-0.9073 0.2295,-1.3019z" class="fil0"/>
   <path id="svg_2" d="m34.784878,44.094906c-1.6715,-0.2909 -2.5639,-0.2563 -4.5237,-1.329l-0.7163,0.5768c-1.4164,1.1405 -2.6715,2.5524 -3.7614,4.002c-0.6578,0.8749 -1.4699,1.797 -2.4172,2.3654c-0.82,0.4919 -1.7354,0.706 -2.6741,0.4526c-2.0353,-0.5494 -3.0199,-2.9411 -4.1194,-4.5293c-1.3683,-1.9763 -2.4421,-4.593 -3.2525,-6.8484c-1.099,-3.0582 -1.9617,-6.2584 -2.5767,-9.4486c-1.088,-5.6445 -2.337,-16.4679 3.154,-20.3297c2.8517,-2.0056 6.3028,-2.6168 9.728,-2.4336c2.5268,0.1351 5.117,0.699 7.5076,1.5278l1.3143,0.4556c3.274,-2.2234 7.3672,-2.5798 11.7508,-1.5775l3.3547,-0.7743c5.4838,-1.2656 14.4489,0.8934 18.0301,5.427c3.3686,4.2645 1.1693,12.1957 -0.476,16.774c-1.5814,4.4007 -3.8909,9.485 -6.7879,13.2482c1.6497,2.5421 2.0731,2.4082 5.3742,1.7468c0.3578,-0.0716 0.7439,-0.1376 1.1094,-0.1379c0.716,-0.0005 1.3821,0.3226 1.6387,1.0408c0.2733,0.7648 -0.0935,1.4344 -0.6575,1.9156c-0.2606,0.2223 -0.5556,0.4199 -0.8448,0.603c-2.3312,1.4767 -6.3863,2.1383 -9.0497,1.462c-0.3027,-0.0769 -0.5837,-0.2171 -0.8268,-0.4133c-0.1897,-0.1532 -0.3471,-0.3306 -0.4739,-0.5251c-0.2652,0.2228 -0.5648,0.4154 -0.9073,0.5763c-1.2213,0.5737 -2.4306,0.6577 -3.6813,0.1292c-0.5463,-0.2309 -1.0197,-0.5445 -1.5191,-0.8567c-0.2639,-0.1649 -0.5536,-0.3421 -0.8489,-0.446c-0.0059,-0.002 -0.0135,-0.0047 -0.0208,-0.0066c-0.4854,0.144 -0.945,0.4423 -1.3626,0.7214c-0.6172,0.4125 -1.2048,0.8262 -1.8936,1.1185c-1.5003,0.6368 -2.9508,0.4564 -4.3866,-0.2638c-0.3734,-0.1873 -0.6997,-0.4269 -0.9823,-0.7153c-1.817,2.7049 -4.9156,3.3874 -8.0399,2.8697c-0.9806,-0.1625 -2.2614,-0.396 -2.329,-1.6764c-0.0404,-0.7636 0.4527,-1.3036 1.1123,-1.5696c0.2926,-0.118 0.6149,-0.1998 0.9218,-0.2718c1.6022,-0.3762 3.1049,-1.5374 4.1334,-2.8598z" class="fil1"/>
   <path id="svg_3" d="m47.874878,7.599006c5.0368,-1.1625 13.4067,0.8956 16.5855,4.9198c4.3618,5.5216 -2.0889,20.2781 -5.9812,26.4038c0.6941,-2.0301 0.5879,-5.0823 0.4028,-6.9667c-0.3622,-3.9405 1.0779,-9.6818 -0.189,-12.8033c-1.7035,-4.1978 -4.5586,-7.6786 -8.3744,-10.1654c-0.7151,-0.4661 -1.5597,-0.9522 -2.4437,-1.3882zm-17.2103,1.8538c-3.0748,-1.0659 -10.585,-3.0444 -15.9437,0.7243c-7.4025,5.2061 -1.4064,28.2359 3.0285,34.6418c1.7037,2.4609 3.1045,6.7012 6.8905,1.6659c1.5085,-2.0064 2.8905,-3.357 4.0076,-4.2566c-1.7676,-1.5476 -2.9997,-3.688 -3.2732,-6.1703c-0.2483,-2.2537 -0.0903,-4.4544 0.0951,-6.7024c0.2009,-2.4348 -0.1408,-4.4933 -0.0314,-7.0299c0.1338,-3.1044 1.2741,-6.9689 2.7961,-9.6333c0.7187,-1.2581 1.5336,-2.334 2.4305,-3.2395zm33.31,35.351c-1.3511,0.2706 -3.3583,0.5234 -4.9321,0.0902c-0.4517,-0.1243 -0.868,-0.3053 -1.2227,-0.5587c-2.3186,-0.6442 -2.765,2.2605 -1.5779,2.562c1.9387,0.4923 5.6534,0.1593 7.9316,-1.2839c0.9341,-0.5916 1.5817,-1.1663 -0.1989,-0.8096zm-32.7942,4.257c2.0711,0.3432 5.192,0.2777 6.844,-2.6194c0,0 0.0801,-0.1384 0.1534,-0.3646l0.0157,-0.1665c-0.2156,-0.8918 -0.7709,-1.5997 -1.7875,-1.5368c-0.0204,0.0013 -0.0407,0.0019 -0.0611,0.003c-0.4565,0.6852 -2.3456,3.2619 -5.3662,3.9712c-1.4449,0.3392 -1.0796,0.5008 0.2017,0.7131zm-4.0847,-26.6367c0,0 0.9087,-18.7028 17.567,-13.8567c0,0 9.1622,2.1959 12.7967,12.1152l0.0404,0.0991c-0.1558,-0.0029 -0.3322,-0.0066 -0.4789,-0.0104c-1.5443,-0.0402 -3.3733,-0.0877 -4.6799,0.4285c-0.6212,0.2454 -1.1365,0.5761 -1.5564,0.9802c-1.0184,0.9801 -1.4157,2.3288 -1.3638,3.8978c0.0477,1.4427 0.478,3.0722 1.1443,4.7585c1.4581,3.6902 4.3537,8.206 6.5539,11.5965c-2.7307,0.3309 -1.8532,3.1644 -4.0457,4.1941c-2.2987,1.08 -3.3521,-0.6608 -4.9665,-1.2282c-0.2779,-0.0977 -0.5726,-0.1252 -0.8908,-0.0319c-2.2722,0.6668 -3.4514,3.2542 -6.6058,1.6722c-2.2595,-1.1337 -0.6993,-4.7679 -5.1469,-4.4927c-0.0402,0.0025 -0.0806,0.0042 -0.121,0.006c0.2466,-1.3856 0.7754,-2.5196 1.3074,-3.6604c0.0918,-0.1971 0.1843,-0.3953 0.3389,-0.7372c0.6773,-1.4979 1.0466,-2.9413 1.2429,-4.4147c0.1915,-1.4374 0.2139,-2.891 0.1995,-4.4521c-0.0366,-3.9598 -0.9197,-6.5652 -3.1339,-7.5629c-1.8261,-0.8228 -4.4775,-0.4283 -8.2295,1.3521l0.0281,-0.653zm11.9748,16.8811c0,0 -1.1365,4.8544 2.1558,6.5058c3.2923,1.6513 4.7131,-3.8764 8.4783,-1.0694c6.1264,4.5673 6.6364,-11.6274 -3.4639,-11.4423c-5.4564,0.1 -7.1702,6.0059 -7.1702,6.0059zm12.6911,0.5378c0.0332,-2.8751 -3.9948,-1.9951 -2.9603,0.2848c0.8205,1.8086 2.5475,1.6231 2.9603,-0.2848zm-8.8179,-0.8278c1.3295,-3.2349 5.4212,-0.335 3.1792,1.7261c-1.7783,1.6349 -3.6238,0.6063 -3.1792,-1.7261zm14.6483,-16.5183l0.0569,0.7792c0,0 -0.833,4.0507 -0.4165,8.8968c0,0 0.4566,4.6382 -0.4321,6.3639c-1.7308,-2.5155 -3.5333,-5.5331 -4.6388,-8.3311c-0.6022,-1.524 -0.99,-2.9622 -1.0303,-4.1816c-0.0362,-1.093 0.2082,-2.0013 0.8406,-2.6099c0.2564,-0.2468 0.5868,-0.455 0.9997,-0.6181c0.9944,-0.3928 2.629,-0.3503 4.0091,-0.3144c0.2156,0.0056 0.4263,0.0111 0.6114,0.0152zm-2.0745,2.388c-0.6856,0.4394 -2.0392,1.0723 -2.7774,-0.1758c-0.5293,-0.8947 0.7483,-1.3559 1.9157,-1.3704c1.3501,-0.0166 1.907,0.8762 0.8617,1.5462zm-21.9045,17.5537c-3.1326,-0.5451 -6.1818,-2.9021 -6.5926,-6.6314c-0.4922,-4.4675 0.7948,-8.8971 -0.0381,-10.7523l0.0013,-0.0286c3.697,-1.8849 6.1327,-2.4038 7.6093,-1.7385c1.4973,0.6748 2.0977,2.7593 2.1277,6.0135c0.0138,1.4901 -0.0069,2.8728 -0.1861,4.2173c-0.1744,1.3087 -0.5037,2.5937 -1.1087,3.9318c-0.0661,0.1464 -0.1992,0.4316 -0.3323,0.7171c-0.612,1.3122 -1.2202,2.6165 -1.4805,4.2711zm-1.384,-16.9155c0.7383,0.4732 2.196,1.1546 2.991,-0.1894c0.57,-0.9634 -0.8058,-1.4601 -2.0629,-1.4757c-1.454,-0.0179 -2.0538,0.9435 -0.9281,1.6651z" class="fil2"/>
   <path id="svg_4" d="m24.463878,57.953906c0.2583,-0.0041 0.4878,-0.0697 0.6968,-0.1927c0.205,-0.1271 0.3689,-0.2951 0.4919,-0.5083c0.123,-0.209 0.1844,-0.4427 0.1885,-0.7009c-0.0041,-0.2582 -0.0655,-0.4877 -0.1885,-0.6968c-0.123,-0.205 -0.2869,-0.3689 -0.4919,-0.4918c-0.209,-0.123 -0.4385,-0.1845 -0.6968,-0.1886c-0.2664,0.0041 -0.5041,0.0656 -0.7132,0.1886c-0.209,0.1229 -0.3771,0.2868 -0.5001,0.4918c-0.1229,0.2091 -0.1844,0.4386 -0.1885,0.6968c0.0041,0.2582 0.0656,0.4919 0.1885,0.7009c0.123,0.2132 0.2911,0.3812 0.5001,0.5083c0.2091,0.123 0.4468,0.1886 0.7132,0.1927zm-1.0575,13.0836l2.115,0l0,-11.2638l-2.115,0l0,11.2638z" class="fil3"/>
   <path id="svg_5" d="m36.827878,59.773906l0,1.3035c-0.3526,-0.2992 -0.7337,-0.5615 -1.1395,-0.7952c-0.4058,-0.2336 -0.8321,-0.414 -1.2789,-0.5492c-0.4427,-0.1353 -0.9018,-0.2009 -1.369,-0.205c-0.7911,0 -1.5453,0.1476 -2.2585,0.4345c-0.7091,0.2869 -1.3526,0.7091 -1.9224,1.2625c-0.5575,0.5697 -0.9796,1.2132 -1.2747,1.9223c-0.2951,0.7133 -0.4427,1.4675 -0.4468,2.2585c0.0041,0.7911 0.1517,1.5453 0.4468,2.2585c0.2951,0.7091 0.7172,1.3527 1.2747,1.9224c0.5698,0.5534 1.2133,0.9755 1.9224,1.2625c0.7132,0.2869 1.4674,0.4345 2.2585,0.4345c0.4672,-0.0041 0.9263,-0.0697 1.369,-0.2049c0.4468,-0.1353 0.8731,-0.3157 1.2789,-0.5493c0.4058,-0.2337 0.7869,-0.496 1.1395,-0.7952l0,1.8445c-0.0041,0.5247 -0.1025,1.0206 -0.2993,1.4797c-0.1926,0.4632 -0.4631,0.8689 -0.8115,1.2214c-0.3443,0.3525 -0.746,0.6313 -1.201,0.8321c-0.4591,0.1968 -0.9509,0.2992 -1.4756,0.3033c-0.3074,-0.0163 -0.6149,-0.0696 -0.9263,-0.1557c-0.3157,-0.0902 -0.619,-0.2049 -0.91,-0.3484c-0.291,-0.1476 -0.5534,-0.3156 -0.7952,-0.5042l-1.5986,1.4019c0.1599,0.1475 0.3321,0.2951 0.5083,0.4344c0.1804,0.1394 0.3648,0.2665 0.5492,0.3771c0.455,0.2746 0.951,0.4837 1.4838,0.6312c0.5329,0.1517 1.0985,0.2255 1.6888,0.2296c0.7911,-0.0041 1.5453,-0.1517 2.2544,-0.4468c0.7091,-0.2951 1.3445,-0.7173 1.9019,-1.2747c0.5697,-0.5616 1.0001,-1.1969 1.2993,-1.9142c0.2951,-0.7173 0.4468,-1.4715 0.4468,-2.2667l0,-11.8049l-2.115,0zm-3.7874,9.444c-0.5246,-0.0042 -1.0166,-0.1025 -1.4756,-0.3034c-0.455,-0.1967 -0.8566,-0.4673 -1.201,-0.8198c-0.3484,-0.3484 -0.6189,-0.7542 -0.8115,-1.2092c-0.1968,-0.459 -0.2952,-0.955 -0.2993,-1.4797c0.0041,-0.5246 0.1025,-1.0206 0.2993,-1.4797c0.1926,-0.455 0.4631,-0.8608 0.8115,-1.2092c0.3444,-0.3525 0.746,-0.623 1.201,-0.8238c0.459,-0.1967 0.951,-0.2951 1.4756,-0.2992c0.5247,0.0041 1.0165,0.1025 1.4756,0.2992c0.455,0.2008 0.8567,0.4713 1.201,0.8238c0.3484,0.3484 0.6189,0.7501 0.8115,1.2092c0.1968,0.4591 0.2952,0.9551 0.2993,1.4797c-0.0041,0.5247 -0.1025,1.0207 -0.2993,1.4757c-0.1926,0.459 -0.4631,0.8648 -0.8115,1.2132c-0.3443,0.3525 -0.746,0.6231 -1.201,0.8198c-0.4591,0.2009 -0.9509,0.2992 -1.4756,0.3034z" class="fil3"/>
   <path id="svg_6" d="m55.530878,71.037906l2.4839,0l-0.541,-2.0166l-1.8937,0c-0.2992,-0.0041 -0.5738,-0.0902 -0.828,-0.2582c-0.25,-0.164 -0.455,-0.3812 -0.6066,-0.6477c-0.1558,-0.2705 -0.2337,-0.5574 -0.2378,-0.8648l0,-5.4598l3.4677,0l0,-2.0167l-3.4677,0l0,-4.353l-2.115,0l0,4.353l-1.6723,0l0,2.0167l1.6723,0l0,5.5089c0.0041,0.5247 0.1025,1.0125 0.2951,1.4675c0.1927,0.4509 0.4591,0.8443 0.7993,1.1845c0.3402,0.3402 0.7378,0.6066 1.1887,0.7952c0.4509,0.1926 0.9346,0.2869 1.4551,0.291z" class="fil3"/>
   <polygon id="svg_7" points="70.7228741645813,59.773908853530884 68.43587160110474,59.773908853530884 65.01688051223755,68.23390793800354 61.598881244659424,59.773908853530884 59.31187868118286,59.773908853530884 63.885883808135986,71.03790879249573 61.2538800239563,77.48190903663635 63.541874408721924,77.48190903663635 " class="fil3"/>
   <path id="svg_8" d="m11.484878,53.527906l1.5074,0l4.2108,0c2.7277,0 4.9594,2.2316 4.9594,4.9593l0,0.0001c0,2.7276 -2.2317,4.9593 -4.9594,4.9593l-4.2108,0l0,7.5917l-2.1888,0l0,-17.5104l0.6814,0zm1.5074,7.8193l4.2294,0c1.573,0 2.8599,-1.2869 2.8599,-2.8599l0,-0.0001c0,-1.573 -1.2869,-2.8599 -2.8599,-2.8599l-4.2294,0l0,5.7199z" class="fil4"/>
   <path id="svg_9" d="m48.922878,66.297906c-0.0897,-0.1195 -0.1879,-0.2306 -0.2904,-0.3373c-0.1024,-0.1068 -0.2263,-0.2178 -0.3757,-0.3245c-0.1495,-0.1068 -0.3374,-0.2178 -0.5637,-0.3374c-0.1238,-0.0683 -0.2903,-0.1366 -0.5038,-0.2092c-0.2178,-0.0726 -0.4484,-0.1452 -0.7003,-0.2135c-0.2477,-0.0683 -0.4868,-0.1324 -0.7131,-0.1879c-0.2263,-0.0555 -0.4142,-0.0982 -0.5637,-0.1324c-0.1452,-0.0341 -0.2263,-0.0512 -0.2348,-0.0512c-0.7729,-0.1623 -1.3323,-0.3587 -1.6739,-0.5935c-0.3416,-0.2349 -0.5124,-0.5381 -0.5039,-0.9181c0.0043,-0.2349 0.0812,-0.4569 0.2306,-0.6661c0.1495,-0.2093 0.3544,-0.3801 0.6149,-0.5125c0.1793,-0.0896 0.3758,-0.1537 0.5893,-0.1964c0.2135,-0.0427 0.4355,-0.0598 0.6661,-0.0598c0.1665,-0.0042 0.38,0.0171 0.6448,0.0641c0.2647,0.0512 0.5679,0.1494 0.9052,0.2946c0.3416,0.1495 0.7046,0.3715 1.0889,0.6662l1.281,-1.486c-0.4654,-0.3715 -0.965,-0.679 -1.4988,-0.9181c-0.5337,-0.2348 -1.0846,-0.4014 -1.6525,-0.491c-0.1409,-0.0129 -0.2861,-0.0257 -0.4355,-0.0342c-0.1495,-0.0128 -0.2947,-0.0171 -0.4356,-0.0171c-0.3715,0 -0.7259,0.0384 -1.059,0.111c-0.3373,0.0769 -0.6575,0.1836 -0.965,0.3246c-0.3331,0.1537 -0.6149,0.3202 -0.854,0.5038c-0.2391,0.1879 -0.4398,0.3929 -0.6064,0.6235c-0.1793,0.269 -0.3202,0.5551 -0.4142,0.8582c-0.0982,0.3032 -0.1494,0.6149 -0.1494,0.9352c0,0.5893 0.1409,1.1187 0.4185,1.5799c0.2732,0.4654 0.6832,0.8498 1.2212,1.1615c0.1495,0.0811 0.3331,0.1622 0.5551,0.2391c0.2178,0.0726 0.4526,0.1452 0.696,0.2092c0.2477,0.0641 0.4783,0.1239 0.7003,0.1751c0.2178,0.047 0.4014,0.0897 0.5423,0.1196c0.1452,0.0299 0.2263,0.0469 0.2477,0.0512c0.7899,0.1366 1.3707,0.3331 1.7379,0.5893c0.3672,0.2519 0.5466,0.5807 0.5423,0.9735c-0.0043,0.2648 -0.0598,0.4868 -0.1665,0.6662c-0.1025,0.1793 -0.2263,0.3202 -0.3673,0.427c-0.1409,0.111 -0.2732,0.1879 -0.3885,0.2391c-0.205,0.0897 -0.4228,0.158 -0.6491,0.2092c-0.2306,0.047 -0.4654,0.0726 -0.7088,0.0726c-0.2391,0.0043 -0.5252,-0.0299 -0.854,-0.1025c-0.3288,-0.0725 -0.6918,-0.2092 -1.0932,-0.4099c-0.4014,-0.2007 -0.8284,-0.491 -1.281,-0.8711l-1.3835,1.5116c0.5167,0.4356 1.0675,0.7943 1.6611,1.0761c0.5892,0.2818 1.2041,0.4868 1.8489,0.6149c0.205,0.0384 0.4057,0.0683 0.6021,0.0939c0.1964,0.0214 0.3971,0.0342 0.6021,0.0342c0.3757,0 0.7387,-0.0384 1.0974,-0.111c0.3587,-0.0769 0.6917,-0.1837 1.0034,-0.3246c0.3459,-0.1665 0.6491,-0.3544 0.9053,-0.5636c0.2605,-0.2092 0.4782,-0.4484 0.6576,-0.7174c0.1921,-0.269 0.333,-0.5636 0.427,-0.8753c0.0897,-0.3118 0.1366,-0.6363 0.1366,-0.9694c0,-0.333 -0.0427,-0.6533 -0.1323,-0.9564c-0.0897,-0.299 -0.2264,-0.5808 -0.4057,-0.837z" class="fil3"/>
   <g id="_394016656">
    <polygon points="10.776874780654907,23.22620987892151 14.15987777709961,23.17190384864807 14.182880401611328,24.60230851173401 10.799877405166626,24.656606912612915 " class="fil0 str0" id="_273490144"/>
    <g id="svg_10">
     <path d="m24.418878,22.700406l0.0292,1.8145l1.8943,-0.0304l0.0264,1.643l1.6623,-0.0267l0.0286,1.7784l1.7397,-0.0279l0.0251,1.5657l12.1777,-0.1955l-0.0248,-1.5463l1.817,-0.0292l-0.0286,-1.7784l1.6237,-0.026l-0.0304,-1.8943c0,0 3.694,0.0567 3.6922,-0.0593c-0.0019,-0.116 0.0288,1.7977 0.0288,1.7977l1.6431,-0.0264l0.0279,1.7398l12.1585,-0.1952l-0.028,-1.7396l1.7397,-0.028l-0.0242,-1.5077l1.2984,-0.0208l0,-3.3039l-41.499,0.6661l-10.2641,0.1647l0.0229,1.4304l10.2636,-0.1647z" class="fil0" id="_273494440"/>
     <polygon points="34.98387575149536,26.115110635757446 36.6338849067688,26.088606119155884 36.6598858833313,27.739004373550415 35.00987672805786,27.765508890151978 34.98387575149536,26.115110635757446 33.33287477493286,26.141607522964478 33.30687379837036,24.491209268569946 31.37987184524536,24.52210831642151 31.348881244659424,22.589109659194946 33.281879901885986,22.558103799819946 33.312885761260986,24.49111008644104 34.9568829536438,24.464704751968384 " class="fil1 str0" id="_391227008"/>
     <polygon points="52.435871601104736,24.17111039161682 54.085880756378174,24.14460587501526 54.111881732940674,25.79500412940979 52.461872577667236,25.821508646011353 52.435871601104736,24.17111039161682 50.502872943878174,24.20210862159729 50.471882343292236,22.269109964370728 52.403873920440674,22.238104104995728 " class="fil1 str0" id="_396389344"/>
    </g>
   </g>
   <polygon id="svg_11" points="55.62088441848755,24.113508462905884 57.26488161087036,24.08711075782776 57.291874408721924,25.737608194351196 55.64188051223755,25.76400589942932 55.614872455596924,24.11360764503479 53.687885761260986,24.14460587501526 53.656879901885986,22.211607217788696 55.58987855911255,22.18050980567932 " class="fil1 str0"/>
   <polygon id="svg_12" points="27.362873554229736,22.646703958511353 29.2958722114563,22.615705728530884 29.3268780708313,24.548704385757446 30.9778790473938,24.522207498550415 31.0038800239563,26.172605752944946 32.653873920440674,26.146108865737915 32.6808819770813,27.796507120132446 31.03087282180786,27.823004007339478 31.0038800239563,26.172605752944946 29.353886127471924,26.19911026954651 29.3268780708313,24.548704385757446 27.393879413604736,24.579710245132446 " class="fil1 str0"/>
  </g>
 </g>
</svg>