<svg width="80" height="60" xmlns="http://www.w3.org/2000/svg">
 <defs>
  <style type="text/css">
   <![CDATA[
    .str0 {stroke:#332C2B;stroke-width:0.2}
    .fil3 {fill:none}
    .fil0 {fill:#332C2B}
    .fil1 {fill:#FEFEFE}
    .fil2 {fill:#48678E}
   ]]>
  </style>
 </defs>
 <g>
  <title>background</title>
  <rect fill="none" id="canvas_background" height="62" width="82" y="-1" x="-1"/>
 </g>
 <g>
  <title>Layer 1</title>
  <g id="图层_x0020_1">
   <metadata transform="translate(-59,-14) translate(-1,0) translate(-1,0) translate(-1,0) translate(-1,0) translate(-1,0) translate(-1,0) translate(-1,0) translate(-1,0) translate(-1,0) translate(-1,0) translate(-1,0) translate(-1,0) translate(-1,0) translate(-1,0) translate(-1,0) translate(-1,0) translate(0,-1) translate(0,-1) translate(0,-1) translate(0,-1) translate(0,-1) translate(0,-1) translate(0,-1) translate(0,-1) translate(0,-1) translate(0,-1) translate(0,-1) translate(0,-1) translate(0,-1) translate(0,-1) translate(0,-1) translate(0,-1) translate(0,-1) translate(0,-1) translate(0,-1) translate(0,-1) translate(0,-1) translate(0,-1) translate(0,-1) translate(0,-1) translate(0,-1) translate(0,-1) translate(0,-1) translate(0,-1) translate(0,-1) translate(0,-1) translate(0,-1) translate(0,-1) translate(0,-1) translate(0,-1) translate(0,-1) translate(0,-1) translate(0,-1) translate(0,-1) translate(0,-1) translate(0,-1) translate(0,-1) translate(0,-1) translate(0,-1) translate(0,-1) translate(0,-1) translate(0,-1) translate(0,-1) translate(0,-1) translate(0,-1) translate(0,-1) translate(0,-1) translate(0,-1) translate(0,-1) translate(0,-1) translate(0,-1) translate(0,-1) translate(0,-1) translate(-1,0) translate(-1,0) translate(-1,0) translate(-1,0) translate(-1,0) translate(-1,0) translate(-1,0) translate(-1,0) translate(-1,0) translate(-1,0) translate(-1,0) translate(-1,0) translate(-1,0) translate(-1,0) translate(-1,0) translate(-1,0) translate(-1,0) translate(-1,0) translate(-1,0) translate(-1,0) translate(-1,0) translate(-1,0) translate(-1,0) translate(-1,0) translate(-1,0) translate(-1,0) translate(-1,0) translate(-1,0) translate(-1,0) translate(-1,0) translate(-1,0) translate(-1,0) translate(-1,0) translate(-1,0) translate(-1,0) " id="CorelCorpID_0Corel-Layer"/>
   <g id="_396393064">
    <path d="m32.008,47.293c-0.4493,-0.135 -0.8902,-0.2973 -1.3197,-0.4863l-0.0066,0.0054c-0.6666,0.5367 -1.2923,1.1365 -1.8794,1.7726c0.1955,-0.129 0.407,-0.24 0.6314,-0.3304c0.3666,-0.1479 0.7461,-0.2477 1.13,-0.3379c0.4979,-0.1169 0.9861,-0.3374 1.4443,-0.6234zm-4.3507,2.6315c-0.1672,0.2102 -0.3307,0.4221 -0.4908,0.6349c-0.7798,1.0372 -1.7035,2.0598 -2.8247,2.7325c-1.1555,0.6932 -2.4666,0.9625 -3.7832,0.6071c-0.4387,-0.1184 -0.8545,-0.2998 -1.2427,-0.5355c-1.8123,-1.1006 -2.5407,-2.9147 -3.6803,-4.5608c-1.4709,-2.1245 -2.5508,-4.7526 -3.4226,-7.179c-1.1284,-3.1402 -2.0036,-6.3857 -2.6351,-9.6617c-1.2299,-6.3801 -2.3621,-17.4824 3.7358,-21.771c3.1187,-2.1933 6.8736,-2.8928 10.6276,-2.692c2.6717,0.1429 5.3746,0.7292 7.8999,1.6047l0.6601,0.2288c3.6059,-2.1629 7.8622,-2.3381 11.9298,-1.4657l3.0394,-0.7016c6.0283,-1.3914 15.5413,0.9548 19.4748,5.9343c3.7603,4.7604 1.6072,12.9705 -0.2522,18.1449c-1.4273,3.9718 -3.2945,8.0033 -5.5592,11.5678l-0.8143,1.2816c0.6456,0.995 2.3121,0.463 3.3321,0.2587c0.4584,-0.0918 0.9204,-0.1655 1.3893,-0.1658c1.3332,-0.001 2.5274,0.7034 2.9873,1.9902c0.4731,1.3238 -0.0463,2.607 -1.0762,3.4857c-0.3156,0.2693 -0.658,0.5017 -1.008,0.7233c-2.6598,1.6846 -7.1143,2.4153 -10.1675,1.64c-0.4054,-0.103 -0.7885,-0.2751 -1.1333,-0.509c-0.0378,0.0188 -0.0758,0.0372 -0.1141,0.0552c-1.585,0.7446 -3.2216,0.8388 -4.8466,0.152c-0.6198,-0.2618 -1.1541,-0.6071 -1.7206,-0.9613c-0.0452,-0.0282 -0.0953,-0.0601 -0.148,-0.0927c-0.1907,0.1086 -0.3777,0.2355 -0.5308,0.3378c-0.6972,0.4659 -1.3516,0.9158 -2.1296,1.246c-1.8909,0.8027 -3.7773,0.6059 -5.5873,-0.302c-0.0281,-0.0141 -0.0561,-0.0285 -0.0838,-0.043c-2.1939,2.2638 -5.3679,2.8542 -8.5307,2.3301c-0.2967,-0.0492 -0.5916,-0.1014 -0.8835,-0.1745c-1.4451,-0.3618 -2.5563,-1.2436 -2.6405,-2.8381c-0.0248,-0.4684 0.0589,-0.9073 0.2295,-1.3019z" class="fil0" id="_394011448"/>
    <path d="m35.025,46.449c-1.6715,-0.2909 -2.5639,-0.2563 -4.5237,-1.329l-0.7163,0.5768c-1.4164,1.1405 -2.6715,2.5524 -3.7614,4.002c-0.6578,0.8749 -1.4699,1.797 -2.4172,2.3654c-0.82,0.4919 -1.7354,0.706 -2.6741,0.4526c-2.0353,-0.5494 -3.0199,-2.9411 -4.1194,-4.5293c-1.3683,-1.9763 -2.4421,-4.593 -3.2525,-6.8484c-1.099,-3.0582 -1.9617,-6.2584 -2.5767,-9.4486c-1.088,-5.6445 -2.337,-16.4679 3.154,-20.3297c2.8517,-2.0056 6.3028,-2.6168 9.728,-2.4336c2.5268,0.1351 5.117,0.699 7.5076,1.5278l1.3143,0.4556c3.274,-2.2234 7.3672,-2.5798 11.7508,-1.5775l3.3547,-0.7743c5.4838,-1.2656 14.4489,0.8934 18.0301,5.427c3.3686,4.2645 1.1693,12.1957 -0.476,16.774c-1.5814,4.4007 -3.8909,9.485 -6.7879,13.2482c1.6497,2.5421 2.0731,2.4082 5.3742,1.7468c0.3578,-0.0716 0.7439,-0.1376 1.1094,-0.1379c0.716,-0.0005 1.3821,0.3226 1.6387,1.0408c0.2733,0.7648 -0.0935,1.4344 -0.6575,1.9156c-0.2606,0.2223 -0.5556,0.4199 -0.8448,0.603c-2.3312,1.4767 -6.3863,2.1383 -9.0497,1.462c-0.3027,-0.0769 -0.5837,-0.2171 -0.8268,-0.4133c-0.1897,-0.1532 -0.3471,-0.3306 -0.4739,-0.5251c-0.2652,0.2228 -0.5648,0.4154 -0.9073,0.5763c-1.2213,0.5737 -2.4306,0.6577 -3.6813,0.1292c-0.5463,-0.2309 -1.0197,-0.5445 -1.5191,-0.8567c-0.2639,-0.1649 -0.5536,-0.3421 -0.8489,-0.446c-0.0059,-0.002 -0.0135,-0.0047 -0.0208,-0.0066c-0.4854,0.144 -0.945,0.4423 -1.3626,0.7214c-0.6172,0.4125 -1.2048,0.8262 -1.8936,1.1185c-1.5003,0.6368 -2.9508,0.4564 -4.3866,-0.2638c-0.3734,-0.1873 -0.6997,-0.4269 -0.9823,-0.7153c-1.817,2.7049 -4.9156,3.3874 -8.0399,2.8697c-0.9806,-0.1625 -2.2614,-0.396 -2.329,-1.6764c-0.0404,-0.7636 0.4527,-1.3036 1.1123,-1.5696c0.2926,-0.118 0.6149,-0.1998 0.9218,-0.2718c1.6022,-0.3762 3.1049,-1.5374 4.1334,-2.8598z" class="fil1" id="_273488248"/>
    <path d="m48.114,9.9534c5.0368,-1.1625 13.4067,0.8956 16.5855,4.9198c4.3618,5.5216 -2.0889,20.2781 -5.9812,26.4038c0.6941,-2.0301 0.5879,-5.0823 0.4028,-6.9667c-0.3622,-3.9405 1.0779,-9.6818 -0.189,-12.8033c-1.7035,-4.1978 -4.5586,-7.6786 -8.3744,-10.1654c-0.7151,-0.4661 -1.5597,-0.9522 -2.4437,-1.3882zm-17.2103,1.8538c-3.0748,-1.0659 -10.585,-3.0444 -15.9437,0.7243c-7.4025,5.2061 -1.4064,28.2359 3.0285,34.6418c1.7037,2.4609 3.1045,6.7012 6.8905,1.6659c1.5085,-2.0064 2.8905,-3.357 4.0076,-4.2566c-1.7676,-1.5476 -2.9997,-3.688 -3.2732,-6.1703c-0.2483,-2.2537 -0.0903,-4.4544 0.0951,-6.7024c0.2009,-2.4348 -0.1408,-4.4933 -0.0314,-7.0299c0.1338,-3.1044 1.2741,-6.9689 2.7961,-9.6333c0.7187,-1.2581 1.5336,-2.334 2.4305,-3.2395zm33.31,35.351c-1.3511,0.2706 -3.3583,0.5234 -4.9321,0.0902c-0.4517,-0.1243 -0.868,-0.3053 -1.2227,-0.5587c-2.3186,-0.6442 -2.765,2.2605 -1.5779,2.562c1.9387,0.4923 5.6534,0.1593 7.9316,-1.2839c0.9341,-0.5916 1.5817,-1.1663 -0.1989,-0.8096zm-32.7942,4.257c2.0711,0.3432 5.192,0.2777 6.844,-2.6194c0,0 0.0801,-0.1384 0.1534,-0.3646l0.0157,-0.1665c-0.2156,-0.8918 -0.7709,-1.5997 -1.7875,-1.5368c-0.0204,0.0013 -0.0407,0.0019 -0.0611,0.003c-0.4565,0.6852 -2.3456,3.2619 -5.3662,3.9712c-1.4449,0.3392 -1.0796,0.5008 0.2017,0.7131zm-4.0847,-26.6367c0,0 0.9087,-18.7028 17.567,-13.8567c0,0 9.1622,2.1959 12.7967,12.1152l0.0404,0.0991c-0.1558,-0.0029 -0.3322,-0.0066 -0.4789,-0.0104c-1.5443,-0.0402 -3.3733,-0.0877 -4.6799,0.4285c-0.6212,0.2454 -1.1365,0.5761 -1.5564,0.9802c-1.0184,0.9801 -1.4157,2.3288 -1.3638,3.8978c0.0477,1.4427 0.478,3.0722 1.1443,4.7585c1.4581,3.6902 4.3537,8.206 6.5539,11.5965c-2.7307,0.3309 -1.8532,3.1644 -4.0457,4.1941c-2.2987,1.08 -3.3521,-0.6608 -4.9665,-1.2282c-0.2779,-0.0977 -0.5726,-0.1252 -0.8908,-0.0319c-2.2722,0.6668 -3.4514,3.2542 -6.6058,1.6722c-2.2595,-1.1337 -0.6993,-4.7679 -5.1469,-4.4927c-0.0402,0.0025 -0.0806,0.0042 -0.121,0.006c0.2466,-1.3856 0.7754,-2.5196 1.3074,-3.6604c0.0918,-0.1971 0.1843,-0.3953 0.3389,-0.7372c0.6773,-1.4979 1.0466,-2.9413 1.2429,-4.4147c0.1915,-1.4374 0.2139,-2.891 0.1995,-4.4521c-0.0366,-3.9598 -0.9197,-6.5652 -3.1339,-7.5629c-1.8261,-0.8228 -4.4775,-0.4283 -8.2295,1.3521l0.0281,-0.653zm11.9748,16.8811c0,0 -1.1365,4.8544 2.1558,6.5058c3.2923,1.6513 4.7131,-3.8764 8.4783,-1.0694c6.1264,4.5673 6.6364,-11.6274 -3.4639,-11.4423c-5.4564,0.1 -7.1702,6.0059 -7.1702,6.0059zm12.6911,0.5378c0.0332,-2.8751 -3.9948,-1.9951 -2.9603,0.2848c0.8205,1.8086 2.5475,1.6231 2.9603,-0.2848zm-8.8179,-0.8278c1.3295,-3.2349 5.4212,-0.335 3.1792,1.7261c-1.7783,1.6349 -3.6238,0.6063 -3.1792,-1.7261zm14.6483,-16.5183l0.0569,0.7792c0,0 -0.833,4.0507 -0.4165,8.8968c0,0 0.4566,4.6382 -0.4321,6.3639c-1.7308,-2.5155 -3.5333,-5.5331 -4.6388,-8.3311c-0.6022,-1.524 -0.99,-2.9622 -1.0303,-4.1816c-0.0362,-1.093 0.2082,-2.0013 0.8406,-2.6099c0.2564,-0.2468 0.5868,-0.455 0.9997,-0.6181c0.9944,-0.3928 2.629,-0.3503 4.0091,-0.3144c0.2156,0.0056 0.4263,0.0111 0.6114,0.0152zm-2.0745,2.388c-0.6856,0.4394 -2.0392,1.0723 -2.7774,-0.1758c-0.5293,-0.8947 0.7483,-1.3559 1.9157,-1.3704c1.3501,-0.0166 1.907,0.8762 0.8617,1.5462zm-21.9045,17.5537c-3.1326,-0.5451 -6.1818,-2.9021 -6.5926,-6.6314c-0.4922,-4.4675 0.7948,-8.8971 -0.0381,-10.7523l0.0013,-0.0286c3.697,-1.8849 6.1327,-2.4038 7.6093,-1.7385c1.4973,0.6748 2.0977,2.7593 2.1277,6.0135c0.0138,1.4901 -0.0069,2.8728 -0.1861,4.2173c-0.1744,1.3087 -0.5037,2.5937 -1.1087,3.9318c-0.0661,0.1464 -0.1992,0.4316 -0.3323,0.7171c-0.612,1.3122 -1.2202,2.6165 -1.4805,4.2711zm-1.384,-16.9155c0.7383,0.4732 2.196,1.1546 2.991,-0.1894c0.57,-0.9634 -0.8058,-1.4601 -2.0629,-1.4757c-1.454,-0.0179 -2.0538,0.9435 -0.9281,1.6651z" class="fil2" id="_396389056"/>
    <g id="svg_1">
     <polygon points="11.016998291015625,25.580596923828125 14.400001525878906,25.52629852294922 14.422996520996094,26.956703186035156 11.040000915527344,27.011001586914062 " class="fil0 str0" id="_273490144"/>
     <g id="svg_2">
      <path d="m24.658,25.0548l0.0292,1.8145l1.8943,-0.0304l0.0264,1.643l1.6623,-0.0267l0.0286,1.7784l1.7397,-0.0279l0.0251,1.5657l12.1777,-0.1955l-0.0248,-1.5463l1.817,-0.0292l-0.0286,-1.7784l1.6237,-0.026l-0.0304,-1.8943c0,0 3.694,0.0567 3.6922,-0.0593c-0.0019,-0.116 0.0288,1.7977 0.0288,1.7977l1.6431,-0.0264l0.0279,1.7398l12.1585,-0.1952l-0.028,-1.7396l1.7397,-0.028l-0.0242,-1.5077l1.2984,-0.0208l0,-3.3039l-41.499,0.6661l-10.2641,0.1647l0.0229,1.4304l10.2636,-0.1647z" class="fil0" id="_273494440"/>
      <polygon points="35.22300720214844,28.469497680664062 36.873992919921875,28.44300079345703 36.899993896484375,30.093002319335938 35.25,30.12000274658203 35.22300720214844,28.469497680664062 33.572998046875,28.496002197265625 33.54600524902344,26.845596313476562 31.619003295898438,26.876502990722656 31.587997436523438,24.943496704101562 33.52099609375,24.912498474121094 33.552001953125,26.845497131347656 35.19700622558594,26.81909942626953 " class="fil1 str0" id="_391227008"/>
      <polygon points="52.67500305175781,26.525497436523438 54.32600402832031,26.499000549316406 54.35200500488281,28.149398803710938 52.701995849609375,28.1759033203125 52.67500305175781,26.525497436523438 50.74200439453125,26.556503295898438 50.71099853515625,24.623497009277344 52.64399719238281,24.592498779296875 " class="fil1 str0" id="_396389344"/>
     </g>
    </g>
    <polygon points="55.860992431640625,26.46790313720703 57.5050048828125,26.441497802734375 57.531005859375,28.092002868652344 55.88099670410156,28.11840057373047 55.85499572753906,26.468002319335938 53.92799377441406,26.499000549316406 53.897003173828125,24.566001892089844 55.83000183105469,24.534896850585938 " class="fil1 str0" id="_396391096"/>
    <polygon points="27.602996826171875,25.0010986328125 29.535995483398438,24.97010040283203 29.567001342773438,26.903099060058594 31.216995239257812,26.876602172851562 31.244003295898438,28.527000427246094 32.89399719238281,28.500503540039062 32.92100524902344,30.1510009765625 31.270004272460938,30.177001953125 31.244003295898438,28.527000427246094 29.593002319335938,28.553497314453125 29.567001342773438,26.903099060058594 27.634002685546875,26.934097290039062 " class="fil1 str0" id="_396388888"/>
   </g>
   <rect id="svg_3" height="162.278" width="192.617" y="-50.5462" x="-57.497" class="fil3"/>
  </g>
 </g>
</svg>