<?xml version="1.0" encoding="UTF-8" standalone="no"?>
<!DOCTYPE svg PUBLIC "-//W3C//DTD SVG 1.1//EN" "http://www.w3.org/Graphics/SVG/1.1/DTD/svg11.dtd">
<svg xmlns="http://www.w3.org/2000/svg" version="1.1" xmlns:xl="http://www.w3.org/1999/xlink" xmlns:dc="http://purl.org/dc/elements/1.1/" viewBox="-3 -4 1233 644" width="1233" height="644">
  <defs>
    <marker orient="auto" overflow="visible" markerUnits="strokeWidth" id="FilledBall_Marker" stroke-linejoin="miter" stroke-miterlimit="10" viewBox="-1 -3 6 6" markerWidth="6" markerHeight="6" color="#ff7c7b" opacity=".4409275">
      <g>
        <circle cx="1.7999992" cy="0" r="1.79999840920999" fill="currentColor" stroke="currentColor" stroke-width="1"/>
      </g>
    </marker>
    <marker orient="auto" overflow="visible" markerUnits="strokeWidth" id="Arrow_Marker" stroke-linejoin="miter" stroke-miterlimit="10" viewBox="-6 -3 7 6" markerWidth="7" markerHeight="6" color="#ff7c7b" opacity=".4409275">
      <g>
        <path d="M -4.8 0 L 0 1.8 L 0 -1.8 Z" fill="none" stroke="currentColor" stroke-width="1"/>
      </g>
    </marker>
    <marker orient="auto" overflow="visible" markerUnits="strokeWidth" id="FilledBall_Marker_2" stroke-linejoin="miter" stroke-miterlimit="10" viewBox="-1 -3 6 6" markerWidth="6" markerHeight="6" color="#a5a5a5" opacity=".558008">
      <g>
        <circle cx="1.7999992" cy="0" r="1.79999840920999" fill="currentColor" stroke="currentColor" stroke-width="1"/>
      </g>
    </marker>
    <marker orient="auto" overflow="visible" markerUnits="strokeWidth" id="Arrow_Marker_2" stroke-linejoin="miter" stroke-miterlimit="10" viewBox="-6 -3 7 6" markerWidth="7" markerHeight="6" color="#a5a5a5" opacity=".558008">
      <g>
        <path d="M -4.8 0 L 0 1.8 L 0 -1.8 Z" fill="none" stroke="currentColor" stroke-width="1"/>
      </g>
    </marker>
    <filter id="Shadow" filterUnits="userSpaceOnUse" x="-126.3" y="-68.4">
      <feGaussianBlur in="SourceAlpha" result="blur" stdDeviation="1.744"/>
      <feOffset in="blur" result="offset" dx="0" dy="2"/>
      <feFlood flood-color="black" flood-opacity=".5" result="flood"/>
      <feComposite in="flood" in2="offset" operator="in" result="color"/>
      <feMerge>
        <feMergeNode in="color"/>
        <feMergeNode in="SourceGraphic"/>
      </feMerge>
    </filter>
    <marker orient="auto" overflow="visible" markerUnits="strokeWidth" id="FilledArrow_Marker" stroke-linejoin="miter" stroke-miterlimit="10" viewBox="-1 -3 7 6" markerWidth="7" markerHeight="6" color="#ffb64d">
      <g>
        <path d="M 4.8 0 L 0 -1.8 L 0 1.8 Z" fill="currentColor" stroke="currentColor" stroke-width="1"/>
      </g>
    </marker>
    <marker orient="auto" overflow="visible" markerUnits="strokeWidth" id="FilledArrow_Marker_2" stroke-linejoin="miter" stroke-miterlimit="10" viewBox="-1 -3 7 6" markerWidth="7" markerHeight="6" color="#a90a03">
      <g>
        <path d="M 4.8 0 L 0 -1.8 L 0 1.8 Z" fill="currentColor" stroke="currentColor" stroke-width="1"/>
      </g>
    </marker>
    <marker orient="auto" overflow="visible" markerUnits="strokeWidth" id="FilledBall_Marker_3" stroke-linejoin="miter" stroke-miterlimit="10" viewBox="-1 -3 6 6" markerWidth="6" markerHeight="6" color="#949ede">
      <g>
        <circle cx="1.7999992" cy="0" r="1.79999840920999" fill="currentColor" stroke="currentColor" stroke-width="1"/>
      </g>
    </marker>
    <marker orient="auto" overflow="visible" markerUnits="strokeWidth" id="Arrow_Marker_3" stroke-linejoin="miter" stroke-miterlimit="10" viewBox="-6 -3 7 6" markerWidth="7" markerHeight="6" color="#949ede">
      <g>
        <path d="M -4.8 0 L 0 1.8 L 0 -1.8 Z" fill="none" stroke="currentColor" stroke-width="1"/>
      </g>
    </marker>
    <marker orient="auto" overflow="visible" markerUnits="strokeWidth" id="FilledBall_Marker_4" stroke-linejoin="miter" stroke-miterlimit="10" viewBox="-1 -3 6 6" markerWidth="6" markerHeight="6" color="#b55bbe">
      <g>
        <circle cx="1.7999992" cy="0" r="1.79999840920999" fill="currentColor" stroke="currentColor" stroke-width="1"/>
      </g>
    </marker>
    <marker orient="auto" overflow="visible" markerUnits="strokeWidth" id="Arrow_Marker_4" stroke-linejoin="miter" stroke-miterlimit="10" viewBox="-6 -3 7 6" markerWidth="7" markerHeight="6" color="#b55bbe">
      <g>
        <path d="M -4.8 0 L 0 1.8 L 0 -1.8 Z" fill="none" stroke="currentColor" stroke-width="1"/>
      </g>
    </marker>
    <marker orient="auto" overflow="visible" markerUnits="strokeWidth" id="Arrow_Marker_5" stroke-linejoin="miter" stroke-miterlimit="10" viewBox="-1 -3 7 6" markerWidth="7" markerHeight="6" color="#b55bbe">
      <g>
        <path d="M 4.8 0 L 0 -1.8 L 0 1.8 Z" fill="none" stroke="currentColor" stroke-width="1"/>
      </g>
    </marker>
    <marker orient="auto" overflow="visible" markerUnits="strokeWidth" id="StickArrow_Marker" stroke-linejoin="miter" stroke-miterlimit="10" viewBox="-1 -3 7 6" markerWidth="7" markerHeight="6" color="#ebebeb">
      <g>
        <path d="M 4.8 0 L 0 0 M 0 -1.8 L 4.8 0 L 0 1.8" fill="none" stroke="currentColor" stroke-width="1"/>
      </g>
    </marker>
    <marker orient="auto" overflow="visible" markerUnits="strokeWidth" id="StickArrow_Marker_2" stroke-linejoin="miter" stroke-miterlimit="10" viewBox="-6 -3 7 6" markerWidth="7" markerHeight="6" color="#ebebeb">
      <g>
        <path d="M -4.8 0 L 0 0 M 0 1.8 L -4.8 0 L 0 -1.8" fill="none" stroke="currentColor" stroke-width="1"/>
      </g>
    </marker>
    <filter id="Shadow_2" filterUnits="userSpaceOnUse" x="-126.3" y="-68.4">
      <feGaussianBlur in="SourceAlpha" result="blur" stdDeviation="1.308"/>
      <feOffset in="blur" result="offset" dx="0" dy="2"/>
      <feFlood flood-color="black" flood-opacity=".5" result="flood"/>
      <feComposite in="flood" in2="offset" operator="in" result="color"/>
      <feMerge>
        <feMergeNode in="color"/>
        <feMergeNode in="SourceGraphic"/>
      </feMerge>
    </filter>
    <marker orient="auto" overflow="visible" markerUnits="strokeWidth" id="FilledArrow_Marker_3" stroke-linejoin="miter" stroke-miterlimit="10" viewBox="-1 -4 10 8" markerWidth="10" markerHeight="8" color="#5bc49f">
      <g>
        <path d="M 8 0 L 0 -3 L 0 3 Z" fill="currentColor" stroke="currentColor" stroke-width="1"/>
      </g>
    </marker>
    <marker orient="auto" overflow="visible" markerUnits="strokeWidth" id="FilledArrow_Marker_4" stroke-linejoin="miter" stroke-miterlimit="10" viewBox="-1 -3 7 6" markerWidth="7" markerHeight="6" color="#60acfd">
      <g>
        <path d="M 4.8 0 L 0 -1.8 L 0 1.8 Z" fill="currentColor" stroke="currentColor" stroke-width="1"/>
      </g>
    </marker>
    <marker orient="auto" overflow="visible" markerUnits="strokeWidth" id="FilledArrow_Marker_5" stroke-linejoin="miter" stroke-miterlimit="10" viewBox="-6 -3 7 6" markerWidth="7" markerHeight="6" color="#60acfd">
      <g>
        <path d="M -4.8 0 L 0 1.8 L 0 -1.8 Z" fill="currentColor" stroke="currentColor" stroke-width="1"/>
      </g>
    </marker>
    <marker orient="auto" overflow="visible" markerUnits="strokeWidth" id="FilledArrow_Marker_6" stroke-linejoin="miter" stroke-miterlimit="10" viewBox="-1 -4 10 8" markerWidth="10" markerHeight="8" color="#658e97">
      <g>
        <path d="M 8 0 L 0 -3 L 0 3 Z" fill="currentColor" stroke="currentColor" stroke-width="1"/>
      </g>
    </marker>
    <marker orient="auto" overflow="visible" markerUnits="strokeWidth" id="Arrow_Marker_6" stroke-linejoin="miter" stroke-miterlimit="10" viewBox="-5 -3 6 6" markerWidth="6" markerHeight="6" color="#ff7b7b">
      <g>
        <path d="M -3.7333333 0 L 0 1.4 L 0 -1.4 Z" fill="none" stroke="currentColor" stroke-width="1"/>
      </g>
    </marker>
    <filter id="Shadow_3" filterUnits="userSpaceOnUse" x="-126.3" y="-68.4">
      <feGaussianBlur in="SourceAlpha" result="blur" stdDeviation="3.488"/>
      <feFlood flood-color="black" flood-opacity=".5" result="flood"/>
      <feComposite in="flood" in2="blur" operator="in" result="color"/>
      <feMerge>
        <feMergeNode in="color"/>
        <feMergeNode in="SourceGraphic"/>
      </feMerge>
    </filter>
    <font-face font-family="Monaco" font-size="8" units-per-em="1000" underline-position="-37.597656" underline-thickness="75.68359" slope="0" x-height="545.41016" cap-height="757.8125" ascent="1e3" descent="-250" font-weight="400">
      <font-face-src>
        <font-face-name name="Monaco"/>
      </font-face-src>
    </font-face>
    <font-face font-family="Monaco" font-size="16" units-per-em="1000" underline-position="-37.597656" underline-thickness="75.68359" slope="0" x-height="545.41016" cap-height="757.8125" ascent="1e3" descent="-250" font-weight="400">
      <font-face-src>
        <font-face-name name="Monaco"/>
      </font-face-src>
    </font-face>
    <font-face font-family="Andale Mono" font-size="8" panose-1="2 11 5 9 0 0 0 0 0 4" units-per-em="1000" underline-position="-100.09766" underline-thickness="49.80469" slope="0" x-height="514.64844" cap-height="695.3125" ascent="907.2266" descent="-217.77344" font-weight="400">
      <font-face-src>
        <font-face-name name="AndaleMono"/>
      </font-face-src>
    </font-face>
    <filter id="Shadow_4" filterUnits="userSpaceOnUse" x="-126.3" y="-68.4">
      <feGaussianBlur in="SourceAlpha" result="blur" stdDeviation="1.744"/>
      <feOffset in="blur" result="offset" dx="0" dy="2"/>
      <feFlood flood-color="black" flood-opacity=".5" result="flood"/>
      <feComposite in="flood" in2="offset" operator="in"/>
    </filter>
    <font-face font-family="Monaco" font-size="12" units-per-em="1000" underline-position="-37.597656" underline-thickness="75.68359" slope="0" x-height="545.41016" cap-height="757.8125" ascent="1e3" descent="-250" font-weight="400">
      <font-face-src>
        <font-face-name name="Monaco"/>
      </font-face-src>
    </font-face>
    <font-face font-family="Monaco" font-size="10" units-per-em="1000" underline-position="-37.597656" underline-thickness="75.68359" slope="0" x-height="545.41016" cap-height="757.8125" ascent="1e3" descent="-250" font-weight="400">
      <font-face-src>
        <font-face-name name="Monaco"/>
      </font-face-src>
    </font-face>
    <font-face font-family="Monaco" font-size="13" units-per-em="1000" underline-position="-37.597656" underline-thickness="75.68359" slope="0" x-height="545.41016" cap-height="757.8125" ascent="1e3" descent="-250" font-weight="400">
      <font-face-src>
        <font-face-name name="Monaco"/>
      </font-face-src>
    </font-face>
  </defs>
  <metadata> Produced by OmniGraffle 7.18.5\n2021-07-23 13:13:48 +0000</metadata>
  <g id="Node_Pure" fill="none" fill-opacity="1" stroke-dasharray="none" stroke="none" stroke-opacity="1">
    <title>Node Pure</title>
    <rect fill="white" x="-3" y="-4" width="1233" height="644"/>
    <g id="Node_Pure_Traffic">
      <title>Traffic</title>
      <g id="Line_1319">
        <path d="M 753.4794 348.35823 L 645.8664 348.35823 C 645.8664 354.85823 632.8664 354.85823 632.8664 348.35823 L 627.2627 348.35823 C 627.2627 354.85823 614.2627 354.85823 614.2627 348.35823 L 492.95854 348.35823" marker-end="url(#FilledBall_Marker)" marker-start="url(#Arrow_Marker)" stroke="#ff7c7b" stroke-opacity=".4409275" stroke-linecap="round" stroke-linejoin="round" stroke-dasharray="4.0,4.0" stroke-width="2"/>
      </g>
      <g id="Line_1330">
        <path d="M 750.233 262.61028 L 645.8664 262.61028 C 645.8664 269.11028 632.8664 269.11028 632.8664 262.61028 L 626.6013 262.61028 C 626.6013 269.11028 613.6013 269.11028 613.6013 262.61028 L 497.3541 262.61028" marker-end="url(#FilledBall_Marker)" marker-start="url(#Arrow_Marker)" stroke="#ff7c7b" stroke-opacity=".4409275" stroke-linecap="round" stroke-linejoin="round" stroke-dasharray="4.0,4.0" stroke-width="2"/>
      </g>
      <g id="Line_1289">
        <path d="M 271.53114 435.04835 L 236.809 434.82876 L 236.809 158.05882 L 528.0384 158.05882" marker-end="url(#FilledBall_Marker_2)" marker-start="url(#Arrow_Marker_2)" stroke="#a5a5a5" stroke-opacity=".558008" stroke-linecap="round" stroke-linejoin="round" stroke-dasharray="20.0,6.0,4.0,6.0,4.0,6.0" stroke-width="2"/>
      </g>
      <g id="Line_1294" filter="url(#Shadow)">
        <path d="M 536.2384 184.75797 L 265.2595 184.75797 C 263.60264 184.75797 262.2595 186.10111 262.2595 187.75797 L 262.2595 260.61028 C 262.2595 262.26714 263.60264 263.61028 265.2595 263.61028 L 271.5309 263.61028" marker-end="url(#FilledArrow_Marker)" stroke="#ffb64d" stroke-linecap="round" stroke-linejoin="round" stroke-width="2"/>
      </g>
      <g id="Line_1295" filter="url(#Shadow)">
        <path d="M 536.2384 171.39163 L 254.26257 171.39163 C 252.60572 171.39163 251.26257 172.73478 251.26257 174.39163 L 251.26257 345.35823 C 251.26257 347.0151 252.60572 348.35823 254.26257 348.35823 L 272.02594 348.35823" marker-end="url(#FilledArrow_Marker_2)" stroke="#a90a03" stroke-linecap="round" stroke-linejoin="round" stroke-width="2"/>
      </g>
      <g id="Line_1318">
        <line x1="626.50474" y1="619.22604" x2="626.50474" y2="559.53863" marker-end="url(#FilledBall_Marker_3)" marker-start="url(#Arrow_Marker_3)" stroke="#949ede" stroke-linecap="round" stroke-linejoin="round" stroke-width="2"/>
      </g>
      <g id="Line_1331">
        <path d="M 1014.0525 348.2837 L 1014.0525 337.28368 L 1026.9053 337.28368 L 1026.9053 166.3855 L 742.27155 166.79053" marker-end="url(#FilledBall_Marker)" stroke="#ff7c7b" stroke-opacity=".4409275" stroke-linecap="round" stroke-linejoin="round" stroke-width="2"/>
      </g>
      <g id="Line_1332">
        <path d="M 1027.1905 348.2837 L 1027.1905 337.28368 L 1026.8698 262.26136 L 973.8626 262.26136" marker-end="url(#FilledBall_Marker)" stroke="#ff7c7b" stroke-opacity=".4409275" stroke-linecap="round" stroke-linejoin="round" stroke-width="2"/>
      </g>
      <g id="Line_1333">
        <line x1="1212.6217" y1="348.2837" x2="971.6442" y2="348.2837" marker-end="url(#FilledBall_Marker)" marker-start="url(#Arrow_Marker)" stroke="#ff7c7b" stroke-opacity=".4409275" stroke-linecap="round" stroke-linejoin="round" stroke-width="2"/>
      </g>
      <g id="Line_1334">
        <path d="M 1027.1905 348.2837 L 1027.1905 359.2837 L 1027.0031 433.5393 L 1027.0031 434.60847 L 971.6442 434.60847" marker-end="url(#FilledBall_Marker)" stroke="#ff7c7b" stroke-opacity=".4409275" stroke-linecap="round" stroke-linejoin="round" stroke-width="2"/>
      </g>
      <g id="Line_1335">
        <line x1="621.7901" y1="481.5492" x2="618.9951" y2="119.20035" marker-end="url(#FilledBall_Marker_4)" marker-start="url(#Arrow_Marker_4)" stroke="#b55bbe" stroke-linecap="round" stroke-linejoin="round" stroke-dasharray="8.0,6.0,2.0,6.0" stroke-width="2"/>
      </g>
      <g id="Line_1336">
        <path d="M 529.18255 525.09316 L 444.7856 524.7736 L 399.3804 524.7736 L 399.3804 471.7976" marker-end="url(#Arrow_Marker_5)" marker-start="url(#Arrow_Marker_4)" stroke="#b55bbe" stroke-linecap="round" stroke-linejoin="round" stroke-dasharray="8.0,6.0,2.0,6.0" stroke-width="2"/>
      </g>
      <g id="Line_1338">
        <path d="M 523.33844 505.4402 L 444.77964 505.59113 L 443.52125 505.59113 L 443.52125 471.3399" marker-end="url(#StickArrow_Marker)" marker-start="url(#StickArrow_Marker_2)" stroke="#ebebeb" stroke-linecap="round" stroke-linejoin="round" stroke-width="2"/>
      </g>
      <g id="Line_1340">
        <path d="M 523.35977 505.8682 L 443.52125 505.8682 L 443.52125 388.9005" marker-end="url(#StickArrow_Marker)" marker-start="url(#StickArrow_Marker_2)" stroke="#ebebeb" stroke-linecap="round" stroke-linejoin="round" stroke-width="2"/>
      </g>
      <g id="Line_1341">
        <path d="M 523.33856 505.86036 L 444.9282 505.4949 L 443.52125 505.4949 L 443.52125 303.55674" marker-end="url(#StickArrow_Marker)" marker-start="url(#StickArrow_Marker_2)" stroke="#ebebeb" stroke-linecap="round" stroke-linejoin="round" stroke-width="2"/>
      </g>
      <g id="Line_1360">
        <path d="M 715.8915 505.9205 L 802.6368 505.9205 L 802.6368 303.55674" marker-end="url(#StickArrow_Marker)" marker-start="url(#StickArrow_Marker_2)" stroke="#ebebeb" stroke-linecap="round" stroke-linejoin="round" stroke-width="2"/>
      </g>
      <g id="Line_1361">
        <path d="M 717.3089 505.9205 L 802.6368 505.9205 L 802.6368 389.54827" marker-end="url(#StickArrow_Marker)" marker-start="url(#StickArrow_Marker_2)" stroke="#ebebeb" stroke-linecap="round" stroke-linejoin="round" stroke-width="2"/>
      </g>
      <g id="Line_1362">
        <path d="M 715.8921 505.79875 L 721.8921 505.79875 L 802.6368 505.9205 L 802.6368 477.2195" marker-end="url(#StickArrow_Marker)" marker-start="url(#StickArrow_Marker_2)" stroke="#ebebeb" stroke-linecap="round" stroke-linejoin="round" stroke-width="2"/>
      </g>
      <g id="Line_1363">
        <line x1="639.3664" y1="481.54884" x2="639.3664" y2="122.83411" marker-end="url(#StickArrow_Marker)" marker-start="url(#StickArrow_Marker_2)" stroke="#ebebeb" stroke-linecap="round" stroke-linejoin="round" stroke-width="2"/>
      </g>
      <g id="Line_1364">
        <line x1="639.3664" y1="481.54884" x2="639.3664" y2="207.9504" marker-end="url(#StickArrow_Marker)" marker-start="url(#StickArrow_Marker_2)" stroke="#ebebeb" stroke-linecap="round" stroke-linejoin="round" stroke-width="2"/>
      </g>
      <g id="Line_1059" filter="url(#Shadow_2)">
        <line x1="714.3307" y1="180.00005" x2="1215.6217" y2="180.00005" marker-end="url(#FilledArrow_Marker_3)" stroke="#5bc49f" stroke-linecap="round" stroke-linejoin="round" stroke-width="1"/>
      </g>
      <g id="Line_1062" filter="url(#Shadow)">
        <line x1="625.06896" y1="10.8" x2="625.06896" y2="27.530746" marker-end="url(#FilledArrow_Marker_4)" marker-start="url(#FilledArrow_Marker_5)" stroke="#60acfd" stroke-linecap="round" stroke-linejoin="round" stroke-width="2"/>
      </g>
      <g id="Line_1152" filter="url(#Shadow_2)">
        <line x1="714.3307" y1="185.58365" x2="1215.6217" y2="185.58365" marker-end="url(#FilledArrow_Marker_6)" stroke="#658e97" stroke-linecap="round" stroke-linejoin="round" stroke-width="1"/>
      </g>
      <g id="Line_1290">
        <line x1="399.3804" y1="389.04963" x2="399.3804" y2="408.8976" marker-start="url(#Arrow_Marker_6)" stroke="#ff7b7b" stroke-linecap="round" stroke-linejoin="round" stroke-width="3"/>
      </g>
      <g id="Line_1291" filter="url(#Shadow)">
        <line x1="399.68504" y1="292.4239" x2="399.5876" y2="310.24983" marker-end="url(#FilledArrow_Marker)" stroke="#ffb64d" stroke-linecap="round" stroke-linejoin="round" stroke-width="2"/>
      </g>
    </g>
    <g id="Node_Pure_Row">
      <title>Row</title>
      <g id="Group_1021">
        <g id="Graphic_1024" filter="url(#Shadow_3)">
          <path d="M 15.669291 53.858315 L 1129.5276 53.858315 C 1135.0504 53.858315 1139.5276 58.33547 1139.5276 63.858315 L 1139.5276 124.64572 C 1139.5276 130.16857 1135.0504 134.64572 1129.5276 134.64572 L 15.669291 134.64572 C 10.146444 134.64572 5.6692914 130.16857 5.6692914 124.64572 L 5.6692914 63.858315 C 5.6692914 58.33547 10.146444 53.858315 15.669291 53.858315 Z" fill="#31d3eb" fill-opacity=".138093"/>
        </g>
        <g id="Graphic_1023">
          <text transform="translate(24.221382 84.70543)" fill="#60acfd">
            <tspan font-family="Monaco" font-size="8" font-weight="400" fill="#60acfd" x="0" y="8">Managed by vip-manager</tspan>
            <tspan font-family="Monaco" font-size="8" font-weight="400" fill="#60acfd" x="0" y="18.667969">Tied to </tspan>
            <tspan font-family="Monaco" font-size="8" font-weight="400" fill="#ffb64c" y="18.667969">primary</tspan>
            <tspan font-family="Monaco" font-size="8" font-weight="400" fill="#60acfd" y="18.667969"> via dcs info</tspan>
          </text>
        </g>
        <g id="Graphic_1022">
          <text transform="translate(20.915054 61.17825)" fill="#60acfd">
            <tspan font-family="Monaco" font-size="16" font-weight="400" fill="#60acfd" x="0" y="16">VIP</tspan>
          </text>
        </g>
      </g>
      <g id="Group_1217">
        <g id="Graphic_1220" filter="url(#Shadow_3)">
          <path d="M 15.669291 479.05514 L 1129.5276 479.05514 C 1135.0504 479.05514 1139.5276 483.5323 1139.5276 489.05514 L 1139.5276 549.84255 C 1139.5276 555.3654 1135.0504 559.84255 1129.5276 559.84255 L 15.669291 559.84255 C 10.146444 559.84255 5.6692914 555.3654 5.6692914 549.84255 L 5.6692914 489.05514 C 5.6692914 483.5323 10.146444 479.05514 15.669291 479.05514 Z" fill="#31d3eb" fill-opacity=".138093"/>
        </g>
        <g id="Graphic_1219">
          <text transform="translate(22.715594 515.3911)" fill="#60acfd">
            <tspan font-family="Monaco" font-size="8" font-weight="400" fill="#60acfd" x="0" y="8">consul / etcd cluster</tspan>
            <tspan font-family="Monaco" font-size="8" font-weight="400" fill="#60acfd" x="0" y="18.667969">Distributed Configuration System</tspan>
          </text>
        </g>
        <g id="Graphic_1218">
          <text transform="translate(23.92663 489.72443)" fill="#60acfd">
            <tspan font-family="Monaco" font-size="16" font-weight="400" fill="#60acfd" x="0" y="16">DCS</tspan>
          </text>
        </g>
      </g>
      <g id="Group_1370">
        <g id="Group_1321">
          <g id="Graphic_1324" filter="url(#Shadow_3)">
            <path d="M 15.669291 138.89768 L 692.08245 138.89768 C 697.6053 138.89768 702.08245 143.37484 702.08245 148.89768 L 702.08245 209.68509 C 702.08245 215.20793 697.6053 219.6851 692.08245 219.6851 L 15.669291 219.6851 C 10.146444 219.6851 5.6692914 215.20793 5.6692914 209.68509 L 5.6692914 148.89768 C 5.6692914 143.37484 10.146444 138.89768 15.669291 138.89768 Z" fill="#31d3eb" fill-opacity=".138093"/>
          </g>
          <g id="Graphic_1323">
            <text transform="translate(18.992955 175.07879)" fill="#60acfd">
              <tspan font-family="Monaco" font-size="8" font-weight="400" fill="#60acfd" x="0" y="8">Idempotent LB that expose services </tspan>
              <tspan font-family="Monaco" font-size="8" font-weight="400" fill="#4071a7" x="0" y="18.667969">Service</tspan>
              <tspan font-family="Monaco" font-size="8" font-weight="400" fill="#60acfd" y="18.667969"> are distinguished via </tspan>
              <tspan font-family="Monaco" font-size="8" font-weight="400" fill="#467bb6" y="18.667969">ports</tspan>
            </text>
          </g>
          <g id="Graphic_1322"/>
        </g>
        <g id="Graphic_1365">
          <text transform="translate(22.00787 148.58406)" fill="#60acfd">
            <tspan font-family="Monaco" font-size="16" font-weight="400" fill="#60acfd" x="0" y="16">Load Balancer</tspan>
          </text>
        </g>
      </g>
      <g id="Group_1369">
        <g id="Group_980">
          <g id="Graphic_983" filter="url(#Shadow_3)">
            <path d="M 15.669291 223.93705 L 692.08245 223.93705 C 697.6053 223.93705 702.08245 228.4142 702.08245 233.93705 L 702.08245 294.72446 C 702.08245 300.2473 697.6053 304.72446 692.08245 304.72446 L 15.669291 304.72446 C 10.146444 304.72446 5.6692914 300.2473 5.6692914 294.72446 L 5.6692914 233.93705 C 5.6692914 228.4142 10.146444 223.93705 15.669291 223.93705 Z" fill="#31d3eb" fill-opacity=".138093"/>
          </g>
          <g id="Graphic_982">
            <text transform="translate(18.992955 260.11816)" fill="#60acfd">
              <tspan font-family="Monaco" font-size="8" font-weight="400" fill="#60acfd" x="0" y="8">Connection pooler</tspan>
              <tspan font-family="Monaco" font-size="8" font-weight="400" fill="#60acfd" x="0" y="18.667969">Statistic collector</tspan>
            </text>
          </g>
          <g id="Graphic_981"/>
        </g>
        <g id="Graphic_1366">
          <text transform="translate(22.00787 234.60635)" fill="#60acfd">
            <tspan font-family="Monaco" font-size="16" font-weight="400" fill="#60acfd" x="0" y="16">Middleware</tspan>
          </text>
        </g>
      </g>
      <g id="Group_1368">
        <g id="Group_976">
          <g id="Graphic_979" filter="url(#Shadow_3)">
            <path d="M 15.669291 308.9764 L 692.08245 308.9764 C 697.6053 308.9764 702.08245 313.45356 702.08245 318.9764 L 702.08245 379.7638 C 702.08245 385.28665 697.6053 389.7638 692.08245 389.7638 L 15.669291 389.7638 C 10.146444 389.7638 5.6692914 385.28665 5.6692914 379.7638 L 5.6692914 318.9764 C 5.6692914 313.45356 10.146444 308.9764 15.669291 308.9764 Z" fill="#31d3eb" fill-opacity=".138093"/>
          </g>
          <g id="Graphic_978">
            <text transform="translate(22.69236 350.98163)" fill="#60acfd">
              <tspan font-family="Monaco" font-size="8" font-weight="400" fill="#60acfd" x="0" y="8">Streaming replication</tspan>
            </text>
          </g>
          <g id="Graphic_977"/>
        </g>
        <g id="Graphic_1367">
          <text transform="translate(22.00787 320.62864)" fill="#60acfd">
            <tspan font-family="Monaco" font-size="16" font-weight="400" fill="#60acfd" x="0" y="16">Database</tspan>
          </text>
        </g>
      </g>
      <g id="Group_1372">
        <g id="Group_984">
          <g id="Graphic_987" filter="url(#Shadow_3)">
            <path d="M 15.669291 394.01577 L 692.08245 394.01577 C 697.6053 394.01577 702.08245 398.49293 702.08245 404.01577 L 702.08245 464.8032 C 702.08245 470.326 697.6053 474.8032 692.08245 474.8032 L 15.669291 474.8032 C 10.146444 474.8032 5.6692914 470.326 5.6692914 464.8032 L 5.6692914 404.01577 C 5.6692914 398.49293 10.146444 394.01577 15.669291 394.01577 Z" fill="#31d3eb" fill-opacity=".138093"/>
          </g>
          <g id="Graphic_986">
            <text transform="translate(18.068103 431.6142)" fill="#60acfd">
              <tspan font-family="Monaco" font-size="8" font-weight="400" fill="#60acfd" x="0" y="8">Leader election</tspan>
              <tspan font-family="Monaco" font-size="8" font-weight="400" fill="#60acfd" x="0" y="18.667969">Configuration Management</tspan>
            </text>
          </g>
          <g id="Graphic_985"/>
        </g>
        <g id="Graphic_1371">
          <text transform="translate(22.00787 406.1024)" fill="#60acfd">
            <tspan font-family="Monaco" font-size="16" font-weight="400" fill="#60acfd" x="0" y="16">HA Agent</tspan>
          </text>
        </g>
      </g>
      <g id="Group_1373">
        <g id="Group_1375">
          <g id="Graphic_1378" filter="url(#Shadow_3)">
            <path d="M 715.8268 138.89768 L 1129.5276 138.89768 C 1135.0504 138.89768 1139.5276 143.37484 1139.5276 148.89768 L 1139.5276 464.8032 C 1139.5276 470.326 1135.0504 474.8032 1129.5276 474.8032 L 715.8268 474.8032 C 710.3039 474.8032 705.8268 470.326 705.8268 464.8032 L 705.8268 148.89768 C 705.8268 143.37484 710.3039 138.89768 715.8268 138.89768 Z" fill="#31d3eb" fill-opacity=".138093"/>
          </g>
          <g id="Graphic_1377"/>
          <g id="Graphic_1376"/>
        </g>
        <g id="Graphic_1374"/>
      </g>
      <g id="Graphic_1379">
        <text transform="translate(1062.3228 143.89768)" fill="#60acfd">
          <tspan font-family="Monaco" font-size="16" font-weight="400" fill="#60acfd" x="0" y="16">Monitor</tspan>
        </text>
      </g>
      <g id="Graphic_1389" filter="url(#Shadow_2)">
        <path d="M 562.49766 41.85926 L 588.4967 41.85926 C 589.6013 41.85926 590.4967 42.75469 590.4967 43.85926 L 590.4967 51.858315 C 590.4967 52.962885 589.6013 53.858315 588.4967 53.858315 L 562.49766 53.858315 C 561.3931 53.858315 560.49766 52.962885 560.49766 51.858315 L 560.49766 43.85926 C 560.49766 42.75469 561.3931 41.85926 562.49766 41.85926 Z" fill="#fcecaa"/>
        <path d="M 562.49766 41.85926 L 588.4967 41.85926 C 589.6013 41.85926 590.4967 42.75469 590.4967 43.85926 L 590.4967 51.858315 C 590.4967 52.962885 589.6013 53.858315 588.4967 53.858315 L 562.49766 53.858315 C 561.3931 53.858315 560.49766 52.962885 560.49766 51.858315 L 560.49766 43.85926 C 560.49766 42.75469 561.3931 41.85926 562.49766 41.85926 Z" stroke="black" stroke-linecap="round" stroke-linejoin="round" stroke-width="0"/>
        <text transform="translate(565.49766 43.35879)" fill="#ffb64d">
          <tspan font-family="Andale Mono" font-size="8" font-weight="400" fill="#ffb64d" x=".39796543" y="7">5433</tspan>
        </text>
      </g>
      <g id="Graphic_1388" filter="url(#Shadow_2)">
        <path d="M 595.7186 41.85926 L 621.71764 41.85926 C 622.8222 41.85926 623.71764 42.75469 623.71764 43.85926 L 623.71764 51.858315 C 623.71764 52.962885 622.8222 53.858315 621.71764 53.858315 L 595.7186 53.858315 C 594.614 53.858315 593.7186 52.962885 593.7186 51.858315 L 593.7186 43.85926 C 593.7186 42.75469 594.614 41.85926 595.7186 41.85926 Z" fill="#fcecaa"/>
        <path d="M 595.7186 41.85926 L 621.71764 41.85926 C 622.8222 41.85926 623.71764 42.75469 623.71764 43.85926 L 623.71764 51.858315 C 623.71764 52.962885 622.8222 53.858315 621.71764 53.858315 L 595.7186 53.858315 C 594.614 53.858315 593.7186 52.962885 593.7186 51.858315 L 593.7186 43.85926 C 593.7186 42.75469 594.614 41.85926 595.7186 41.85926 Z" stroke="black" stroke-linecap="round" stroke-linejoin="round" stroke-width="0"/>
        <text transform="translate(598.7186 43.35879)" fill="#5bc59f">
          <tspan font-family="Andale Mono" font-size="8" font-weight="400" fill="#5bc59f" x=".39796543" y="7">5434</tspan>
        </text>
      </g>
      <g id="Graphic_1387" filter="url(#Shadow_2)">
        <path d="M 629.4203 41.7255 L 655.4193 41.7255 C 656.5239 41.7255 657.4193 42.62093 657.4193 43.7255 L 657.4193 51.724554 C 657.4193 52.829124 656.5239 53.724554 655.4193 53.724554 L 629.4203 53.724554 C 628.3157 53.724554 627.4203 52.829124 627.4203 51.724554 L 627.4203 43.7255 C 627.4203 42.62093 628.3157 41.7255 629.4203 41.7255 Z" fill="#fcecaa"/>
        <path d="M 629.4203 41.7255 L 655.4193 41.7255 C 656.5239 41.7255 657.4193 42.62093 657.4193 43.7255 L 657.4193 51.724554 C 657.4193 52.829124 656.5239 53.724554 655.4193 53.724554 L 629.4203 53.724554 C 628.3157 53.724554 627.4203 52.829124 627.4203 51.724554 L 627.4203 43.7255 C 627.4203 42.62093 628.3157 41.7255 629.4203 41.7255 Z" stroke="black" stroke-linecap="round" stroke-linejoin="round" stroke-width="0"/>
        <text transform="translate(632.4203 43.225027)" fill="#aa0a04">
          <tspan font-family="Andale Mono" font-size="8" font-weight="400" fill="#aa0a04" x=".39796543" y="7">5436</tspan>
        </text>
      </g>
      <g id="Graphic_1386" filter="url(#Shadow_2)">
        <path d="M 662.6412 41.7255 L 688.6403 41.7255 C 689.7448 41.7255 690.6403 42.62093 690.6403 43.7255 L 690.6403 51.724554 C 690.6403 52.829124 689.7448 53.724554 688.6403 53.724554 L 662.6412 53.724554 C 661.5366 53.724554 660.6412 52.829124 660.6412 51.724554 L 660.6412 43.7255 C 660.6412 42.62093 661.5366 41.7255 662.6412 41.7255 Z" fill="#fcecaa"/>
        <path d="M 662.6412 41.7255 L 688.6403 41.7255 C 689.7448 41.7255 690.6403 42.62093 690.6403 43.7255 L 690.6403 51.724554 C 690.6403 52.829124 689.7448 53.724554 688.6403 53.724554 L 662.6412 53.724554 C 661.5366 53.724554 660.6412 52.829124 660.6412 51.724554 L 660.6412 43.7255 C 660.6412 42.62093 661.5366 41.7255 662.6412 41.7255 Z" stroke="black" stroke-linecap="round" stroke-linejoin="round" stroke-width="0"/>
        <text transform="translate(665.6412 43.225027)" fill="#658e98">
          <tspan font-family="Andale Mono" font-size="8" font-weight="400" fill="#658e98" x=".39796543" y="7">5438</tspan>
        </text>
      </g>
    </g>
    <g id="Node_Pure_Component">
      <title>Component</title>
      <g id="Graphic_1273_shadow" filter="url(#Shadow_4)">
        <path d="M 334.38038 408.8976 L 464.3804 408.8976 C 472.66465 408.8976 479.3804 415.6133 479.3804 423.8976 L 479.3804 443.8976 C 479.3804 452.18187 472.66465 458.8976 464.3804 458.8976 L 334.38038 458.8976 C 326.0961 458.8976 319.38038 452.18187 319.38038 443.8976 L 319.38038 423.8976 C 319.38038 415.6133 326.0961 408.8976 334.38038 408.8976 Z" fill="#f7c574"/>
        <path d="M 334.38038 408.8976 L 464.3804 408.8976 C 472.66465 408.8976 479.3804 415.6133 479.3804 423.8976 L 479.3804 443.8976 C 479.3804 452.18187 472.66465 458.8976 464.3804 458.8976 L 334.38038 458.8976 C 326.0961 458.8976 319.38038 452.18187 319.38038 443.8976 L 319.38038 423.8976 C 319.38038 415.6133 326.0961 408.8976 334.38038 408.8976 Z" stroke="black" stroke-linecap="round" stroke-linejoin="round" stroke-width="0"/>
      </g>
      <g id="Graphic_1267_shadow" filter="url(#Shadow_4)">
        <path d="M 557.08245 494.44884 L 687.08245 494.44884 C 695.3667 494.44884 702.08245 501.1646 702.08245 509.44884 L 702.08245 529.44884 C 702.08245 537.7331 695.3667 544.44884 687.08245 544.44884 L 557.08245 544.44884 C 548.7982 544.44884 542.08245 537.7331 542.08245 529.44884 L 542.08245 509.44884 C 542.08245 501.1646 548.7982 494.44884 557.08245 494.44884 Z" fill="#9188e8"/>
        <path d="M 557.08245 494.44884 L 687.08245 494.44884 C 695.3667 494.44884 702.08245 501.1646 702.08245 509.44884 L 702.08245 529.44884 C 702.08245 537.7331 695.3667 544.44884 687.08245 544.44884 L 557.08245 544.44884 C 548.7982 544.44884 542.08245 537.7331 542.08245 529.44884 L 542.08245 509.44884 C 542.08245 501.1646 548.7982 494.44884 557.08245 494.44884 Z" stroke="black" stroke-linecap="round" stroke-linejoin="round" stroke-width="0"/>
      </g>
      <g id="Graphic_1260_shadow" filter="url(#Shadow_4)">
        <path d="M 334.38038 323.14963 L 464.3804 323.14963 C 472.66465 323.14963 479.3804 329.86536 479.3804 338.14963 L 479.3804 358.14963 C 479.3804 366.4339 472.66465 373.14963 464.3804 373.14963 L 334.38038 373.14963 C 326.0961 373.14963 319.38038 366.4339 319.38038 358.14963 L 319.38038 338.14963 C 319.38038 329.86536 326.0961 323.14963 334.38038 323.14963 Z" fill="#507a9f"/>
        <path d="M 334.38038 323.14963 L 464.3804 323.14963 C 472.66465 323.14963 479.3804 329.86536 479.3804 338.14963 L 479.3804 358.14963 C 479.3804 366.4339 472.66465 373.14963 464.3804 373.14963 L 334.38038 373.14963 C 326.0961 373.14963 319.38038 366.4339 319.38038 358.14963 L 319.38038 338.14963 C 319.38038 329.86536 326.0961 323.14963 334.38038 323.14963 Z" stroke="black" stroke-linecap="round" stroke-linejoin="round" stroke-width="0"/>
      </g>
      <g id="Graphic_1250_shadow" filter="url(#Shadow_4)">
        <path d="M 334.38038 238.11028 L 464.3804 238.11028 C 472.66465 238.11028 479.3804 244.826 479.3804 253.11028 L 479.3804 273.1106 C 479.3804 281.39487 472.66465 288.1106 464.3804 288.1106 L 334.38038 288.1106 C 326.0961 288.1106 319.38038 281.39487 319.38038 273.1106 L 319.38038 253.11028 C 319.38038 244.826 326.0961 238.11028 334.38038 238.11028 Z" fill="#78d9ed"/>
        <path d="M 334.38038 238.11028 L 464.3804 238.11028 C 472.66465 238.11028 479.3804 244.826 479.3804 253.11028 L 479.3804 273.1106 C 479.3804 281.39487 472.66465 288.1106 464.3804 288.1106 L 334.38038 288.1106 C 326.0961 288.1106 319.38038 281.39487 319.38038 273.1106 L 319.38038 253.11028 C 319.38038 244.826 326.0961 238.11028 334.38038 238.11028 Z" stroke="black" stroke-linecap="round" stroke-linejoin="round" stroke-width="0"/>
      </g>
      <g id="Graphic_1301_shadow" filter="url(#Shadow_4)">
        <path d="M 786.4551 237.75598 L 916.4551 237.75598 C 924.7393 237.75598 931.4551 244.4717 931.4551 252.75598 L 931.4551 272.75598 C 931.4551 281.04025 924.7393 287.75598 916.4551 287.75598 L 786.4551 287.75598 C 778.1708 287.75598 771.4551 281.04025 771.4551 272.75598 L 771.4551 252.75598 C 771.4551 244.4717 778.1708 237.75598 786.4551 237.75598 Z" fill="#ff7c7b"/>
        <path d="M 786.4551 237.75598 L 916.4551 237.75598 C 924.7393 237.75598 931.4551 244.4717 931.4551 252.75598 L 931.4551 272.75598 C 931.4551 281.04025 924.7393 287.75598 916.4551 287.75598 L 786.4551 287.75598 C 778.1708 287.75598 771.4551 281.04025 771.4551 272.75598 L 771.4551 252.75598 C 771.4551 244.4717 778.1708 237.75598 786.4551 237.75598 Z" stroke="black" stroke-linecap="round" stroke-linejoin="round" stroke-width="0"/>
      </g>
      <g id="Graphic_1308_shadow" filter="url(#Shadow_4)">
        <path d="M 786.4551 408.5433 L 916.4551 408.5433 C 924.7393 408.5433 931.4551 415.259 931.4551 423.5433 L 931.4551 443.5433 C 931.4551 451.82756 924.7393 458.5433 916.4551 458.5433 L 786.4551 458.5433 C 778.1708 458.5433 771.4551 451.82756 771.4551 443.5433 L 771.4551 423.5433 C 771.4551 415.259 778.1708 408.5433 786.4551 408.5433 Z" fill="#ff7c7b"/>
        <path d="M 786.4551 408.5433 L 916.4551 408.5433 C 924.7393 408.5433 931.4551 415.259 931.4551 423.5433 L 931.4551 443.5433 C 931.4551 451.82756 924.7393 458.5433 916.4551 458.5433 L 786.4551 458.5433 C 778.1708 458.5433 771.4551 451.82756 771.4551 443.5433 L 771.4551 423.5433 C 771.4551 415.259 778.1708 408.5433 786.4551 408.5433 Z" stroke="black" stroke-linecap="round" stroke-linejoin="round" stroke-width="0"/>
      </g>
      <g id="Graphic_1278_shadow" filter="url(#Shadow_4)">
        <path d="M 557.08245 140.52705 L 687.08245 140.52705 C 695.3667 140.52705 702.08245 147.24278 702.08245 155.52705 L 702.08245 175.52705 C 702.08245 183.81132 695.3667 190.52705 687.08245 190.52705 L 557.08245 190.52705 C 548.7982 190.52705 542.08245 183.81132 542.08245 175.52705 L 542.08245 155.52705 C 542.08245 147.24278 548.7982 140.52705 557.08245 140.52705 Z" fill="#88ccb1"/>
        <path d="M 557.08245 140.52705 L 687.08245 140.52705 C 695.3667 140.52705 702.08245 147.24278 702.08245 155.52705 L 702.08245 175.52705 C 702.08245 183.81132 695.3667 190.52705 687.08245 190.52705 L 557.08245 190.52705 C 548.7982 190.52705 542.08245 183.81132 542.08245 175.52705 L 542.08245 155.52705 C 542.08245 147.24278 548.7982 140.52705 557.08245 140.52705 Z" stroke="black" stroke-linecap="round" stroke-linejoin="round" stroke-width="0"/>
      </g>
      <g id="Graphic_1316_shadow" filter="url(#Shadow_4)">
        <path d="M 786.4551 322.79533 L 916.4551 322.79533 C 924.7393 322.79533 931.4551 329.51105 931.4551 337.79533 L 931.4551 357.79533 C 931.4551 366.0796 924.7393 372.79533 916.4551 372.79533 L 786.4551 372.79533 C 778.1708 372.79533 771.4551 366.0796 771.4551 357.79533 L 771.4551 337.79533 C 771.4551 329.51105 778.1708 322.79533 786.4551 322.79533 Z" fill="#ff7c7b"/>
        <path d="M 786.4551 322.79533 L 916.4551 322.79533 C 924.7393 322.79533 931.4551 329.51105 931.4551 337.79533 L 931.4551 357.79533 C 931.4551 366.0796 924.7393 372.79533 916.4551 372.79533 L 786.4551 372.79533 C 778.1708 372.79533 771.4551 366.0796 771.4551 357.79533 L 771.4551 337.79533 C 771.4551 329.51105 778.1708 322.79533 786.4551 322.79533 Z" stroke="black" stroke-linecap="round" stroke-linejoin="round" stroke-width="0"/>
      </g>
      <g id="Graphic_1329_shadow" filter="url(#Shadow_4)">
        <path d="M 557.08245 53.858315 L 687.08245 53.858315 C 695.3667 53.858315 702.08245 60.574044 702.08245 68.858315 L 702.08245 88.85832 C 702.08245 97.14259 695.3667 103.85832 687.08245 103.85832 L 557.08245 103.85832 C 548.7982 103.85832 542.08245 97.14259 542.08245 88.85832 L 542.08245 68.858315 C 542.08245 60.574044 548.7982 53.858315 557.08245 53.858315 Z" fill="#2fd3ec" fill-opacity=".6975442"/>
        <path d="M 557.08245 53.858315 L 687.08245 53.858315 C 695.3667 53.858315 702.08245 60.574044 702.08245 68.858315 L 702.08245 88.85832 C 702.08245 97.14259 695.3667 103.85832 687.08245 103.85832 L 557.08245 103.85832 C 548.7982 103.85832 542.08245 97.14259 542.08245 88.85832 L 542.08245 68.858315 C 542.08245 60.574044 548.7982 53.858315 557.08245 53.858315 Z" stroke="black" stroke-linecap="round" stroke-linejoin="round" stroke-width="0"/>
      </g>
      <g id="Group_1268">
        <g id="Group_1270">
          <g id="Graphic_1273">
            <path d="M 334.38038 408.8976 L 464.3804 408.8976 C 472.66465 408.8976 479.3804 415.6133 479.3804 423.8976 L 479.3804 443.8976 C 479.3804 452.18187 472.66465 458.8976 464.3804 458.8976 L 334.38038 458.8976 C 326.0961 458.8976 319.38038 452.18187 319.38038 443.8976 L 319.38038 423.8976 C 319.38038 415.6133 326.0961 408.8976 334.38038 408.8976 Z" fill="#f7c574"/>
            <path d="M 334.38038 408.8976 L 464.3804 408.8976 C 472.66465 408.8976 479.3804 415.6133 479.3804 423.8976 L 479.3804 443.8976 C 479.3804 452.18187 472.66465 458.8976 464.3804 458.8976 L 334.38038 458.8976 C 326.0961 458.8976 319.38038 452.18187 319.38038 443.8976 L 319.38038 423.8976 C 319.38038 415.6133 326.0961 408.8976 334.38038 408.8976 Z" stroke="black" stroke-linecap="round" stroke-linejoin="round" stroke-width="0"/>
          </g>
          <g id="Graphic_1272">
            <text transform="translate(362.25197 423.52756)" fill="white">
              <tspan font-family="Monaco" font-size="16" font-weight="400" fill="white" x="0" y="16">Patroni</tspan>
            </text>
          </g>
        </g>
        <g id="Graphic_1269" filter="url(#Shadow_2)">
          <path d="M 291.13386 427.89807 L 317.1329 427.89807 C 318.2375 427.89807 319.1329 428.7935 319.1329 429.89807 L 319.1329 437.8971 C 319.1329 439.0017 318.2375 439.8971 317.1329 439.8971 L 291.13386 439.8971 C 290.0293 439.8971 289.13386 439.0017 289.13386 437.8971 L 289.13386 429.89807 C 289.13386 428.7935 290.0293 427.89807 291.13386 427.89807 Z" fill="#fcecaa"/>
          <path d="M 291.13386 427.89807 L 317.1329 427.89807 C 318.2375 427.89807 319.1329 428.7935 319.1329 429.89807 L 319.1329 437.8971 C 319.1329 439.0017 318.2375 439.8971 317.1329 439.8971 L 291.13386 439.8971 C 290.0293 439.8971 289.13386 439.0017 289.13386 437.8971 L 289.13386 429.89807 C 289.13386 428.7935 290.0293 427.89807 291.13386 427.89807 Z" stroke="black" stroke-linecap="round" stroke-linejoin="round" stroke-width="0"/>
          <text transform="translate(294.13386 429.3976)" fill="#6d5000">
            <tspan font-family="Andale Mono" font-size="8" font-weight="400" fill="#6d5000" x=".39796543" y="7">8008</tspan>
          </text>
        </g>
      </g>
      <g id="Group_1292">
        <g id="Group_1264">
          <g id="Graphic_1267">
            <path d="M 557.08245 494.44884 L 687.08245 494.44884 C 695.3667 494.44884 702.08245 501.1646 702.08245 509.44884 L 702.08245 529.44884 C 702.08245 537.7331 695.3667 544.44884 687.08245 544.44884 L 557.08245 544.44884 C 548.7982 544.44884 542.08245 537.7331 542.08245 529.44884 L 542.08245 509.44884 C 542.08245 501.1646 548.7982 494.44884 557.08245 494.44884 Z" fill="#9188e8"/>
            <path d="M 557.08245 494.44884 L 687.08245 494.44884 C 695.3667 494.44884 702.08245 501.1646 702.08245 509.44884 L 702.08245 529.44884 C 702.08245 537.7331 695.3667 544.44884 687.08245 544.44884 L 557.08245 544.44884 C 548.7982 544.44884 542.08245 537.7331 542.08245 529.44884 L 542.08245 509.44884 C 542.08245 501.1646 548.7982 494.44884 557.08245 494.44884 Z" stroke="black" stroke-linecap="round" stroke-linejoin="round" stroke-width="0"/>
          </g>
          <g id="Graphic_1266">
            <text transform="translate(593.2778 508.7809)" fill="white">
              <tspan font-family="Monaco" font-size="16" font-weight="400" fill="white" x="0" y="16">Consul</tspan>
            </text>
          </g>
        </g>
        <g id="Graphic_1263" filter="url(#Shadow_2)">
          <path d="M 704.08245 514.6698 L 730.0815 514.6698 C 731.1861 514.6698 732.0815 515.5652 732.0815 516.6698 L 732.0815 524.66885 C 732.0815 525.7734 731.1861 526.66885 730.0815 526.66885 L 704.08245 526.66885 C 702.9779 526.66885 702.08245 525.7734 702.08245 524.66885 L 702.08245 516.6698 C 702.08245 515.5652 702.9779 514.6698 704.08245 514.6698 Z" fill="#ffe98e"/>
          <path d="M 704.08245 514.6698 L 730.0815 514.6698 C 731.1861 514.6698 732.0815 515.5652 732.0815 516.6698 L 732.0815 524.66885 C 732.0815 525.7734 731.1861 526.66885 730.0815 526.66885 L 704.08245 526.66885 C 702.9779 526.66885 702.08245 525.7734 702.08245 524.66885 L 702.08245 516.6698 C 702.08245 515.5652 702.9779 514.6698 704.08245 514.6698 Z" stroke="black" stroke-linecap="round" stroke-linejoin="round" stroke-width="0"/>
          <text transform="translate(707.08245 516.1693)" fill="#6d5000">
            <tspan font-family="Andale Mono" font-size="8" font-weight="400" fill="#6d5000" x=".39796543" y="7">8500</tspan>
          </text>
        </g>
      </g>
      <g id="Group_1254">
        <g id="Group_1257">
          <g id="Graphic_1260">
            <path d="M 334.38038 323.14963 L 464.3804 323.14963 C 472.66465 323.14963 479.3804 329.86536 479.3804 338.14963 L 479.3804 358.14963 C 479.3804 366.4339 472.66465 373.14963 464.3804 373.14963 L 334.38038 373.14963 C 326.0961 373.14963 319.38038 366.4339 319.38038 358.14963 L 319.38038 338.14963 C 319.38038 329.86536 326.0961 323.14963 334.38038 323.14963 Z" fill="#507a9f"/>
            <path d="M 334.38038 323.14963 L 464.3804 323.14963 C 472.66465 323.14963 479.3804 329.86536 479.3804 338.14963 L 479.3804 358.14963 C 479.3804 366.4339 472.66465 373.14963 464.3804 373.14963 L 334.38038 373.14963 C 326.0961 373.14963 319.38038 366.4339 319.38038 358.14963 L 319.38038 338.14963 C 319.38038 329.86536 326.0961 323.14963 334.38038 323.14963 Z" stroke="black" stroke-linecap="round" stroke-linejoin="round" stroke-width="0"/>
          </g>
          <g id="Graphic_1258">
            <text transform="translate(361.41733 332.40158)" fill="white">
              <tspan font-family="Monaco" font-size="16" font-weight="400" fill="white" x="0" y="16">Postgres</tspan>
            </text>
          </g>
        </g>
        <g id="Graphic_1256" filter="url(#Shadow_2)">
          <path d="M 291.13386 341.81338 L 317.1329 341.81338 C 318.2375 341.81338 319.1329 342.7088 319.1329 343.81338 L 319.1329 351.81243 C 319.1329 352.917 318.2375 353.81243 317.1329 353.81243 L 291.13386 353.81243 C 290.0293 353.81243 289.13386 352.917 289.13386 351.81243 L 289.13386 343.81338 C 289.13386 342.7088 290.0293 341.81338 291.13386 341.81338 Z" fill="#fcecaa"/>
          <path d="M 291.13386 341.81338 L 317.1329 341.81338 C 318.2375 341.81338 319.1329 342.7088 319.1329 343.81338 L 319.1329 351.81243 C 319.1329 352.917 318.2375 353.81243 317.1329 353.81243 L 291.13386 353.81243 C 290.0293 353.81243 289.13386 352.917 289.13386 351.81243 L 289.13386 343.81338 C 289.13386 342.7088 290.0293 341.81338 291.13386 341.81338 Z" stroke="black" stroke-linecap="round" stroke-linejoin="round" stroke-width="0"/>
          <text transform="translate(294.13386 343.3129)" fill="#6d5000">
            <tspan font-family="Andale Mono" font-size="8" font-weight="400" fill="#6d5000" x=".39796543" y="7">5432</tspan>
          </text>
        </g>
        <g id="Graphic_1255">
          <text transform="translate(374.04485 352.2441)" fill="#ffb64c">
            <tspan font-family="Monaco" font-size="12" font-weight="400" fill="#ffb64c" x="0" y="12">primary</tspan>
          </text>
        </g>
      </g>
      <g id="Group_1245">
        <g id="Group_1247">
          <g id="Graphic_1250">
            <path d="M 334.38038 238.11028 L 464.3804 238.11028 C 472.66465 238.11028 479.3804 244.826 479.3804 253.11028 L 479.3804 273.1106 C 479.3804 281.39487 472.66465 288.1106 464.3804 288.1106 L 334.38038 288.1106 C 326.0961 288.1106 319.38038 281.39487 319.38038 273.1106 L 319.38038 253.11028 C 319.38038 244.826 326.0961 238.11028 334.38038 238.11028 Z" fill="#78d9ed"/>
            <path d="M 334.38038 238.11028 L 464.3804 238.11028 C 472.66465 238.11028 479.3804 244.826 479.3804 253.11028 L 479.3804 273.1106 C 479.3804 281.39487 472.66465 288.1106 464.3804 288.1106 L 334.38038 288.1106 C 326.0961 288.1106 319.38038 281.39487 319.38038 273.1106 L 319.38038 253.11028 C 319.38038 244.826 326.0961 238.11028 334.38038 238.11028 Z" stroke="black" stroke-linecap="round" stroke-linejoin="round" stroke-width="0"/>
          </g>
          <g id="Graphic_1248">
            <text transform="translate(355.17335 253.0316)" fill="white">
              <tspan font-family="Monaco" font-size="16" font-weight="400" fill="white" x="0" y="16">Pgbouncer</tspan>
            </text>
          </g>
        </g>
        <g id="Graphic_1246" filter="url(#Shadow_2)">
          <path d="M 291.13386 257.1109 L 317.1329 257.1109 C 318.2375 257.1109 319.1329 258.00634 319.1329 259.1109 L 319.1329 267.10997 C 319.1329 268.21454 318.2375 269.10997 317.1329 269.10997 L 291.13386 269.10997 C 290.0293 269.10997 289.13386 268.21454 289.13386 267.10997 L 289.13386 259.1109 C 289.13386 258.00634 290.0293 257.1109 291.13386 257.1109 Z" fill="#fcecaa"/>
          <path d="M 291.13386 257.1109 L 317.1329 257.1109 C 318.2375 257.1109 319.1329 258.00634 319.1329 259.1109 L 319.1329 267.10997 C 319.1329 268.21454 318.2375 269.10997 317.1329 269.10997 L 291.13386 269.10997 C 290.0293 269.10997 289.13386 268.21454 289.13386 267.10997 L 289.13386 259.1109 C 289.13386 258.00634 290.0293 257.1109 291.13386 257.1109 Z" stroke="black" stroke-linecap="round" stroke-linejoin="round" stroke-width="0"/>
          <text transform="translate(294.13386 258.61044)" fill="#6d5000">
            <tspan font-family="Andale Mono" font-size="8" font-weight="400" fill="#6d5000" x=".39796543" y="7">6432</tspan>
          </text>
        </g>
      </g>
      <g id="Graphic_1302" filter="url(#Shadow_2)">
        <path d="M 935.4451 256.75645 L 961.4442 256.75645 C 962.5487 256.75645 963.4442 257.65188 963.4442 258.75645 L 963.4442 266.7555 C 963.4442 267.86007 962.5487 268.7555 961.4442 268.7555 L 935.4451 268.7555 C 934.3405 268.7555 933.4451 267.86007 933.4451 266.7555 L 933.4451 258.75645 C 933.4451 257.65188 934.3405 256.75645 935.4451 256.75645 Z" fill="#ff7c7b"/>
        <path d="M 935.4451 256.75645 L 961.4442 256.75645 C 962.5487 256.75645 963.4442 257.65188 963.4442 258.75645 L 963.4442 266.7555 C 963.4442 267.86007 962.5487 268.7555 961.4442 268.7555 L 935.4451 268.7555 C 934.3405 268.7555 933.4451 267.86007 933.4451 266.7555 L 933.4451 258.75645 C 933.4451 257.65188 934.3405 256.75645 935.4451 256.75645 Z" stroke="black" stroke-linecap="round" stroke-linejoin="round" stroke-width="0"/>
        <text transform="translate(938.4451 258.25598)" fill="#6d5000">
          <tspan font-family="Andale Mono" font-size="8" font-weight="400" fill="#6d5000" x=".39796543" y="7">9631</tspan>
        </text>
      </g>
      <g id="Graphic_1301">
        <path d="M 786.4551 237.75598 L 916.4551 237.75598 C 924.7393 237.75598 931.4551 244.4717 931.4551 252.75598 L 931.4551 272.75598 C 931.4551 281.04025 924.7393 287.75598 916.4551 287.75598 L 786.4551 287.75598 C 778.1708 287.75598 771.4551 281.04025 771.4551 272.75598 L 771.4551 252.75598 C 771.4551 244.4717 778.1708 237.75598 786.4551 237.75598 Z" fill="#ff7c7b"/>
        <path d="M 786.4551 237.75598 L 916.4551 237.75598 C 924.7393 237.75598 931.4551 244.4717 931.4551 252.75598 L 931.4551 272.75598 C 931.4551 281.04025 924.7393 287.75598 916.4551 287.75598 L 786.4551 287.75598 C 778.1708 287.75598 771.4551 281.04025 771.4551 272.75598 L 771.4551 252.75598 C 771.4551 244.4717 778.1708 237.75598 786.4551 237.75598 Z" stroke="black" stroke-linecap="round" stroke-linejoin="round" stroke-width="0"/>
      </g>
      <g id="Graphic_1300">
        <text transform="translate(812.4376 251.61418)" fill="white">
          <tspan font-family="Monaco" font-size="16" font-weight="400" fill="white" x="0" y="16">PGB</tspan>
        </text>
      </g>
      <g id="Graphic_1298">
        <text transform="translate(856.043 256.7283)" fill="white">
          <tspan font-family="Monaco" font-size="10" font-weight="400" fill="white" x="0" y="10">Exporter</tspan>
        </text>
      </g>
      <g id="Graphic_1309" filter="url(#Shadow_2)">
        <path d="M 935.4451 427.54376 L 961.4442 427.54376 C 962.5487 427.54376 963.4442 428.4392 963.4442 429.54376 L 963.4442 437.5428 C 963.4442 438.6474 962.5487 439.5428 961.4442 439.5428 L 935.4451 439.5428 C 934.3405 439.5428 933.4451 438.6474 933.4451 437.5428 L 933.4451 429.54376 C 933.4451 428.4392 934.3405 427.54376 935.4451 427.54376 Z" fill="#ff7c7b"/>
        <path d="M 935.4451 427.54376 L 961.4442 427.54376 C 962.5487 427.54376 963.4442 428.4392 963.4442 429.54376 L 963.4442 437.5428 C 963.4442 438.6474 962.5487 439.5428 961.4442 439.5428 L 935.4451 439.5428 C 934.3405 439.5428 933.4451 438.6474 933.4451 437.5428 L 933.4451 429.54376 C 933.4451 428.4392 934.3405 427.54376 935.4451 427.54376 Z" stroke="black" stroke-linecap="round" stroke-linejoin="round" stroke-width="0"/>
        <text transform="translate(938.4451 429.0433)" fill="#6d5000">
          <tspan font-family="Andale Mono" font-size="8" font-weight="400" fill="#6d5000" x=".39796543" y="7">9100</tspan>
        </text>
      </g>
      <g id="Graphic_1308">
        <path d="M 786.4551 408.5433 L 916.4551 408.5433 C 924.7393 408.5433 931.4551 415.259 931.4551 423.5433 L 931.4551 443.5433 C 931.4551 451.82756 924.7393 458.5433 916.4551 458.5433 L 786.4551 458.5433 C 778.1708 458.5433 771.4551 451.82756 771.4551 443.5433 L 771.4551 423.5433 C 771.4551 415.259 778.1708 408.5433 786.4551 408.5433 Z" fill="#ff7c7b"/>
        <path d="M 786.4551 408.5433 L 916.4551 408.5433 C 924.7393 408.5433 931.4551 415.259 931.4551 423.5433 L 931.4551 443.5433 C 931.4551 451.82756 924.7393 458.5433 916.4551 458.5433 L 786.4551 458.5433 C 778.1708 458.5433 771.4551 451.82756 771.4551 443.5433 L 771.4551 423.5433 C 771.4551 415.259 778.1708 408.5433 786.4551 408.5433 Z" stroke="black" stroke-linecap="round" stroke-linejoin="round" stroke-width="0"/>
      </g>
      <g id="Graphic_1307">
        <text transform="translate(807.6368 422.4015)" fill="white">
          <tspan font-family="Monaco" font-size="16" font-weight="400" fill="white" x="0" y="16">Node</tspan>
        </text>
      </g>
      <g id="Graphic_1305">
        <text transform="translate(856.043 427.5156)" fill="white">
          <tspan font-family="Monaco" font-size="10" font-weight="400" fill="white" x="0" y="10">Exporter</tspan>
        </text>
      </g>
      <g id="Group_1320">
        <g id="Graphic_1282" filter="url(#Shadow_2)">
          <path d="M 558.3211 128.11077 L 584.32014 128.11077 C 585.4247 128.11077 586.32014 129.0062 586.32014 130.11077 L 586.32014 138.10982 C 586.32014 139.2144 585.4247 140.10982 584.32014 140.10982 L 558.3211 140.10982 C 557.2165 140.10982 556.3211 139.2144 556.3211 138.10982 L 556.3211 130.11077 C 556.3211 129.0062 557.2165 128.11077 558.3211 128.11077 Z" fill="#fcecaa"/>
          <path d="M 558.3211 128.11077 L 584.32014 128.11077 C 585.4247 128.11077 586.32014 129.0062 586.32014 130.11077 L 586.32014 138.10982 C 586.32014 139.2144 585.4247 140.10982 584.32014 140.10982 L 558.3211 140.10982 C 557.2165 140.10982 556.3211 139.2144 556.3211 138.10982 L 556.3211 130.11077 C 556.3211 129.0062 557.2165 128.11077 558.3211 128.11077 Z" stroke="black" stroke-linecap="round" stroke-linejoin="round" stroke-width="0"/>
          <text transform="translate(561.3211 129.6103)" fill="#ffb64d">
            <tspan font-family="Andale Mono" font-size="8" font-weight="400" fill="#ffb64d" x=".39796543" y="7">5433</tspan>
          </text>
        </g>
        <g id="Graphic_1281" filter="url(#Shadow_2)">
          <path d="M 591.542 128.11077 L 617.5411 128.11077 C 618.6456 128.11077 619.5411 129.0062 619.5411 130.11077 L 619.5411 138.10982 C 619.5411 139.2144 618.6456 140.10982 617.5411 140.10982 L 591.542 140.10982 C 590.43744 140.10982 589.542 139.2144 589.542 138.10982 L 589.542 130.11077 C 589.542 129.0062 590.43744 128.11077 591.542 128.11077 Z" fill="#fcecaa"/>
          <path d="M 591.542 128.11077 L 617.5411 128.11077 C 618.6456 128.11077 619.5411 129.0062 619.5411 130.11077 L 619.5411 138.10982 C 619.5411 139.2144 618.6456 140.10982 617.5411 140.10982 L 591.542 140.10982 C 590.43744 140.10982 589.542 139.2144 589.542 138.10982 L 589.542 130.11077 C 589.542 129.0062 590.43744 128.11077 591.542 128.11077 Z" stroke="black" stroke-linecap="round" stroke-linejoin="round" stroke-width="0"/>
          <text transform="translate(594.542 129.6103)" fill="#5bc59f">
            <tspan font-family="Andale Mono" font-size="8" font-weight="400" fill="#5bc59f" x=".39796543" y="7">5434</tspan>
          </text>
        </g>
        <g id="Graphic_1280" filter="url(#Shadow_2)">
          <path d="M 625.2437 127.97701 L 651.2428 127.97701 C 652.3473 127.97701 653.2428 128.87244 653.2428 129.97701 L 653.2428 137.97606 C 653.2428 139.08063 652.3473 139.97606 651.2428 139.97606 L 625.2437 139.97606 C 624.1391 139.97606 623.2437 139.08063 623.2437 137.97606 L 623.2437 129.97701 C 623.2437 128.87244 624.1391 127.97701 625.2437 127.97701 Z" fill="#fcecaa"/>
          <path d="M 625.2437 127.97701 L 651.2428 127.97701 C 652.3473 127.97701 653.2428 128.87244 653.2428 129.97701 L 653.2428 137.97606 C 653.2428 139.08063 652.3473 139.97606 651.2428 139.97606 L 625.2437 139.97606 C 624.1391 139.97606 623.2437 139.08063 623.2437 137.97606 L 623.2437 129.97701 C 623.2437 128.87244 624.1391 127.97701 625.2437 127.97701 Z" stroke="black" stroke-linecap="round" stroke-linejoin="round" stroke-width="0"/>
          <text transform="translate(628.2437 129.47654)" fill="#aa0a04">
            <tspan font-family="Andale Mono" font-size="8" font-weight="400" fill="#aa0a04" x=".39796543" y="7">5436</tspan>
          </text>
        </g>
        <g id="Graphic_1279" filter="url(#Shadow_2)">
          <path d="M 658.4646 127.97701 L 684.4637 127.97701 C 685.56826 127.97701 686.4637 128.87244 686.4637 129.97701 L 686.4637 137.97606 C 686.4637 139.08063 685.56826 139.97606 684.4637 139.97606 L 658.4646 139.97606 C 657.3601 139.97606 656.4646 139.08063 656.4646 137.97606 L 656.4646 129.97701 C 656.4646 128.87244 657.3601 127.97701 658.4646 127.97701 Z" fill="#fcecaa"/>
          <path d="M 658.4646 127.97701 L 684.4637 127.97701 C 685.56826 127.97701 686.4637 128.87244 686.4637 129.97701 L 686.4637 137.97606 C 686.4637 139.08063 685.56826 139.97606 684.4637 139.97606 L 658.4646 139.97606 C 657.3601 139.97606 656.4646 139.08063 656.4646 137.97606 L 656.4646 129.97701 C 656.4646 128.87244 657.3601 127.97701 658.4646 127.97701 Z" stroke="black" stroke-linecap="round" stroke-linejoin="round" stroke-width="0"/>
          <text transform="translate(661.4646 129.47654)" fill="#658e98">
            <tspan font-family="Andale Mono" font-size="8" font-weight="400" fill="#658e98" x=".39796543" y="7">5438</tspan>
          </text>
        </g>
        <g id="Group_1275">
          <g id="Graphic_1278">
            <path d="M 557.08245 140.52705 L 687.08245 140.52705 C 695.3667 140.52705 702.08245 147.24278 702.08245 155.52705 L 702.08245 175.52705 C 702.08245 183.81132 695.3667 190.52705 687.08245 190.52705 L 557.08245 190.52705 C 548.7982 190.52705 542.08245 183.81132 542.08245 175.52705 L 542.08245 155.52705 C 542.08245 147.24278 548.7982 140.52705 557.08245 140.52705 Z" fill="#88ccb1"/>
            <path d="M 557.08245 140.52705 L 687.08245 140.52705 C 695.3667 140.52705 702.08245 147.24278 702.08245 155.52705 L 702.08245 175.52705 C 702.08245 183.81132 695.3667 190.52705 687.08245 190.52705 L 557.08245 190.52705 C 548.7982 190.52705 542.08245 183.81132 542.08245 175.52705 L 542.08245 155.52705 C 542.08245 147.24278 548.7982 140.52705 557.08245 140.52705 Z" stroke="black" stroke-linecap="round" stroke-linejoin="round" stroke-width="0"/>
          </g>
          <g id="Graphic_1277">
            <text transform="translate(583.1024 153.85908)" fill="white">
              <tspan font-family="Monaco" font-size="16" font-weight="400" fill="white" x="0" y="16">Haproxy</tspan>
            </text>
          </g>
        </g>
        <g id="Graphic_1310" filter="url(#Shadow_2)">
          <path d="M 706.0725 160.44875 L 732.0716 160.44875 C 733.1761 160.44875 734.0716 161.34418 734.0716 162.44875 L 734.0716 170.4478 C 734.0716 171.55238 733.1761 172.4478 732.0716 172.4478 L 706.0725 172.4478 C 704.9679 172.4478 704.0725 171.55238 704.0725 170.4478 L 704.0725 162.44875 C 704.0725 161.34418 704.9679 160.44875 706.0725 160.44875 Z" fill="#ff7c7b"/>
          <path d="M 706.0725 160.44875 L 732.0716 160.44875 C 733.1761 160.44875 734.0716 161.34418 734.0716 162.44875 L 734.0716 170.4478 C 734.0716 171.55238 733.1761 172.4478 732.0716 172.4478 L 706.0725 172.4478 C 704.9679 172.4478 704.0725 171.55238 704.0725 170.4478 L 704.0725 162.44875 C 704.0725 161.34418 704.9679 160.44875 706.0725 160.44875 Z" stroke="black" stroke-linecap="round" stroke-linejoin="round" stroke-width="0"/>
          <text transform="translate(709.0725 161.94828)" fill="#6d5000">
            <tspan font-family="Andale Mono" font-size="8" font-weight="400" fill="#6d5000" x=".39796543" y="7">9101</tspan>
          </text>
        </g>
      </g>
      <g id="Graphic_1317" filter="url(#Shadow_2)">
        <path d="M 935.4451 341.7958 L 961.4442 341.7958 C 962.5487 341.7958 963.4442 342.69123 963.4442 343.7958 L 963.4442 351.79485 C 963.4442 352.89942 962.5487 353.79485 961.4442 353.79485 L 935.4451 353.79485 C 934.3405 353.79485 933.4451 352.89942 933.4451 351.79485 L 933.4451 343.7958 C 933.4451 342.69123 934.3405 341.7958 935.4451 341.7958 Z" fill="#ff7c7b"/>
        <path d="M 935.4451 341.7958 L 961.4442 341.7958 C 962.5487 341.7958 963.4442 342.69123 963.4442 343.7958 L 963.4442 351.79485 C 963.4442 352.89942 962.5487 353.79485 961.4442 353.79485 L 935.4451 353.79485 C 934.3405 353.79485 933.4451 352.89942 933.4451 351.79485 L 933.4451 343.7958 C 933.4451 342.69123 934.3405 341.7958 935.4451 341.7958 Z" stroke="black" stroke-linecap="round" stroke-linejoin="round" stroke-width="0"/>
        <text transform="translate(938.4451 343.29533)" fill="#6d5000">
          <tspan font-family="Andale Mono" font-size="8" font-weight="400" fill="#6d5000" x=".39796543" y="7">9630</tspan>
        </text>
      </g>
      <g id="Graphic_1316">
        <path d="M 786.4551 322.79533 L 916.4551 322.79533 C 924.7393 322.79533 931.4551 329.51105 931.4551 337.79533 L 931.4551 357.79533 C 931.4551 366.0796 924.7393 372.79533 916.4551 372.79533 L 786.4551 372.79533 C 778.1708 372.79533 771.4551 366.0796 771.4551 357.79533 L 771.4551 337.79533 C 771.4551 329.51105 778.1708 322.79533 786.4551 322.79533 Z" fill="#ff7c7b"/>
        <path d="M 786.4551 322.79533 L 916.4551 322.79533 C 924.7393 322.79533 931.4551 329.51105 931.4551 337.79533 L 931.4551 357.79533 C 931.4551 366.0796 924.7393 372.79533 916.4551 372.79533 L 786.4551 372.79533 C 778.1708 372.79533 771.4551 366.0796 771.4551 357.79533 L 771.4551 337.79533 C 771.4551 329.51105 778.1708 322.79533 786.4551 322.79533 Z" stroke="black" stroke-linecap="round" stroke-linejoin="round" stroke-width="0"/>
      </g>
      <g id="Graphic_1315">
        <text transform="translate(814.2384 336.65353)" fill="white">
          <tspan font-family="Monaco" font-size="16" font-weight="400" fill="white" x="0" y="16">PG</tspan>
        </text>
      </g>
      <g id="Graphic_1313">
        <text transform="translate(855.043 341.76765)" fill="white">
          <tspan font-family="Monaco" font-size="10" font-weight="400" fill="white" x="0" y="10">Exporter</tspan>
        </text>
      </g>
      <g id="Group_1325">
        <g id="Graphic_1329">
          <path d="M 557.08245 53.858315 L 687.08245 53.858315 C 695.3667 53.858315 702.08245 60.574044 702.08245 68.858315 L 702.08245 88.85832 C 702.08245 97.14259 695.3667 103.85832 687.08245 103.85832 L 557.08245 103.85832 C 548.7982 103.85832 542.08245 97.14259 542.08245 88.85832 L 542.08245 68.858315 C 542.08245 60.574044 548.7982 53.858315 557.08245 53.858315 Z" fill="#2fd3ec" fill-opacity=".6975442"/>
          <path d="M 557.08245 53.858315 L 687.08245 53.858315 C 695.3667 53.858315 702.08245 60.574044 702.08245 68.858315 L 702.08245 88.85832 C 702.08245 97.14259 695.3667 103.85832 687.08245 103.85832 L 557.08245 103.85832 C 548.7982 103.85832 542.08245 97.14259 542.08245 88.85832 L 542.08245 68.858315 C 542.08245 60.574044 548.7982 53.858315 557.08245 53.858315 Z" stroke="black" stroke-linecap="round" stroke-linejoin="round" stroke-width="0"/>
        </g>
        <g id="Graphic_1328">
          <text transform="translate(582.1755 73.0315)" fill="white">
            <tspan font-family="Monaco" font-size="13" font-weight="400" fill="white" x="0" y="13">vip-manager</tspan>
          </text>
        </g>
      </g>
    </g>
    <g id="Node_Pure_Column">
      <title>Column</title>
      <g id="Graphic_1347" filter="url(#Shadow_3)">
        <path d="M 297.3111 226.71622 L 475.7363 226.71622 C 481.25915 226.71622 485.7363 231.19337 485.7363 236.71622 L 485.7363 549.84255 C 485.7363 555.3654 481.25915 559.84255 475.7363 559.84255 L 297.3111 559.84255 C 291.78826 559.84255 287.3111 555.3654 287.3111 549.84255 L 287.3111 236.71622 C 287.3111 231.19337 291.78826 226.71622 297.3111 226.71622 Z" fill="#fbfbfb" fill-opacity=".08"/>
      </g>
      <g id="Graphic_1346">
        <text transform="translate(348.11745 532.57026)" fill="#60acfd">
          <tspan font-family="Monaco" font-size="16" font-weight="400" fill="#60acfd" x="0" y="16">Database</tspan>
        </text>
      </g>
      <g id="Graphic_1410" filter="url(#Shadow_3)">
        <path d="M 759.5453 226.71622 L 937.9705 226.71622 C 943.4933 226.71622 947.9705 231.19337 947.9705 236.71622 L 947.9705 549.84255 C 947.9705 555.3654 943.4933 559.84255 937.9705 559.84255 L 759.5453 559.84255 C 754.0224 559.84255 749.5453 555.3654 749.5453 549.84255 L 749.5453 236.71622 C 749.5453 231.19337 754.0224 226.71622 759.5453 226.71622 Z" fill="#fbfbfb" fill-opacity=".08"/>
      </g>
      <g id="Graphic_1409">
        <text transform="translate(815.1524 532.57026)" fill="#60acfd">
          <tspan font-family="Monaco" font-size="16" font-weight="400" fill="#60acfd" x="0" y="16">Monitor</tspan>
        </text>
      </g>
    </g>
    <g id="Node_Pure_Legend">
      <title>Legend</title>
      <g id="Graphic_1390">
        <text transform="translate(500.0848 562.7166)" fill="#808adc" fill-opacity=".5026738">
          <tspan font-family="Monaco" font-size="12" font-weight="400" fill="#808adc" fill-opacity=".5026738" x="0" y="12">service discovery</tspan>
        </text>
      </g>
      <g id="Graphic_1391">
        <text transform="translate(507.286 583.85106)" fill="#808adc" fill-opacity=".5026738">
          <tspan font-family="Monaco" font-size="12" font-weight="400" fill="#808adc" fill-opacity=".5026738" x="0" y="12">leader election</tspan>
        </text>
      </g>
      <g id="Graphic_1392">
        <text transform="translate(518.08775 604.74614)" fill="#808adc" fill-opacity=".5026738">
          <tspan font-family="Monaco" font-size="12" font-weight="400" fill="#808adc" fill-opacity=".5026738" x="0" y="12">health check</tspan>
        </text>
      </g>
      <g id="Graphic_1395">
        <text transform="translate(639.9606 11.164397)" fill="#666">
          <tspan font-family="Monaco" font-size="12" font-weight="400" fill="#666" x="0" y="12">traffic</tspan>
        </text>
      </g>
      <g id="Graphic_1396">
        <text transform="translate(1144.5276 191.58365)" fill="#5cc49f" fill-opacity=".5136749">
          <tspan font-family="Monaco" font-size="12" font-weight="400" fill="#5cc49f" fill-opacity=".5136749" x="0" y="12">peer nodes</tspan>
        </text>
      </g>
      <g id="Graphic_1397">
        <text transform="translate(1155.3293 327.28173)" fill="#ff7c7b" fill-opacity=".5141606">
          <tspan font-family="Monaco" font-size="12" font-weight="400" fill="#ff7c7b" fill-opacity=".5141606" x="0" y="12">metrics</tspan>
        </text>
      </g>
      <g id="Graphic_1398">
        <text transform="translate(710.8268 327.35627)" fill="#ff7c7b" fill-opacity=".4548739">
          <tspan font-family="Monaco" font-size="12" font-weight="400" fill="#ff7c7b" fill-opacity=".4548739" x="0" y="12">scrape</tspan>
        </text>
      </g>
      <g id="Graphic_1399">
        <text transform="translate(737.0815 484.9185)" fill="#929292">
          <tspan font-family="Monaco" font-size="12" font-weight="400" fill="#929292" x="0" y="12">register</tspan>
        </text>
      </g>
      <g id="Graphic_1400">
        <text transform="translate(321.4706 479.8032)" fill="#808adc" fill-opacity=".5026738">
          <tspan font-family="Monaco" font-size="12" font-weight="400" fill="#808adc" fill-opacity=".5026738" x="0" y="12">consensus</tspan>
        </text>
      </g>
      <g id="Graphic_1401">
        <text transform="translate(321.4706 383.02264)" fill="#ff7b7b" fill-opacity=".5">
          <tspan font-family="Monaco" font-size="12" font-weight="400" fill="#ff7b7b" fill-opacity=".5" x="0" y="12">supervise</tspan>
        </text>
      </g>
      <g id="Graphic_1402">
        <text transform="translate(558.78096 416.6648)" fill="#949ede" fill-opacity=".5152406">
          <tspan font-family="Monaco" font-size="12" font-weight="400" fill="#949ede" fill-opacity=".5152406" x="3.600586" y="12">leader</tspan>
          <tspan font-family="Monaco" font-size="12" font-weight="400" fill="#949ede" fill-opacity=".5152406" x="0" y="28.001953">inquiry</tspan>
        </text>
      </g>
      <g id="Graphic_1403">
        <text transform="translate(328.67177 297.62914)" fill="#ffb64c" fill-opacity=".48769313">
          <tspan font-family="Monaco" font-size="12" font-weight="400" fill="#ffb64c" fill-opacity=".48769313" x="0" y="12">pooling</tspan>
        </text>
      </g>
      <g id="Graphic_1404">
        <text transform="translate(182.16535 404.6673)" fill="#949ede" fill-opacity=".37808004">
          <tspan font-family="Monaco" font-size="12" font-weight="400" fill="#949ede" fill-opacity=".37808004" x="0" y="12">health</tspan>
          <tspan font-family="Monaco" font-size="12" font-weight="400" fill="#949ede" fill-opacity=".37808004" x="3.600586" y="28.001953">check</tspan>
        </text>
      </g>
    </g>
  </g>
</svg>
