<?xml version='1.0' encoding='UTF-8'?>
<!DOCTYPE svg PUBLIC "-//W3C//DTD SVG 1.1//EN" "http://www.w3.org/Graphics/SVG/1.1/DTD/svg11.dtd">
<!-- Generated by graphviz version 3.0.0 (20220226.1711)
 --><!-- Pages: 1 --><svg xmlns="http://www.w3.org/2000/svg" xmlns:xlink="http://www.w3.org/1999/xlink" width="1697pt" height="724pt" viewBox="0.00 0.00 1696.72 724.00" id="svg">
<script type="text/javascript" href="https://ajax.googleapis.com/ajax/libs/jquery/3.2.1/jquery.min.js" id="jquery"/><script type="text/javascript" id="my_javascript"><![CDATA[/**
 * This file contains the functions responsible to highlight the plays, roles and tasks when rendering the SVG file in a browser
 * or any SVG reader that support Javascript.
 */

/**
 * The name of the CSS class for highlighted elements
 * @type {string}
 */
const HIGHLIGHT_CLASS = "highlight";

/**
 * The current selected element on the graph
 * @type {null}
 */
let currentSelectedElement = null;

/**
 * Highlight the linked nodes of the given root element
 * @param rootElement
 */
function highlightLinkedNodes(rootElement) {
    $(rootElement).find('link').each(function (index, element) {
        let target = $(element).attr('target');
        let currentElement = $('#' + target);
        currentElement.addClass(HIGHLIGHT_CLASS);

        // Recursively highlight
        highlightLinkedNodes(currentElement);
    })
}


/**
 * Unhighlight the linked nodes of the given root element
 * @param {Element} rootElement
 * @param {boolean} isHover True when we are coming from a mouseleave event. In that case, we should not unhighlight if
 * the rootElement is the current selected element
 */
function unHighlightLinkedNodes(rootElement, isHover) {
    const currentSelectedElementId = $(currentSelectedElement).attr('id');

    // Do not unhighlight the current current selected element
    if ($(rootElement).attr('id') !== currentSelectedElementId || !isHover) {

        $(rootElement).find('link').each(function (index, element) {
            let linkedElementId = $(element).attr('target');
            let linkedElement = $('#' + linkedElementId);

            if (linkedElement.attr("id") !== currentSelectedElementId) {
                linkedElement.removeClass(HIGHLIGHT_CLASS);
                // Recursively unhighlight
                unHighlightLinkedNodes(linkedElement, isHover);
            }
            
        })
    }

}

/**
 * Hover handler for mouseenter event
 * @param event
 */
function hoverMouseEnter(event) {
    highlightLinkedNodes(event.currentTarget);
}

/**
 * Hover handler for mouseleave event
 * @param event
 */
function hoverMouseLeave(event) {
    unHighlightLinkedNodes(event.currentTarget, true);
}

/**
 * Handler when clicking on some elements
 * @param event
 */
function clickOnElement(event) {
    let newClickedElement = $(event.currentTarget);

    if (newClickedElement.attr('id') === $(currentSelectedElement).attr('id')) { // clicking again on the same element
        newClickedElement.removeClass(HIGHLIGHT_CLASS);
        unHighlightLinkedNodes(currentSelectedElement, false);
        currentSelectedElement = null;
    } else { // clicking on a different node

        // Remove highlight from all the nodes linked the current selected node
        unHighlightLinkedNodes(currentSelectedElement, false);

        newClickedElement.addClass(HIGHLIGHT_CLASS);
        highlightLinkedNodes(newClickedElement);
        currentSelectedElement = newClickedElement;
    }
}


$("#svg").ready(function () {
    let plays = $("g[id^=play_]");
    let roles = $("g[id^=role_]");
    let blocks = $("g[id^=block_]");

    // Set hover and click events on the plays
    plays.hover(hoverMouseEnter, hoverMouseLeave);
    plays.click(clickOnElement);

    // Set hover and click events on the roles
    roles.hover(hoverMouseEnter, hoverMouseLeave);
    roles.click(clickOnElement);

    // Set hover and click events on the blocks
    blocks.hover(hoverMouseEnter, hoverMouseLeave);
    blocks.click(clickOnElement);

});
]]></script><style type="text/css" id="my_css"><![CDATA[/**
 Hover on nodes, edges, path and polygon
 */
.node:hover, .edge:hover, path:hover, path + polygon:hover {
    cursor: pointer;
    stroke-width: 3;
    font-weight: bolder;
}

/**
 Manually added class by the script highlight-hover.js when hovering on plays and roles
 */
.highlight {
    cursor: pointer;
    stroke-width: 3;
    font-weight: bolder;
}
]]></style><g id="graph0" class="graph" transform="scale(1 1) rotate(0) translate(4 720)">
<polygon fill="white" stroke="transparent" points="-4,4 -4,-720 1692.72,-720 1692.72,4 -4,4"/>
<g id="clust2" class="cluster">
<title>cluster_block_ffdb3a5a</title>
<polygon fill="none" stroke="black" points="790.08,-566 790.08,-672 1629.37,-672 1629.37,-566 790.08,-566"/>
</g>
<g id="clust3" class="cluster">
<title>cluster_block_f2f24053</title>
<polygon fill="none" stroke="black" points="821.58,-290 821.58,-558 1642.03,-558 1642.03,-290 821.58,-290"/>
</g>
<g id="clust4" class="cluster">
<title>cluster_block_d1a61b4f</title>
<polygon fill="none" stroke="black" points="804.08,-122 804.08,-282 1643.44,-282 1643.44,-122 804.08,-122"/>
</g>
<g id="clust5" class="cluster">
<title>cluster_block_383470e7</title>
<polygon fill="none" stroke="black" points="829.08,-8 829.08,-114 1680.72,-114 1680.72,-8 829.08,-8"/>
</g>
<!-- infra&#45;jupyter.yml -->
<g id="root_node" class="node">
<title>infra-jupyter.yml</title>
<ellipse fill="none" stroke="black" stroke-dasharray="1,5" cx="71.49" cy="-424" rx="71.49" ry="18"/>
<text text-anchor="middle" x="71.49" y="-420.3" font-family="Times,serif" font-size="14.00">infra-jupyter.yml</text>
</g>
<!-- play_282d64e2 -->
<g id="play_282d64e2" class="node">
<title>play_282d64e2</title>
<g id="a_play_282d64e2"><a xlink:title="10.10.10.10">
<polygon fill="#7cb616" stroke="#7cb616" points="360.99,-442 189.99,-442 189.99,-406 360.99,-406 360.99,-442"/>
<text text-anchor="middle" x="275.49" y="-420.3" font-family="Times,serif" font-size="14.00" fill="#ffffff">Play: Jupyter Lab Server (1)</text>
</a>
</g>
<links><link target="edge_e7f071a0"/><link target="edge_dd61aef9"/><link target="edge_b2ab652f"/><link target="edge_d26a930f"/><link target="edge_f0719d9b"/></links></g>
<!-- infra&#45;jupyter.yml&#45;&gt;play_282d64e2 -->
<g id="edge_e8e4d0d2" class="edge">
<title>infra-jupyter.yml-&gt;play_282d64e2</title>
<g id="a_edge_e8e4d0d2"><a xlink:title="1 ">
<path fill="none" stroke="#7cb616" d="M143.14,-424C154.87,-424 167.21,-424 179.43,-424" id="path_edge_e8e4d0d2"/>
<polygon fill="#7cb616" stroke="#7cb616" points="179.65,-427.5 189.65,-424 179.65,-420.5 179.65,-427.5"/>
</a>
</g>
<g id="a_edge_e8e4d0d2-label"><a xlink:title="1 ">
<text text-anchor="middle" font-family="Times,serif" font-size="14.00" fill="#7cb616" dy="-1%"><textPath xlink:href="#path_edge_e8e4d0d2" text-anchor="middle" startOffset="50%">1 </textPath></text>
</a>
</g>
<links><link target="play_282d64e2"/></links></g>
<!-- task_3582e257 -->
<g id="task_3582e257" class="node">
<title>task_3582e257</title>
<g id="a_task_3582e257"><a xlink:title="Create jupyter user jupyter">
<polygon fill="none" stroke="#7cb616" points="1062.25,-690.54 1062.25,-705.46 981.02,-716 866.13,-716 784.9,-705.46 784.9,-690.54 866.13,-680 981.02,-680 1062.25,-690.54"/>
<text text-anchor="middle" x="923.58" y="-694.3" font-family="Times,serif" font-size="14.00">[task] Create jupyter user jupyter</text>
</a>
</g>
</g>
<!-- play_282d64e2&#45;&gt;task_3582e257 -->
<g id="edge_e7f071a0" class="edge">
<title>play_282d64e2-&gt;task_3582e257</title>
<g id="a_edge_e7f071a0"><a xlink:title="1 [when: jupyter_username != 'root' and jupyter_username != 'default']">
<path fill="none" stroke="#7cb616" d="M283.72,-442.19C297.35,-474.05 329.95,-539.82 378.99,-574 495.89,-655.48 658.09,-684.26 774.84,-694" id="path_edge_e7f071a0"/>
<polygon fill="#7cb616" stroke="#7cb616" points="774.68,-697.5 784.93,-694.8 775.24,-690.52 774.68,-697.5"/>
</a>
</g>
<g id="a_edge_e7f071a0-label"><a xlink:title="1 [when: jupyter_username != 'root' and jupyter_username != 'default']">
<text text-anchor="middle" font-family="Times,serif" font-size="14.00" fill="#7cb616" dy="-1%"><textPath xlink:href="#path_edge_e7f071a0" text-anchor="middle" startOffset="50%">1 [when: jupyter_username != 'root' and jupyter_username != 'default']</textPath></text>
</a>
</g>
<links><link target="task_3582e257"/></links></g>
<!-- block_ffdb3a5a -->
<g id="block_ffdb3a5a" class="node">
<title>block_ffdb3a5a</title>
<g id="a_block_ffdb3a5a"><a xlink:title="Get current username when default">
<polygon fill="none" stroke="#7cb616" points="1049.08,-610 798.08,-610 798.08,-574 1049.08,-574 1049.08,-610"/>
<text text-anchor="middle" x="923.58" y="-588.3" font-family="Times,serif" font-size="14.00">[block] Get current username when default</text>
</a>
</g>
<links><link target="edge_4399423e"/><link target="edge_dd49cf59"/></links></g>
<!-- play_282d64e2&#45;&gt;block_ffdb3a5a -->
<g id="edge_dd61aef9" class="edge">
<title>play_282d64e2-&gt;block_ffdb3a5a</title>
<g id="a_edge_dd61aef9"><a xlink:title="2">
<path fill="none" stroke="#7cb616" d="M338.85,-442.01C434.48,-469.39 623.27,-522.45 784.99,-562 798.36,-565.27 812.52,-568.56 826.45,-571.69" id="path_edge_dd61aef9"/>
<polygon fill="#7cb616" stroke="#7cb616" points="826.03,-575.18 836.55,-573.94 827.55,-568.35 826.03,-575.18"/>
</a>
</g>
<g id="a_edge_dd61aef9-label"><a xlink:title="2">
<text text-anchor="middle" font-family="Times,serif" font-size="14.00" fill="#7cb616" dy="-1%"><textPath xlink:href="#path_edge_dd61aef9" text-anchor="middle" startOffset="50%">2</textPath></text>
</a>
</g>
<links><link target="block_ffdb3a5a"/></links></g>
<!-- block_f2f24053 -->
<g id="block_f2f24053" class="node">
<title>block_f2f24053</title>
<g id="a_block_f2f24053"><a xlink:title="Generate jupyter config">
<polygon fill="none" stroke="#7cb616" points="1017.58,-442 829.58,-442 829.58,-406 1017.58,-406 1017.58,-442"/>
<text text-anchor="middle" x="923.58" y="-420.3" font-family="Times,serif" font-size="14.00">[block] Generate jupyter config</text>
</a>
</g>
<links><link target="edge_6df6c2a0"/><link target="edge_541bc17a"/><link target="edge_f8b5b95d"/><link target="edge_aa73aadb"/><link target="edge_df08d7a6"/></links></g>
<!-- play_282d64e2&#45;&gt;block_f2f24053 -->
<g id="edge_b2ab652f" class="edge">
<title>play_282d64e2-&gt;block_f2f24053</title>
<g id="a_edge_b2ab652f"><a xlink:title="3">
<path fill="none" stroke="#7cb616" d="M361.28,-424C479.2,-424 692.47,-424 819.45,-424" id="path_edge_b2ab652f"/>
<polygon fill="#7cb616" stroke="#7cb616" points="819.57,-427.5 829.57,-424 819.57,-420.5 819.57,-427.5"/>
</a>
</g>
<g id="a_edge_b2ab652f-label"><a xlink:title="3">
<text text-anchor="middle" font-family="Times,serif" font-size="14.00" fill="#7cb616" dy="-1%"><textPath xlink:href="#path_edge_b2ab652f" text-anchor="middle" startOffset="50%">3</textPath></text>
</a>
</g>
<links><link target="block_f2f24053"/></links></g>
<!-- block_d1a61b4f -->
<g id="block_d1a61b4f" class="node">
<title>block_d1a61b4f</title>
<g id="a_block_d1a61b4f"><a xlink:title="Setup jupyter systemd service">
<polygon fill="none" stroke="#7cb616" points="1035.08,-247 812.08,-247 812.08,-211 1035.08,-211 1035.08,-247"/>
<text text-anchor="middle" x="923.58" y="-225.3" font-family="Times,serif" font-size="14.00">[block] Setup jupyter systemd service</text>
</a>
</g>
<links><link target="edge_9e8fce73"/><link target="edge_3667b71b"/><link target="edge_e618ef8b"/></links></g>
<!-- play_282d64e2&#45;&gt;block_d1a61b4f -->
<g id="edge_d26a930f" class="edge">
<title>play_282d64e2-&gt;block_d1a61b4f</title>
<g id="a_edge_d26a930f"><a xlink:title="4">
<path fill="none" stroke="#7cb616" d="M336.4,-405.92C456.37,-369.71 725.5,-288.48 853.02,-249.99" id="path_edge_d26a930f"/>
<polygon fill="#7cb616" stroke="#7cb616" points="854.13,-253.31 862.69,-247.07 852.11,-246.61 854.13,-253.31"/>
</a>
</g>
<g id="a_edge_d26a930f-label"><a xlink:title="4">
<text text-anchor="middle" font-family="Times,serif" font-size="14.00" fill="#7cb616" dy="-1%"><textPath xlink:href="#path_edge_d26a930f" text-anchor="middle" startOffset="50%">4</textPath></text>
</a>
</g>
<links><link target="block_d1a61b4f"/></links></g>
<!-- block_383470e7 -->
<g id="block_383470e7" class="node">
<title>block_383470e7</title>
<g id="a_block_383470e7"><a xlink:title="Jupyter Nginx Proxy">
<polygon fill="none" stroke="#7cb616" points="1010.08,-106 837.08,-106 837.08,-70 1010.08,-70 1010.08,-106"/>
<text text-anchor="middle" x="923.58" y="-84.3" font-family="Times,serif" font-size="14.00">[block] Jupyter Nginx Proxy</text>
</a>
</g>
<links><link target="edge_8506631f"/><link target="edge_cf57e3b3"/></links></g>
<!-- play_282d64e2&#45;&gt;block_383470e7 -->
<g id="edge_f0719d9b" class="edge">
<title>play_282d64e2-&gt;block_383470e7</title>
<g id="a_edge_f0719d9b"><a xlink:title="5">
<path fill="none" stroke="#7cb616" d="M282.84,-405.83C295.67,-371.73 327.87,-297.93 378.99,-257 511.12,-151.22 709.73,-111.34 826.75,-96.52" id="path_edge_f0719d9b"/>
<polygon fill="#7cb616" stroke="#7cb616" points="827.27,-99.99 836.77,-95.29 826.42,-93.04 827.27,-99.99"/>
</a>
</g>
<g id="a_edge_f0719d9b-label"><a xlink:title="5">
<text text-anchor="middle" font-family="Times,serif" font-size="14.00" fill="#7cb616" dy="-1%"><textPath xlink:href="#path_edge_f0719d9b" text-anchor="middle" startOffset="50%">5</textPath></text>
</a>
</g>
<links><link target="block_383470e7"/></links></g>
<!-- task_ddada8dd -->
<g id="task_ddada8dd" class="node">
<title>task_ddada8dd</title>
<g id="a_task_ddada8dd"><a xlink:title="Overwrite jupyter username">
<polygon fill="none" stroke="#7cb616" points="1615.13,-584.54 1615.13,-599.46 1545.02,-610 1445.87,-610 1375.76,-599.46 1375.76,-584.54 1445.87,-574 1545.02,-574 1615.13,-584.54"/>
<text text-anchor="middle" x="1495.44" y="-588.3" font-family="Times,serif" font-size="14.00">Overwrite jupyter username</text>
</a>
</g>
</g>
<!-- block_ffdb3a5a&#45;&gt;task_ddada8dd -->
<g id="edge_dd49cf59" class="edge">
<title>block_ffdb3a5a-&gt;task_ddada8dd</title>
<g id="a_edge_dd49cf59"><a xlink:title="2 [when: jupyter_username == 'default']">
<path fill="none" stroke="#7cb616" d="M1049.28,-592C1142.83,-592 1270.53,-592 1365.17,-592" id="path_edge_dd49cf59"/>
<polygon fill="#7cb616" stroke="#7cb616" points="1365.38,-595.5 1375.38,-592 1365.38,-588.5 1365.38,-595.5"/>
</a>
</g>
<g id="a_edge_dd49cf59-label"><a xlink:title="2 [when: jupyter_username == 'default']">
<text text-anchor="middle" font-family="Times,serif" font-size="14.00" fill="#7cb616" dy="-1%"><textPath xlink:href="#path_edge_dd49cf59" text-anchor="middle" startOffset="50%">2 [when: jupyter_username == 'default']</textPath></text>
</a>
</g>
<links><link target="task_ddada8dd"/></links></g>
<!-- task_5d4291b3 -->
<g id="task_5d4291b3" class="node">
<title>task_5d4291b3</title>
<g id="a_task_5d4291b3"><a xlink:title="Run whoami without become">
<polygon fill="none" stroke="#7cb616" points="1621.29,-638.54 1621.29,-653.46 1547.57,-664 1443.31,-664 1369.59,-653.46 1369.59,-638.54 1443.31,-628 1547.57,-628 1621.29,-638.54"/>
<text text-anchor="middle" x="1495.44" y="-642.3" font-family="Times,serif" font-size="14.00">Run whoami without become</text>
</a>
</g>
</g>
<!-- block_ffdb3a5a&#45;&gt;task_5d4291b3 -->
<g id="edge_4399423e" class="edge">
<title>block_ffdb3a5a-&gt;task_5d4291b3</title>
<g id="a_edge_4399423e"><a xlink:title="1 [when: jupyter_username == 'default']">
<path fill="none" stroke="#7cb616" d="M1049.36,-607.65C1059.78,-608.83 1070.15,-609.97 1080.16,-611 1176.48,-620.95 1285.62,-630.08 1367.69,-636.52" id="path_edge_4399423e"/>
<polygon fill="#7cb616" stroke="#7cb616" points="1367.57,-640.02 1377.82,-637.31 1368.12,-633.04 1367.57,-640.02"/>
</a>
</g>
<g id="a_edge_4399423e-label"><a xlink:title="1 [when: jupyter_username == 'default']">
<text text-anchor="middle" font-family="Times,serif" font-size="14.00" fill="#7cb616" dy="-1%"><textPath xlink:href="#path_edge_4399423e" text-anchor="middle" startOffset="50%">1 [when: jupyter_username == 'default']</textPath></text>
</a>
</g>
<links><link target="task_5d4291b3"/></links></g>
<!-- task_e1aed3bc -->
<g id="task_e1aed3bc" class="node">
<title>task_e1aed3bc</title>
<g id="a_task_e1aed3bc"><a xlink:title="Write jupyter lab password file">
<polygon fill="none" stroke="#7cb616" points="1625.74,-308.54 1625.74,-323.46 1549.41,-334 1441.47,-334 1365.15,-323.46 1365.15,-308.54 1441.47,-298 1549.41,-298 1625.74,-308.54"/>
<text text-anchor="middle" x="1495.44" y="-312.3" font-family="Times,serif" font-size="14.00">Write jupyter lab password file</text>
</a>
</g>
</g>
<!-- block_f2f24053&#45;&gt;task_e1aed3bc -->
<g id="edge_df08d7a6" class="edge">
<title>block_f2f24053-&gt;task_e1aed3bc</title>
<g id="a_edge_df08d7a6"><a xlink:title="5 ">
<path fill="none" stroke="#7cb616" d="M965.02,-405.9C995.95,-392.81 1039.97,-375.77 1080.16,-366 1170.62,-344.01 1274.66,-331.5 1355.84,-324.49" id="path_edge_df08d7a6"/>
<polygon fill="#7cb616" stroke="#7cb616" points="1356.46,-327.95 1366.13,-323.62 1355.87,-320.97 1356.46,-327.95"/>
</a>
</g>
<g id="a_edge_df08d7a6-label"><a xlink:title="5 ">
<text text-anchor="middle" font-family="Times,serif" font-size="14.00" fill="#7cb616" dy="-1%"><textPath xlink:href="#path_edge_df08d7a6" text-anchor="middle" startOffset="50%">5 </textPath></text>
</a>
</g>
<links><link target="task_e1aed3bc"/></links></g>
<!-- task_cfa6dcd1 -->
<g id="task_cfa6dcd1" class="node">
<title>task_cfa6dcd1</title>
<g id="a_task_cfa6dcd1"><a xlink:title="Generate jupyter salted password">
<polygon fill="none" stroke="#7cb616" points="1634.12,-362.54 1634.12,-377.46 1552.88,-388 1438,-388 1356.77,-377.46 1356.77,-362.54 1438,-352 1552.88,-352 1634.12,-362.54"/>
<text text-anchor="middle" x="1495.44" y="-366.3" font-family="Times,serif" font-size="14.00">Generate jupyter salted password</text>
</a>
</g>
</g>
<!-- block_f2f24053&#45;&gt;task_cfa6dcd1 -->
<g id="edge_aa73aadb" class="edge">
<title>block_f2f24053-&gt;task_cfa6dcd1</title>
<g id="a_edge_aa73aadb"><a xlink:title="4 ">
<path fill="none" stroke="#7cb616" d="M1017.89,-412.03C1038.39,-409.56 1060,-407.08 1080.16,-405 1173.46,-395.37 1278.78,-386.49 1359.88,-380.09" id="path_edge_aa73aadb"/>
<polygon fill="#7cb616" stroke="#7cb616" points="1360.46,-383.56 1370.15,-379.29 1359.91,-376.58 1360.46,-383.56"/>
</a>
</g>
<g id="a_edge_aa73aadb-label"><a xlink:title="4 ">
<text text-anchor="middle" font-family="Times,serif" font-size="14.00" fill="#7cb616" dy="-1%"><textPath xlink:href="#path_edge_aa73aadb" text-anchor="middle" startOffset="50%">4 </textPath></text>
</a>
</g>
<links><link target="task_cfa6dcd1"/></links></g>
<!-- task_a6e65ac6 -->
<g id="task_a6e65ac6" class="node">
<title>task_a6e65ac6</title>
<g id="a_task_a6e65ac6"><a xlink:title="Generate jupyter config">
<polygon fill="none" stroke="#7cb616" points="1597.46,-416.54 1597.46,-431.46 1537.7,-442 1453.19,-442 1393.43,-431.46 1393.43,-416.54 1453.19,-406 1537.7,-406 1597.46,-416.54"/>
<text text-anchor="middle" x="1495.44" y="-420.3" font-family="Times,serif" font-size="14.00">Generate jupyter config</text>
</a>
</g>
</g>
<!-- block_f2f24053&#45;&gt;task_a6e65ac6 -->
<g id="edge_f8b5b95d" class="edge">
<title>block_f2f24053-&gt;task_a6e65ac6</title>
<g id="a_edge_f8b5b95d"><a xlink:title="3 ">
<path fill="none" stroke="#7cb616" d="M1017.72,-424C1117.69,-424 1276.45,-424 1382.98,-424" id="path_edge_f8b5b95d"/>
<polygon fill="#7cb616" stroke="#7cb616" points="1383.12,-427.5 1393.12,-424 1383.12,-420.5 1383.12,-427.5"/>
</a>
</g>
<g id="a_edge_f8b5b95d-label"><a xlink:title="3 ">
<text text-anchor="middle" font-family="Times,serif" font-size="14.00" fill="#7cb616" dy="-1%"><textPath xlink:href="#path_edge_f8b5b95d" text-anchor="middle" startOffset="50%">3 </textPath></text>
</a>
</g>
<links><link target="task_a6e65ac6"/></links></g>
<!-- task_329c3fc8 -->
<g id="task_329c3fc8" class="node">
<title>task_329c3fc8</title>
<g id="a_task_329c3fc8"><a xlink:title="Create jupyter lab directory">
<polygon fill="none" stroke="#7cb616" points="1612.91,-470.54 1612.91,-485.46 1544.1,-496 1446.79,-496 1377.98,-485.46 1377.98,-470.54 1446.79,-460 1544.1,-460 1612.91,-470.54"/>
<text text-anchor="middle" x="1495.44" y="-474.3" font-family="Times,serif" font-size="14.00">Create jupyter lab directory</text>
</a>
</g>
</g>
<!-- block_f2f24053&#45;&gt;task_329c3fc8 -->
<g id="edge_541bc17a" class="edge">
<title>block_f2f24053-&gt;task_329c3fc8</title>
<g id="a_edge_541bc17a"><a xlink:title="2 ">
<path fill="none" stroke="#7cb616" d="M1017.89,-435.97C1038.39,-438.44 1060,-440.92 1080.16,-443 1178.55,-453.16 1290.31,-462.47 1372.94,-468.93" id="path_edge_541bc17a"/>
<polygon fill="#7cb616" stroke="#7cb616" points="1372.88,-472.44 1383.12,-469.73 1373.43,-465.46 1372.88,-472.44"/>
</a>
</g>
<g id="a_edge_541bc17a-label"><a xlink:title="2 ">
<text text-anchor="middle" font-family="Times,serif" font-size="14.00" fill="#7cb616" dy="-1%"><textPath xlink:href="#path_edge_541bc17a" text-anchor="middle" startOffset="50%">2 </textPath></text>
</a>
</g>
<links><link target="task_329c3fc8"/></links></g>
<!-- task_0df311da -->
<g id="task_0df311da" class="node">
<title>task_0df311da</title>
<g id="a_task_0df311da"><a xlink:title="Create jupyter config directory">
<polygon fill="none" stroke="#7cb616" points="1624.83,-524.54 1624.83,-539.46 1549.04,-550 1441.85,-550 1366.06,-539.46 1366.06,-524.54 1441.85,-514 1549.04,-514 1624.83,-524.54"/>
<text text-anchor="middle" x="1495.44" y="-528.3" font-family="Times,serif" font-size="14.00">Create jupyter config directory</text>
</a>
</g>
</g>
<!-- block_f2f24053&#45;&gt;task_0df311da -->
<g id="edge_6df6c2a0" class="edge">
<title>block_f2f24053-&gt;task_0df311da</title>
<g id="a_edge_6df6c2a0"><a xlink:title="1 ">
<path fill="none" stroke="#7cb616" d="M965.71,-442.01C996.62,-454.81 1040.31,-471.38 1080.16,-481 1171.7,-503.09 1277.05,-515.9 1358.6,-523.15" id="path_edge_6df6c2a0"/>
<polygon fill="#7cb616" stroke="#7cb616" points="1358.67,-526.67 1368.93,-524.05 1359.28,-519.7 1358.67,-526.67"/>
</a>
</g>
<g id="a_edge_6df6c2a0-label"><a xlink:title="1 ">
<text text-anchor="middle" font-family="Times,serif" font-size="14.00" fill="#7cb616" dy="-1%"><textPath xlink:href="#path_edge_6df6c2a0" text-anchor="middle" startOffset="50%">1 </textPath></text>
</a>
</g>
<links><link target="task_0df311da"/></links></g>
<!-- task_45192a2b -->
<g id="task_45192a2b" class="node">
<title>task_45192a2b</title>
<g id="a_task_45192a2b"><a xlink:title="Wait for jupyter lab online">
<polygon fill="none" stroke="#7cb616" points="1609.38,-140.54 1609.38,-155.46 1542.64,-166 1448.25,-166 1381.51,-155.46 1381.51,-140.54 1448.25,-130 1542.64,-130 1609.38,-140.54"/>
<text text-anchor="middle" x="1495.44" y="-144.3" font-family="Times,serif" font-size="14.00">Wait for jupyter lab online</text>
</a>
</g>
</g>
<!-- block_d1a61b4f&#45;&gt;task_45192a2b -->
<g id="edge_e618ef8b" class="edge">
<title>block_d1a61b4f-&gt;task_45192a2b</title>
<g id="a_edge_e618ef8b"><a xlink:title="3 ">
<path fill="none" stroke="#7cb616" d="M980.55,-210.93C1009.92,-202.11 1046.67,-192.11 1080.16,-186 1177.02,-168.32 1288.19,-158.69 1370.97,-153.56" id="path_edge_e618ef8b"/>
<polygon fill="#7cb616" stroke="#7cb616" points="1371.4,-157.04 1381.17,-152.94 1370.98,-150.05 1371.4,-157.04"/>
</a>
</g>
<g id="a_edge_e618ef8b-label"><a xlink:title="3 ">
<text text-anchor="middle" font-family="Times,serif" font-size="14.00" fill="#7cb616" dy="-1%"><textPath xlink:href="#path_edge_e618ef8b" text-anchor="middle" startOffset="50%">3 </textPath></text>
</a>
</g>
<links><link target="task_45192a2b"/></links></g>
<!-- task_58df60f5 -->
<g id="task_58df60f5" class="node">
<title>task_58df60f5</title>
<g id="a_task_58df60f5"><a xlink:title="Launch jupyter lab service unit">
<polygon fill="none" stroke="#7cb616" points="1626.14,-194.54 1626.14,-209.46 1549.58,-220 1441.31,-220 1364.74,-209.46 1364.74,-194.54 1441.31,-184 1549.58,-184 1626.14,-194.54"/>
<text text-anchor="middle" x="1495.44" y="-198.3" font-family="Times,serif" font-size="14.00">Launch jupyter lab service unit</text>
</a>
</g>
</g>
<!-- block_d1a61b4f&#45;&gt;task_58df60f5 -->
<g id="edge_3667b71b" class="edge">
<title>block_d1a61b4f-&gt;task_58df60f5</title>
<g id="a_edge_3667b71b"><a xlink:title="2 ">
<path fill="none" stroke="#7cb616" d="M1035.43,-218.23C1050.46,-217 1065.68,-215.88 1080.16,-215 1171.43,-209.47 1274.16,-206.22 1354.49,-204.36" id="path_edge_3667b71b"/>
<polygon fill="#7cb616" stroke="#7cb616" points="1354.75,-207.86 1364.67,-204.13 1354.59,-200.86 1354.75,-207.86"/>
</a>
</g>
<g id="a_edge_3667b71b-label"><a xlink:title="2 ">
<text text-anchor="middle" font-family="Times,serif" font-size="14.00" fill="#7cb616" dy="-1%"><textPath xlink:href="#path_edge_3667b71b" text-anchor="middle" startOffset="50%">2 </textPath></text>
</a>
</g>
<links><link target="task_58df60f5"/></links></g>
<!-- task_2f35bbd9 -->
<g id="task_2f35bbd9" class="node">
<title>task_2f35bbd9</title>
<g id="a_task_2f35bbd9"><a xlink:title="Copy jupyter lab systemd service">
<polygon fill="none" stroke="#7cb616" points="1635.43,-248.54 1635.43,-263.46 1553.43,-274 1437.46,-274 1355.45,-263.46 1355.45,-248.54 1437.46,-238 1553.43,-238 1635.43,-248.54"/>
<text text-anchor="middle" x="1495.44" y="-252.3" font-family="Times,serif" font-size="14.00">Copy jupyter lab systemd service</text>
</a>
</g>
</g>
<!-- block_d1a61b4f&#45;&gt;task_2f35bbd9 -->
<g id="edge_9e8fce73" class="edge">
<title>block_d1a61b4f-&gt;task_2f35bbd9</title>
<g id="a_edge_9e8fce73"><a xlink:title="1 ">
<path fill="none" stroke="#7cb616" d="M1035.13,-234.24C1123.44,-238.42 1248.07,-244.33 1345.22,-248.93" id="path_edge_9e8fce73"/>
<polygon fill="#7cb616" stroke="#7cb616" points="1345.28,-252.44 1355.43,-249.41 1345.61,-245.44 1345.28,-252.44"/>
</a>
</g>
<g id="a_edge_9e8fce73-label"><a xlink:title="1 ">
<text text-anchor="middle" font-family="Times,serif" font-size="14.00" fill="#7cb616" dy="-1%"><textPath xlink:href="#path_edge_9e8fce73" text-anchor="middle" startOffset="50%">1 </textPath></text>
</a>
</g>
<links><link target="task_2f35bbd9"/></links></g>
<!-- task_6e9c0ae7 -->
<g id="task_6e9c0ae7" class="node">
<title>task_6e9c0ae7</title>
<g id="a_task_6e9c0ae7"><a xlink:title="Reload nginx">
<polygon fill="none" stroke="#7cb616" points="1558.17,-26.54 1558.17,-41.46 1521.42,-52 1469.46,-52 1432.72,-41.46 1432.72,-26.54 1469.46,-16 1521.42,-16 1558.17,-26.54"/>
<text text-anchor="middle" x="1495.44" y="-30.3" font-family="Times,serif" font-size="14.00">Reload nginx</text>
</a>
</g>
</g>
<!-- block_383470e7&#45;&gt;task_6e9c0ae7 -->
<g id="edge_cf57e3b3" class="edge">
<title>block_383470e7-&gt;task_6e9c0ae7</title>
<g id="a_edge_cf57e3b3"><a xlink:title="2 ">
<path fill="none" stroke="#7cb616" d="M1010.11,-76.97C1032.86,-74.2 1057.43,-71.35 1080.16,-69 1200.09,-56.62 1339.89,-45.49 1422.57,-39.26" id="path_edge_cf57e3b3"/>
<polygon fill="#7cb616" stroke="#7cb616" points="1422.9,-42.74 1432.61,-38.5 1422.38,-35.76 1422.9,-42.74"/>
</a>
</g>
<g id="a_edge_cf57e3b3-label"><a xlink:title="2 ">
<text text-anchor="middle" font-family="Times,serif" font-size="14.00" fill="#7cb616" dy="-1%"><textPath xlink:href="#path_edge_cf57e3b3" text-anchor="middle" startOffset="50%">2 </textPath></text>
</a>
</g>
<links><link target="task_6e9c0ae7"/></links></g>
<!-- task_d321d45d -->
<g id="task_d321d45d" class="node">
<title>task_d321d45d</title>
<g id="a_task_d321d45d"><a xlink:title="Copy jupyter lab nginx upstream definition">
<polygon fill="none" stroke="#7cb616" points="1672.5,-80.54 1672.5,-95.46 1568.78,-106 1422.1,-106 1318.38,-95.46 1318.38,-80.54 1422.1,-70 1568.78,-70 1672.5,-80.54"/>
<text text-anchor="middle" x="1495.44" y="-84.3" font-family="Times,serif" font-size="14.00">Copy jupyter lab nginx upstream definition</text>
</a>
</g>
</g>
<!-- block_383470e7&#45;&gt;task_d321d45d -->
<g id="edge_8506631f" class="edge">
<title>block_383470e7-&gt;task_d321d45d</title>
<g id="a_edge_8506631f"><a xlink:title="1 ">
<path fill="none" stroke="#7cb616" d="M1010.2,-88C1088.68,-88 1207.57,-88 1307.91,-88" id="path_edge_8506631f"/>
<polygon fill="#7cb616" stroke="#7cb616" points="1308.18,-91.5 1318.18,-88 1308.18,-84.5 1308.18,-91.5"/>
</a>
</g>
<g id="a_edge_8506631f-label"><a xlink:title="1 ">
<text text-anchor="middle" font-family="Times,serif" font-size="14.00" fill="#7cb616" dy="-1%"><textPath xlink:href="#path_edge_8506631f" text-anchor="middle" startOffset="50%">1 </textPath></text>
</a>
</g>
<links><link target="task_d321d45d"/></links></g>
</g>
</svg>