<?xml version='1.0' encoding='UTF-8'?>
<!DOCTYPE svg PUBLIC "-//W3C//DTD SVG 1.1//EN" "http://www.w3.org/Graphics/SVG/1.1/DTD/svg11.dtd">
<!-- Generated by graphviz version 2.44.1 (20200629.0846)
 --><!-- Title: infra.yml  Pages: 1 --><svg xmlns="http://www.w3.org/2000/svg" xmlns:xlink="http://www.w3.org/1999/xlink" width="468pt" height="692pt" viewBox="0.00 0.00 467.58 692.00" id="svg">
<script type="text/javascript" href="https://ajax.googleapis.com/ajax/libs/jquery/3.2.1/jquery.min.js" id="jquery"/><script type="text/javascript" id="my_javascript"><![CDATA[const HOVER_CLASS = "my_hover";

var selectedElement = null;

function addClass(rootElement) {
    $(rootElement).find('link').each(function (index, element) {
        var target = $(element).attr('target');
        var currentElement = $('#' + target);
        currentElement.addClass(HOVER_CLASS);

        addClass(currentElement);
    })
}

function removeClass(rootElement, hover) {
    $(rootElement).find('link').each(function (index, element) {
        if ($(rootElement).attr('id') !== $(selectedElement).attr('id') || !hover) {
            var target = $(element).attr('target');
            var currentElement = $('#' + target);
            currentElement.removeClass(HOVER_CLASS);

            removeClass(currentElement);
        }

    })
}

function hoverIn(event) {
    addClass(event.currentTarget);
}

function hoverOut(event) {
    removeClass(event.currentTarget, true);
}

function clickOnElement(event) {
    var newElement = event.currentTarget;

    if ($(newElement).attr('id') === $(selectedElement).attr('id')) {
        removeClass(selectedElement, false);
    } else {
        removeClass(selectedElement);
        addClass(newElement)
    }

    selectedElement = newElement;
}


$("#svg").ready(function () {

    $("g[id^=play_]").hover(hoverIn, hoverOut);
    $("g[id^=role_]").hover(hoverIn, hoverOut);

    $("g[id^=play_]").click(clickOnElement);
    $("g[id^=role_]").click(clickOnElement);

});
]]></script><style type="text/css" id="my_css"><![CDATA[.node:hover, .edge:hover, path:hover, path + polygon:hover {
    cursor: pointer;
    stroke-width: 3;
    font-weight: bolder;
}

.my_hover {
    cursor: pointer;
    stroke-width: 3;
    font-weight: bolder;
}
]]></style><g id="graph0" class="graph" transform="scale(1 1) rotate(0) translate(4 688)">
<title>infra.yml </title>
<polygon fill="white" stroke="transparent" points="-4,4 -4,-688 463.58,-688 463.58,4 -4,4"/>
<!-- infra.yml -->
<g id="root_node" class="node">
<title>infra.yml</title>
<ellipse fill="none" stroke="black" stroke-dasharray="1,5" cx="44.2" cy="-261" rx="44.39" ry="18"/>
<text text-anchor="middle" x="44.2" y="-257.3" font-family="Times,serif" font-size="14.00">infra.yml</text>
</g>
<!-- Play #1: Infra Init (1) -->
<g id="play_06c03281-8b96-4e45-898a-6cb5085955c5" class="node">
<title>Play #1: Infra Init (1)</title>
<g id="a_play_06c03281-8b96-4e45-898a-6cb5085955c5"><a xlink:title="10.10.10.10">
<polygon fill="#bd70b1" stroke="#bd70b1" points="266.89,-441 132.89,-441 132.89,-405 266.89,-405 266.89,-441"/>
<text text-anchor="middle" x="199.89" y="-419.3" font-family="Times,serif" font-size="14.00" fill="#ffffff">Play #1: Infra Init (1)</text>
</a>
</g>
<links><link target="edge_02de205a-9a85-459f-a89e-531fb41ce6aa"/><link target="edge_6198e034-ddd9-4c30-ab29-edc9fbc317c6"/><link target="edge_b905a427-69df-46df-87d2-cfeeebe5f9bf"/><link target="edge_da71db7d-7037-47a4-8cc6-4016d8836f24"/><link target="edge_b3851476-76d8-49e9-8f61-60107c112978"/><link target="edge_6a4085b3-b8eb-4b74-8b9d-eef21dbdb6fb"/><link target="edge_3a537e27-1b7b-4877-a545-cb9351ed80ec"/><link target="edge_1d8b9fe2-fa2a-4826-a9c9-ea6e11679d34"/><link target="edge_d14eeffd-8834-48b6-8fab-e2464e67a5e3"/></links></g>
<!-- infra.yml&#45;&gt;Play #1: Infra Init (1) -->
<g id="edge_949d3ad1-c544-4aca-81c6-5cca964a9f58" class="edge">
<title>infra.yml-&gt;Play #1: Infra Init (1)</title>
<path fill="none" stroke="#bd70b1" stroke-width="2" d="M61.07,-277.73C87.98,-306.09 142.73,-363.8 174.53,-397.32"/>
<polygon fill="#bd70b1" stroke="#bd70b1" stroke-width="2" points="172.29,-400.04 181.71,-404.89 177.36,-395.22 172.29,-400.04"/>
<text text-anchor="middle" x="109.89" y="-335.8" font-family="Times,serif" font-size="14.00" fill="#bd70b1">1</text>
</g>
<!-- Play #2: Pgsql Init (1) -->
<g id="play_0e6b420a-0ab9-4e7f-a02b-3d74031c9d5f" class="node">
<title>Play #2: Pgsql Init (1)</title>
<g id="a_play_0e6b420a-0ab9-4e7f-a02b-3d74031c9d5f"><a xlink:title="10.10.10.10">
<polygon fill="#e19ce8" stroke="#e19ce8" points="268.39,-144 131.39,-144 131.39,-108 268.39,-108 268.39,-144"/>
<text text-anchor="middle" x="199.89" y="-122.3" font-family="Times,serif" font-size="14.00" fill="#000000">Play #2: Pgsql Init (1)</text>
</a>
</g>
<links><link target="edge_9e966da7-0700-407e-99c6-165f201c34c3"/><link target="edge_3997cbef-d1f5-4656-9771-7474b38d08bb"/><link target="edge_d5a3bc66-40a5-4e4b-82ed-6c14056e3ee5"/><link target="edge_c1fdcd56-d007-4e36-9746-45bffd800268"/></links></g>
<!-- infra.yml&#45;&gt;Play #2: Pgsql Init (1) -->
<g id="edge_f1d8f44d-125f-4100-b102-25c9b282e3cb" class="edge">
<title>infra.yml-&gt;Play #2: Pgsql Init (1)</title>
<path fill="none" stroke="#e19ce8" stroke-width="2" d="M63.74,-244.72C90.27,-221.41 139.29,-178.35 170.44,-150.99"/>
<polygon fill="#e19ce8" stroke="#e19ce8" stroke-width="2" points="173.13,-153.29 178.33,-144.06 168.51,-148.03 173.13,-153.29"/>
<text text-anchor="middle" x="109.89" y="-208.8" font-family="Times,serif" font-size="14.00" fill="#e19ce8">2</text>
</g>
<!-- [role] environ -->
<g id="role_ceb39b35-f512-4f80-9772-bb2cc7d20e50" class="node">
<title>[role] environ</title>
<ellipse fill="none" stroke="black" cx="385.49" cy="-666" rx="59.59" ry="18"/>
<text text-anchor="middle" x="385.49" y="-662.3" font-family="Times,serif" font-size="14.00">[role] environ</text>
</g>
<!-- Play #1: Infra Init (1)&#45;&gt;[role] environ -->
<g id="edge_02de205a-9a85-459f-a89e-531fb41ce6aa" class="edge">
<title>Play #1: Infra Init (1)-&gt;[role] environ</title>
<path fill="none" stroke="#bd70b1" d="M205.31,-441.15C216.22,-482.2 248.23,-582.94 311.39,-639 316.56,-643.59 322.57,-647.42 328.89,-650.61"/>
<polygon fill="#bd70b1" stroke="#bd70b1" points="327.74,-653.93 338.3,-654.85 330.62,-647.55 327.74,-653.93"/>
<text text-anchor="middle" x="289.89" y="-623.8" font-family="Times,serif" font-size="14.00" fill="#bd70b1">1</text>
<links><link target="role_ceb39b35-f512-4f80-9772-bb2cc7d20e50"/></links></g>
<!-- [role] repo -->
<g id="role_e46df616-73d1-489d-afe1-12087eab27b2" class="node">
<title>[role] repo</title>
<ellipse fill="none" stroke="black" cx="385.49" cy="-612" rx="48.19" ry="18"/>
<text text-anchor="middle" x="385.49" y="-608.3" font-family="Times,serif" font-size="14.00">[role] repo</text>
</g>
<!-- Play #1: Infra Init (1)&#45;&gt;[role] repo -->
<g id="edge_6198e034-ddd9-4c30-ab29-edc9fbc317c6" class="edge">
<title>Play #1: Infra Init (1)-&gt;[role] repo</title>
<path fill="none" stroke="#bd70b1" d="M208.62,-441.03C223.67,-474.13 260.01,-544.87 311.39,-585 318.44,-590.51 326.73,-594.97 335.14,-598.56"/>
<polygon fill="#bd70b1" stroke="#bd70b1" points="334.04,-601.89 344.63,-602.25 336.58,-595.36 334.04,-601.89"/>
<text text-anchor="middle" x="289.89" y="-570.8" font-family="Times,serif" font-size="14.00" fill="#bd70b1">2</text>
<links><link target="role_e46df616-73d1-489d-afe1-12087eab27b2"/></links></g>
<!-- [role] node -->
<g id="role_9cf66f6f-12b5-48cb-ad21-fa192d73ccd9" class="node">
<title>[role] node</title>
<ellipse fill="none" stroke="black" cx="385.49" cy="-558" rx="50.09" ry="18"/>
<text text-anchor="middle" x="385.49" y="-554.3" font-family="Times,serif" font-size="14.00">[role] node</text>
</g>
<!-- Play #1: Infra Init (1)&#45;&gt;[role] node -->
<g id="edge_b905a427-69df-46df-87d2-cfeeebe5f9bf" class="edge">
<title>Play #1: Infra Init (1)-&gt;[role] node</title>
<path fill="none" stroke="#bd70b1" d="M215.16,-441.06C234.65,-464.65 271.72,-505.91 311.39,-531 318.95,-535.78 327.48,-539.89 335.98,-543.36"/>
<polygon fill="#bd70b1" stroke="#bd70b1" points="334.91,-546.7 345.5,-547.01 337.41,-540.16 334.91,-546.7"/>
<text text-anchor="middle" x="289.89" y="-519.8" font-family="Times,serif" font-size="14.00" fill="#bd70b1">3</text>
<links><link target="role_9cf66f6f-12b5-48cb-ad21-fa192d73ccd9"/></links></g>
<!-- [role] consul -->
<g id="role_71dee608-1a2d-48ab-9388-ad23c1eeb551" class="node">
<title>[role] consul</title>
<ellipse fill="none" stroke="black" cx="385.49" cy="-504" rx="55.79" ry="18"/>
<text text-anchor="middle" x="385.49" y="-500.3" font-family="Times,serif" font-size="14.00">[role] consul</text>
</g>
<!-- Play #1: Infra Init (1)&#45;&gt;[role] consul -->
<g id="edge_da71db7d-7037-47a4-8cc6-4016d8836f24" class="edge">
<title>Play #1: Infra Init (1)-&gt;[role] consul</title>
<path fill="none" stroke="#bd70b1" d="M235.81,-441.18C257.34,-452.12 285.67,-466 311.39,-477 319.62,-480.52 328.47,-484.02 337.07,-487.28"/>
<polygon fill="#bd70b1" stroke="#bd70b1" points="336.05,-490.63 346.64,-490.84 338.49,-484.07 336.05,-490.63"/>
<text text-anchor="middle" x="289.89" y="-471.8" font-family="Times,serif" font-size="14.00" fill="#bd70b1">4</text>
<links><link target="role_71dee608-1a2d-48ab-9388-ad23c1eeb551"/></links></g>
<!-- [role] ca -->
<g id="role_ff8361a5-815a-480a-bede-daffae1facbb" class="node">
<title>[role] ca</title>
<ellipse fill="none" stroke="black" cx="385.49" cy="-450" rx="40.09" ry="18"/>
<text text-anchor="middle" x="385.49" y="-446.3" font-family="Times,serif" font-size="14.00">[role] ca</text>
</g>
<!-- Play #1: Infra Init (1)&#45;&gt;[role] ca -->
<g id="edge_b3851476-76d8-49e9-8f61-60107c112978" class="edge">
<title>Play #1: Infra Init (1)-&gt;[role] ca</title>
<path fill="none" stroke="#bd70b1" d="M266.91,-432.71C290.06,-436.11 315.59,-439.87 336.92,-443.01"/>
<polygon fill="#bd70b1" stroke="#bd70b1" points="336.63,-446.5 347.03,-444.49 337.65,-439.57 336.63,-446.5"/>
<text text-anchor="middle" x="289.89" y="-439.8" font-family="Times,serif" font-size="14.00" fill="#bd70b1">5</text>
<links><link target="role_ff8361a5-815a-480a-bede-daffae1facbb"/></links></g>
<!-- [role] nameserver -->
<g id="role_28821611-423a-4a7d-a8fb-5800e4cfc2ba" class="node">
<title>[role] nameserver</title>
<ellipse fill="none" stroke="black" cx="385.49" cy="-396" rx="73.39" ry="18"/>
<text text-anchor="middle" x="385.49" y="-392.3" font-family="Times,serif" font-size="14.00">[role] nameserver</text>
</g>
<!-- Play #1: Infra Init (1)&#45;&gt;[role] nameserver -->
<g id="edge_6a4085b3-b8eb-4b74-8b9d-eef21dbdb6fb" class="edge">
<title>Play #1: Infra Init (1)-&gt;[role] nameserver</title>
<path fill="none" stroke="#bd70b1" d="M266.91,-413.29C281.53,-411.14 297.1,-408.85 311.96,-406.67"/>
<polygon fill="#bd70b1" stroke="#bd70b1" points="312.73,-410.09 322.11,-405.17 311.71,-403.17 312.73,-410.09"/>
<text text-anchor="middle" x="289.89" y="-413.8" font-family="Times,serif" font-size="14.00" fill="#bd70b1">6</text>
<links><link target="role_28821611-423a-4a7d-a8fb-5800e4cfc2ba"/></links></g>
<!-- [role] nginx -->
<g id="role_e0a8e51a-6fe4-41bc-aea8-f8acab5265b1" class="node">
<title>[role] nginx</title>
<ellipse fill="none" stroke="black" cx="385.49" cy="-342" rx="52.79" ry="18"/>
<text text-anchor="middle" x="385.49" y="-338.3" font-family="Times,serif" font-size="14.00">[role] nginx</text>
</g>
<!-- Play #1: Infra Init (1)&#45;&gt;[role] nginx -->
<g id="edge_3a537e27-1b7b-4877-a545-cb9351ed80ec" class="edge">
<title>Play #1: Infra Init (1)-&gt;[role] nginx</title>
<path fill="none" stroke="#bd70b1" d="M235.81,-404.82C257.34,-393.88 285.67,-380 311.39,-369 319.98,-365.33 329.25,-361.67 338.21,-358.29"/>
<polygon fill="#bd70b1" stroke="#bd70b1" points="339.61,-361.51 347.77,-354.74 337.17,-354.94 339.61,-361.51"/>
<text text-anchor="middle" x="289.89" y="-382.8" font-family="Times,serif" font-size="14.00" fill="#bd70b1">7</text>
<links><link target="role_e0a8e51a-6fe4-41bc-aea8-f8acab5265b1"/></links></g>
<!-- [role] prometheus -->
<g id="role_0c9c6def-68f5-4b4b-8b0f-0f7777cdc1a1" class="node">
<title>[role] prometheus</title>
<ellipse fill="none" stroke="black" cx="385.49" cy="-288" rx="74.19" ry="18"/>
<text text-anchor="middle" x="385.49" y="-284.3" font-family="Times,serif" font-size="14.00">[role] prometheus</text>
</g>
<!-- Play #1: Infra Init (1)&#45;&gt;[role] prometheus -->
<g id="edge_1d8b9fe2-fa2a-4826-a9c9-ea6e11679d34" class="edge">
<title>Play #1: Infra Init (1)-&gt;[role] prometheus</title>
<path fill="none" stroke="#bd70b1" d="M215.16,-404.94C234.65,-381.35 271.72,-340.09 311.39,-315 316.72,-311.63 322.53,-308.59 328.47,-305.88"/>
<polygon fill="#bd70b1" stroke="#bd70b1" points="330.03,-309.02 337.86,-301.88 327.29,-302.58 330.03,-309.02"/>
<text text-anchor="middle" x="289.89" y="-335.8" font-family="Times,serif" font-size="14.00" fill="#bd70b1">8</text>
<links><link target="role_0c9c6def-68f5-4b4b-8b0f-0f7777cdc1a1"/></links></g>
<!-- [role] grafana -->
<g id="role_752d02ba-0756-4b6e-aaf9-c65b7b84c999" class="node">
<title>[role] grafana</title>
<ellipse fill="none" stroke="black" cx="385.49" cy="-234" rx="59.29" ry="18"/>
<text text-anchor="middle" x="385.49" y="-230.3" font-family="Times,serif" font-size="14.00">[role] grafana</text>
</g>
<!-- Play #1: Infra Init (1)&#45;&gt;[role] grafana -->
<g id="edge_d14eeffd-8834-48b6-8fab-e2464e67a5e3" class="edge">
<title>Play #1: Infra Init (1)-&gt;[role] grafana</title>
<path fill="none" stroke="#bd70b1" d="M208.62,-404.97C223.67,-371.87 260.01,-301.13 311.39,-261 317.11,-256.53 323.64,-252.76 330.39,-249.57"/>
<polygon fill="#bd70b1" stroke="#bd70b1" points="331.86,-252.75 339.68,-245.59 329.11,-246.31 331.86,-252.75"/>
<text text-anchor="middle" x="289.89" y="-285.8" font-family="Times,serif" font-size="14.00" fill="#bd70b1">9</text>
<links><link target="role_752d02ba-0756-4b6e-aaf9-c65b7b84c999"/></links></g>
<!-- [role] postgres -->
<g id="role_47dcf0c4-3f89-409a-99dc-cdb600f527d2" class="node">
<title>[role] postgres</title>
<ellipse fill="none" stroke="black" cx="385.49" cy="-180" rx="61.99" ry="18"/>
<text text-anchor="middle" x="385.49" y="-176.3" font-family="Times,serif" font-size="14.00">[role] postgres</text>
</g>
<!-- Play #2: Pgsql Init (1)&#45;&gt;[role] postgres -->
<g id="edge_9e966da7-0700-407e-99c6-165f201c34c3" class="edge">
<title>Play #2: Pgsql Init (1)-&gt;[role] postgres</title>
<path fill="none" stroke="#e19ce8" d="M262.28,-144.06C284.79,-150.68 310.05,-158.11 331.73,-164.48"/>
<polygon fill="#e19ce8" stroke="#e19ce8" points="330.84,-167.87 341.42,-167.33 332.82,-161.15 330.84,-167.87"/>
<text text-anchor="middle" x="289.89" y="-156.8" font-family="Times,serif" font-size="14.00" fill="#e19ce8">1</text>
<links><link target="role_47dcf0c4-3f89-409a-99dc-cdb600f527d2"/></links></g>
<!-- [role] monitor -->
<g id="role_f1796b8e-f6f0-4212-b5f7-8d53cd15eddc" class="node">
<title>[role] monitor</title>
<ellipse fill="none" stroke="black" cx="385.49" cy="-126" rx="61.19" ry="18"/>
<text text-anchor="middle" x="385.49" y="-122.3" font-family="Times,serif" font-size="14.00">[role] monitor</text>
</g>
<!-- Play #2: Pgsql Init (1)&#45;&gt;[role] monitor -->
<g id="edge_3997cbef-d1f5-4656-9771-7474b38d08bb" class="edge">
<title>Play #2: Pgsql Init (1)-&gt;[role] monitor</title>
<path fill="none" stroke="#e19ce8" d="M268.47,-126C283.34,-126 299.13,-126 314.1,-126"/>
<polygon fill="#e19ce8" stroke="#e19ce8" points="314.32,-129.5 324.32,-126 314.32,-122.5 314.32,-129.5"/>
<text text-anchor="middle" x="289.89" y="-129.8" font-family="Times,serif" font-size="14.00" fill="#e19ce8">2</text>
<links><link target="role_f1796b8e-f6f0-4212-b5f7-8d53cd15eddc"/></links></g>
<!-- [role] service -->
<g id="role_e9d3792b-fe7f-4716-bd18-2de9468ab36c" class="node">
<title>[role] service</title>
<ellipse fill="none" stroke="black" cx="385.49" cy="-72" rx="57.69" ry="18"/>
<text text-anchor="middle" x="385.49" y="-68.3" font-family="Times,serif" font-size="14.00">[role] service</text>
</g>
<!-- Play #2: Pgsql Init (1)&#45;&gt;[role] service -->
<g id="edge_d5a3bc66-40a5-4e4b-82ed-6c14056e3ee5" class="edge">
<title>Play #2: Pgsql Init (1)-&gt;[role] service</title>
<path fill="none" stroke="#e19ce8" d="M262.28,-107.94C285.24,-101.19 311.06,-93.6 333.04,-87.13"/>
<polygon fill="#e19ce8" stroke="#e19ce8" points="334.23,-90.43 342.84,-84.25 332.26,-83.71 334.23,-90.43"/>
<text text-anchor="middle" x="289.89" y="-103.8" font-family="Times,serif" font-size="14.00" fill="#e19ce8">3</text>
<links><link target="role_e9d3792b-fe7f-4716-bd18-2de9468ab36c"/></links></g>
<!-- [role] register -->
<g id="role_8d014861-9735-4a93-ac99-d4063893de9b" class="node">
<title>[role] register</title>
<ellipse fill="none" stroke="black" cx="385.49" cy="-18" rx="59.29" ry="18"/>
<text text-anchor="middle" x="385.49" y="-14.3" font-family="Times,serif" font-size="14.00">[role] register</text>
</g>
<!-- Play #2: Pgsql Init (1)&#45;&gt;[role] register -->
<g id="edge_c1fdcd56-d007-4e36-9746-45bffd800268" class="edge">
<title>Play #2: Pgsql Init (1)-&gt;[role] register</title>
<path fill="none" stroke="#e19ce8" d="M221.71,-107.97C243.09,-90.15 277.87,-63.02 311.39,-45 318.51,-41.18 326.28,-37.67 334.02,-34.53"/>
<polygon fill="#e19ce8" stroke="#e19ce8" points="335.33,-37.78 343.39,-30.9 332.8,-31.25 335.33,-37.78"/>
<text text-anchor="middle" x="289.89" y="-61.8" font-family="Times,serif" font-size="14.00" fill="#e19ce8">4</text>
<links><link target="role_8d014861-9735-4a93-ac99-d4063893de9b"/></links></g>
</g>
</svg>