<?xml version='1.0' encoding='UTF-8'?>
<!DOCTYPE svg PUBLIC "-//W3C//DTD SVG 1.1//EN" "http://www.w3.org/Graphics/SVG/1.1/DTD/svg11.dtd">
<!-- Generated by graphviz version 2.44.1 (20200629.0846)
 --><!-- Title: infra.yml  Pages: 1 --><svg xmlns="http://www.w3.org/2000/svg" xmlns:xlink="http://www.w3.org/1999/xlink" width="475pt" height="854pt" viewBox="0.00 0.00 474.58 854.00" id="svg">
<script type="text/javascript" href="https://ajax.googleapis.com/ajax/libs/jquery/3.2.1/jquery.min.js" id="jquery"/><script type="text/javascript" id="my_javascript"><![CDATA[const HOVER_CLASS = "my_hover";

var selectedElement = null;

function addClass(rootElement) {
    $(rootElement).find('link').each(function (index, element) {
        var target = $(element).attr('target');
        var currentElement = $('#' + target);
        currentElement.addClass(HOVER_CLASS);

        addClass(currentElement);
    })
}

function removeClass(rootElement, hover) {
    $(rootElement).find('link').each(function (index, element) {
        if ($(rootElement).attr('id') !== $(selectedElement).attr('id') || !hover) {
            var target = $(element).attr('target');
            var currentElement = $('#' + target);
            currentElement.removeClass(HOVER_CLASS);

            removeClass(currentElement);
        }

    })
}

function hoverIn(event) {
    addClass(event.currentTarget);
}

function hoverOut(event) {
    removeClass(event.currentTarget, true);
}

function clickOnElement(event) {
    var newElement = event.currentTarget;

    if ($(newElement).attr('id') === $(selectedElement).attr('id')) {
        removeClass(selectedElement, false);
    } else {
        removeClass(selectedElement);
        addClass(newElement)
    }

    selectedElement = newElement;
}


$("#svg").ready(function () {

    $("g[id^=play_]").hover(hoverIn, hoverOut);
    $("g[id^=role_]").hover(hoverIn, hoverOut);

    $("g[id^=play_]").click(clickOnElement);
    $("g[id^=role_]").click(clickOnElement);

});
]]></script><style type="text/css" id="my_css"><![CDATA[.node:hover, .edge:hover, path:hover, path + polygon:hover {
    cursor: pointer;
    stroke-width: 3;
    font-weight: bolder;
}

.my_hover {
    cursor: pointer;
    stroke-width: 3;
    font-weight: bolder;
}
]]></style><g id="graph0" class="graph" transform="scale(1 1) rotate(0) translate(4 850)">
<title>infra.yml </title>
<polygon fill="white" stroke="transparent" points="-4,4 -4,-850 470.58,-850 470.58,4 -4,4"/>
<!-- infra.yml -->
<g id="root_node" class="node">
<title>infra.yml</title>
<ellipse fill="none" stroke="black" stroke-dasharray="1,5" cx="44.2" cy="-315" rx="44.39" ry="18"/>
<text text-anchor="middle" x="44.2" y="-311.3" font-family="Times,serif" font-size="14.00">infra.yml</text>
</g>
<!-- Play #1: Infra Init (1) -->
<g id="play_1767d0be-9eb8-484a-82ce-2bfc22957f87" class="node">
<title>Play #1: Infra Init (1)</title>
<g id="a_play_1767d0be-9eb8-484a-82ce-2bfc22957f87"><a xlink:title="10.10.10.10">
<polygon fill="#01ede5" stroke="#01ede5" points="266.89,-522 132.89,-522 132.89,-486 266.89,-486 266.89,-522"/>
<text text-anchor="middle" x="199.89" y="-500.3" font-family="Times,serif" font-size="14.00" fill="#ffffff">Play #1: Infra Init (1)</text>
</a>
</g>
<links><link target="edge_a0c6e0f4-884d-4576-97bb-7554b3de4737"/><link target="edge_cda13166-e3ad-442d-a168-9ae9aae2363d"/><link target="edge_054dbf51-449c-4eff-b9e0-d0143be16add"/><link target="edge_4f55c2da-39de-4d1b-80a5-bb0423412877"/><link target="edge_96dea92c-202b-4bf6-9e01-4ef7118ed129"/><link target="edge_afc015b7-9cbb-4b9c-88ea-9301b443de92"/><link target="edge_e5dff865-f7ef-4281-b89c-71fc88488741"/><link target="edge_341bb0de-ad95-4647-a115-028525dbed26"/><link target="edge_338bb859-5495-47a3-8b19-268d32c898e5"/><link target="edge_eae83121-3faf-4682-8288-beb4f284e8ce"/><link target="edge_e697d250-2731-4e4e-b9d6-81f96e978495"/><link target="edge_b6599692-7de9-45d0-8d9c-f438d3b2edec"/></links></g>
<!-- infra.yml&#45;&gt;Play #1: Infra Init (1) -->
<g id="edge_4efa7006-532d-41e6-803c-5ba153c7ebe8" class="edge">
<title>infra.yml-&gt;Play #1: Infra Init (1)</title>
<path fill="none" stroke="#01ede5" stroke-width="2" d="M59.11,-332.11C86.15,-365.36 145.95,-438.9 177.86,-478.14"/>
<polygon fill="#01ede5" stroke="#01ede5" stroke-width="2" points="175.2,-480.42 184.23,-485.97 180.64,-476 175.2,-480.42"/>
<text text-anchor="middle" x="109.89" y="-401.8" font-family="Times,serif" font-size="14.00" fill="#01ede5">1</text>
</g>
<!-- Play #2: Pgsql Init (1) -->
<g id="play_a8c5dc42-cfd6-48d9-aa3f-8c55d686d608" class="node">
<title>Play #2: Pgsql Init (1)</title>
<g id="a_play_a8c5dc42-cfd6-48d9-aa3f-8c55d686d608"><a xlink:title="10.10.10.10">
<polygon fill="#e986ed" stroke="#e986ed" points="268.39,-144 131.39,-144 131.39,-108 268.39,-108 268.39,-144"/>
<text text-anchor="middle" x="199.89" y="-122.3" font-family="Times,serif" font-size="14.00" fill="#000000">Play #2: Pgsql Init (1)</text>
</a>
</g>
<links><link target="edge_679cd37d-0991-4077-bd45-eaf266c9589a"/><link target="edge_fc2e1604-2a6a-40db-aeab-82378caa3158"/><link target="edge_6425f09e-b06c-4268-a0a0-59b908616654"/><link target="edge_150e4b54-31ac-4c21-9c2c-4b268763b4ac"/></links></g>
<!-- infra.yml&#45;&gt;Play #2: Pgsql Init (1) -->
<g id="edge_84cdd308-270b-4beb-9653-33aa20fef751" class="edge">
<title>infra.yml-&gt;Play #2: Pgsql Init (1)</title>
<path fill="none" stroke="#e986ed" stroke-width="2" d="M59.11,-297.89C86.15,-264.64 145.95,-191.1 177.86,-151.86"/>
<polygon fill="#e986ed" stroke="#e986ed" stroke-width="2" points="180.64,-154 184.23,-144.03 175.2,-149.58 180.64,-154"/>
<text text-anchor="middle" x="109.89" y="-240.8" font-family="Times,serif" font-size="14.00" fill="#e986ed">2</text>
</g>
<!-- [role] environ -->
<g id="role_083bbe57-5e12-4416-840d-0af2c4bcea8c" class="node">
<title>[role] environ</title>
<ellipse fill="none" stroke="black" cx="392.49" cy="-828" rx="59.59" ry="18"/>
<text text-anchor="middle" x="392.49" y="-824.3" font-family="Times,serif" font-size="14.00">[role] environ</text>
</g>
<!-- Play #1: Infra Init (1)&#45;&gt;[role] environ -->
<g id="edge_a0c6e0f4-884d-4576-97bb-7554b3de4737" class="edge">
<title>Play #1: Infra Init (1)-&gt;[role] environ</title>
<path fill="none" stroke="#01ede5" d="M202.3,-522.03C207.39,-574.1 229.53,-725.74 318.39,-801 323.66,-805.46 329.74,-809.22 336.09,-812.38"/>
<polygon fill="#01ede5" stroke="#01ede5" points="334.97,-815.71 345.53,-816.58 337.82,-809.32 334.97,-815.71"/>
<text text-anchor="middle" x="293.39" y="-786.8" font-family="Times,serif" font-size="14.00" fill="#01ede5">1</text>
<links><link target="role_083bbe57-5e12-4416-840d-0af2c4bcea8c"/></links></g>
<!-- [role] repo -->
<g id="role_0bd6826a-eee7-4b3c-81ad-9e5ec616f3be" class="node">
<title>[role] repo</title>
<ellipse fill="none" stroke="black" cx="392.49" cy="-774" rx="48.19" ry="18"/>
<text text-anchor="middle" x="392.49" y="-770.3" font-family="Times,serif" font-size="14.00">[role] repo</text>
</g>
<!-- Play #1: Infra Init (1)&#45;&gt;[role] repo -->
<g id="edge_cda13166-e3ad-442d-a168-9ae9aae2363d" class="edge">
<title>Play #1: Infra Init (1)-&gt;[role] repo</title>
<path fill="none" stroke="#01ede5" d="M204.37,-522.03C213.99,-567.02 245.27,-685.06 318.39,-747 325.22,-752.78 333.39,-757.38 341.77,-761.01"/>
<polygon fill="#01ede5" stroke="#01ede5" points="340.65,-764.34 351.24,-764.73 343.21,-757.82 340.65,-764.34"/>
<text text-anchor="middle" x="293.39" y="-729.8" font-family="Times,serif" font-size="14.00" fill="#01ede5">2</text>
<links><link target="role_0bd6826a-eee7-4b3c-81ad-9e5ec616f3be"/></links></g>
<!-- [role] node -->
<g id="role_b721a01e-d457-46be-babe-2d61ef9b583e" class="node">
<title>[role] node</title>
<ellipse fill="none" stroke="black" cx="392.49" cy="-720" rx="50.09" ry="18"/>
<text text-anchor="middle" x="392.49" y="-716.3" font-family="Times,serif" font-size="14.00">[role] node</text>
</g>
<!-- Play #1: Infra Init (1)&#45;&gt;[role] node -->
<g id="edge_054dbf51-449c-4eff-b9e0-d0143be16add" class="edge">
<title>Play #1: Infra Init (1)-&gt;[role] node</title>
<path fill="none" stroke="#01ede5" d="M207.4,-522.17C221.67,-559.52 259.25,-645.4 318.39,-693 325.06,-698.36 332.89,-702.73 340.91,-706.25"/>
<polygon fill="#01ede5" stroke="#01ede5" points="339.76,-709.56 350.35,-710.02 342.36,-703.06 339.76,-709.56"/>
<text text-anchor="middle" x="293.39" y="-675.8" font-family="Times,serif" font-size="14.00" fill="#01ede5">3</text>
<links><link target="role_b721a01e-d457-46be-babe-2d61ef9b583e"/></links></g>
<!-- [role] consul -->
<g id="role_920adb44-4348-4cdb-ba2c-35bc777c3faf" class="node">
<title>[role] consul</title>
<ellipse fill="none" stroke="black" cx="392.49" cy="-666" rx="55.79" ry="18"/>
<text text-anchor="middle" x="392.49" y="-662.3" font-family="Times,serif" font-size="14.00">[role] consul</text>
</g>
<!-- Play #1: Infra Init (1)&#45;&gt;[role] consul -->
<g id="edge_4f55c2da-39de-4d1b-80a5-bb0423412877" class="edge">
<title>Play #1: Infra Init (1)-&gt;[role] consul</title>
<path fill="none" stroke="#01ede5" d="M212.38,-522.32C231.23,-550.99 271.34,-606.52 318.39,-639 324.89,-643.49 332.22,-647.33 339.67,-650.59"/>
<polygon fill="#01ede5" stroke="#01ede5" points="338.54,-653.91 349.12,-654.41 341.16,-647.42 338.54,-653.91"/>
<text text-anchor="middle" x="293.39" y="-627.8" font-family="Times,serif" font-size="14.00" fill="#01ede5">4</text>
<links><link target="role_920adb44-4348-4cdb-ba2c-35bc777c3faf"/></links></g>
<!-- [role] ca -->
<g id="role_2b0e9377-6bfc-4a43-b948-a7f45b7906de" class="node">
<title>[role] ca</title>
<ellipse fill="none" stroke="black" cx="392.49" cy="-612" rx="40.09" ry="18"/>
<text text-anchor="middle" x="392.49" y="-608.3" font-family="Times,serif" font-size="14.00">[role] ca</text>
</g>
<!-- Play #1: Infra Init (1)&#45;&gt;[role] ca -->
<g id="edge_96dea92c-202b-4bf6-9e01-4ef7118ed129" class="edge">
<title>Play #1: Infra Init (1)-&gt;[role] ca</title>
<path fill="none" stroke="#01ede5" d="M223.66,-522.26C246.57,-540 283.43,-566.85 318.39,-585 328.04,-590.01 338.83,-594.53 349.09,-598.38"/>
<polygon fill="#01ede5" stroke="#01ede5" points="348.12,-601.75 358.72,-601.86 350.5,-595.17 348.12,-601.75"/>
<text text-anchor="middle" x="293.39" y="-576.8" font-family="Times,serif" font-size="14.00" fill="#01ede5">5</text>
<links><link target="role_2b0e9377-6bfc-4a43-b948-a7f45b7906de"/></links></g>
<!-- [role] nameserver -->
<g id="role_1dbee941-7593-404a-a9a3-7da01c533341" class="node">
<title>[role] nameserver</title>
<ellipse fill="none" stroke="black" cx="392.49" cy="-558" rx="73.39" ry="18"/>
<text text-anchor="middle" x="392.49" y="-554.3" font-family="Times,serif" font-size="14.00">[role] nameserver</text>
</g>
<!-- Play #1: Infra Init (1)&#45;&gt;[role] nameserver -->
<g id="edge_afc015b7-9cbb-4b9c-88ea-9301b443de92" class="edge">
<title>Play #1: Infra Init (1)-&gt;[role] nameserver</title>
<path fill="none" stroke="#01ede5" d="M264.62,-522.06C287.05,-528.41 312.11,-535.51 333.99,-541.71"/>
<polygon fill="#01ede5" stroke="#01ede5" points="333.23,-545.13 343.8,-544.49 335.14,-538.4 333.23,-545.13"/>
<text text-anchor="middle" x="293.39" y="-534.8" font-family="Times,serif" font-size="14.00" fill="#01ede5">6</text>
<links><link target="role_1dbee941-7593-404a-a9a3-7da01c533341"/></links></g>
<!-- [role] nginx -->
<g id="role_c6885fe7-fbea-497e-bd1b-18778ad487f0" class="node">
<title>[role] nginx</title>
<ellipse fill="none" stroke="black" cx="392.49" cy="-504" rx="52.79" ry="18"/>
<text text-anchor="middle" x="392.49" y="-500.3" font-family="Times,serif" font-size="14.00">[role] nginx</text>
</g>
<!-- Play #1: Infra Init (1)&#45;&gt;[role] nginx -->
<g id="edge_e5dff865-f7ef-4281-b89c-71fc88488741" class="edge">
<title>Play #1: Infra Init (1)-&gt;[role] nginx</title>
<path fill="none" stroke="#01ede5" d="M267.02,-504C287.25,-504 309.43,-504 329.38,-504"/>
<polygon fill="#01ede5" stroke="#01ede5" points="329.59,-507.5 339.59,-504 329.59,-500.5 329.59,-507.5"/>
<text text-anchor="middle" x="293.39" y="-507.8" font-family="Times,serif" font-size="14.00" fill="#01ede5">7</text>
<links><link target="role_c6885fe7-fbea-497e-bd1b-18778ad487f0"/></links></g>
<!-- [role] prometheus -->
<g id="role_9d2278c0-17a8-49f9-a918-21452757a75c" class="node">
<title>[role] prometheus</title>
<ellipse fill="none" stroke="black" cx="392.49" cy="-450" rx="74.19" ry="18"/>
<text text-anchor="middle" x="392.49" y="-446.3" font-family="Times,serif" font-size="14.00">[role] prometheus</text>
</g>
<!-- Play #1: Infra Init (1)&#45;&gt;[role] prometheus -->
<g id="edge_341bb0de-ad95-4647-a115-028525dbed26" class="edge">
<title>Play #1: Infra Init (1)-&gt;[role] prometheus</title>
<path fill="none" stroke="#01ede5" d="M264.62,-485.94C286.96,-479.62 311.9,-472.55 333.72,-466.37"/>
<polygon fill="#01ede5" stroke="#01ede5" points="334.84,-469.69 343.5,-463.59 332.93,-462.95 334.84,-469.69"/>
<text text-anchor="middle" x="293.39" y="-481.8" font-family="Times,serif" font-size="14.00" fill="#01ede5">8</text>
<links><link target="role_9d2278c0-17a8-49f9-a918-21452757a75c"/></links></g>
<!-- [role] grafana -->
<g id="role_f70fb64d-8983-40d1-99d4-b9fe5aa73283" class="node">
<title>[role] grafana</title>
<ellipse fill="none" stroke="black" cx="392.49" cy="-396" rx="59.29" ry="18"/>
<text text-anchor="middle" x="392.49" y="-392.3" font-family="Times,serif" font-size="14.00">[role] grafana</text>
</g>
<!-- Play #1: Infra Init (1)&#45;&gt;[role] grafana -->
<g id="edge_338bb859-5495-47a3-8b19-268d32c898e5" class="edge">
<title>Play #1: Infra Init (1)-&gt;[role] grafana</title>
<path fill="none" stroke="#01ede5" d="M223.66,-485.74C246.57,-468 283.43,-441.15 318.39,-423 325.65,-419.23 333.55,-415.74 341.39,-412.6"/>
<polygon fill="#01ede5" stroke="#01ede5" points="342.8,-415.81 350.88,-408.96 340.29,-409.28 342.8,-415.81"/>
<text text-anchor="middle" x="293.39" y="-443.8" font-family="Times,serif" font-size="14.00" fill="#01ede5">9</text>
<links><link target="role_f70fb64d-8983-40d1-99d4-b9fe5aa73283"/></links></g>
<!-- [role] loki -->
<g id="role_f8e1fd16-5e83-412c-8355-965ea6772448" class="node">
<title>[role] loki</title>
<ellipse fill="none" stroke="black" cx="392.49" cy="-342" rx="46.29" ry="18"/>
<text text-anchor="middle" x="392.49" y="-338.3" font-family="Times,serif" font-size="14.00">[role] loki</text>
</g>
<!-- Play #1: Infra Init (1)&#45;&gt;[role] loki -->
<g id="edge_eae83121-3faf-4682-8288-beb4f284e8ce" class="edge">
<title>Play #1: Infra Init (1)-&gt;[role] loki</title>
<path fill="none" stroke="#01ede5" d="M212.38,-485.68C231.23,-457.01 271.34,-401.48 318.39,-369 326.16,-363.64 335.12,-359.19 344.05,-355.56"/>
<polygon fill="#01ede5" stroke="#01ede5" points="345.54,-358.74 353.67,-351.94 343.08,-352.19 345.54,-358.74"/>
<text text-anchor="middle" x="293.39" y="-396.8" font-family="Times,serif" font-size="14.00" fill="#01ede5">10</text>
<links><link target="role_f8e1fd16-5e83-412c-8355-965ea6772448"/></links></g>
<!-- [role] jupyter -->
<g id="role_e4e03af2-ec6b-49ad-b243-4926e5a0fcff" class="node">
<title>[role] jupyter</title>
<ellipse fill="none" stroke="black" cx="392.49" cy="-288" rx="57.69" ry="18"/>
<text text-anchor="middle" x="392.49" y="-284.3" font-family="Times,serif" font-size="14.00">[role] jupyter</text>
</g>
<!-- Play #1: Infra Init (1)&#45;&gt;[role] jupyter -->
<g id="edge_e697d250-2731-4e4e-b9d6-81f96e978495" class="edge">
<title>Play #1: Infra Init (1)-&gt;[role] jupyter</title>
<path fill="none" stroke="#01ede5" d="M207.36,-485.79C221.57,-448.35 259.03,-362.33 318.39,-315 324.14,-310.42 330.73,-306.57 337.56,-303.34"/>
<polygon fill="#01ede5" stroke="#01ede5" points="339.15,-306.47 346.96,-299.32 336.39,-300.04 339.15,-306.47"/>
<text text-anchor="middle" x="293.39" y="-347.8" font-family="Times,serif" font-size="14.00" fill="#01ede5">11</text>
<links><link target="role_e4e03af2-ec6b-49ad-b243-4926e5a0fcff"/></links></g>
<!-- [role] pgweb -->
<g id="role_4b7ad725-3685-4348-b08e-519150e28110" class="node">
<title>[role] pgweb</title>
<ellipse fill="none" stroke="black" cx="392.49" cy="-234" rx="55.79" ry="18"/>
<text text-anchor="middle" x="392.49" y="-230.3" font-family="Times,serif" font-size="14.00">[role] pgweb</text>
</g>
<!-- Play #1: Infra Init (1)&#45;&gt;[role] pgweb -->
<g id="edge_b6599692-7de9-45d0-8d9c-f438d3b2edec" class="edge">
<title>Play #1: Infra Init (1)-&gt;[role] pgweb</title>
<path fill="none" stroke="#01ede5" d="M204.34,-485.94C213.89,-440.87 245.03,-322.65 318.39,-261 324.16,-256.15 330.88,-252.14 337.86,-248.82"/>
<polygon fill="#01ede5" stroke="#01ede5" points="339.65,-251.86 347.47,-244.72 336.9,-245.42 339.65,-251.86"/>
<text text-anchor="middle" x="293.39" y="-295.8" font-family="Times,serif" font-size="14.00" fill="#01ede5">12</text>
<links><link target="role_4b7ad725-3685-4348-b08e-519150e28110"/></links></g>
<!-- [role] postgres -->
<g id="role_030b0bc4-3036-4730-9830-aa452c91c8c5" class="node">
<title>[role] postgres</title>
<ellipse fill="none" stroke="black" cx="392.49" cy="-180" rx="61.99" ry="18"/>
<text text-anchor="middle" x="392.49" y="-176.3" font-family="Times,serif" font-size="14.00">[role] postgres</text>
</g>
<!-- Play #2: Pgsql Init (1)&#45;&gt;[role] postgres -->
<g id="edge_679cd37d-0991-4077-bd45-eaf266c9589a" class="edge">
<title>Play #2: Pgsql Init (1)-&gt;[role] postgres</title>
<path fill="none" stroke="#e986ed" d="M264.62,-144.06C288.38,-150.79 315.08,-158.35 337.84,-164.8"/>
<polygon fill="#e986ed" stroke="#e986ed" points="337.09,-168.23 347.66,-167.58 339,-161.49 337.09,-168.23"/>
<text text-anchor="middle" x="293.39" y="-156.8" font-family="Times,serif" font-size="14.00" fill="#e986ed">1</text>
<links><link target="role_030b0bc4-3036-4730-9830-aa452c91c8c5"/></links></g>
<!-- [role] monitor -->
<g id="role_57724c9a-4b58-4bda-94e4-12e274fed37a" class="node">
<title>[role] monitor</title>
<ellipse fill="none" stroke="black" cx="392.49" cy="-126" rx="61.19" ry="18"/>
<text text-anchor="middle" x="392.49" y="-122.3" font-family="Times,serif" font-size="14.00">[role] monitor</text>
</g>
<!-- Play #2: Pgsql Init (1)&#45;&gt;[role] monitor -->
<g id="edge_fc2e1604-2a6a-40db-aeab-82378caa3158" class="edge">
<title>Play #2: Pgsql Init (1)-&gt;[role] monitor</title>
<path fill="none" stroke="#e986ed" d="M268.62,-126C285.55,-126 303.74,-126 320.8,-126"/>
<polygon fill="#e986ed" stroke="#e986ed" points="321.26,-129.5 331.26,-126 321.26,-122.5 321.26,-129.5"/>
<text text-anchor="middle" x="293.39" y="-129.8" font-family="Times,serif" font-size="14.00" fill="#e986ed">2</text>
<links><link target="role_57724c9a-4b58-4bda-94e4-12e274fed37a"/></links></g>
<!-- [role] service -->
<g id="role_be59f510-407f-4cf1-a24c-00680461bcaf" class="node">
<title>[role] service</title>
<ellipse fill="none" stroke="black" cx="392.49" cy="-72" rx="57.69" ry="18"/>
<text text-anchor="middle" x="392.49" y="-68.3" font-family="Times,serif" font-size="14.00">[role] service</text>
</g>
<!-- Play #2: Pgsql Init (1)&#45;&gt;[role] service -->
<g id="edge_6425f09e-b06c-4268-a0a0-59b908616654" class="edge">
<title>Play #2: Pgsql Init (1)-&gt;[role] service</title>
<path fill="none" stroke="#e986ed" d="M264.62,-107.94C288.85,-101.08 316.14,-93.35 339.19,-86.82"/>
<polygon fill="#e986ed" stroke="#e986ed" points="340.45,-90.1 349.12,-84 338.55,-83.36 340.45,-90.1"/>
<text text-anchor="middle" x="293.39" y="-103.8" font-family="Times,serif" font-size="14.00" fill="#e986ed">3</text>
<links><link target="role_be59f510-407f-4cf1-a24c-00680461bcaf"/></links></g>
<!-- [role] register -->
<g id="role_14752619-74e3-4414-a425-83d2b6f22656" class="node">
<title>[role] register</title>
<ellipse fill="none" stroke="black" cx="392.49" cy="-18" rx="59.29" ry="18"/>
<text text-anchor="middle" x="392.49" y="-14.3" font-family="Times,serif" font-size="14.00">[role] register</text>
</g>
<!-- Play #2: Pgsql Init (1)&#45;&gt;[role] register -->
<g id="edge_150e4b54-31ac-4c21-9c2c-4b268763b4ac" class="edge">
<title>Play #2: Pgsql Init (1)-&gt;[role] register</title>
<path fill="none" stroke="#e986ed" d="M223.66,-107.74C246.57,-90 283.43,-63.15 318.39,-45 325.65,-41.23 333.55,-37.74 341.39,-34.6"/>
<polygon fill="#e986ed" stroke="#e986ed" points="342.8,-37.81 350.88,-30.96 340.29,-31.28 342.8,-37.81"/>
<text text-anchor="middle" x="293.39" y="-65.8" font-family="Times,serif" font-size="14.00" fill="#e986ed">4</text>
<links><link target="role_14752619-74e3-4414-a425-83d2b6f22656"/></links></g>
</g>
</svg>