<?xml version='1.0' encoding='UTF-8'?>
<!DOCTYPE svg PUBLIC "-//W3C//DTD SVG 1.1//EN" "http://www.w3.org/Graphics/SVG/1.1/DTD/svg11.dtd">
<!-- Generated by graphviz version 2.44.1 (20200629.0846)
 --><!-- Title: infra.yml  Pages: 1 --><svg xmlns="http://www.w3.org/2000/svg" xmlns:xlink="http://www.w3.org/1999/xlink" width="475pt" height="854pt" viewBox="0.00 0.00 474.58 854.00" id="svg">
<script type="text/javascript" href="https://ajax.googleapis.com/ajax/libs/jquery/3.2.1/jquery.min.js" id="jquery"/><script type="text/javascript" id="my_javascript"><![CDATA[const HOVER_CLASS = "my_hover";

var selectedElement = null;

function addClass(rootElement) {
    $(rootElement).find('link').each(function (index, element) {
        var target = $(element).attr('target');
        var currentElement = $('#' + target);
        currentElement.addClass(HOVER_CLASS);

        addClass(currentElement);
    })
}

function removeClass(rootElement, hover) {
    $(rootElement).find('link').each(function (index, element) {
        if ($(rootElement).attr('id') !== $(selectedElement).attr('id') || !hover) {
            var target = $(element).attr('target');
            var currentElement = $('#' + target);
            currentElement.removeClass(HOVER_CLASS);

            removeClass(currentElement);
        }

    })
}

function hoverIn(event) {
    addClass(event.currentTarget);
}

function hoverOut(event) {
    removeClass(event.currentTarget, true);
}

function clickOnElement(event) {
    var newElement = event.currentTarget;

    if ($(newElement).attr('id') === $(selectedElement).attr('id')) {
        removeClass(selectedElement, false);
    } else {
        removeClass(selectedElement);
        addClass(newElement)
    }

    selectedElement = newElement;
}


$("#svg").ready(function () {

    $("g[id^=play_]").hover(hoverIn, hoverOut);
    $("g[id^=role_]").hover(hoverIn, hoverOut);

    $("g[id^=play_]").click(clickOnElement);
    $("g[id^=role_]").click(clickOnElement);

});
]]></script><style type="text/css" id="my_css"><![CDATA[.node:hover, .edge:hover, path:hover, path + polygon:hover {
    cursor: pointer;
    stroke-width: 3;
    font-weight: bolder;
}

.my_hover {
    cursor: pointer;
    stroke-width: 3;
    font-weight: bolder;
}
]]></style><g id="graph0" class="graph" transform="scale(1 1) rotate(0) translate(4 850)">
<title>infra.yml </title>
<polygon fill="white" stroke="transparent" points="-4,4 -4,-850 470.58,-850 470.58,4 -4,4"/>
<!-- infra.yml -->
<g id="root_node" class="node">
<title>infra.yml</title>
<ellipse fill="none" stroke="black" stroke-dasharray="1,5" cx="44.2" cy="-315" rx="44.39" ry="18"/>
<text text-anchor="middle" x="44.2" y="-311.3" font-family="Times,serif" font-size="14.00">infra.yml</text>
</g>
<!-- Play #1: Infra Init (1) -->
<g id="play_fdc3086b-f675-4b1d-a3ca-24af36969666" class="node">
<title>Play #1: Infra Init (1)</title>
<g id="a_play_fdc3086b-f675-4b1d-a3ca-24af36969666"><a xlink:title="10.10.10.10">
<polygon fill="#5b8122" stroke="#5b8122" points="266.89,-522 132.89,-522 132.89,-486 266.89,-486 266.89,-522"/>
<text text-anchor="middle" x="199.89" y="-500.3" font-family="Times,serif" font-size="14.00" fill="#ffffff">Play #1: Infra Init (1)</text>
</a>
</g>
<links><link target="edge_cda6de62-6b79-435a-9506-1fe18473b0d8"/><link target="edge_149440a4-4c58-42ef-92cc-8734d90eef9e"/><link target="edge_3242b8ee-77d8-4242-b867-eca55499b329"/><link target="edge_52521a3b-805d-450b-951b-f0d4d377a0f3"/><link target="edge_83492450-0fc9-4b1b-ba22-c1de27cea484"/><link target="edge_83e9bcf7-093c-4481-bb86-1c2be2587fe6"/><link target="edge_fa89cfc3-e86e-4959-8615-fabbac0e4d95"/><link target="edge_1d4aeef5-8ce8-4e34-9019-bdc6b48b04ee"/><link target="edge_bb5b54d1-9247-43dd-b324-5d7486d5a1ad"/><link target="edge_02a00c38-499c-4f6e-b4cc-9e7d143dafbe"/><link target="edge_37b1e4cf-3bee-47b4-aa52-217536557317"/><link target="edge_5f0d86b9-6f19-4a71-9369-bc1590f2a590"/></links></g>
<!-- infra.yml&#45;&gt;Play #1: Infra Init (1) -->
<g id="edge_308dcf21-8209-4b60-86d7-f8f760442aba" class="edge">
<title>infra.yml-&gt;Play #1: Infra Init (1)</title>
<path fill="none" stroke="#5b8122" stroke-width="2" d="M59.11,-332.11C86.15,-365.36 145.95,-438.9 177.86,-478.14"/>
<polygon fill="#5b8122" stroke="#5b8122" stroke-width="2" points="175.2,-480.42 184.23,-485.97 180.64,-476 175.2,-480.42"/>
<text text-anchor="middle" x="109.89" y="-401.8" font-family="Times,serif" font-size="14.00" fill="#5b8122">1</text>
</g>
<!-- Play #2: Pgsql Init (1) -->
<g id="play_ec170649-2171-4ce3-8394-2969ced2bc8c" class="node">
<title>Play #2: Pgsql Init (1)</title>
<g id="a_play_ec170649-2171-4ce3-8394-2969ced2bc8c"><a xlink:title="10.10.10.10">
<polygon fill="#9587cc" stroke="#9587cc" points="268.39,-144 131.39,-144 131.39,-108 268.39,-108 268.39,-144"/>
<text text-anchor="middle" x="199.89" y="-122.3" font-family="Times,serif" font-size="14.00" fill="#000000">Play #2: Pgsql Init (1)</text>
</a>
</g>
<links><link target="edge_ab3029cf-43a1-425b-b426-90c900061388"/><link target="edge_00d8e653-5809-4644-908d-a8a912874f29"/><link target="edge_9c236061-f844-416a-ba5d-e4720ed103dc"/><link target="edge_524da62a-ed20-4859-a327-d2e092996844"/></links></g>
<!-- infra.yml&#45;&gt;Play #2: Pgsql Init (1) -->
<g id="edge_0cfe74e9-2e32-47d5-801f-73fac37afdcd" class="edge">
<title>infra.yml-&gt;Play #2: Pgsql Init (1)</title>
<path fill="none" stroke="#9587cc" stroke-width="2" d="M59.11,-297.89C86.15,-264.64 145.95,-191.1 177.86,-151.86"/>
<polygon fill="#9587cc" stroke="#9587cc" stroke-width="2" points="180.64,-154 184.23,-144.03 175.2,-149.58 180.64,-154"/>
<text text-anchor="middle" x="109.89" y="-240.8" font-family="Times,serif" font-size="14.00" fill="#9587cc">2</text>
</g>
<!-- [role] environ -->
<g id="role_c2eff05d-94a5-437c-8db7-722f40b209ae" class="node">
<title>[role] environ</title>
<ellipse fill="none" stroke="black" cx="392.49" cy="-828" rx="59.59" ry="18"/>
<text text-anchor="middle" x="392.49" y="-824.3" font-family="Times,serif" font-size="14.00">[role] environ</text>
</g>
<!-- Play #1: Infra Init (1)&#45;&gt;[role] environ -->
<g id="edge_cda6de62-6b79-435a-9506-1fe18473b0d8" class="edge">
<title>Play #1: Infra Init (1)-&gt;[role] environ</title>
<path fill="none" stroke="#5b8122" d="M202.3,-522.03C207.39,-574.1 229.53,-725.74 318.39,-801 323.66,-805.46 329.74,-809.22 336.09,-812.38"/>
<polygon fill="#5b8122" stroke="#5b8122" points="334.97,-815.71 345.53,-816.58 337.82,-809.32 334.97,-815.71"/>
<text text-anchor="middle" x="293.39" y="-786.8" font-family="Times,serif" font-size="14.00" fill="#5b8122">1</text>
<links><link target="role_c2eff05d-94a5-437c-8db7-722f40b209ae"/></links></g>
<!-- [role] repo -->
<g id="role_8a6edae9-c78d-4905-92e4-ffd2a2c8fa10" class="node">
<title>[role] repo</title>
<ellipse fill="none" stroke="black" cx="392.49" cy="-774" rx="48.19" ry="18"/>
<text text-anchor="middle" x="392.49" y="-770.3" font-family="Times,serif" font-size="14.00">[role] repo</text>
</g>
<!-- Play #1: Infra Init (1)&#45;&gt;[role] repo -->
<g id="edge_149440a4-4c58-42ef-92cc-8734d90eef9e" class="edge">
<title>Play #1: Infra Init (1)-&gt;[role] repo</title>
<path fill="none" stroke="#5b8122" d="M204.37,-522.03C213.99,-567.02 245.27,-685.06 318.39,-747 325.22,-752.78 333.39,-757.38 341.77,-761.01"/>
<polygon fill="#5b8122" stroke="#5b8122" points="340.65,-764.34 351.24,-764.73 343.21,-757.82 340.65,-764.34"/>
<text text-anchor="middle" x="293.39" y="-729.8" font-family="Times,serif" font-size="14.00" fill="#5b8122">2</text>
<links><link target="role_8a6edae9-c78d-4905-92e4-ffd2a2c8fa10"/></links></g>
<!-- [role] node -->
<g id="role_38e57474-8b11-434a-96e1-f7022231854e" class="node">
<title>[role] node</title>
<ellipse fill="none" stroke="black" cx="392.49" cy="-720" rx="50.09" ry="18"/>
<text text-anchor="middle" x="392.49" y="-716.3" font-family="Times,serif" font-size="14.00">[role] node</text>
</g>
<!-- Play #1: Infra Init (1)&#45;&gt;[role] node -->
<g id="edge_3242b8ee-77d8-4242-b867-eca55499b329" class="edge">
<title>Play #1: Infra Init (1)-&gt;[role] node</title>
<path fill="none" stroke="#5b8122" d="M207.4,-522.17C221.67,-559.52 259.25,-645.4 318.39,-693 325.06,-698.36 332.89,-702.73 340.91,-706.25"/>
<polygon fill="#5b8122" stroke="#5b8122" points="339.76,-709.56 350.35,-710.02 342.36,-703.06 339.76,-709.56"/>
<text text-anchor="middle" x="293.39" y="-675.8" font-family="Times,serif" font-size="14.00" fill="#5b8122">3</text>
<links><link target="role_38e57474-8b11-434a-96e1-f7022231854e"/></links></g>
<!-- [role] consul -->
<g id="role_b717ab61-661f-4a33-94e7-cfb943bd452b" class="node">
<title>[role] consul</title>
<ellipse fill="none" stroke="black" cx="392.49" cy="-666" rx="55.79" ry="18"/>
<text text-anchor="middle" x="392.49" y="-662.3" font-family="Times,serif" font-size="14.00">[role] consul</text>
</g>
<!-- Play #1: Infra Init (1)&#45;&gt;[role] consul -->
<g id="edge_52521a3b-805d-450b-951b-f0d4d377a0f3" class="edge">
<title>Play #1: Infra Init (1)-&gt;[role] consul</title>
<path fill="none" stroke="#5b8122" d="M212.38,-522.32C231.23,-550.99 271.34,-606.52 318.39,-639 324.89,-643.49 332.22,-647.33 339.67,-650.59"/>
<polygon fill="#5b8122" stroke="#5b8122" points="338.54,-653.91 349.12,-654.41 341.16,-647.42 338.54,-653.91"/>
<text text-anchor="middle" x="293.39" y="-627.8" font-family="Times,serif" font-size="14.00" fill="#5b8122">4</text>
<links><link target="role_b717ab61-661f-4a33-94e7-cfb943bd452b"/></links></g>
<!-- [role] ca -->
<g id="role_e57b1834-f151-474f-a74c-d4dd7d97f392" class="node">
<title>[role] ca</title>
<ellipse fill="none" stroke="black" cx="392.49" cy="-612" rx="40.09" ry="18"/>
<text text-anchor="middle" x="392.49" y="-608.3" font-family="Times,serif" font-size="14.00">[role] ca</text>
</g>
<!-- Play #1: Infra Init (1)&#45;&gt;[role] ca -->
<g id="edge_83492450-0fc9-4b1b-ba22-c1de27cea484" class="edge">
<title>Play #1: Infra Init (1)-&gt;[role] ca</title>
<path fill="none" stroke="#5b8122" d="M223.66,-522.26C246.57,-540 283.43,-566.85 318.39,-585 328.04,-590.01 338.83,-594.53 349.09,-598.38"/>
<polygon fill="#5b8122" stroke="#5b8122" points="348.12,-601.75 358.72,-601.86 350.5,-595.17 348.12,-601.75"/>
<text text-anchor="middle" x="293.39" y="-576.8" font-family="Times,serif" font-size="14.00" fill="#5b8122">5</text>
<links><link target="role_e57b1834-f151-474f-a74c-d4dd7d97f392"/></links></g>
<!-- [role] nameserver -->
<g id="role_178a00d6-bc67-4f8c-8f1b-c47cec9409cf" class="node">
<title>[role] nameserver</title>
<ellipse fill="none" stroke="black" cx="392.49" cy="-558" rx="73.39" ry="18"/>
<text text-anchor="middle" x="392.49" y="-554.3" font-family="Times,serif" font-size="14.00">[role] nameserver</text>
</g>
<!-- Play #1: Infra Init (1)&#45;&gt;[role] nameserver -->
<g id="edge_83e9bcf7-093c-4481-bb86-1c2be2587fe6" class="edge">
<title>Play #1: Infra Init (1)-&gt;[role] nameserver</title>
<path fill="none" stroke="#5b8122" d="M264.62,-522.06C287.05,-528.41 312.11,-535.51 333.99,-541.71"/>
<polygon fill="#5b8122" stroke="#5b8122" points="333.23,-545.13 343.8,-544.49 335.14,-538.4 333.23,-545.13"/>
<text text-anchor="middle" x="293.39" y="-534.8" font-family="Times,serif" font-size="14.00" fill="#5b8122">6</text>
<links><link target="role_178a00d6-bc67-4f8c-8f1b-c47cec9409cf"/></links></g>
<!-- [role] nginx -->
<g id="role_7c76b185-1cb0-42b5-abfd-baf66a5983ce" class="node">
<title>[role] nginx</title>
<ellipse fill="none" stroke="black" cx="392.49" cy="-504" rx="52.79" ry="18"/>
<text text-anchor="middle" x="392.49" y="-500.3" font-family="Times,serif" font-size="14.00">[role] nginx</text>
</g>
<!-- Play #1: Infra Init (1)&#45;&gt;[role] nginx -->
<g id="edge_fa89cfc3-e86e-4959-8615-fabbac0e4d95" class="edge">
<title>Play #1: Infra Init (1)-&gt;[role] nginx</title>
<path fill="none" stroke="#5b8122" d="M267.02,-504C287.25,-504 309.43,-504 329.38,-504"/>
<polygon fill="#5b8122" stroke="#5b8122" points="329.59,-507.5 339.59,-504 329.59,-500.5 329.59,-507.5"/>
<text text-anchor="middle" x="293.39" y="-507.8" font-family="Times,serif" font-size="14.00" fill="#5b8122">7</text>
<links><link target="role_7c76b185-1cb0-42b5-abfd-baf66a5983ce"/></links></g>
<!-- [role] prometheus -->
<g id="role_3cd17eb4-93d2-4bc4-9fe3-a1f56d3ac981" class="node">
<title>[role] prometheus</title>
<ellipse fill="none" stroke="black" cx="392.49" cy="-450" rx="74.19" ry="18"/>
<text text-anchor="middle" x="392.49" y="-446.3" font-family="Times,serif" font-size="14.00">[role] prometheus</text>
</g>
<!-- Play #1: Infra Init (1)&#45;&gt;[role] prometheus -->
<g id="edge_1d4aeef5-8ce8-4e34-9019-bdc6b48b04ee" class="edge">
<title>Play #1: Infra Init (1)-&gt;[role] prometheus</title>
<path fill="none" stroke="#5b8122" d="M264.62,-485.94C286.96,-479.62 311.9,-472.55 333.72,-466.37"/>
<polygon fill="#5b8122" stroke="#5b8122" points="334.84,-469.69 343.5,-463.59 332.93,-462.95 334.84,-469.69"/>
<text text-anchor="middle" x="293.39" y="-481.8" font-family="Times,serif" font-size="14.00" fill="#5b8122">8</text>
<links><link target="role_3cd17eb4-93d2-4bc4-9fe3-a1f56d3ac981"/></links></g>
<!-- [role] grafana -->
<g id="role_4e289145-cc49-430c-a1cc-d3c3e447d004" class="node">
<title>[role] grafana</title>
<ellipse fill="none" stroke="black" cx="392.49" cy="-396" rx="59.29" ry="18"/>
<text text-anchor="middle" x="392.49" y="-392.3" font-family="Times,serif" font-size="14.00">[role] grafana</text>
</g>
<!-- Play #1: Infra Init (1)&#45;&gt;[role] grafana -->
<g id="edge_bb5b54d1-9247-43dd-b324-5d7486d5a1ad" class="edge">
<title>Play #1: Infra Init (1)-&gt;[role] grafana</title>
<path fill="none" stroke="#5b8122" d="M223.66,-485.74C246.57,-468 283.43,-441.15 318.39,-423 325.65,-419.23 333.55,-415.74 341.39,-412.6"/>
<polygon fill="#5b8122" stroke="#5b8122" points="342.8,-415.81 350.88,-408.96 340.29,-409.28 342.8,-415.81"/>
<text text-anchor="middle" x="293.39" y="-443.8" font-family="Times,serif" font-size="14.00" fill="#5b8122">9</text>
<links><link target="role_4e289145-cc49-430c-a1cc-d3c3e447d004"/></links></g>
<!-- [role] loki -->
<g id="role_3e85be78-ebbe-47bf-b148-d672f4602f75" class="node">
<title>[role] loki</title>
<ellipse fill="none" stroke="black" cx="392.49" cy="-342" rx="46.29" ry="18"/>
<text text-anchor="middle" x="392.49" y="-338.3" font-family="Times,serif" font-size="14.00">[role] loki</text>
</g>
<!-- Play #1: Infra Init (1)&#45;&gt;[role] loki -->
<g id="edge_02a00c38-499c-4f6e-b4cc-9e7d143dafbe" class="edge">
<title>Play #1: Infra Init (1)-&gt;[role] loki</title>
<path fill="none" stroke="#5b8122" d="M212.38,-485.68C231.23,-457.01 271.34,-401.48 318.39,-369 326.16,-363.64 335.12,-359.19 344.05,-355.56"/>
<polygon fill="#5b8122" stroke="#5b8122" points="345.54,-358.74 353.67,-351.94 343.08,-352.19 345.54,-358.74"/>
<text text-anchor="middle" x="293.39" y="-396.8" font-family="Times,serif" font-size="14.00" fill="#5b8122">10</text>
<links><link target="role_3e85be78-ebbe-47bf-b148-d672f4602f75"/></links></g>
<!-- [role] jupyter -->
<g id="role_2645c7dc-a339-4805-99e5-90a2e6dc6f3e" class="node">
<title>[role] jupyter</title>
<ellipse fill="none" stroke="black" cx="392.49" cy="-288" rx="57.69" ry="18"/>
<text text-anchor="middle" x="392.49" y="-284.3" font-family="Times,serif" font-size="14.00">[role] jupyter</text>
</g>
<!-- Play #1: Infra Init (1)&#45;&gt;[role] jupyter -->
<g id="edge_37b1e4cf-3bee-47b4-aa52-217536557317" class="edge">
<title>Play #1: Infra Init (1)-&gt;[role] jupyter</title>
<path fill="none" stroke="#5b8122" d="M207.36,-485.79C221.57,-448.35 259.03,-362.33 318.39,-315 324.14,-310.42 330.73,-306.57 337.56,-303.34"/>
<polygon fill="#5b8122" stroke="#5b8122" points="339.15,-306.47 346.96,-299.32 336.39,-300.04 339.15,-306.47"/>
<text text-anchor="middle" x="293.39" y="-347.8" font-family="Times,serif" font-size="14.00" fill="#5b8122">11</text>
<links><link target="role_2645c7dc-a339-4805-99e5-90a2e6dc6f3e"/></links></g>
<!-- [role] pgweb -->
<g id="role_659f6cd6-e1f4-43e1-8953-1642a63d9662" class="node">
<title>[role] pgweb</title>
<ellipse fill="none" stroke="black" cx="392.49" cy="-234" rx="55.79" ry="18"/>
<text text-anchor="middle" x="392.49" y="-230.3" font-family="Times,serif" font-size="14.00">[role] pgweb</text>
</g>
<!-- Play #1: Infra Init (1)&#45;&gt;[role] pgweb -->
<g id="edge_5f0d86b9-6f19-4a71-9369-bc1590f2a590" class="edge">
<title>Play #1: Infra Init (1)-&gt;[role] pgweb</title>
<path fill="none" stroke="#5b8122" d="M204.34,-485.94C213.89,-440.87 245.03,-322.65 318.39,-261 324.16,-256.15 330.88,-252.14 337.86,-248.82"/>
<polygon fill="#5b8122" stroke="#5b8122" points="339.65,-251.86 347.47,-244.72 336.9,-245.42 339.65,-251.86"/>
<text text-anchor="middle" x="293.39" y="-295.8" font-family="Times,serif" font-size="14.00" fill="#5b8122">12</text>
<links><link target="role_659f6cd6-e1f4-43e1-8953-1642a63d9662"/></links></g>
<!-- [role] postgres -->
<g id="role_842be005-a239-4757-b574-ad2f1839fbd0" class="node">
<title>[role] postgres</title>
<ellipse fill="none" stroke="black" cx="392.49" cy="-180" rx="61.99" ry="18"/>
<text text-anchor="middle" x="392.49" y="-176.3" font-family="Times,serif" font-size="14.00">[role] postgres</text>
</g>
<!-- Play #2: Pgsql Init (1)&#45;&gt;[role] postgres -->
<g id="edge_ab3029cf-43a1-425b-b426-90c900061388" class="edge">
<title>Play #2: Pgsql Init (1)-&gt;[role] postgres</title>
<path fill="none" stroke="#9587cc" d="M264.62,-144.06C288.38,-150.79 315.08,-158.35 337.84,-164.8"/>
<polygon fill="#9587cc" stroke="#9587cc" points="337.09,-168.23 347.66,-167.58 339,-161.49 337.09,-168.23"/>
<text text-anchor="middle" x="293.39" y="-156.8" font-family="Times,serif" font-size="14.00" fill="#9587cc">1</text>
<links><link target="role_842be005-a239-4757-b574-ad2f1839fbd0"/></links></g>
<!-- [role] monitor -->
<g id="role_95075eaa-fcf1-4a7c-8e2d-764c1fdbe5d3" class="node">
<title>[role] monitor</title>
<ellipse fill="none" stroke="black" cx="392.49" cy="-126" rx="61.19" ry="18"/>
<text text-anchor="middle" x="392.49" y="-122.3" font-family="Times,serif" font-size="14.00">[role] monitor</text>
</g>
<!-- Play #2: Pgsql Init (1)&#45;&gt;[role] monitor -->
<g id="edge_00d8e653-5809-4644-908d-a8a912874f29" class="edge">
<title>Play #2: Pgsql Init (1)-&gt;[role] monitor</title>
<path fill="none" stroke="#9587cc" d="M268.62,-126C285.55,-126 303.74,-126 320.8,-126"/>
<polygon fill="#9587cc" stroke="#9587cc" points="321.26,-129.5 331.26,-126 321.26,-122.5 321.26,-129.5"/>
<text text-anchor="middle" x="293.39" y="-129.8" font-family="Times,serif" font-size="14.00" fill="#9587cc">2</text>
<links><link target="role_95075eaa-fcf1-4a7c-8e2d-764c1fdbe5d3"/></links></g>
<!-- [role] service -->
<g id="role_ee8fa090-ec45-46cd-b1fa-7c46e66a3c45" class="node">
<title>[role] service</title>
<ellipse fill="none" stroke="black" cx="392.49" cy="-72" rx="57.69" ry="18"/>
<text text-anchor="middle" x="392.49" y="-68.3" font-family="Times,serif" font-size="14.00">[role] service</text>
</g>
<!-- Play #2: Pgsql Init (1)&#45;&gt;[role] service -->
<g id="edge_9c236061-f844-416a-ba5d-e4720ed103dc" class="edge">
<title>Play #2: Pgsql Init (1)-&gt;[role] service</title>
<path fill="none" stroke="#9587cc" d="M264.62,-107.94C288.85,-101.08 316.14,-93.35 339.19,-86.82"/>
<polygon fill="#9587cc" stroke="#9587cc" points="340.45,-90.1 349.12,-84 338.55,-83.36 340.45,-90.1"/>
<text text-anchor="middle" x="293.39" y="-103.8" font-family="Times,serif" font-size="14.00" fill="#9587cc">3</text>
<links><link target="role_ee8fa090-ec45-46cd-b1fa-7c46e66a3c45"/></links></g>
<!-- [role] register -->
<g id="role_1473e94f-5ade-40f5-b5d1-c971549c932f" class="node">
<title>[role] register</title>
<ellipse fill="none" stroke="black" cx="392.49" cy="-18" rx="59.29" ry="18"/>
<text text-anchor="middle" x="392.49" y="-14.3" font-family="Times,serif" font-size="14.00">[role] register</text>
</g>
<!-- Play #2: Pgsql Init (1)&#45;&gt;[role] register -->
<g id="edge_524da62a-ed20-4859-a327-d2e092996844" class="edge">
<title>Play #2: Pgsql Init (1)-&gt;[role] register</title>
<path fill="none" stroke="#9587cc" d="M223.66,-107.74C246.57,-90 283.43,-63.15 318.39,-45 325.65,-41.23 333.55,-37.74 341.39,-34.6"/>
<polygon fill="#9587cc" stroke="#9587cc" points="342.8,-37.81 350.88,-30.96 340.29,-31.28 342.8,-37.81"/>
<text text-anchor="middle" x="293.39" y="-65.8" font-family="Times,serif" font-size="14.00" fill="#9587cc">4</text>
<links><link target="role_1473e94f-5ade-40f5-b5d1-c971549c932f"/></links></g>
</g>
</svg>