<?xml version='1.0' encoding='UTF-8'?>
<!DOCTYPE svg PUBLIC "-//W3C//DTD SVG 1.1//EN" "http://www.w3.org/Graphics/SVG/1.1/DTD/svg11.dtd">
<!-- Generated by graphviz version 2.44.1 (20200629.0846)
 --><!-- Title: infra.yml  Pages: 1 --><svg xmlns="http://www.w3.org/2000/svg" xmlns:xlink="http://www.w3.org/1999/xlink" width="475pt" height="800pt" viewBox="0.00 0.00 474.58 800.00" id="svg">
<script type="text/javascript" href="https://ajax.googleapis.com/ajax/libs/jquery/3.2.1/jquery.min.js" id="jquery"/><script type="text/javascript" id="my_javascript"><![CDATA[const HOVER_CLASS = "my_hover";

var selectedElement = null;

function addClass(rootElement) {
    $(rootElement).find('link').each(function (index, element) {
        var target = $(element).attr('target');
        var currentElement = $('#' + target);
        currentElement.addClass(HOVER_CLASS);

        addClass(currentElement);
    })
}

function removeClass(rootElement, hover) {
    $(rootElement).find('link').each(function (index, element) {
        if ($(rootElement).attr('id') !== $(selectedElement).attr('id') || !hover) {
            var target = $(element).attr('target');
            var currentElement = $('#' + target);
            currentElement.removeClass(HOVER_CLASS);

            removeClass(currentElement);
        }

    })
}

function hoverIn(event) {
    addClass(event.currentTarget);
}

function hoverOut(event) {
    removeClass(event.currentTarget, true);
}

function clickOnElement(event) {
    var newElement = event.currentTarget;

    if ($(newElement).attr('id') === $(selectedElement).attr('id')) {
        removeClass(selectedElement, false);
    } else {
        removeClass(selectedElement);
        addClass(newElement)
    }

    selectedElement = newElement;
}


$("#svg").ready(function () {

    $("g[id^=play_]").hover(hoverIn, hoverOut);
    $("g[id^=role_]").hover(hoverIn, hoverOut);

    $("g[id^=play_]").click(clickOnElement);
    $("g[id^=role_]").click(clickOnElement);

});
]]></script><style type="text/css" id="my_css"><![CDATA[.node:hover, .edge:hover, path:hover, path + polygon:hover {
    cursor: pointer;
    stroke-width: 3;
    font-weight: bolder;
}

.my_hover {
    cursor: pointer;
    stroke-width: 3;
    font-weight: bolder;
}
]]></style><g id="graph0" class="graph" transform="scale(1 1) rotate(0) translate(4 796)">
<title>infra.yml </title>
<polygon fill="white" stroke="transparent" points="-4,4 -4,-796 470.58,-796 470.58,4 -4,4"/>
<!-- infra.yml -->
<g id="root_node" class="node">
<title>infra.yml</title>
<ellipse fill="none" stroke="black" stroke-dasharray="1,5" cx="44.2" cy="-288" rx="44.39" ry="18"/>
<text text-anchor="middle" x="44.2" y="-284.3" font-family="Times,serif" font-size="14.00">infra.yml</text>
</g>
<!-- Play #1: Infra Init (1) -->
<g id="play_13733d46-e74a-462a-ab1c-a3d3eb075614" class="node">
<title>Play #1: Infra Init (1)</title>
<g id="a_play_13733d46-e74a-462a-ab1c-a3d3eb075614"><a xlink:title="10.10.10.10">
<polygon fill="#b67b2b" stroke="#b67b2b" points="266.89,-495 132.89,-495 132.89,-459 266.89,-459 266.89,-495"/>
<text text-anchor="middle" x="199.89" y="-473.3" font-family="Times,serif" font-size="14.00" fill="#ffffff">Play #1: Infra Init (1)</text>
</a>
</g>
<links><link target="edge_009d3fd0-5325-4c37-9a3b-67e409cee96a"/><link target="edge_2f5a2881-6788-4606-94fe-dd41c251cea7"/><link target="edge_042fae5c-b8e3-498d-a011-8435c17e7a8d"/><link target="edge_7ff0ddaa-74a1-490e-bd53-6e3d0a9b8fd2"/><link target="edge_92741332-ff77-4006-97a6-04865307909a"/><link target="edge_9d7ecc9e-de99-4199-9d71-0fa33cf8377f"/><link target="edge_cbddd39f-608c-46b7-9e73-ae2bb356c5a1"/><link target="edge_c9fa2728-352e-4eba-a991-dd3ae575ec6d"/><link target="edge_e157d966-76ff-4bcf-b8c2-f71d3ae473d8"/><link target="edge_fdb5e53e-8211-4d07-84a6-5e35e8df72d2"/><link target="edge_9c02a3f9-8612-4d99-b835-d7ef50f2ebaf"/></links></g>
<!-- infra.yml&#45;&gt;Play #1: Infra Init (1) -->
<g id="edge_0294ad47-f18c-4787-b6d4-aa952728d02e" class="edge">
<title>infra.yml-&gt;Play #1: Infra Init (1)</title>
<path fill="none" stroke="#b67b2b" stroke-width="2" d="M59.11,-305.11C86.15,-338.36 145.95,-411.9 177.86,-451.14"/>
<polygon fill="#b67b2b" stroke="#b67b2b" stroke-width="2" points="175.2,-453.42 184.23,-458.97 180.64,-449 175.2,-453.42"/>
<text text-anchor="middle" x="109.89" y="-374.8" font-family="Times,serif" font-size="14.00" fill="#b67b2b">1</text>
</g>
<!-- Play #2: Pgsql Init (1) -->
<g id="play_ccfc73f9-3b4a-494a-8c8b-a62260b274ac" class="node">
<title>Play #2: Pgsql Init (1)</title>
<g id="a_play_ccfc73f9-3b4a-494a-8c8b-a62260b274ac"><a xlink:title="10.10.10.10">
<polygon fill="#64b9e4" stroke="#64b9e4" points="268.39,-144 131.39,-144 131.39,-108 268.39,-108 268.39,-144"/>
<text text-anchor="middle" x="199.89" y="-122.3" font-family="Times,serif" font-size="14.00" fill="#000000">Play #2: Pgsql Init (1)</text>
</a>
</g>
<links><link target="edge_0e8ceb26-d2fc-448a-a51d-7ec0d8aa3d93"/><link target="edge_651cc359-f378-4803-a555-3c60e1678113"/><link target="edge_4c76dec4-466c-4e96-93e8-6184a6c7d86f"/><link target="edge_7a5bd10d-c643-4a8e-a0de-9934fe796c30"/></links></g>
<!-- infra.yml&#45;&gt;Play #2: Pgsql Init (1) -->
<g id="edge_72d90357-9ac4-4c93-b257-79eac10aa13e" class="edge">
<title>infra.yml-&gt;Play #2: Pgsql Init (1)</title>
<path fill="none" stroke="#64b9e4" stroke-width="2" d="M61.07,-271.27C87.98,-242.91 142.73,-185.2 174.53,-151.68"/>
<polygon fill="#64b9e4" stroke="#64b9e4" stroke-width="2" points="177.36,-153.78 181.71,-144.11 172.29,-148.96 177.36,-153.78"/>
<text text-anchor="middle" x="109.89" y="-224.8" font-family="Times,serif" font-size="14.00" fill="#64b9e4">2</text>
</g>
<!-- [role] environ -->
<g id="role_a2c32fb7-5178-405a-8678-63aad20a36af" class="node">
<title>[role] environ</title>
<ellipse fill="none" stroke="black" cx="392.49" cy="-774" rx="59.59" ry="18"/>
<text text-anchor="middle" x="392.49" y="-770.3" font-family="Times,serif" font-size="14.00">[role] environ</text>
</g>
<!-- Play #1: Infra Init (1)&#45;&gt;[role] environ -->
<g id="edge_009d3fd0-5325-4c37-9a3b-67e409cee96a" class="edge">
<title>Play #1: Infra Init (1)-&gt;[role] environ</title>
<path fill="none" stroke="#b67b2b" d="M203.17,-495.09C210.32,-543.88 236.91,-679.08 318.39,-747 323.77,-751.48 329.96,-755.25 336.41,-758.42"/>
<polygon fill="#b67b2b" stroke="#b67b2b" points="335.43,-761.81 345.99,-762.64 338.25,-755.41 335.43,-761.81"/>
<text text-anchor="middle" x="293.39" y="-728.8" font-family="Times,serif" font-size="14.00" fill="#b67b2b">1</text>
<links><link target="role_a2c32fb7-5178-405a-8678-63aad20a36af"/></links></g>
<!-- [role] repo -->
<g id="role_69b3b9a6-ea1f-4a92-b3f7-60bd4d70d8d0" class="node">
<title>[role] repo</title>
<ellipse fill="none" stroke="black" cx="392.49" cy="-720" rx="48.19" ry="18"/>
<text text-anchor="middle" x="392.49" y="-716.3" font-family="Times,serif" font-size="14.00">[role] repo</text>
</g>
<!-- Play #1: Infra Init (1)&#45;&gt;[role] repo -->
<g id="edge_2f5a2881-6788-4606-94fe-dd41c251cea7" class="edge">
<title>Play #1: Infra Init (1)-&gt;[role] repo</title>
<path fill="none" stroke="#b67b2b" d="M205.67,-495.06C217.54,-536.35 252.25,-638.33 318.39,-693 325.29,-698.7 333.49,-703.25 341.88,-706.88"/>
<polygon fill="#b67b2b" stroke="#b67b2b" points="340.77,-710.2 351.36,-710.58 343.32,-703.68 340.77,-710.2"/>
<text text-anchor="middle" x="293.39" y="-677.8" font-family="Times,serif" font-size="14.00" fill="#b67b2b">2</text>
<links><link target="role_69b3b9a6-ea1f-4a92-b3f7-60bd4d70d8d0"/></links></g>
<!-- [role] node -->
<g id="role_c2920b00-6c07-4d63-becc-2ffadd9d3df4" class="node">
<title>[role] node</title>
<ellipse fill="none" stroke="black" cx="392.49" cy="-666" rx="50.09" ry="18"/>
<text text-anchor="middle" x="392.49" y="-662.3" font-family="Times,serif" font-size="14.00">[role] node</text>
</g>
<!-- Play #1: Infra Init (1)&#45;&gt;[role] node -->
<g id="edge_042fae5c-b8e3-498d-a011-8435c17e7a8d" class="edge">
<title>Play #1: Infra Init (1)-&gt;[role] node</title>
<path fill="none" stroke="#b67b2b" d="M209.41,-495.02C225.92,-528.1 265.37,-598.81 318.39,-639 325.29,-644.23 333.3,-648.53 341.44,-652.04"/>
<polygon fill="#b67b2b" stroke="#b67b2b" points="340.42,-655.4 351,-655.81 342.98,-648.88 340.42,-655.4"/>
<text text-anchor="middle" x="293.39" y="-624.8" font-family="Times,serif" font-size="14.00" fill="#b67b2b">3</text>
<links><link target="role_c2920b00-6c07-4d63-becc-2ffadd9d3df4"/></links></g>
<!-- [role] consul -->
<g id="role_412d644f-3e91-4bc6-abb3-e809030d7803" class="node">
<title>[role] consul</title>
<ellipse fill="none" stroke="black" cx="392.49" cy="-612" rx="55.79" ry="18"/>
<text text-anchor="middle" x="392.49" y="-608.3" font-family="Times,serif" font-size="14.00">[role] consul</text>
</g>
<!-- Play #1: Infra Init (1)&#45;&gt;[role] consul -->
<g id="edge_7ff0ddaa-74a1-490e-bd53-6e3d0a9b8fd2" class="edge">
<title>Play #1: Infra Init (1)-&gt;[role] consul</title>
<path fill="none" stroke="#b67b2b" d="M216.31,-495C237.3,-518.53 277.02,-559.72 318.39,-585 325.37,-589.26 333.12,-593.02 340.9,-596.27"/>
<polygon fill="#b67b2b" stroke="#b67b2b" points="339.76,-599.58 350.35,-599.98 342.32,-593.06 339.76,-599.58"/>
<text text-anchor="middle" x="293.39" y="-573.8" font-family="Times,serif" font-size="14.00" fill="#b67b2b">4</text>
<links><link target="role_412d644f-3e91-4bc6-abb3-e809030d7803"/></links></g>
<!-- [role] ca -->
<g id="role_529e64c1-7150-4699-9bb9-41e5d9445816" class="node">
<title>[role] ca</title>
<ellipse fill="none" stroke="black" cx="392.49" cy="-558" rx="40.09" ry="18"/>
<text text-anchor="middle" x="392.49" y="-554.3" font-family="Times,serif" font-size="14.00">[role] ca</text>
</g>
<!-- Play #1: Infra Init (1)&#45;&gt;[role] ca -->
<g id="edge_92741332-ff77-4006-97a6-04865307909a" class="edge">
<title>Play #1: Infra Init (1)-&gt;[role] ca</title>
<path fill="none" stroke="#b67b2b" d="M238.14,-495.01C261.09,-505.88 291.22,-519.76 318.39,-531 328.82,-535.32 340.22,-539.69 350.85,-543.62"/>
<polygon fill="#b67b2b" stroke="#b67b2b" points="349.75,-546.94 360.34,-547.09 352.15,-540.37 349.75,-546.94"/>
<text text-anchor="middle" x="293.39" y="-525.8" font-family="Times,serif" font-size="14.00" fill="#b67b2b">5</text>
<links><link target="role_529e64c1-7150-4699-9bb9-41e5d9445816"/></links></g>
<!-- [role] nameserver -->
<g id="role_fa84ff28-427a-48b9-acc1-fe09a8e19f18" class="node">
<title>[role] nameserver</title>
<ellipse fill="none" stroke="black" cx="392.49" cy="-504" rx="73.39" ry="18"/>
<text text-anchor="middle" x="392.49" y="-500.3" font-family="Times,serif" font-size="14.00">[role] nameserver</text>
</g>
<!-- Play #1: Infra Init (1)&#45;&gt;[role] nameserver -->
<g id="edge_9d7ecc9e-de99-4199-9d71-0fa33cf8377f" class="edge">
<title>Play #1: Infra Init (1)-&gt;[role] nameserver</title>
<path fill="none" stroke="#b67b2b" d="M267.02,-486.37C283.49,-488.7 301.25,-491.22 318.05,-493.6"/>
<polygon fill="#b67b2b" stroke="#b67b2b" points="317.97,-497.12 328.37,-495.06 318.95,-490.19 317.97,-497.12"/>
<text text-anchor="middle" x="293.39" y="-493.8" font-family="Times,serif" font-size="14.00" fill="#b67b2b">6</text>
<links><link target="role_fa84ff28-427a-48b9-acc1-fe09a8e19f18"/></links></g>
<!-- [role] nginx -->
<g id="role_b4107e74-4d73-4dae-b419-e9516e166985" class="node">
<title>[role] nginx</title>
<ellipse fill="none" stroke="black" cx="392.49" cy="-450" rx="52.79" ry="18"/>
<text text-anchor="middle" x="392.49" y="-446.3" font-family="Times,serif" font-size="14.00">[role] nginx</text>
</g>
<!-- Play #1: Infra Init (1)&#45;&gt;[role] nginx -->
<g id="edge_cbddd39f-608c-46b7-9e73-ae2bb356c5a1" class="edge">
<title>Play #1: Infra Init (1)-&gt;[role] nginx</title>
<path fill="none" stroke="#b67b2b" d="M267.02,-467.63C288.64,-464.57 312.48,-461.19 333.45,-458.22"/>
<polygon fill="#b67b2b" stroke="#b67b2b" points="334.09,-461.67 343.5,-456.8 333.11,-454.74 334.09,-461.67"/>
<text text-anchor="middle" x="293.39" y="-467.8" font-family="Times,serif" font-size="14.00" fill="#b67b2b">7</text>
<links><link target="role_b4107e74-4d73-4dae-b419-e9516e166985"/></links></g>
<!-- [role] prometheus -->
<g id="role_fa215e17-a604-4d8d-b406-f23d524e7542" class="node">
<title>[role] prometheus</title>
<ellipse fill="none" stroke="black" cx="392.49" cy="-396" rx="74.19" ry="18"/>
<text text-anchor="middle" x="392.49" y="-392.3" font-family="Times,serif" font-size="14.00">[role] prometheus</text>
</g>
<!-- Play #1: Infra Init (1)&#45;&gt;[role] prometheus -->
<g id="edge_c9fa2728-352e-4eba-a991-dd3ae575ec6d" class="edge">
<title>Play #1: Infra Init (1)-&gt;[role] prometheus</title>
<path fill="none" stroke="#b67b2b" d="M238.14,-458.99C261.09,-448.12 291.22,-434.24 318.39,-423 325.27,-420.16 332.56,-417.29 339.78,-414.54"/>
<polygon fill="#b67b2b" stroke="#b67b2b" points="341.4,-417.67 349.52,-410.87 338.93,-411.11 341.4,-417.67"/>
<text text-anchor="middle" x="293.39" y="-438.8" font-family="Times,serif" font-size="14.00" fill="#b67b2b">8</text>
<links><link target="role_fa215e17-a604-4d8d-b406-f23d524e7542"/></links></g>
<!-- [role] grafana -->
<g id="role_1521767c-ae5d-49bf-813e-ff31330d14db" class="node">
<title>[role] grafana</title>
<ellipse fill="none" stroke="black" cx="392.49" cy="-342" rx="59.29" ry="18"/>
<text text-anchor="middle" x="392.49" y="-338.3" font-family="Times,serif" font-size="14.00">[role] grafana</text>
</g>
<!-- Play #1: Infra Init (1)&#45;&gt;[role] grafana -->
<g id="edge_e157d966-76ff-4bcf-b8c2-f71d3ae473d8" class="edge">
<title>Play #1: Infra Init (1)-&gt;[role] grafana</title>
<path fill="none" stroke="#b67b2b" d="M216.31,-459C237.3,-435.47 277.02,-394.28 318.39,-369 325.05,-364.93 332.41,-361.33 339.83,-358.18"/>
<polygon fill="#b67b2b" stroke="#b67b2b" points="341.21,-361.4 349.2,-354.45 338.62,-354.9 341.21,-361.4"/>
<text text-anchor="middle" x="293.39" y="-391.8" font-family="Times,serif" font-size="14.00" fill="#b67b2b">9</text>
<links><link target="role_1521767c-ae5d-49bf-813e-ff31330d14db"/></links></g>
<!-- [role] jupyter -->
<g id="role_9aeac221-abeb-41d5-85ed-f8979e494272" class="node">
<title>[role] jupyter</title>
<ellipse fill="none" stroke="black" cx="392.49" cy="-288" rx="57.69" ry="18"/>
<text text-anchor="middle" x="392.49" y="-284.3" font-family="Times,serif" font-size="14.00">[role] jupyter</text>
</g>
<!-- Play #1: Infra Init (1)&#45;&gt;[role] jupyter -->
<g id="edge_fdb5e53e-8211-4d07-84a6-5e35e8df72d2" class="edge">
<title>Play #1: Infra Init (1)-&gt;[role] jupyter</title>
<path fill="none" stroke="#b67b2b" d="M209.41,-458.98C225.92,-425.9 265.37,-355.19 318.39,-315 324.32,-310.51 331.08,-306.7 338.03,-303.48"/>
<polygon fill="#b67b2b" stroke="#b67b2b" points="339.72,-306.57 347.57,-299.47 337,-300.12 339.72,-306.57"/>
<text text-anchor="middle" x="293.39" y="-343.8" font-family="Times,serif" font-size="14.00" fill="#b67b2b">10</text>
<links><link target="role_9aeac221-abeb-41d5-85ed-f8979e494272"/></links></g>
<!-- [role] pgweb -->
<g id="role_df5cf487-6ee7-4716-a2a8-b02a81c926bf" class="node">
<title>[role] pgweb</title>
<ellipse fill="none" stroke="black" cx="392.49" cy="-234" rx="55.79" ry="18"/>
<text text-anchor="middle" x="392.49" y="-230.3" font-family="Times,serif" font-size="14.00">[role] pgweb</text>
</g>
<!-- Play #1: Infra Init (1)&#45;&gt;[role] pgweb -->
<g id="edge_9c02a3f9-8612-4d99-b835-d7ef50f2ebaf" class="edge">
<title>Play #1: Infra Init (1)-&gt;[role] pgweb</title>
<path fill="none" stroke="#b67b2b" d="M205.64,-458.9C217.44,-417.53 252.02,-315.39 318.39,-261 324.22,-256.23 330.97,-252.25 337.97,-248.95"/>
<polygon fill="#b67b2b" stroke="#b67b2b" points="339.76,-251.99 347.6,-244.86 337.02,-245.55 339.76,-251.99"/>
<text text-anchor="middle" x="293.39" y="-291.8" font-family="Times,serif" font-size="14.00" fill="#b67b2b">11</text>
<links><link target="role_df5cf487-6ee7-4716-a2a8-b02a81c926bf"/></links></g>
<!-- [role] postgres -->
<g id="role_81930795-7d9c-41b9-a81e-e732e26991e9" class="node">
<title>[role] postgres</title>
<ellipse fill="none" stroke="black" cx="392.49" cy="-180" rx="61.99" ry="18"/>
<text text-anchor="middle" x="392.49" y="-176.3" font-family="Times,serif" font-size="14.00">[role] postgres</text>
</g>
<!-- Play #2: Pgsql Init (1)&#45;&gt;[role] postgres -->
<g id="edge_0e8ceb26-d2fc-448a-a51d-7ec0d8aa3d93" class="edge">
<title>Play #2: Pgsql Init (1)-&gt;[role] postgres</title>
<path fill="none" stroke="#64b9e4" d="M264.62,-144.06C288.38,-150.79 315.08,-158.35 337.84,-164.8"/>
<polygon fill="#64b9e4" stroke="#64b9e4" points="337.09,-168.23 347.66,-167.58 339,-161.49 337.09,-168.23"/>
<text text-anchor="middle" x="293.39" y="-156.8" font-family="Times,serif" font-size="14.00" fill="#64b9e4">1</text>
<links><link target="role_81930795-7d9c-41b9-a81e-e732e26991e9"/></links></g>
<!-- [role] monitor -->
<g id="role_533e7526-a5d0-4df5-92b8-2a36d3a4b1b6" class="node">
<title>[role] monitor</title>
<ellipse fill="none" stroke="black" cx="392.49" cy="-126" rx="61.19" ry="18"/>
<text text-anchor="middle" x="392.49" y="-122.3" font-family="Times,serif" font-size="14.00">[role] monitor</text>
</g>
<!-- Play #2: Pgsql Init (1)&#45;&gt;[role] monitor -->
<g id="edge_651cc359-f378-4803-a555-3c60e1678113" class="edge">
<title>Play #2: Pgsql Init (1)-&gt;[role] monitor</title>
<path fill="none" stroke="#64b9e4" d="M268.62,-126C285.55,-126 303.74,-126 320.8,-126"/>
<polygon fill="#64b9e4" stroke="#64b9e4" points="321.26,-129.5 331.26,-126 321.26,-122.5 321.26,-129.5"/>
<text text-anchor="middle" x="293.39" y="-129.8" font-family="Times,serif" font-size="14.00" fill="#64b9e4">2</text>
<links><link target="role_533e7526-a5d0-4df5-92b8-2a36d3a4b1b6"/></links></g>
<!-- [role] service -->
<g id="role_733a9ed1-fa1d-4850-b03c-3986c17d4372" class="node">
<title>[role] service</title>
<ellipse fill="none" stroke="black" cx="392.49" cy="-72" rx="57.69" ry="18"/>
<text text-anchor="middle" x="392.49" y="-68.3" font-family="Times,serif" font-size="14.00">[role] service</text>
</g>
<!-- Play #2: Pgsql Init (1)&#45;&gt;[role] service -->
<g id="edge_4c76dec4-466c-4e96-93e8-6184a6c7d86f" class="edge">
<title>Play #2: Pgsql Init (1)-&gt;[role] service</title>
<path fill="none" stroke="#64b9e4" d="M264.62,-107.94C288.85,-101.08 316.14,-93.35 339.19,-86.82"/>
<polygon fill="#64b9e4" stroke="#64b9e4" points="340.45,-90.1 349.12,-84 338.55,-83.36 340.45,-90.1"/>
<text text-anchor="middle" x="293.39" y="-103.8" font-family="Times,serif" font-size="14.00" fill="#64b9e4">3</text>
<links><link target="role_733a9ed1-fa1d-4850-b03c-3986c17d4372"/></links></g>
<!-- [role] register -->
<g id="role_62e37aa7-ef59-4c7e-a0f8-a2621ecdbffe" class="node">
<title>[role] register</title>
<ellipse fill="none" stroke="black" cx="392.49" cy="-18" rx="59.29" ry="18"/>
<text text-anchor="middle" x="392.49" y="-14.3" font-family="Times,serif" font-size="14.00">[role] register</text>
</g>
<!-- Play #2: Pgsql Init (1)&#45;&gt;[role] register -->
<g id="edge_7a5bd10d-c643-4a8e-a0de-9934fe796c30" class="edge">
<title>Play #2: Pgsql Init (1)-&gt;[role] register</title>
<path fill="none" stroke="#64b9e4" d="M223.66,-107.74C246.57,-90 283.43,-63.15 318.39,-45 325.65,-41.23 333.55,-37.74 341.39,-34.6"/>
<polygon fill="#64b9e4" stroke="#64b9e4" points="342.8,-37.81 350.88,-30.96 340.29,-31.28 342.8,-37.81"/>
<text text-anchor="middle" x="293.39" y="-65.8" font-family="Times,serif" font-size="14.00" fill="#64b9e4">4</text>
<links><link target="role_62e37aa7-ef59-4c7e-a0f8-a2621ecdbffe"/></links></g>
</g>
</svg>