<?xml version='1.0' encoding='UTF-8'?>
<!DOCTYPE svg PUBLIC "-//W3C//DTD SVG 1.1//EN" "http://www.w3.org/Graphics/SVG/1.1/DTD/svg11.dtd">
<!-- Generated by graphviz version 2.44.1 (20200629.0846)
 --><!-- Title: pgsql&#45;createdb.yml  Pages: 1 --><svg xmlns="http://www.w3.org/2000/svg" xmlns:xlink="http://www.w3.org/1999/xlink" width="1566pt" height="786pt" viewBox="0.00 0.00 1565.76 785.62" id="svg">
<script type="text/javascript" href="https://ajax.googleapis.com/ajax/libs/jquery/3.2.1/jquery.min.js" id="jquery"/><script type="text/javascript" id="my_javascript"><![CDATA[const HOVER_CLASS = "my_hover";

var selectedElement = null;

function addClass(rootElement) {
    $(rootElement).find('link').each(function (index, element) {
        var target = $(element).attr('target');
        var currentElement = $('#' + target);
        currentElement.addClass(HOVER_CLASS);

        addClass(currentElement);
    })
}

function removeClass(rootElement, hover) {
    $(rootElement).find('link').each(function (index, element) {
        if ($(rootElement).attr('id') !== $(selectedElement).attr('id') || !hover) {
            var target = $(element).attr('target');
            var currentElement = $('#' + target);
            currentElement.removeClass(HOVER_CLASS);

            removeClass(currentElement);
        }

    })
}

function hoverIn(event) {
    addClass(event.currentTarget);
}

function hoverOut(event) {
    removeClass(event.currentTarget, true);
}

function clickOnElement(event) {
    var newElement = event.currentTarget;

    if ($(newElement).attr('id') === $(selectedElement).attr('id')) {
        removeClass(selectedElement, false);
    } else {
        removeClass(selectedElement);
        addClass(newElement)
    }

    selectedElement = newElement;
}


$("#svg").ready(function () {

    $("g[id^=play_]").hover(hoverIn, hoverOut);
    $("g[id^=role_]").hover(hoverIn, hoverOut);

    $("g[id^=play_]").click(clickOnElement);
    $("g[id^=role_]").click(clickOnElement);

});
]]></script><style type="text/css" id="my_css"><![CDATA[.node:hover, .edge:hover, path:hover, path + polygon:hover {
    cursor: pointer;
    stroke-width: 3;
    font-weight: bolder;
}

.my_hover {
    cursor: pointer;
    stroke-width: 3;
    font-weight: bolder;
}
]]></style><g id="graph0" class="graph" transform="scale(1 1) rotate(0) translate(4 781.62)">
<title>pgsql-createdb.yml </title>
<polygon fill="white" stroke="transparent" points="-4,4 -4,-781.62 1561.76,-781.62 1561.76,4 -4,4"/>
<!-- pgsql&#45;createdb.yml -->
<g id="root_node" class="node">
<title>pgsql-createdb.yml</title>
<ellipse fill="none" stroke="black" stroke-dasharray="1,5" cx="79.29" cy="-386.62" rx="79.09" ry="18"/>
<text text-anchor="middle" x="79.29" y="-382.92" font-family="Times,serif" font-size="14.00">pgsql-createdb.yml</text>
</g>
<!-- Play #1: Create new postgres database (4) -->
<g id="play_439d3ae7-d0c0-4ec6-88e5-71471bf6b9a1" class="node">
<title>Play #1: Create new postgres database (4)</title>
<g id="a_play_439d3ae7-d0c0-4ec6-88e5-71471bf6b9a1"><a xlink:title="10.10.10.10     10.10.10.11     10.10.10.12     10.10.10.13">
<polygon fill="#c0e893" stroke="#c0e893" points="446.59,-404.62 201.59,-404.62 201.59,-368.62 446.59,-368.62 446.59,-404.62"/>
<text text-anchor="middle" x="324.09" y="-382.92" font-family="Times,serif" font-size="14.00" fill="#000000">Play #1: Create new postgres database (4)</text>
</a>
</g>
<links><link target="edge_8977b251-333e-4e66-8761-b94c38f4209f"/><link target="edge_6ae0858d-4ca3-4871-b07c-ec5dd9e266e6"/><link target="edge_d38ce95e-87eb-4a7c-b6d3-1c9eeca73a60"/><link target="edge_683a129e-8582-441f-8f97-97b37e96e202"/><link target="edge_ba8cdcac-0430-4076-ad7b-739fc8deb74b"/><link target="edge_7e510e30-80ef-428d-845c-21fb06169a5d"/><link target="edge_a472576f-17c9-4839-8e59-fb5d5750abeb"/><link target="edge_c01f0a91-f94f-43fa-a00c-149b139b1dbf"/><link target="edge_49e5996e-9a8c-492e-b46b-3fd7410d6f62"/><link target="edge_ace5d932-84e7-4b87-b25e-86218148a985"/><link target="edge_9d97aca9-73eb-4734-b379-3d98dd9b560e"/><link target="edge_e0c7418e-cf26-4799-929d-5bac552c819d"/><link target="edge_6c2ab563-8443-4c25-8dd1-ae481d496511"/><link target="edge_1c9ae014-3a32-4f9f-9c85-f88777f71c48"/></links></g>
<!-- pgsql&#45;createdb.yml&#45;&gt;Play #1: Create new postgres database (4) -->
<g id="edge_1e876787-8785-4a35-8ab6-df3368e8279c" class="edge">
<title>pgsql-createdb.yml-&gt;Play #1: Create new postgres database (4)</title>
<path fill="none" stroke="#c0e893" stroke-width="2" d="M158.79,-386.62C169.18,-386.62 180.06,-386.62 191.05,-386.62"/>
<polygon fill="#c0e893" stroke="#c0e893" stroke-width="2" points="191.17,-390.12 201.17,-386.62 191.17,-383.12 191.17,-390.12"/>
<text text-anchor="middle" x="180.09" y="-390.42" font-family="Times,serif" font-size="14.00" fill="#c0e893">1</text>
</g>
<!-- task_fc179507&#45;b8da&#45;42e0&#45;92f3&#45;5a84dbcf2a68 -->
<g id="task_fc179507-b8da-42e0-92f3-5a84dbcf2a68" class="node">
<title>task_fc179507-b8da-42e0-92f3-5a84dbcf2a68</title>
<polygon fill="none" stroke="black" points="1414.73,-730.17 1414.73,-745.08 1346.46,-755.62 1249.89,-755.62 1181.61,-745.08 1181.61,-730.17 1249.89,-719.62 1346.46,-719.62 1414.73,-730.17"/>
<text text-anchor="middle" x="1298.17" y="-733.92" font-family="Times,serif" font-size="14.00">[task] Validate pg_database</text>
</g>
<!-- Play #1: Create new postgres database (4)&#45;&gt;task_fc179507&#45;b8da&#45;42e0&#45;92f3&#45;5a84dbcf2a68 -->
<g id="edge_8977b251-333e-4e66-8761-b94c38f4209f" class="edge">
<title>Play #1: Create new postgres database (4)-&gt;task_fc179507-b8da-42e0-92f3-5a84dbcf2a68</title>
<path fill="none" stroke="#c0e893" stroke-width="2" d="M326.58,-404.92C332.31,-461.48 358.18,-634.07 464.59,-706.62 578.38,-784.22 983.62,-763.52 1183.71,-747.83"/>
<polygon fill="#c0e893" stroke="#c0e893" stroke-width="2" points="1184.27,-751.3 1193.96,-747.02 1183.72,-744.32 1184.27,-751.3"/>
<text text-anchor="middle" x="742.59" y="-766.42" font-family="Times,serif" font-size="14.00" fill="#c0e893">1</text>
<links><link target="task_fc179507-b8da-42e0-92f3-5a84dbcf2a68"/></links></g>
<!-- task_67550351&#45;8fd3&#45;4b70&#45;8729&#45;ff999628d3c7 -->
<g id="task_67550351-8fd3-4b70-8729-ff999628d3c7" class="node">
<title>task_67550351-8fd3-4b70-8729-ff999628d3c7</title>
<polygon fill="none" stroke="black" points="1429.78,-676.17 1429.78,-691.08 1352.69,-701.62 1243.66,-701.62 1166.57,-691.08 1166.57,-676.17 1243.66,-665.62 1352.69,-665.62 1429.78,-676.17"/>
<text text-anchor="middle" x="1298.17" y="-679.92" font-family="Times,serif" font-size="14.00">[task] Fetch database definition</text>
</g>
<!-- Play #1: Create new postgres database (4)&#45;&gt;task_67550351&#45;8fd3&#45;4b70&#45;8729&#45;ff999628d3c7 -->
<g id="edge_6ae0858d-4ca3-4871-b07c-ec5dd9e266e6" class="edge">
<title>Play #1: Create new postgres database (4)-&gt;task_67550351-8fd3-4b70-8729-ff999628d3c7</title>
<path fill="none" stroke="#c0e893" stroke-width="2" d="M328.16,-404.85C337.73,-455.19 372.09,-596.27 464.59,-654.62 521.4,-690.47 934.19,-689.56 1156.4,-686.37"/>
<polygon fill="#c0e893" stroke="#c0e893" stroke-width="2" points="1156.56,-689.86 1166.51,-686.22 1156.46,-682.87 1156.56,-689.86"/>
<text text-anchor="middle" x="742.59" y="-691.42" font-family="Times,serif" font-size="14.00" fill="#c0e893">2</text>
<links><link target="task_67550351-8fd3-4b70-8729-ff999628d3c7"/></links></g>
<!-- task_5b709d15&#45;fed3&#45;40ad&#45;a5ac&#45;31a137292acc -->
<g id="task_5b709d15-fed3-40ad-a5ac-31a137292acc" class="node">
<title>task_5b709d15-fed3-40ad-a5ac-31a137292acc</title>
<polygon fill="none" stroke="black" points="1432.41,-622.17 1432.41,-637.08 1353.78,-647.62 1242.57,-647.62 1163.94,-637.08 1163.94,-622.17 1242.57,-611.62 1353.78,-611.62 1432.41,-622.17"/>
<text text-anchor="middle" x="1298.17" y="-625.92" font-family="Times,serif" font-size="14.00">[task] Check database definition</text>
</g>
<!-- Play #1: Create new postgres database (4)&#45;&gt;task_5b709d15&#45;fed3&#45;40ad&#45;a5ac&#45;31a137292acc -->
<g id="edge_d38ce95e-87eb-4a7c-b6d3-1c9eeca73a60" class="edge">
<title>Play #1: Create new postgres database (4)-&gt;task_5b709d15-fed3-40ad-a5ac-31a137292acc</title>
<path fill="none" stroke="#c0e893" stroke-width="2" d="M330.15,-404.94C343.52,-449.25 384.32,-561.98 464.59,-607.62 522.69,-640.67 931.23,-637.45 1153.65,-633.12"/>
<polygon fill="#c0e893" stroke="#c0e893" stroke-width="2" points="1153.85,-636.62 1163.78,-632.92 1153.71,-629.62 1153.85,-636.62"/>
<text text-anchor="middle" x="742.59" y="-639.42" font-family="Times,serif" font-size="14.00" fill="#c0e893">3</text>
<links><link target="task_5b709d15-fed3-40ad-a5ac-31a137292acc"/></links></g>
<!-- task_1b9d2dcf&#45;e02e&#45;4a2b&#45;8f2c&#45;abd28a049101 -->
<g id="task_1b9d2dcf-e02e-4a2b-8f2c-abd28a049101" class="node">
<title>task_1b9d2dcf-e02e-4a2b-8f2c-abd28a049101</title>
<polygon fill="none" stroke="black" points="1357.36,-568.17 1357.36,-583.08 1322.69,-593.62 1273.66,-593.62 1238.99,-583.08 1238.99,-568.17 1273.66,-557.62 1322.69,-557.62 1357.36,-568.17"/>
<text text-anchor="middle" x="1298.17" y="-571.92" font-family="Times,serif" font-size="14.00">[task] debug</text>
</g>
<!-- Play #1: Create new postgres database (4)&#45;&gt;task_1b9d2dcf&#45;e02e&#45;4a2b&#45;8f2c&#45;abd28a049101 -->
<g id="edge_683a129e-8582-441f-8f97-97b37e96e202" class="edge">
<title>Play #1: Create new postgres database (4)-&gt;task_1b9d2dcf-e02e-4a2b-8f2c-abd28a049101</title>
<path fill="none" stroke="#c0e893" stroke-width="2" d="M334.35,-404.71C353.3,-439.51 400.23,-515.07 464.59,-545.62 598.94,-609.42 1054.74,-590.08 1228.82,-580"/>
<polygon fill="#c0e893" stroke="#c0e893" stroke-width="2" points="1229.11,-583.49 1238.89,-579.41 1228.7,-576.5 1229.11,-583.49"/>
<text text-anchor="middle" x="742.59" y="-594.42" font-family="Times,serif" font-size="14.00" fill="#c0e893">4</text>
<links><link target="task_1b9d2dcf-e02e-4a2b-8f2c-abd28a049101"/></links></g>
<!-- task_bbbfba20&#45;511c&#45;4c80&#45;a242&#45;a3b0f461a6b2 -->
<g id="task_bbbfba20-511c-4c80-a242-a3b0f461a6b2" class="node">
<title>task_bbbfba20-511c-4c80-a242-a3b0f461a6b2</title>
<polygon fill="none" stroke="black" points="1357.36,-514.17 1357.36,-529.08 1322.69,-539.62 1273.66,-539.62 1238.99,-529.08 1238.99,-514.17 1273.66,-503.62 1322.69,-503.62 1357.36,-514.17"/>
<text text-anchor="middle" x="1298.17" y="-517.92" font-family="Times,serif" font-size="14.00">[task] debug</text>
</g>
<!-- Play #1: Create new postgres database (4)&#45;&gt;task_bbbfba20&#45;511c&#45;4c80&#45;a242&#45;a3b0f461a6b2 -->
<g id="edge_ba8cdcac-0430-4076-ad7b-739fc8deb74b" class="edge">
<title>Play #1: Create new postgres database (4)-&gt;task_bbbfba20-511c-4c80-a242-a3b0f461a6b2</title>
<path fill="none" stroke="#c0e893" stroke-width="2" d="M342.91,-404.81C367.66,-428.68 415,-469.53 464.59,-486.62 604.99,-535.03 1055.69,-528.3 1228.68,-523.74"/>
<polygon fill="#c0e893" stroke="#c0e893" stroke-width="2" points="1229.02,-527.24 1238.93,-523.47 1228.83,-520.24 1229.02,-527.24"/>
<text text-anchor="middle" x="742.59" y="-530.42" font-family="Times,serif" font-size="14.00" fill="#c0e893">1  [when: pg_role == 'primary']</text>
<links><link target="task_bbbfba20-511c-4c80-a242-a3b0f461a6b2"/></links></g>
<!-- task_348102ca&#45;53f8&#45;4d7e&#45;a720&#45;abb782d4a345 -->
<g id="task_348102ca-53f8-4d7e-a720-abb782d4a345" class="node">
<title>task_348102ca-53f8-4d7e-a720-abb782d4a345</title>
<polygon fill="none" stroke="black" points="1527.35,-460.17 1527.35,-475.08 1393.1,-485.62 1203.25,-485.62 1069,-475.08 1069,-460.17 1203.25,-449.62 1393.1,-449.62 1527.35,-460.17"/>
<text text-anchor="middle" x="1298.17" y="-463.92" font-family="Times,serif" font-size="14.00">[task] Render database {{ database.name }} creation sql</text>
</g>
<!-- Play #1: Create new postgres database (4)&#45;&gt;task_348102ca&#45;53f8&#45;4d7e&#45;a720&#45;abb782d4a345 -->
<g id="edge_7e510e30-80ef-428d-845c-21fb06169a5d" class="edge">
<title>Play #1: Create new postgres database (4)-&gt;task_348102ca-53f8-4d7e-a720-abb782d4a345</title>
<path fill="none" stroke="#c0e893" stroke-width="2" d="M380.49,-404.65C405.85,-412.14 436.45,-420.12 464.59,-424.62 663.12,-456.41 891.34,-466.36 1058.58,-468.82"/>
<polygon fill="#c0e893" stroke="#c0e893" stroke-width="2" points="1058.7,-472.32 1068.75,-468.96 1058.8,-465.32 1058.7,-472.32"/>
<text text-anchor="middle" x="742.59" y="-471.42" font-family="Times,serif" font-size="14.00" fill="#c0e893">2  [when: pg_role == 'primary']</text>
<links><link target="task_348102ca-53f8-4d7e-a720-abb782d4a345"/></links></g>
<!-- task_00b130e2&#45;c289&#45;46de&#45;9288&#45;40e524dbd0c7 -->
<g id="task_00b130e2-c289-46de-9288-40e524dbd0c7" class="node">
<title>task_00b130e2-c289-46de-9288-40e524dbd0c7</title>
<polygon fill="none" stroke="black" points="1527.35,-406.17 1527.35,-421.08 1393.1,-431.62 1203.25,-431.62 1069,-421.08 1069,-406.17 1203.25,-395.62 1393.1,-395.62 1527.35,-406.17"/>
<text text-anchor="middle" x="1298.17" y="-409.92" font-family="Times,serif" font-size="14.00">[task] Render database {{ database.name }} baseline sql</text>
</g>
<!-- Play #1: Create new postgres database (4)&#45;&gt;task_00b130e2&#45;c289&#45;46de&#45;9288&#45;40e524dbd0c7 -->
<g id="edge_a472576f-17c9-4839-8e59-fb5d5750abeb" class="edge">
<title>Play #1: Create new postgres database (4)-&gt;task_00b130e2-c289-46de-9288-40e524dbd0c7</title>
<path fill="none" stroke="#c0e893" stroke-width="2" d="M446.73,-390C599.45,-394.24 864.89,-401.62 1058.7,-407"/>
<polygon fill="#c0e893" stroke="#c0e893" stroke-width="2" points="1058.65,-410.5 1068.74,-407.28 1058.84,-403.5 1058.65,-410.5"/>
<text text-anchor="middle" x="742.59" y="-409.42" font-family="Times,serif" font-size="14.00" fill="#c0e893">3  [when: pg_role == 'primary'database.baseline is defined]</text>
<links><link target="task_00b130e2-c289-46de-9288-40e524dbd0c7"/></links></g>
<!-- task_601581c1&#45;aba0&#45;46ec&#45;95f4&#45;54f67a7cc073 -->
<g id="task_601581c1-aba0-46ec-95f4-54f67a7cc073" class="node">
<title>task_601581c1-aba0-46ec-95f4-54f67a7cc073</title>
<polygon fill="none" stroke="black" points="1557.85,-352.17 1557.85,-367.08 1405.74,-377.62 1190.61,-377.62 1038.5,-367.08 1038.5,-352.17 1190.61,-341.62 1405.74,-341.62 1557.85,-352.17"/>
<text text-anchor="middle" x="1298.17" y="-355.92" font-family="Times,serif" font-size="14.00">[task] Execute database {{ database.name }} creation command</text>
</g>
<!-- Play #1: Create new postgres database (4)&#45;&gt;task_601581c1&#45;aba0&#45;46ec&#45;95f4&#45;54f67a7cc073 -->
<g id="edge_c01f0a91-f94f-43fa-a00c-149b139b1dbf" class="edge">
<title>Play #1: Create new postgres database (4)-&gt;task_601581c1-aba0-46ec-95f4-54f67a7cc073</title>
<path fill="none" stroke="#c0e893" stroke-width="2" d="M446.75,-371.94C452.78,-371.44 458.75,-371 464.59,-370.62 652.52,-358.64 864.79,-356 1027.96,-356.3"/>
<polygon fill="#c0e893" stroke="#c0e893" stroke-width="2" points="1028.13,-359.8 1038.14,-356.33 1028.15,-352.8 1028.13,-359.8"/>
<text text-anchor="middle" x="742.59" y="-374.42" font-family="Times,serif" font-size="14.00" fill="#c0e893">4  [when: pg_role == 'primary']</text>
<links><link target="task_601581c1-aba0-46ec-95f4-54f67a7cc073"/></links></g>
<!-- task_9024f8c0&#45;db6f&#45;4899&#45;8f36&#45;5beafd0d15fe -->
<g id="task_9024f8c0-db6f-4899-8f36-5beafd0d15fe" class="node">
<title>task_9024f8c0-db6f-4899-8f36-5beafd0d15fe</title>
<polygon fill="none" stroke="black" points="1530.48,-298.17 1530.48,-313.08 1394.4,-323.62 1201.95,-323.62 1065.87,-313.08 1065.87,-298.17 1201.95,-287.62 1394.4,-287.62 1530.48,-298.17"/>
<text text-anchor="middle" x="1298.17" y="-301.92" font-family="Times,serif" font-size="14.00">[task] Execute database {{ database.name }} creation sql</text>
</g>
<!-- Play #1: Create new postgres database (4)&#45;&gt;task_9024f8c0&#45;db6f&#45;4899&#45;8f36&#45;5beafd0d15fe -->
<g id="edge_49e5996e-9a8c-492e-b46b-3fd7410d6f62" class="edge">
<title>Play #1: Create new postgres database (4)-&gt;task_9024f8c0-db6f-4899-8f36-5beafd0d15fe</title>
<path fill="none" stroke="#c0e893" stroke-width="2" d="M365.06,-368.59C392.46,-357.15 429.98,-343.3 464.59,-336.62 672.42,-296.51 914.7,-292.12 1084.13,-295.73"/>
<polygon fill="#c0e893" stroke="#c0e893" stroke-width="2" points="1084.09,-299.23 1094.17,-295.96 1084.25,-292.23 1084.09,-299.23"/>
<text text-anchor="middle" x="742.59" y="-340.42" font-family="Times,serif" font-size="14.00" fill="#c0e893">5  [when: pg_role == 'primary']</text>
<links><link target="task_9024f8c0-db6f-4899-8f36-5beafd0d15fe"/></links></g>
<!-- task_2e8e11c7&#45;850b&#45;40a8&#45;b1bf&#45;5a27d85c5fd7 -->
<g id="task_2e8e11c7-850b-40a8-b1bf-5a27d85c5fd7" class="node">
<title>task_2e8e11c7-850b-40a8-b1bf-5a27d85c5fd7</title>
<polygon fill="none" stroke="black" points="1530.89,-244.17 1530.89,-259.08 1394.57,-269.62 1201.78,-269.62 1065.46,-259.08 1065.46,-244.17 1201.78,-233.62 1394.57,-233.62 1530.89,-244.17"/>
<text text-anchor="middle" x="1298.17" y="-247.92" font-family="Times,serif" font-size="14.00">[task] Execute database {{ database.name }} baseline sql</text>
</g>
<!-- Play #1: Create new postgres database (4)&#45;&gt;task_2e8e11c7&#45;850b&#45;40a8&#45;b1bf&#45;5a27d85c5fd7 -->
<g id="edge_ace5d932-84e7-4b87-b25e-86218148a985" class="edge">
<title>Play #1: Create new postgres database (4)-&gt;task_2e8e11c7-850b-40a8-b1bf-5a27d85c5fd7</title>
<path fill="none" stroke="#c0e893" stroke-width="2" d="M340.44,-368.58C364.02,-342.38 411.97,-294.86 464.59,-275.62 572.41,-236.21 866.75,-236.45 1074.78,-242.32"/>
<polygon fill="#c0e893" stroke="#c0e893" stroke-width="2" points="1074.83,-245.83 1084.93,-242.62 1075.03,-238.83 1074.83,-245.83"/>
<text text-anchor="middle" x="742.59" y="-279.42" font-family="Times,serif" font-size="14.00" fill="#c0e893">6  [when: pg_role == 'primary'database.baseline is defined]</text>
<links><link target="task_2e8e11c7-850b-40a8-b1bf-5a27d85c5fd7"/></links></g>
<!-- task_ac96d54c&#45;220e&#45;431f&#45;af9d&#45;bc16007d9f34 -->
<g id="task_ac96d54c-220e-431f-af9d-bc16007d9f34" class="node">
<title>task_ac96d54c-220e-431f-af9d-bc16007d9f34</title>
<polygon fill="none" stroke="black" points="1452.3,-190.17 1452.3,-205.08 1362.02,-215.62 1234.33,-215.62 1144.04,-205.08 1144.04,-190.17 1234.33,-179.62 1362.02,-179.62 1452.3,-190.17"/>
<text text-anchor="middle" x="1298.17" y="-193.92" font-family="Times,serif" font-size="14.00">[task] Add biz database to pgbouncer</text>
</g>
<!-- Play #1: Create new postgres database (4)&#45;&gt;task_ac96d54c&#45;220e&#45;431f&#45;af9d&#45;bc16007d9f34 -->
<g id="edge_9d97aca9-73eb-4734-b379-3d98dd9b560e" class="edge">
<title>Play #1: Create new postgres database (4)-&gt;task_ac96d54c-220e-431f-af9d-bc16007d9f34</title>
<path fill="none" stroke="#c0e893" stroke-width="2" d="M333.64,-368.44C351.81,-332.22 398.1,-251.79 464.59,-219.62 581.87,-162.88 946.6,-175.12 1152.29,-187.35"/>
<polygon fill="#c0e893" stroke="#c0e893" stroke-width="2" points="1152.38,-190.86 1162.57,-187.96 1152.8,-183.87 1152.38,-190.86"/>
<text text-anchor="middle" x="742.59" y="-223.42" font-family="Times,serif" font-size="14.00" fill="#c0e893">7</text>
<links><link target="task_ac96d54c-220e-431f-af9d-bc16007d9f34"/></links></g>
<!-- task_aab7b108&#45;979c&#45;4145&#45;85f2&#45;9c136b7df19c -->
<g id="task_aab7b108-979c-4145-85f2-9c136b7df19c" class="node">
<title>task_aab7b108-979c-4145-85f2-9c136b7df19c</title>
<polygon fill="none" stroke="black" points="1465.54,-136.17 1465.54,-151.08 1367.5,-161.62 1228.85,-161.62 1130.81,-151.08 1130.81,-136.17 1228.85,-125.62 1367.5,-125.62 1465.54,-136.17"/>
<text text-anchor="middle" x="1298.17" y="-139.92" font-family="Times,serif" font-size="14.00">[task] Reload pgbouncer to add database</text>
</g>
<!-- Play #1: Create new postgres database (4)&#45;&gt;task_aab7b108&#45;979c&#45;4145&#45;85f2&#45;9c136b7df19c -->
<g id="edge_e0c7418e-cf26-4799-929d-5bac552c819d" class="edge">
<title>Play #1: Create new postgres database (4)-&gt;task_aab7b108-979c-4145-85f2-9c136b7df19c</title>
<path fill="none" stroke="#c0e893" stroke-width="2" d="M329.72,-368.3C342.33,-322.8 381.98,-204.95 464.59,-157.62 579.93,-91.55 959.19,-113.18 1163.68,-130.6"/>
<polygon fill="#c0e893" stroke="#c0e893" stroke-width="2" points="1163.62,-134.11 1173.89,-131.48 1164.22,-127.14 1163.62,-134.11"/>
<text text-anchor="middle" x="742.59" y="-161.42" font-family="Times,serif" font-size="14.00" fill="#c0e893">8  [when: pg_database_definition.pgbouncer is not defined or pg_database_definition.pgbouncer|bool]</text>
<links><link target="task_aab7b108-979c-4145-85f2-9c136b7df19c"/></links></g>
<!-- task_809fd478&#45;0e82&#45;4e63&#45;8cce&#45;bac915acacdb -->
<g id="task_809fd478-0e82-4e63-8cce-bac915acacdb" class="node">
<title>task_809fd478-0e82-4e63-8cce-bac915acacdb</title>
<polygon fill="none" stroke="black" points="1498.67,-82.17 1498.67,-97.08 1381.22,-107.62 1215.13,-107.62 1097.68,-97.08 1097.68,-82.17 1215.13,-71.62 1381.22,-71.62 1498.67,-82.17"/>
<text text-anchor="middle" x="1298.17" y="-85.92" font-family="Times,serif" font-size="14.00">[task] Render datasource definition on meta node</text>
</g>
<!-- Play #1: Create new postgres database (4)&#45;&gt;task_809fd478&#45;0e82&#45;4e63&#45;8cce&#45;bac915acacdb -->
<g id="edge_6c2ab563-8443-4c25-8dd1-ae481d496511" class="edge">
<title>Play #1: Create new postgres database (4)-&gt;task_809fd478-0e82-4e63-8cce-bac915acacdb</title>
<path fill="none" stroke="#c0e893" stroke-width="2" d="M327.2,-368.55C334.54,-315.07 364.22,-157.33 464.59,-93.62 517.27,-60.18 877.71,-70.03 1106.75,-79.99"/>
<polygon fill="#c0e893" stroke="#c0e893" stroke-width="2" points="1106.73,-83.49 1116.88,-80.44 1107.04,-76.5 1106.73,-83.49"/>
<text text-anchor="middle" x="742.59" y="-97.42" font-family="Times,serif" font-size="14.00" fill="#c0e893">9  [when: register_datasource|bool]</text>
<links><link target="task_809fd478-0e82-4e63-8cce-bac915acacdb"/></links></g>
<!-- task_e367955c&#45;1751&#45;45da&#45;b0ce&#45;d294f7d90a56 -->
<g id="task_e367955c-1751-45da-b0ce-d294f7d90a56" class="node">
<title>task_e367955c-1751-45da-b0ce-d294f7d90a56</title>
<polygon fill="none" stroke="black" points="1483.21,-28.17 1483.21,-43.08 1374.82,-53.62 1221.53,-53.62 1113.14,-43.08 1113.14,-28.17 1221.53,-17.62 1374.82,-17.62 1483.21,-28.17"/>
<text text-anchor="middle" x="1298.17" y="-31.92" font-family="Times,serif" font-size="14.00">[task] Load grafana datasource on meta node</text>
</g>
<!-- Play #1: Create new postgres database (4)&#45;&gt;task_e367955c&#45;1751&#45;45da&#45;b0ce&#45;d294f7d90a56 -->
<g id="edge_1c9ae014-3a32-4f9f-9c85-f88777f71c48" class="edge">
<title>Play #1: Create new postgres database (4)-&gt;task_e367955c-1751-45da-b0ce-d294f7d90a56</title>
<path fill="none" stroke="#c0e893" stroke-width="2" d="M326.1,-368.6C330.44,-310.37 352.85,-126.68 464.59,-50.62 575.06,24.57 960.21,-1.02 1165.68,-21.04"/>
<polygon fill="#c0e893" stroke="#c0e893" stroke-width="2" points="1165.63,-24.55 1175.93,-22.05 1166.32,-17.59 1165.63,-24.55"/>
<text text-anchor="middle" x="742.59" y="-54.42" font-family="Times,serif" font-size="14.00" fill="#c0e893">10  [when: register_datasource|bool]</text>
<links><link target="task_e367955c-1751-45da-b0ce-d294f7d90a56"/></links></g>
</g>
</svg>