<?xml version='1.0' encoding='UTF-8'?>
<!DOCTYPE svg PUBLIC "-//W3C//DTD SVG 1.1//EN" "http://www.w3.org/Graphics/SVG/1.1/DTD/svg11.dtd">
<!-- Generated by graphviz version 2.44.1 (20200629.0846)
 --><!-- Title: pgsql&#45;createdb.yml  Pages: 1 --><svg xmlns="http://www.w3.org/2000/svg" xmlns:xlink="http://www.w3.org/1999/xlink" width="1566pt" height="786pt" viewBox="0.00 0.00 1565.76 785.62" id="svg">
<script type="text/javascript" href="https://ajax.googleapis.com/ajax/libs/jquery/3.2.1/jquery.min.js" id="jquery"/><script type="text/javascript" id="my_javascript"><![CDATA[const HOVER_CLASS = "my_hover";

var selectedElement = null;

function addClass(rootElement) {
    $(rootElement).find('link').each(function (index, element) {
        var target = $(element).attr('target');
        var currentElement = $('#' + target);
        currentElement.addClass(HOVER_CLASS);

        addClass(currentElement);
    })
}

function removeClass(rootElement, hover) {
    $(rootElement).find('link').each(function (index, element) {
        if ($(rootElement).attr('id') !== $(selectedElement).attr('id') || !hover) {
            var target = $(element).attr('target');
            var currentElement = $('#' + target);
            currentElement.removeClass(HOVER_CLASS);

            removeClass(currentElement);
        }

    })
}

function hoverIn(event) {
    addClass(event.currentTarget);
}

function hoverOut(event) {
    removeClass(event.currentTarget, true);
}

function clickOnElement(event) {
    var newElement = event.currentTarget;

    if ($(newElement).attr('id') === $(selectedElement).attr('id')) {
        removeClass(selectedElement, false);
    } else {
        removeClass(selectedElement);
        addClass(newElement)
    }

    selectedElement = newElement;
}


$("#svg").ready(function () {

    $("g[id^=play_]").hover(hoverIn, hoverOut);
    $("g[id^=role_]").hover(hoverIn, hoverOut);

    $("g[id^=play_]").click(clickOnElement);
    $("g[id^=role_]").click(clickOnElement);

});
]]></script><style type="text/css" id="my_css"><![CDATA[.node:hover, .edge:hover, path:hover, path + polygon:hover {
    cursor: pointer;
    stroke-width: 3;
    font-weight: bolder;
}

.my_hover {
    cursor: pointer;
    stroke-width: 3;
    font-weight: bolder;
}
]]></style><g id="graph0" class="graph" transform="scale(1 1) rotate(0) translate(4 781.62)">
<title>pgsql-createdb.yml </title>
<polygon fill="white" stroke="transparent" points="-4,4 -4,-781.62 1561.76,-781.62 1561.76,4 -4,4"/>
<!-- pgsql&#45;createdb.yml -->
<g id="root_node" class="node">
<title>pgsql-createdb.yml</title>
<ellipse fill="none" stroke="black" stroke-dasharray="1,5" cx="79.29" cy="-386.62" rx="79.09" ry="18"/>
<text text-anchor="middle" x="79.29" y="-382.92" font-family="Times,serif" font-size="14.00">pgsql-createdb.yml</text>
</g>
<!-- Play #1: Create new postgres database (4) -->
<g id="play_2818ef16-acf0-4415-9d5e-5ada4d7c244e" class="node">
<title>Play #1: Create new postgres database (4)</title>
<g id="a_play_2818ef16-acf0-4415-9d5e-5ada4d7c244e"><a xlink:title="10.10.10.10     10.10.10.11     10.10.10.12     10.10.10.13">
<polygon fill="#c55dab" stroke="#c55dab" points="446.59,-404.62 201.59,-404.62 201.59,-368.62 446.59,-368.62 446.59,-404.62"/>
<text text-anchor="middle" x="324.09" y="-382.92" font-family="Times,serif" font-size="14.00" fill="#ffffff">Play #1: Create new postgres database (4)</text>
</a>
</g>
<links><link target="edge_0a644279-d239-4b82-b98a-74b6551d19fa"/><link target="edge_81970068-c070-4d62-b35b-686d7d66344c"/><link target="edge_13987f9e-a7e7-4f54-a390-783a1b1d7f7d"/><link target="edge_226969ec-2fc4-4748-b713-b65aec693471"/><link target="edge_2060d4f2-d21d-4686-a136-7183465fdd01"/><link target="edge_bbcc6e0c-0354-44ee-a349-4f990a53bcaa"/><link target="edge_d2575d68-aa3f-40f5-844b-bdb3c76674a7"/><link target="edge_b5f0dabf-0d61-46d4-adbf-b0e190e12a2e"/><link target="edge_19bce2ed-431f-491d-aaa0-90af5dfde4a8"/><link target="edge_17b54fed-6f3b-4442-b25a-f621c712ab85"/><link target="edge_590be652-26b7-46ed-8e12-d9018d31feb5"/><link target="edge_61776849-e5f1-411b-b688-90b618c95f9b"/><link target="edge_03cd0023-5de1-4f80-a71f-746de662b029"/><link target="edge_91d2f8e4-affe-40f4-90ed-cc5dfc3f857c"/></links></g>
<!-- pgsql&#45;createdb.yml&#45;&gt;Play #1: Create new postgres database (4) -->
<g id="edge_40e4d270-7a9a-47c4-804b-09429dfcfd48" class="edge">
<title>pgsql-createdb.yml-&gt;Play #1: Create new postgres database (4)</title>
<path fill="none" stroke="#c55dab" stroke-width="2" d="M158.79,-386.62C169.18,-386.62 180.06,-386.62 191.05,-386.62"/>
<polygon fill="#c55dab" stroke="#c55dab" stroke-width="2" points="191.17,-390.12 201.17,-386.62 191.17,-383.12 191.17,-390.12"/>
<text text-anchor="middle" x="180.09" y="-390.42" font-family="Times,serif" font-size="14.00" fill="#c55dab">1</text>
</g>
<!-- task_49427914&#45;efc3&#45;428b&#45;a100&#45;e275b52ab2fa -->
<g id="task_49427914-efc3-428b-a100-e275b52ab2fa" class="node">
<title>task_49427914-efc3-428b-a100-e275b52ab2fa</title>
<polygon fill="none" stroke="black" points="1414.73,-730.17 1414.73,-745.08 1346.46,-755.62 1249.89,-755.62 1181.61,-745.08 1181.61,-730.17 1249.89,-719.62 1346.46,-719.62 1414.73,-730.17"/>
<text text-anchor="middle" x="1298.17" y="-733.92" font-family="Times,serif" font-size="14.00">[task] Validate pg_database</text>
</g>
<!-- Play #1: Create new postgres database (4)&#45;&gt;task_49427914&#45;efc3&#45;428b&#45;a100&#45;e275b52ab2fa -->
<g id="edge_0a644279-d239-4b82-b98a-74b6551d19fa" class="edge">
<title>Play #1: Create new postgres database (4)-&gt;task_49427914-efc3-428b-a100-e275b52ab2fa</title>
<path fill="none" stroke="#c55dab" stroke-width="2" d="M326.58,-404.92C332.31,-461.48 358.18,-634.07 464.59,-706.62 578.38,-784.22 983.62,-763.52 1183.71,-747.83"/>
<polygon fill="#c55dab" stroke="#c55dab" stroke-width="2" points="1184.27,-751.3 1193.96,-747.02 1183.72,-744.32 1184.27,-751.3"/>
<text text-anchor="middle" x="742.59" y="-766.42" font-family="Times,serif" font-size="14.00" fill="#c55dab">1</text>
<links><link target="task_49427914-efc3-428b-a100-e275b52ab2fa"/></links></g>
<!-- task_156c3218&#45;64b2&#45;401f&#45;aae0&#45;1dbba79ff9ac -->
<g id="task_156c3218-64b2-401f-aae0-1dbba79ff9ac" class="node">
<title>task_156c3218-64b2-401f-aae0-1dbba79ff9ac</title>
<polygon fill="none" stroke="black" points="1429.78,-676.17 1429.78,-691.08 1352.69,-701.62 1243.66,-701.62 1166.57,-691.08 1166.57,-676.17 1243.66,-665.62 1352.69,-665.62 1429.78,-676.17"/>
<text text-anchor="middle" x="1298.17" y="-679.92" font-family="Times,serif" font-size="14.00">[task] Fetch database definition</text>
</g>
<!-- Play #1: Create new postgres database (4)&#45;&gt;task_156c3218&#45;64b2&#45;401f&#45;aae0&#45;1dbba79ff9ac -->
<g id="edge_81970068-c070-4d62-b35b-686d7d66344c" class="edge">
<title>Play #1: Create new postgres database (4)-&gt;task_156c3218-64b2-401f-aae0-1dbba79ff9ac</title>
<path fill="none" stroke="#c55dab" stroke-width="2" d="M328.16,-404.85C337.73,-455.19 372.09,-596.27 464.59,-654.62 521.4,-690.47 934.19,-689.56 1156.4,-686.37"/>
<polygon fill="#c55dab" stroke="#c55dab" stroke-width="2" points="1156.56,-689.86 1166.51,-686.22 1156.46,-682.87 1156.56,-689.86"/>
<text text-anchor="middle" x="742.59" y="-691.42" font-family="Times,serif" font-size="14.00" fill="#c55dab">2</text>
<links><link target="task_156c3218-64b2-401f-aae0-1dbba79ff9ac"/></links></g>
<!-- task_5ede3556&#45;747d&#45;4e0a&#45;8016&#45;275e00cec48e -->
<g id="task_5ede3556-747d-4e0a-8016-275e00cec48e" class="node">
<title>task_5ede3556-747d-4e0a-8016-275e00cec48e</title>
<polygon fill="none" stroke="black" points="1432.41,-622.17 1432.41,-637.08 1353.78,-647.62 1242.57,-647.62 1163.94,-637.08 1163.94,-622.17 1242.57,-611.62 1353.78,-611.62 1432.41,-622.17"/>
<text text-anchor="middle" x="1298.17" y="-625.92" font-family="Times,serif" font-size="14.00">[task] Check database definition</text>
</g>
<!-- Play #1: Create new postgres database (4)&#45;&gt;task_5ede3556&#45;747d&#45;4e0a&#45;8016&#45;275e00cec48e -->
<g id="edge_13987f9e-a7e7-4f54-a390-783a1b1d7f7d" class="edge">
<title>Play #1: Create new postgres database (4)-&gt;task_5ede3556-747d-4e0a-8016-275e00cec48e</title>
<path fill="none" stroke="#c55dab" stroke-width="2" d="M330.15,-404.94C343.52,-449.25 384.32,-561.98 464.59,-607.62 522.69,-640.67 931.23,-637.45 1153.65,-633.12"/>
<polygon fill="#c55dab" stroke="#c55dab" stroke-width="2" points="1153.85,-636.62 1163.78,-632.92 1153.71,-629.62 1153.85,-636.62"/>
<text text-anchor="middle" x="742.59" y="-639.42" font-family="Times,serif" font-size="14.00" fill="#c55dab">3</text>
<links><link target="task_5ede3556-747d-4e0a-8016-275e00cec48e"/></links></g>
<!-- task_68cbd6ea&#45;d7d5&#45;4833&#45;b8bc&#45;16a8081a8cb2 -->
<g id="task_68cbd6ea-d7d5-4833-b8bc-16a8081a8cb2" class="node">
<title>task_68cbd6ea-d7d5-4833-b8bc-16a8081a8cb2</title>
<polygon fill="none" stroke="black" points="1357.36,-568.17 1357.36,-583.08 1322.69,-593.62 1273.66,-593.62 1238.99,-583.08 1238.99,-568.17 1273.66,-557.62 1322.69,-557.62 1357.36,-568.17"/>
<text text-anchor="middle" x="1298.17" y="-571.92" font-family="Times,serif" font-size="14.00">[task] debug</text>
</g>
<!-- Play #1: Create new postgres database (4)&#45;&gt;task_68cbd6ea&#45;d7d5&#45;4833&#45;b8bc&#45;16a8081a8cb2 -->
<g id="edge_226969ec-2fc4-4748-b713-b65aec693471" class="edge">
<title>Play #1: Create new postgres database (4)-&gt;task_68cbd6ea-d7d5-4833-b8bc-16a8081a8cb2</title>
<path fill="none" stroke="#c55dab" stroke-width="2" d="M334.35,-404.71C353.3,-439.51 400.23,-515.07 464.59,-545.62 598.94,-609.42 1054.74,-590.08 1228.82,-580"/>
<polygon fill="#c55dab" stroke="#c55dab" stroke-width="2" points="1229.11,-583.49 1238.89,-579.41 1228.7,-576.5 1229.11,-583.49"/>
<text text-anchor="middle" x="742.59" y="-594.42" font-family="Times,serif" font-size="14.00" fill="#c55dab">4</text>
<links><link target="task_68cbd6ea-d7d5-4833-b8bc-16a8081a8cb2"/></links></g>
<!-- task_3a830992&#45;8ac0&#45;405a&#45;930d&#45;f24aab7da0f7 -->
<g id="task_3a830992-8ac0-405a-930d-f24aab7da0f7" class="node">
<title>task_3a830992-8ac0-405a-930d-f24aab7da0f7</title>
<polygon fill="none" stroke="black" points="1357.36,-514.17 1357.36,-529.08 1322.69,-539.62 1273.66,-539.62 1238.99,-529.08 1238.99,-514.17 1273.66,-503.62 1322.69,-503.62 1357.36,-514.17"/>
<text text-anchor="middle" x="1298.17" y="-517.92" font-family="Times,serif" font-size="14.00">[task] debug</text>
</g>
<!-- Play #1: Create new postgres database (4)&#45;&gt;task_3a830992&#45;8ac0&#45;405a&#45;930d&#45;f24aab7da0f7 -->
<g id="edge_2060d4f2-d21d-4686-a136-7183465fdd01" class="edge">
<title>Play #1: Create new postgres database (4)-&gt;task_3a830992-8ac0-405a-930d-f24aab7da0f7</title>
<path fill="none" stroke="#c55dab" stroke-width="2" d="M342.91,-404.81C367.66,-428.68 415,-469.53 464.59,-486.62 604.99,-535.03 1055.69,-528.3 1228.68,-523.74"/>
<polygon fill="#c55dab" stroke="#c55dab" stroke-width="2" points="1229.02,-527.24 1238.93,-523.47 1228.83,-520.24 1229.02,-527.24"/>
<text text-anchor="middle" x="742.59" y="-530.42" font-family="Times,serif" font-size="14.00" fill="#c55dab">1  [when: pg_role == 'primary']</text>
<links><link target="task_3a830992-8ac0-405a-930d-f24aab7da0f7"/></links></g>
<!-- task_ca537472&#45;d442&#45;4009&#45;bae8&#45;b9257aa4ed48 -->
<g id="task_ca537472-d442-4009-bae8-b9257aa4ed48" class="node">
<title>task_ca537472-d442-4009-bae8-b9257aa4ed48</title>
<polygon fill="none" stroke="black" points="1527.35,-460.17 1527.35,-475.08 1393.1,-485.62 1203.25,-485.62 1069,-475.08 1069,-460.17 1203.25,-449.62 1393.1,-449.62 1527.35,-460.17"/>
<text text-anchor="middle" x="1298.17" y="-463.92" font-family="Times,serif" font-size="14.00">[task] Render database {{ database.name }} creation sql</text>
</g>
<!-- Play #1: Create new postgres database (4)&#45;&gt;task_ca537472&#45;d442&#45;4009&#45;bae8&#45;b9257aa4ed48 -->
<g id="edge_bbcc6e0c-0354-44ee-a349-4f990a53bcaa" class="edge">
<title>Play #1: Create new postgres database (4)-&gt;task_ca537472-d442-4009-bae8-b9257aa4ed48</title>
<path fill="none" stroke="#c55dab" stroke-width="2" d="M380.49,-404.65C405.85,-412.14 436.45,-420.12 464.59,-424.62 663.12,-456.41 891.34,-466.36 1058.58,-468.82"/>
<polygon fill="#c55dab" stroke="#c55dab" stroke-width="2" points="1058.7,-472.32 1068.75,-468.96 1058.8,-465.32 1058.7,-472.32"/>
<text text-anchor="middle" x="742.59" y="-471.42" font-family="Times,serif" font-size="14.00" fill="#c55dab">2  [when: pg_role == 'primary']</text>
<links><link target="task_ca537472-d442-4009-bae8-b9257aa4ed48"/></links></g>
<!-- task_09111824&#45;67cf&#45;46f5&#45;9d53&#45;c346082942d9 -->
<g id="task_09111824-67cf-46f5-9d53-c346082942d9" class="node">
<title>task_09111824-67cf-46f5-9d53-c346082942d9</title>
<polygon fill="none" stroke="black" points="1527.35,-406.17 1527.35,-421.08 1393.1,-431.62 1203.25,-431.62 1069,-421.08 1069,-406.17 1203.25,-395.62 1393.1,-395.62 1527.35,-406.17"/>
<text text-anchor="middle" x="1298.17" y="-409.92" font-family="Times,serif" font-size="14.00">[task] Render database {{ database.name }} baseline sql</text>
</g>
<!-- Play #1: Create new postgres database (4)&#45;&gt;task_09111824&#45;67cf&#45;46f5&#45;9d53&#45;c346082942d9 -->
<g id="edge_d2575d68-aa3f-40f5-844b-bdb3c76674a7" class="edge">
<title>Play #1: Create new postgres database (4)-&gt;task_09111824-67cf-46f5-9d53-c346082942d9</title>
<path fill="none" stroke="#c55dab" stroke-width="2" d="M446.73,-390C599.45,-394.24 864.89,-401.62 1058.7,-407"/>
<polygon fill="#c55dab" stroke="#c55dab" stroke-width="2" points="1058.65,-410.5 1068.74,-407.28 1058.84,-403.5 1058.65,-410.5"/>
<text text-anchor="middle" x="742.59" y="-409.42" font-family="Times,serif" font-size="14.00" fill="#c55dab">3  [when: pg_role == 'primary'database.baseline is defined]</text>
<links><link target="task_09111824-67cf-46f5-9d53-c346082942d9"/></links></g>
<!-- task_40cb8118&#45;36e9&#45;4865&#45;84ce&#45;5c27e1b0eee0 -->
<g id="task_40cb8118-36e9-4865-84ce-5c27e1b0eee0" class="node">
<title>task_40cb8118-36e9-4865-84ce-5c27e1b0eee0</title>
<polygon fill="none" stroke="black" points="1557.85,-352.17 1557.85,-367.08 1405.74,-377.62 1190.61,-377.62 1038.5,-367.08 1038.5,-352.17 1190.61,-341.62 1405.74,-341.62 1557.85,-352.17"/>
<text text-anchor="middle" x="1298.17" y="-355.92" font-family="Times,serif" font-size="14.00">[task] Execute database {{ database.name }} creation command</text>
</g>
<!-- Play #1: Create new postgres database (4)&#45;&gt;task_40cb8118&#45;36e9&#45;4865&#45;84ce&#45;5c27e1b0eee0 -->
<g id="edge_b5f0dabf-0d61-46d4-adbf-b0e190e12a2e" class="edge">
<title>Play #1: Create new postgres database (4)-&gt;task_40cb8118-36e9-4865-84ce-5c27e1b0eee0</title>
<path fill="none" stroke="#c55dab" stroke-width="2" d="M446.75,-371.94C452.78,-371.44 458.75,-371 464.59,-370.62 652.52,-358.64 864.79,-356 1027.96,-356.3"/>
<polygon fill="#c55dab" stroke="#c55dab" stroke-width="2" points="1028.13,-359.8 1038.14,-356.33 1028.15,-352.8 1028.13,-359.8"/>
<text text-anchor="middle" x="742.59" y="-374.42" font-family="Times,serif" font-size="14.00" fill="#c55dab">4  [when: pg_role == 'primary']</text>
<links><link target="task_40cb8118-36e9-4865-84ce-5c27e1b0eee0"/></links></g>
<!-- task_95d90a0a&#45;30ba&#45;44e1&#45;9d9e&#45;86f381c2f970 -->
<g id="task_95d90a0a-30ba-44e1-9d9e-86f381c2f970" class="node">
<title>task_95d90a0a-30ba-44e1-9d9e-86f381c2f970</title>
<polygon fill="none" stroke="black" points="1530.48,-298.17 1530.48,-313.08 1394.4,-323.62 1201.95,-323.62 1065.87,-313.08 1065.87,-298.17 1201.95,-287.62 1394.4,-287.62 1530.48,-298.17"/>
<text text-anchor="middle" x="1298.17" y="-301.92" font-family="Times,serif" font-size="14.00">[task] Execute database {{ database.name }} creation sql</text>
</g>
<!-- Play #1: Create new postgres database (4)&#45;&gt;task_95d90a0a&#45;30ba&#45;44e1&#45;9d9e&#45;86f381c2f970 -->
<g id="edge_19bce2ed-431f-491d-aaa0-90af5dfde4a8" class="edge">
<title>Play #1: Create new postgres database (4)-&gt;task_95d90a0a-30ba-44e1-9d9e-86f381c2f970</title>
<path fill="none" stroke="#c55dab" stroke-width="2" d="M365.06,-368.59C392.46,-357.15 429.98,-343.3 464.59,-336.62 672.42,-296.51 914.7,-292.12 1084.13,-295.73"/>
<polygon fill="#c55dab" stroke="#c55dab" stroke-width="2" points="1084.09,-299.23 1094.17,-295.96 1084.25,-292.23 1084.09,-299.23"/>
<text text-anchor="middle" x="742.59" y="-340.42" font-family="Times,serif" font-size="14.00" fill="#c55dab">5  [when: pg_role == 'primary']</text>
<links><link target="task_95d90a0a-30ba-44e1-9d9e-86f381c2f970"/></links></g>
<!-- task_78d7348b&#45;607a&#45;4aec&#45;939b&#45;3227622f5011 -->
<g id="task_78d7348b-607a-4aec-939b-3227622f5011" class="node">
<title>task_78d7348b-607a-4aec-939b-3227622f5011</title>
<polygon fill="none" stroke="black" points="1530.89,-244.17 1530.89,-259.08 1394.57,-269.62 1201.78,-269.62 1065.46,-259.08 1065.46,-244.17 1201.78,-233.62 1394.57,-233.62 1530.89,-244.17"/>
<text text-anchor="middle" x="1298.17" y="-247.92" font-family="Times,serif" font-size="14.00">[task] Execute database {{ database.name }} baseline sql</text>
</g>
<!-- Play #1: Create new postgres database (4)&#45;&gt;task_78d7348b&#45;607a&#45;4aec&#45;939b&#45;3227622f5011 -->
<g id="edge_17b54fed-6f3b-4442-b25a-f621c712ab85" class="edge">
<title>Play #1: Create new postgres database (4)-&gt;task_78d7348b-607a-4aec-939b-3227622f5011</title>
<path fill="none" stroke="#c55dab" stroke-width="2" d="M340.44,-368.58C364.02,-342.38 411.97,-294.86 464.59,-275.62 572.41,-236.21 866.75,-236.45 1074.78,-242.32"/>
<polygon fill="#c55dab" stroke="#c55dab" stroke-width="2" points="1074.83,-245.83 1084.93,-242.62 1075.03,-238.83 1074.83,-245.83"/>
<text text-anchor="middle" x="742.59" y="-279.42" font-family="Times,serif" font-size="14.00" fill="#c55dab">6  [when: pg_role == 'primary'database.baseline is defined]</text>
<links><link target="task_78d7348b-607a-4aec-939b-3227622f5011"/></links></g>
<!-- task_06ecafa7&#45;34f0&#45;45a5&#45;a351&#45;d79b1e2eadb0 -->
<g id="task_06ecafa7-34f0-45a5-a351-d79b1e2eadb0" class="node">
<title>task_06ecafa7-34f0-45a5-a351-d79b1e2eadb0</title>
<polygon fill="none" stroke="black" points="1452.3,-190.17 1452.3,-205.08 1362.02,-215.62 1234.33,-215.62 1144.04,-205.08 1144.04,-190.17 1234.33,-179.62 1362.02,-179.62 1452.3,-190.17"/>
<text text-anchor="middle" x="1298.17" y="-193.92" font-family="Times,serif" font-size="14.00">[task] Add biz database to pgbouncer</text>
</g>
<!-- Play #1: Create new postgres database (4)&#45;&gt;task_06ecafa7&#45;34f0&#45;45a5&#45;a351&#45;d79b1e2eadb0 -->
<g id="edge_590be652-26b7-46ed-8e12-d9018d31feb5" class="edge">
<title>Play #1: Create new postgres database (4)-&gt;task_06ecafa7-34f0-45a5-a351-d79b1e2eadb0</title>
<path fill="none" stroke="#c55dab" stroke-width="2" d="M333.64,-368.44C351.81,-332.22 398.1,-251.79 464.59,-219.62 581.87,-162.88 946.6,-175.12 1152.29,-187.35"/>
<polygon fill="#c55dab" stroke="#c55dab" stroke-width="2" points="1152.38,-190.86 1162.57,-187.96 1152.8,-183.87 1152.38,-190.86"/>
<text text-anchor="middle" x="742.59" y="-223.42" font-family="Times,serif" font-size="14.00" fill="#c55dab">7</text>
<links><link target="task_06ecafa7-34f0-45a5-a351-d79b1e2eadb0"/></links></g>
<!-- task_8e28eeb7&#45;9379&#45;4889&#45;b534&#45;51875ce20fc1 -->
<g id="task_8e28eeb7-9379-4889-b534-51875ce20fc1" class="node">
<title>task_8e28eeb7-9379-4889-b534-51875ce20fc1</title>
<polygon fill="none" stroke="black" points="1465.54,-136.17 1465.54,-151.08 1367.5,-161.62 1228.85,-161.62 1130.81,-151.08 1130.81,-136.17 1228.85,-125.62 1367.5,-125.62 1465.54,-136.17"/>
<text text-anchor="middle" x="1298.17" y="-139.92" font-family="Times,serif" font-size="14.00">[task] Reload pgbouncer to add database</text>
</g>
<!-- Play #1: Create new postgres database (4)&#45;&gt;task_8e28eeb7&#45;9379&#45;4889&#45;b534&#45;51875ce20fc1 -->
<g id="edge_61776849-e5f1-411b-b688-90b618c95f9b" class="edge">
<title>Play #1: Create new postgres database (4)-&gt;task_8e28eeb7-9379-4889-b534-51875ce20fc1</title>
<path fill="none" stroke="#c55dab" stroke-width="2" d="M329.72,-368.3C342.33,-322.8 381.98,-204.95 464.59,-157.62 579.93,-91.55 959.19,-113.18 1163.68,-130.6"/>
<polygon fill="#c55dab" stroke="#c55dab" stroke-width="2" points="1163.62,-134.11 1173.89,-131.48 1164.22,-127.14 1163.62,-134.11"/>
<text text-anchor="middle" x="742.59" y="-161.42" font-family="Times,serif" font-size="14.00" fill="#c55dab">8  [when: pg_database_definition.pgbouncer is not defined or pg_database_definition.pgbouncer|bool]</text>
<links><link target="task_8e28eeb7-9379-4889-b534-51875ce20fc1"/></links></g>
<!-- task_c85d6338&#45;c790&#45;4b78&#45;89c0&#45;d2f2d4cde159 -->
<g id="task_c85d6338-c790-4b78-89c0-d2f2d4cde159" class="node">
<title>task_c85d6338-c790-4b78-89c0-d2f2d4cde159</title>
<polygon fill="none" stroke="black" points="1498.67,-82.17 1498.67,-97.08 1381.22,-107.62 1215.13,-107.62 1097.68,-97.08 1097.68,-82.17 1215.13,-71.62 1381.22,-71.62 1498.67,-82.17"/>
<text text-anchor="middle" x="1298.17" y="-85.92" font-family="Times,serif" font-size="14.00">[task] Render datasource definition on meta node</text>
</g>
<!-- Play #1: Create new postgres database (4)&#45;&gt;task_c85d6338&#45;c790&#45;4b78&#45;89c0&#45;d2f2d4cde159 -->
<g id="edge_03cd0023-5de1-4f80-a71f-746de662b029" class="edge">
<title>Play #1: Create new postgres database (4)-&gt;task_c85d6338-c790-4b78-89c0-d2f2d4cde159</title>
<path fill="none" stroke="#c55dab" stroke-width="2" d="M327.2,-368.55C334.54,-315.07 364.22,-157.33 464.59,-93.62 517.27,-60.18 877.71,-70.03 1106.75,-79.99"/>
<polygon fill="#c55dab" stroke="#c55dab" stroke-width="2" points="1106.73,-83.49 1116.88,-80.44 1107.04,-76.5 1106.73,-83.49"/>
<text text-anchor="middle" x="742.59" y="-97.42" font-family="Times,serif" font-size="14.00" fill="#c55dab">9  [when: register_datasource|bool]</text>
<links><link target="task_c85d6338-c790-4b78-89c0-d2f2d4cde159"/></links></g>
<!-- task_bd0a07f2&#45;a7f2&#45;471a&#45;b5f3&#45;306804e383ea -->
<g id="task_bd0a07f2-a7f2-471a-b5f3-306804e383ea" class="node">
<title>task_bd0a07f2-a7f2-471a-b5f3-306804e383ea</title>
<polygon fill="none" stroke="black" points="1483.21,-28.17 1483.21,-43.08 1374.82,-53.62 1221.53,-53.62 1113.14,-43.08 1113.14,-28.17 1221.53,-17.62 1374.82,-17.62 1483.21,-28.17"/>
<text text-anchor="middle" x="1298.17" y="-31.92" font-family="Times,serif" font-size="14.00">[task] Load grafana datasource on meta node</text>
</g>
<!-- Play #1: Create new postgres database (4)&#45;&gt;task_bd0a07f2&#45;a7f2&#45;471a&#45;b5f3&#45;306804e383ea -->
<g id="edge_91d2f8e4-affe-40f4-90ed-cc5dfc3f857c" class="edge">
<title>Play #1: Create new postgres database (4)-&gt;task_bd0a07f2-a7f2-471a-b5f3-306804e383ea</title>
<path fill="none" stroke="#c55dab" stroke-width="2" d="M326.1,-368.6C330.44,-310.37 352.85,-126.68 464.59,-50.62 575.06,24.57 960.21,-1.02 1165.68,-21.04"/>
<polygon fill="#c55dab" stroke="#c55dab" stroke-width="2" points="1165.63,-24.55 1175.93,-22.05 1166.32,-17.59 1165.63,-24.55"/>
<text text-anchor="middle" x="742.59" y="-54.42" font-family="Times,serif" font-size="14.00" fill="#c55dab">10  [when: register_datasource|bool]</text>
<links><link target="task_bd0a07f2-a7f2-471a-b5f3-306804e383ea"/></links></g>
</g>
</svg>