<?xml version='1.0' encoding='UTF-8'?>
<!DOCTYPE svg PUBLIC "-//W3C//DTD SVG 1.1//EN" "http://www.w3.org/Graphics/SVG/1.1/DTD/svg11.dtd">
<!-- Generated by graphviz version 3.0.0 (20220226.1711)
 --><!-- Pages: 1 --><svg xmlns="http://www.w3.org/2000/svg" xmlns:xlink="http://www.w3.org/1999/xlink" width="1027pt" height="832pt" viewBox="0.00 0.00 1026.87 832.00" id="svg">
<script type="text/javascript" href="https://ajax.googleapis.com/ajax/libs/jquery/3.2.1/jquery.min.js" id="jquery"/><script type="text/javascript" id="my_javascript"><![CDATA[/**
 * This file contains the functions responsible to highlight the plays, roles and tasks when rendering the SVG file in a browser
 * or any SVG reader that support Javascript.
 */

/**
 * The name of the CSS class for highlighted elements
 * @type {string}
 */
const HIGHLIGHT_CLASS = "highlight";

/**
 * The current selected element on the graph
 * @type {null}
 */
let currentSelectedElement = null;

/**
 * Highlight the linked nodes of the given root element
 * @param rootElement
 */
function highlightLinkedNodes(rootElement) {
    $(rootElement).find('link').each(function (index, element) {
        let target = $(element).attr('target');
        let currentElement = $('#' + target);
        currentElement.addClass(HIGHLIGHT_CLASS);

        // Recursively highlight
        highlightLinkedNodes(currentElement);
    })
}


/**
 * Unhighlight the linked nodes of the given root element
 * @param {Element} rootElement
 * @param {boolean} isHover True when we are coming from a mouseleave event. In that case, we should not unhighlight if
 * the rootElement is the current selected element
 */
function unHighlightLinkedNodes(rootElement, isHover) {
    const currentSelectedElementId = $(currentSelectedElement).attr('id');

    // Do not unhighlight the current current selected element
    if ($(rootElement).attr('id') !== currentSelectedElementId || !isHover) {

        $(rootElement).find('link').each(function (index, element) {
            let linkedElementId = $(element).attr('target');
            let linkedElement = $('#' + linkedElementId);

            if (linkedElement.attr("id") !== currentSelectedElementId) {
                linkedElement.removeClass(HIGHLIGHT_CLASS);
                // Recursively unhighlight
                unHighlightLinkedNodes(linkedElement, isHover);
            }
            
        })
    }

}

/**
 * Hover handler for mouseenter event
 * @param event
 */
function hoverMouseEnter(event) {
    highlightLinkedNodes(event.currentTarget);
}

/**
 * Hover handler for mouseleave event
 * @param event
 */
function hoverMouseLeave(event) {
    unHighlightLinkedNodes(event.currentTarget, true);
}

/**
 * Handler when clicking on some elements
 * @param event
 */
function clickOnElement(event) {
    let newClickedElement = $(event.currentTarget);

    if (newClickedElement.attr('id') === $(currentSelectedElement).attr('id')) { // clicking again on the same element
        newClickedElement.removeClass(HIGHLIGHT_CLASS);
        unHighlightLinkedNodes(currentSelectedElement, false);
        currentSelectedElement = null;
    } else { // clicking on a different node

        // Remove highlight from all the nodes linked the current selected node
        unHighlightLinkedNodes(currentSelectedElement, false);

        newClickedElement.addClass(HIGHLIGHT_CLASS);
        highlightLinkedNodes(newClickedElement);
        currentSelectedElement = newClickedElement;
    }
}


$("#svg").ready(function () {
    let plays = $("g[id^=play_]");
    let roles = $("g[id^=role_]");
    let blocks = $("g[id^=block_]");

    // Set hover and click events on the plays
    plays.hover(hoverMouseEnter, hoverMouseLeave);
    plays.click(clickOnElement);

    // Set hover and click events on the roles
    roles.hover(hoverMouseEnter, hoverMouseLeave);
    roles.click(clickOnElement);

    // Set hover and click events on the blocks
    blocks.hover(hoverMouseEnter, hoverMouseLeave);
    blocks.click(clickOnElement);

});
]]></script><style type="text/css" id="my_css"><![CDATA[/**
 Hover on nodes, edges, path and polygon
 */
.node:hover, .edge:hover, path:hover, path + polygon:hover {
    cursor: pointer;
    stroke-width: 3;
    font-weight: bolder;
}

/**
 Manually added class by the script highlight-hover.js when hovering on plays and roles
 */
.highlight {
    cursor: pointer;
    stroke-width: 3;
    font-weight: bolder;
}
]]></style><g id="graph0" class="graph" transform="scale(1 1) rotate(0) translate(4 828)">
<polygon fill="white" stroke="transparent" points="-4,4 -4,-828 1022.87,-828 1022.87,4 -4,4"/>
<g id="clust2" class="cluster">
<title>cluster_block_5756026a</title>
<polygon fill="none" stroke="black" points="452.69,-8 452.69,-816 1010.87,-816 1010.87,-8 452.69,-8"/>
</g>
<!-- pgsql&#45;migration.yml -->
<g id="root_node" class="node">
<title>pgsql-migration.yml</title>
<ellipse fill="none" stroke="black" stroke-dasharray="1,5" cx="83.84" cy="-412" rx="83.69" ry="18"/>
<text text-anchor="middle" x="83.84" y="-408.3" font-family="Times,serif" font-size="14.00">pgsql-migration.yml</text>
</g>
<!-- play_e18831ea -->
<g id="play_e18831ea" class="node">
<title>play_e18831ea</title>
<g id="a_play_e18831ea"><a xlink:title="10.10.10.10">
<polygon fill="#995f33" stroke="#995f33" points="417.69,-430 214.69,-430 214.69,-394 417.69,-394 417.69,-430"/>
<text text-anchor="middle" x="316.19" y="-408.3" font-family="Times,serif" font-size="14.00" fill="#ffffff">Play: Generate Migration Plan (1)</text>
</a>
</g>
<links><link target="edge_dec676df"/></links></g>
<!-- pgsql&#45;migration.yml&#45;&gt;play_e18831ea -->
<g id="edge_e2e151a4" class="edge">
<title>pgsql-migration.yml-&gt;play_e18831ea</title>
<g id="a_edge_e2e151a4"><a xlink:title="1 ">
<path fill="none" stroke="#995f33" d="M168,-412C179.78,-412 192.04,-412 204.25,-412" id="path_edge_e2e151a4"/>
<polygon fill="#995f33" stroke="#995f33" points="204.47,-415.5 214.47,-412 204.47,-408.5 204.47,-415.5"/>
</a>
</g>
<g id="a_edge_e2e151a4-label"><a xlink:title="1 ">
<text text-anchor="middle" font-family="Times,serif" font-size="14.00" fill="#995f33" dy="-1%"><textPath xlink:href="#path_edge_e2e151a4" text-anchor="middle" startOffset="50%">1 </textPath></text>
</a>
</g>
<links><link target="play_e18831ea"/></links></g>
<!-- block_5756026a -->
<g id="block_5756026a" class="node">
<title>block_5756026a</title>
<g id="a_block_5756026a"><a xlink:title="Gather Facts">
<polygon fill="none" stroke="#995f33" points="588.69,-430 460.69,-430 460.69,-394 588.69,-394 588.69,-430"/>
<text text-anchor="middle" x="524.69" y="-408.3" font-family="Times,serif" font-size="14.00">[block] Gather Facts</text>
</a>
</g>
<links><link target="edge_2addd1c6"/><link target="edge_76fefe80"/><link target="edge_f0baf4ba"/><link target="edge_e0ec3fa9"/><link target="edge_7d17fe47"/><link target="edge_cc42da30"/><link target="edge_74c15fe0"/><link target="edge_f33cc9d6"/><link target="edge_36a8cca0"/><link target="edge_a26ff1e9"/><link target="edge_27f5f352"/><link target="edge_301fb3d3"/><link target="edge_f4808596"/><link target="edge_6868a758"/><link target="edge_a99d957c"/></links></g>
<!-- play_e18831ea&#45;&gt;block_5756026a -->
<g id="edge_dec676df" class="edge">
<title>play_e18831ea-&gt;block_5756026a</title>
<g id="a_edge_dec676df"><a xlink:title="1">
<path fill="none" stroke="#995f33" d="M417.71,-412C428.75,-412 439.83,-412 450.45,-412" id="path_edge_dec676df"/>
<polygon fill="#995f33" stroke="#995f33" points="450.46,-415.5 460.46,-412 450.46,-408.5 450.46,-415.5"/>
</a>
</g>
<g id="a_edge_dec676df-label"><a xlink:title="1">
<text text-anchor="middle" font-family="Times,serif" font-size="14.00" fill="#995f33" dy="-1%"><textPath xlink:href="#path_edge_dec676df" text-anchor="middle" startOffset="50%">1</textPath></text>
</a>
</g>
<links><link target="block_5756026a"/></links></g>
<!-- task_e977e072 -->
<g id="task_e977e072" class="node">
<title>task_e977e072</title>
<g id="a_task_e977e072"><a xlink:title="Generate compare reporting script">
<polygon fill="none" stroke="#995f33" points="965.4,-26.54 965.4,-41.46 881.85,-52 763.7,-52 680.16,-41.46 680.16,-26.54 763.7,-16 881.85,-16 965.4,-26.54"/>
<text text-anchor="middle" x="822.78" y="-30.3" font-family="Times,serif" font-size="14.00">Generate compare reporting script</text>
</a>
</g>
</g>
<!-- block_5756026a&#45;&gt;task_e977e072 -->
<g id="edge_a99d957c" class="edge">
<title>block_5756026a-&gt;task_e977e072</title>
<g id="a_edge_a99d957c"><a xlink:title="15 ">
<path fill="none" stroke="#995f33" d="M528.61,-393.95C539.85,-327.33 582.62,-97.28 642.69,-61 653.41,-54.52 665.14,-49.41 677.29,-45.39" id="path_edge_a99d957c"/>
<polygon fill="#995f33" stroke="#995f33" points="678.57,-48.65 687.12,-42.39 676.53,-41.96 678.57,-48.65"/>
</a>
</g>
<g id="a_edge_a99d957c-label"><a xlink:title="15 ">
<text text-anchor="middle" font-family="Times,serif" font-size="14.00" fill="#995f33" dy="-1%"><textPath xlink:href="#path_edge_a99d957c" text-anchor="middle" startOffset="50%">15 </textPath></text>
</a>
</g>
<links><link target="task_e977e072"/></links></g>
<!-- task_7029ad7c -->
<g id="task_7029ad7c" class="node">
<title>task_7029ad7c</title>
<g id="a_task_7029ad7c"><a xlink:title="Generate progress reporting script">
<polygon fill="none" stroke="#995f33" points="964.99,-80.54 964.99,-95.46 881.68,-106 763.87,-106 680.57,-95.46 680.57,-80.54 763.87,-70 881.68,-70 964.99,-80.54"/>
<text text-anchor="middle" x="822.78" y="-84.3" font-family="Times,serif" font-size="14.00">Generate progress reporting script</text>
</a>
</g>
</g>
<!-- block_5756026a&#45;&gt;task_7029ad7c -->
<g id="edge_6868a758" class="edge">
<title>block_5756026a-&gt;task_7029ad7c</title>
<g id="a_edge_6868a758"><a xlink:title="14 ">
<path fill="none" stroke="#995f33" d="M526.02,-393.78C528.15,-339.12 542.94,-176.55 642.69,-115 653.24,-108.49 664.8,-103.34 676.8,-99.29" id="path_edge_6868a758"/>
<polygon fill="#995f33" stroke="#995f33" points="677.99,-102.58 686.5,-96.27 675.91,-95.9 677.99,-102.58"/>
</a>
</g>
<g id="a_edge_6868a758-label"><a xlink:title="14 ">
<text text-anchor="middle" font-family="Times,serif" font-size="14.00" fill="#995f33" dy="-1%"><textPath xlink:href="#path_edge_6868a758" text-anchor="middle" startOffset="50%">14 </textPath></text>
</a>
</g>
<links><link target="task_7029ad7c"/></links></g>
<!-- task_7db0d223 -->
<g id="task_7db0d223" class="node">
<title>task_7db0d223</title>
<g id="a_task_7db0d223"><a xlink:title="Create remove-sub script">
<polygon fill="none" stroke="#995f33" points="930.96,-134.54 930.96,-149.46 867.59,-160 777.97,-160 714.6,-149.46 714.6,-134.54 777.97,-124 867.59,-124 930.96,-134.54"/>
<text text-anchor="middle" x="822.78" y="-138.3" font-family="Times,serif" font-size="14.00">Create remove-sub script</text>
</a>
</g>
</g>
<!-- block_5756026a&#45;&gt;task_7db0d223 -->
<g id="edge_f4808596" class="edge">
<title>block_5756026a-&gt;task_7db0d223</title>
<g id="a_edge_f4808596"><a xlink:title="13 ">
<path fill="none" stroke="#995f33" d="M527.81,-393.82C534.46,-346.29 559.68,-218.58 642.69,-169 661.3,-157.88 682.87,-150.8 704.46,-146.37" id="path_edge_f4808596"/>
<polygon fill="#995f33" stroke="#995f33" points="705.19,-149.8 714.38,-144.52 703.9,-142.92 705.19,-149.8"/>
</a>
</g>
<g id="a_edge_f4808596-label"><a xlink:title="13 ">
<text text-anchor="middle" font-family="Times,serif" font-size="14.00" fill="#995f33" dy="-1%"><textPath xlink:href="#path_edge_f4808596" text-anchor="middle" startOffset="50%">13 </textPath></text>
</a>
</g>
<links><link target="task_7db0d223"/></links></g>
<!-- task_e79c6728 -->
<g id="task_e79c6728" class="node">
<title>task_e79c6728</title>
<g id="a_task_e79c6728"><a xlink:title="Generate create-sub script">
<polygon fill="none" stroke="#995f33" points="934.08,-188.54 934.08,-203.46 868.88,-214 776.68,-214 711.48,-203.46 711.48,-188.54 776.68,-178 868.88,-178 934.08,-188.54"/>
<text text-anchor="middle" x="822.78" y="-192.3" font-family="Times,serif" font-size="14.00">Generate create-sub script</text>
</a>
</g>
</g>
<!-- block_5756026a&#45;&gt;task_e79c6728 -->
<g id="edge_301fb3d3" class="edge">
<title>block_5756026a-&gt;task_e79c6728</title>
<g id="a_edge_301fb3d3"><a xlink:title="12 ">
<path fill="none" stroke="#995f33" d="M530.7,-393.92C542.63,-354.74 576.76,-262.38 642.69,-223 660.51,-212.35 681.06,-205.4 701.74,-200.95" id="path_edge_301fb3d3"/>
<polygon fill="#995f33" stroke="#995f33" points="702.43,-204.38 711.56,-199.01 701.08,-197.51 702.43,-204.38"/>
</a>
</g>
<g id="a_edge_301fb3d3-label"><a xlink:title="12 ">
<text text-anchor="middle" font-family="Times,serif" font-size="14.00" fill="#995f33" dy="-1%"><textPath xlink:href="#path_edge_301fb3d3" text-anchor="middle" startOffset="50%">12 </textPath></text>
</a>
</g>
<links><link target="task_e79c6728"/></links></g>
<!-- task_26ca74a8 -->
<g id="task_26ca74a8" class="node">
<title>task_26ca74a8</title>
<g id="a_task_26ca74a8"><a xlink:title="Generate create-pub script">
<polygon fill="none" stroke="#995f33" points="935.4,-242.54 935.4,-257.46 869.43,-268 776.13,-268 710.16,-257.46 710.16,-242.54 776.13,-232 869.43,-232 935.4,-242.54"/>
<text text-anchor="middle" x="822.78" y="-246.3" font-family="Times,serif" font-size="14.00">Generate create-pub script</text>
</a>
</g>
</g>
<!-- block_5756026a&#45;&gt;task_26ca74a8 -->
<g id="edge_27f5f352" class="edge">
<title>block_5756026a-&gt;task_26ca74a8</title>
<g id="a_edge_27f5f352"><a xlink:title="11 ">
<path fill="none" stroke="#995f33" d="M535.53,-393.96C552.87,-364.11 591.88,-304.97 642.69,-277 660.12,-267.4 679.89,-260.9 699.76,-256.55" id="path_edge_27f5f352"/>
<polygon fill="#995f33" stroke="#995f33" points="700.72,-259.93 709.84,-254.52 699.34,-253.06 700.72,-259.93"/>
</a>
</g>
<g id="a_edge_27f5f352-label"><a xlink:title="11 ">
<text text-anchor="middle" font-family="Times,serif" font-size="14.00" fill="#995f33" dy="-1%"><textPath xlink:href="#path_edge_27f5f352" text-anchor="middle" startOffset="50%">11 </textPath></text>
</a>
</g>
<links><link target="task_26ca74a8"/></links></g>
<!-- task_4daf1b9e -->
<g id="task_4daf1b9e" class="node">
<title>task_4daf1b9e</title>
<g id="a_task_4daf1b9e"><a xlink:title="Create next-seq script">
<polygon fill="none" stroke="#995f33" points="917.72,-296.54 917.72,-311.46 862.11,-322 783.45,-322 727.84,-311.46 727.84,-296.54 783.45,-286 862.11,-286 917.72,-296.54"/>
<text text-anchor="middle" x="822.78" y="-300.3" font-family="Times,serif" font-size="14.00">Create next-seq script</text>
</a>
</g>
</g>
<!-- block_5756026a&#45;&gt;task_4daf1b9e -->
<g id="edge_a26ff1e9" class="edge">
<title>block_5756026a-&gt;task_4daf1b9e</title>
<g id="a_edge_a26ff1e9"><a xlink:title="10 ">
<path fill="none" stroke="#995f33" d="M545.56,-393.92C567.6,-374.98 605.02,-345.94 642.69,-331 666.17,-321.69 692.55,-315.56 717.7,-311.54" id="path_edge_a26ff1e9"/>
<polygon fill="#995f33" stroke="#995f33" points="718.27,-314.99 727.64,-310.04 717.23,-308.07 718.27,-314.99"/>
</a>
</g>
<g id="a_edge_a26ff1e9-label"><a xlink:title="10 ">
<text text-anchor="middle" font-family="Times,serif" font-size="14.00" fill="#995f33" dy="-1%"><textPath xlink:href="#path_edge_a26ff1e9" text-anchor="middle" startOffset="50%">10 </textPath></text>
</a>
</g>
<links><link target="task_4daf1b9e"/></links></g>
<!-- task_bc1201cc -->
<g id="task_bc1201cc" class="node">
<title>task_bc1201cc</title>
<g id="a_task_bc1201cc"><a xlink:title="Generate copy-seq script">
<polygon fill="none" stroke="#995f33" points="929.64,-350.54 929.64,-365.46 867.04,-376 778.52,-376 715.92,-365.46 715.92,-350.54 778.52,-340 867.04,-340 929.64,-350.54"/>
<text text-anchor="middle" x="822.78" y="-354.3" font-family="Times,serif" font-size="14.00">Generate copy-seq script</text>
</a>
</g>
</g>
<!-- block_5756026a&#45;&gt;task_bc1201cc -->
<g id="edge_36a8cca0" class="edge">
<title>block_5756026a-&gt;task_bc1201cc</title>
<g id="a_edge_36a8cca0"><a xlink:title="9 ">
<path fill="none" stroke="#995f33" d="M588.9,-397.1C594.91,-395.7 600.91,-394.32 606.69,-393 622.66,-389.35 626.57,-388 642.69,-385 670.49,-379.82 700.87,-374.95 728.58,-370.8" id="path_edge_36a8cca0"/>
<polygon fill="#995f33" stroke="#995f33" points="729.28,-374.24 738.66,-369.31 728.25,-367.32 729.28,-374.24"/>
</a>
</g>
<g id="a_edge_36a8cca0-label"><a xlink:title="9 ">
<text text-anchor="middle" font-family="Times,serif" font-size="14.00" fill="#995f33" dy="-1%"><textPath xlink:href="#path_edge_36a8cca0" text-anchor="middle" startOffset="50%">9 </textPath></text>
</a>
</g>
<links><link target="task_bc1201cc"/></links></g>
<!-- task_eccf2110 -->
<g id="task_eccf2110" class="node">
<title>task_eccf2110</title>
<g id="a_task_eccf2110"><a xlink:title="Create copy-schema script">
<polygon fill="none" stroke="#995f33" points="935.8,-404.54 935.8,-419.46 869.6,-430 775.96,-430 709.75,-419.46 709.75,-404.54 775.96,-394 869.6,-394 935.8,-404.54"/>
<text text-anchor="middle" x="822.78" y="-408.3" font-family="Times,serif" font-size="14.00">Create copy-schema script</text>
</a>
</g>
</g>
<!-- block_5756026a&#45;&gt;task_eccf2110 -->
<g id="edge_f33cc9d6" class="edge">
<title>block_5756026a-&gt;task_eccf2110</title>
<g id="a_edge_f33cc9d6"><a xlink:title="8 ">
<path fill="none" stroke="#995f33" d="M588.84,-412C621.12,-412 661.52,-412 699.57,-412" id="path_edge_f33cc9d6"/>
<polygon fill="#995f33" stroke="#995f33" points="699.71,-415.5 709.71,-412 699.71,-408.5 699.71,-415.5"/>
</a>
</g>
<g id="a_edge_f33cc9d6-label"><a xlink:title="8 ">
<text text-anchor="middle" font-family="Times,serif" font-size="14.00" fill="#995f33" dy="-1%"><textPath xlink:href="#path_edge_f33cc9d6" text-anchor="middle" startOffset="50%">8 </textPath></text>
</a>
</g>
<links><link target="task_eccf2110"/></links></g>
<!-- task_0af86160 -->
<g id="task_0af86160" class="node">
<title>task_0af86160</title>
<g id="a_task_0af86160"><a xlink:title="Create check-special-object script">
<polygon fill="none" stroke="#995f33" points="963.68,-458.54 963.68,-473.46 881.14,-484 764.42,-484 681.88,-473.46 681.88,-458.54 764.42,-448 881.14,-448 963.68,-458.54"/>
<text text-anchor="middle" x="822.78" y="-462.3" font-family="Times,serif" font-size="14.00">Create check-special-object script</text>
</a>
</g>
</g>
<!-- block_5756026a&#45;&gt;task_0af86160 -->
<g id="edge_74c15fe0" class="edge">
<title>block_5756026a-&gt;task_0af86160</title>
<g id="a_edge_74c15fe0"><a xlink:title="7 ">
<path fill="none" stroke="#995f33" d="M588.9,-426.9C594.91,-428.3 600.91,-429.68 606.69,-431 622.66,-434.65 626.57,-436 642.69,-439 666.46,-443.43 692.11,-447.63 716.37,-451.35" id="path_edge_74c15fe0"/>
<polygon fill="#995f33" stroke="#995f33" points="715.89,-454.82 726.31,-452.85 716.94,-447.89 715.89,-454.82"/>
</a>
</g>
<g id="a_edge_74c15fe0-label"><a xlink:title="7 ">
<text text-anchor="middle" font-family="Times,serif" font-size="14.00" fill="#995f33" dy="-1%"><textPath xlink:href="#path_edge_74c15fe0" text-anchor="middle" startOffset="50%">7 </textPath></text>
</a>
</g>
<links><link target="task_0af86160"/></links></g>
<!-- task_ecbd752a -->
<g id="task_ecbd752a" class="node">
<title>task_ecbd752a</title>
<g id="a_task_ecbd752a"><a xlink:title="Create check-replica-identity-solution script">
<polygon fill="none" stroke="#995f33" points="1002.97,-512.54 1002.97,-527.46 897.42,-538 748.14,-538 642.59,-527.46 642.59,-512.54 748.14,-502 897.42,-502 1002.97,-512.54"/>
<text text-anchor="middle" x="822.78" y="-516.3" font-family="Times,serif" font-size="14.00">Create check-replica-identity-solution script</text>
</a>
</g>
</g>
<!-- block_5756026a&#45;&gt;task_ecbd752a -->
<g id="edge_cc42da30" class="edge">
<title>block_5756026a-&gt;task_ecbd752a</title>
<g id="a_edge_cc42da30"><a xlink:title="6 ">
<path fill="none" stroke="#995f33" d="M545.56,-430.08C567.6,-449.02 605.02,-478.06 642.69,-493 655.15,-497.94 668.43,-501.99 681.92,-505.3" id="path_edge_cc42da30"/>
<polygon fill="#995f33" stroke="#995f33" points="681.23,-508.73 691.76,-507.58 682.81,-501.91 681.23,-508.73"/>
</a>
</g>
<g id="a_edge_cc42da30-label"><a xlink:title="6 ">
<text text-anchor="middle" font-family="Times,serif" font-size="14.00" fill="#995f33" dy="-1%"><textPath xlink:href="#path_edge_cc42da30" text-anchor="middle" startOffset="50%">6 </textPath></text>
</a>
</g>
<links><link target="task_ecbd752a"/></links></g>
<!-- task_97855751 -->
<g id="task_97855751" class="node">
<title>task_97855751</title>
<g id="a_task_97855751"><a xlink:title="Create check-replica-identity script">
<polygon fill="none" stroke="#995f33" points="968.93,-566.54 968.93,-581.46 883.32,-592 762.24,-592 676.63,-581.46 676.63,-566.54 762.24,-556 883.32,-556 968.93,-566.54"/>
<text text-anchor="middle" x="822.78" y="-570.3" font-family="Times,serif" font-size="14.00">Create check-replica-identity script</text>
</a>
</g>
</g>
<!-- block_5756026a&#45;&gt;task_97855751 -->
<g id="edge_7d17fe47" class="edge">
<title>block_5756026a-&gt;task_97855751</title>
<g id="a_edge_7d17fe47"><a xlink:title="5 ">
<path fill="none" stroke="#995f33" d="M535.53,-430.04C552.87,-459.89 591.88,-519.03 642.69,-547 654.1,-553.28 666.51,-558.24 679.3,-562.13" id="path_edge_7d17fe47"/>
<polygon fill="#995f33" stroke="#995f33" points="678.57,-565.56 689.14,-564.91 680.47,-558.83 678.57,-565.56"/>
</a>
</g>
<g id="a_edge_7d17fe47-label"><a xlink:title="5 ">
<text text-anchor="middle" font-family="Times,serif" font-size="14.00" fill="#995f33" dy="-1%"><textPath xlink:href="#path_edge_7d17fe47" text-anchor="middle" startOffset="50%">5 </textPath></text>
</a>
</g>
<links><link target="task_97855751"/></links></g>
<!-- task_7fca34ef -->
<g id="task_7fca34ef" class="node">
<title>task_7fca34ef</title>
<g id="a_task_7fca34ef"><a xlink:title="Create context activate script">
<polygon fill="none" stroke="#995f33" points="946,-620.54 946,-635.46 873.82,-646 771.74,-646 699.56,-635.46 699.56,-620.54 771.74,-610 873.82,-610 946,-620.54"/>
<text text-anchor="middle" x="822.78" y="-624.3" font-family="Times,serif" font-size="14.00">Create context activate script</text>
</a>
</g>
</g>
<!-- block_5756026a&#45;&gt;task_7fca34ef -->
<g id="edge_e0ec3fa9" class="edge">
<title>block_5756026a-&gt;task_7fca34ef</title>
<g id="a_edge_e0ec3fa9"><a xlink:title="4 ">
<path fill="none" stroke="#995f33" d="M530.73,-430.03C542.71,-469.11 576.95,-561.29 642.69,-601 656.97,-609.63 673.03,-615.84 689.52,-620.27" id="path_edge_e0ec3fa9"/>
<polygon fill="#995f33" stroke="#995f33" points="688.72,-623.68 699.27,-622.67 690.4,-616.88 688.72,-623.68"/>
</a>
</g>
<g id="a_edge_e0ec3fa9-label"><a xlink:title="4 ">
<text text-anchor="middle" font-family="Times,serif" font-size="14.00" fill="#995f33" dy="-1%"><textPath xlink:href="#path_edge_e0ec3fa9" text-anchor="middle" startOffset="50%">4 </textPath></text>
</a>
</g>
<links><link target="task_7fca34ef"/></links></g>
<!-- task_178e92a0 -->
<g id="task_178e92a0" class="node">
<title>task_178e92a0</title>
<g id="a_task_178e92a0"><a xlink:title="Create context directory">
<polygon fill="none" stroke="#995f33" points="927.01,-674.54 927.01,-689.46 865.95,-700 779.6,-700 718.55,-689.46 718.55,-674.54 779.6,-664 865.95,-664 927.01,-674.54"/>
<text text-anchor="middle" x="822.78" y="-678.3" font-family="Times,serif" font-size="14.00">Create context directory</text>
</a>
</g>
</g>
<!-- block_5756026a&#45;&gt;task_178e92a0 -->
<g id="edge_f0baf4ba" class="edge">
<title>block_5756026a-&gt;task_178e92a0</title>
<g id="a_edge_f0baf4ba"><a xlink:title="3 ">
<path fill="none" stroke="#995f33" d="M527.83,-430.13C534.55,-477.55 559.92,-605.01 642.69,-655 662.38,-666.9 685.45,-674.2 708.35,-678.56" id="path_edge_f0baf4ba"/>
<polygon fill="#995f33" stroke="#995f33" points="708.05,-682.06 718.5,-680.31 709.24,-675.16 708.05,-682.06"/>
</a>
</g>
<g id="a_edge_f0baf4ba-label"><a xlink:title="3 ">
<text text-anchor="middle" font-family="Times,serif" font-size="14.00" fill="#995f33" dy="-1%"><textPath xlink:href="#path_edge_f0baf4ba" text-anchor="middle" startOffset="50%">3 </textPath></text>
</a>
</g>
<links><link target="task_178e92a0"/></links></g>
<!-- task_a0bad8be -->
<g id="task_a0bad8be" class="node">
<title>task_a0bad8be</title>
<g id="a_task_a0bad8be"><a xlink:title="debug">
<polygon fill="none" stroke="#995f33" points="858.13,-728.54 858.13,-743.46 837.42,-754 808.14,-754 787.43,-743.46 787.43,-728.54 808.14,-718 837.42,-718 858.13,-728.54"/>
<text text-anchor="middle" x="822.78" y="-732.3" font-family="Times,serif" font-size="14.00">debug</text>
</a>
</g>
</g>
<!-- block_5756026a&#45;&gt;task_a0bad8be -->
<g id="edge_76fefe80" class="edge">
<title>block_5756026a-&gt;task_a0bad8be</title>
<g id="a_edge_76fefe80"><a xlink:title="2 ">
<path fill="none" stroke="#995f33" d="M526.07,-430.14C528.34,-484.57 543.49,-646.55 642.69,-709 683.06,-734.42 738.49,-739.19 776.95,-738.86" id="path_edge_76fefe80"/>
<polygon fill="#995f33" stroke="#995f33" points="777.39,-742.35 787.32,-738.65 777.25,-735.36 777.39,-742.35"/>
</a>
</g>
<g id="a_edge_76fefe80-label"><a xlink:title="2 ">
<text text-anchor="middle" font-family="Times,serif" font-size="14.00" fill="#995f33" dy="-1%"><textPath xlink:href="#path_edge_76fefe80" text-anchor="middle" startOffset="50%">2 </textPath></text>
</a>
</g>
<links><link target="task_a0bad8be"/></links></g>
<!-- task_37f6b3f5 -->
<g id="task_37f6b3f5" class="node">
<title>task_37f6b3f5</title>
<g id="a_task_37f6b3f5"><a xlink:title="Build parameters from vars">
<polygon fill="none" stroke="#995f33" points="940.25,-782.54 940.25,-797.46 871.44,-808 774.12,-808 705.31,-797.46 705.31,-782.54 774.12,-772 871.44,-772 940.25,-782.54"/>
<text text-anchor="middle" x="822.78" y="-786.3" font-family="Times,serif" font-size="14.00">Build parameters from vars</text>
</a>
</g>
</g>
<!-- block_5756026a&#45;&gt;task_37f6b3f5 -->
<g id="edge_2addd1c6" class="edge">
<title>block_5756026a-&gt;task_37f6b3f5</title>
<g id="a_edge_2addd1c6"><a xlink:title="1 ">
<path fill="none" stroke="#995f33" d="M528.64,-430.02C539.96,-496.5 582.96,-726.15 642.69,-763 658.56,-772.8 676.7,-779.5 695.2,-784.03" id="path_edge_2addd1c6"/>
<polygon fill="#995f33" stroke="#995f33" points="694.68,-787.5 705.2,-786.26 696.2,-780.66 694.68,-787.5"/>
</a>
</g>
<g id="a_edge_2addd1c6-label"><a xlink:title="1 ">
<text text-anchor="middle" font-family="Times,serif" font-size="14.00" fill="#995f33" dy="-1%"><textPath xlink:href="#path_edge_2addd1c6" text-anchor="middle" startOffset="50%">1 </textPath></text>
</a>
</g>
<links><link target="task_37f6b3f5"/></links></g>
</g>
</svg>