<?xml version='1.0' encoding='UTF-8'?>
<!DOCTYPE svg PUBLIC "-//W3C//DTD SVG 1.1//EN" "http://www.w3.org/Graphics/SVG/1.1/DTD/svg11.dtd">
<!-- Generated by graphviz version 2.44.1 (20200629.0846)
 --><!-- Title: pgsql&#45;createdb.yml  Pages: 1 --><svg xmlns="http://www.w3.org/2000/svg" xmlns:xlink="http://www.w3.org/1999/xlink" width="1566pt" height="786pt" viewBox="0.00 0.00 1565.76 785.62" id="svg">
<script type="text/javascript" href="https://ajax.googleapis.com/ajax/libs/jquery/3.2.1/jquery.min.js" id="jquery"/><script type="text/javascript" id="my_javascript"><![CDATA[const HOVER_CLASS = "my_hover";

var selectedElement = null;

function addClass(rootElement) {
    $(rootElement).find('link').each(function (index, element) {
        var target = $(element).attr('target');
        var currentElement = $('#' + target);
        currentElement.addClass(HOVER_CLASS);

        addClass(currentElement);
    })
}

function removeClass(rootElement, hover) {
    $(rootElement).find('link').each(function (index, element) {
        if ($(rootElement).attr('id') !== $(selectedElement).attr('id') || !hover) {
            var target = $(element).attr('target');
            var currentElement = $('#' + target);
            currentElement.removeClass(HOVER_CLASS);

            removeClass(currentElement);
        }

    })
}

function hoverIn(event) {
    addClass(event.currentTarget);
}

function hoverOut(event) {
    removeClass(event.currentTarget, true);
}

function clickOnElement(event) {
    var newElement = event.currentTarget;

    if ($(newElement).attr('id') === $(selectedElement).attr('id')) {
        removeClass(selectedElement, false);
    } else {
        removeClass(selectedElement);
        addClass(newElement)
    }

    selectedElement = newElement;
}


$("#svg").ready(function () {

    $("g[id^=play_]").hover(hoverIn, hoverOut);
    $("g[id^=role_]").hover(hoverIn, hoverOut);

    $("g[id^=play_]").click(clickOnElement);
    $("g[id^=role_]").click(clickOnElement);

});
]]></script><style type="text/css" id="my_css"><![CDATA[.node:hover, .edge:hover, path:hover, path + polygon:hover {
    cursor: pointer;
    stroke-width: 3;
    font-weight: bolder;
}

.my_hover {
    cursor: pointer;
    stroke-width: 3;
    font-weight: bolder;
}
]]></style><g id="graph0" class="graph" transform="scale(1 1) rotate(0) translate(4 781.62)">
<title>pgsql-createdb.yml </title>
<polygon fill="white" stroke="transparent" points="-4,4 -4,-781.62 1561.76,-781.62 1561.76,4 -4,4"/>
<!-- pgsql&#45;createdb.yml -->
<g id="root_node" class="node">
<title>pgsql-createdb.yml</title>
<ellipse fill="none" stroke="black" stroke-dasharray="1,5" cx="79.29" cy="-386.62" rx="79.09" ry="18"/>
<text text-anchor="middle" x="79.29" y="-382.92" font-family="Times,serif" font-size="14.00">pgsql-createdb.yml</text>
</g>
<!-- Play #1: Create new postgres database (4) -->
<g id="play_3757dd18-2722-4346-a83a-07be802f9a21" class="node">
<title>Play #1: Create new postgres database (4)</title>
<g id="a_play_3757dd18-2722-4346-a83a-07be802f9a21"><a xlink:title="10.10.10.10     10.10.10.11     10.10.10.12     10.10.10.13">
<polygon fill="#a84009" stroke="#a84009" points="446.59,-404.62 201.59,-404.62 201.59,-368.62 446.59,-368.62 446.59,-404.62"/>
<text text-anchor="middle" x="324.09" y="-382.92" font-family="Times,serif" font-size="14.00" fill="#ffffff">Play #1: Create new postgres database (4)</text>
</a>
</g>
<links><link target="edge_9fe01fd2-2399-4d94-bf61-98b582514e71"/><link target="edge_f34b8b4c-0215-4a9f-a8e4-eac18cbe4097"/><link target="edge_ab1ecb90-9093-47f4-8884-ff992abc2839"/><link target="edge_8d23ea6c-36ec-48dd-a475-ff2f80c58225"/><link target="edge_2c74be78-f1c6-4859-b6a1-d5e19d7422b9"/><link target="edge_14031ae1-b164-4a1d-a430-14b0bc6ec28c"/><link target="edge_10590461-41bc-487d-90bd-fe08c4e5d173"/><link target="edge_61ad905f-aa2b-4bfb-99ae-576c71aa241f"/><link target="edge_08d9446c-1716-4648-92ef-f80b5e3ba054"/><link target="edge_f69e7121-0fb3-4182-9a44-94f30a14fdc2"/><link target="edge_debc2ab9-8d5c-470b-970d-205accfa9571"/><link target="edge_eec0583d-e26c-42a5-98ae-17f42988717b"/><link target="edge_ab23ae6d-d560-4e6b-bef0-51696ba33864"/><link target="edge_032d0e2d-ddaf-4b07-9ef5-f0490ce4aeb5"/></links></g>
<!-- pgsql&#45;createdb.yml&#45;&gt;Play #1: Create new postgres database (4) -->
<g id="edge_9af199ba-9248-4e95-b9ee-0429e5e2082d" class="edge">
<title>pgsql-createdb.yml-&gt;Play #1: Create new postgres database (4)</title>
<path fill="none" stroke="#a84009" stroke-width="2" d="M158.79,-386.62C169.18,-386.62 180.06,-386.62 191.05,-386.62"/>
<polygon fill="#a84009" stroke="#a84009" stroke-width="2" points="191.17,-390.12 201.17,-386.62 191.17,-383.12 191.17,-390.12"/>
<text text-anchor="middle" x="180.09" y="-390.42" font-family="Times,serif" font-size="14.00" fill="#a84009">1</text>
</g>
<!-- task_3fe63a1e&#45;c7c3&#45;4a00&#45;a60b&#45;f70aed501ebc -->
<g id="task_3fe63a1e-c7c3-4a00-a60b-f70aed501ebc" class="node">
<title>task_3fe63a1e-c7c3-4a00-a60b-f70aed501ebc</title>
<polygon fill="none" stroke="black" points="1414.73,-730.17 1414.73,-745.08 1346.46,-755.62 1249.89,-755.62 1181.61,-745.08 1181.61,-730.17 1249.89,-719.62 1346.46,-719.62 1414.73,-730.17"/>
<text text-anchor="middle" x="1298.17" y="-733.92" font-family="Times,serif" font-size="14.00">[task] Validate pg_database</text>
</g>
<!-- Play #1: Create new postgres database (4)&#45;&gt;task_3fe63a1e&#45;c7c3&#45;4a00&#45;a60b&#45;f70aed501ebc -->
<g id="edge_9fe01fd2-2399-4d94-bf61-98b582514e71" class="edge">
<title>Play #1: Create new postgres database (4)-&gt;task_3fe63a1e-c7c3-4a00-a60b-f70aed501ebc</title>
<path fill="none" stroke="#a84009" stroke-width="2" d="M326.58,-404.92C332.31,-461.48 358.18,-634.07 464.59,-706.62 578.38,-784.22 983.62,-763.52 1183.71,-747.83"/>
<polygon fill="#a84009" stroke="#a84009" stroke-width="2" points="1184.27,-751.3 1193.96,-747.02 1183.72,-744.32 1184.27,-751.3"/>
<text text-anchor="middle" x="742.59" y="-766.42" font-family="Times,serif" font-size="14.00" fill="#a84009">1</text>
<links><link target="task_3fe63a1e-c7c3-4a00-a60b-f70aed501ebc"/></links></g>
<!-- task_862b89e4&#45;c14c&#45;4eaf&#45;8426&#45;e6e0ffbe1472 -->
<g id="task_862b89e4-c14c-4eaf-8426-e6e0ffbe1472" class="node">
<title>task_862b89e4-c14c-4eaf-8426-e6e0ffbe1472</title>
<polygon fill="none" stroke="black" points="1429.78,-676.17 1429.78,-691.08 1352.69,-701.62 1243.66,-701.62 1166.57,-691.08 1166.57,-676.17 1243.66,-665.62 1352.69,-665.62 1429.78,-676.17"/>
<text text-anchor="middle" x="1298.17" y="-679.92" font-family="Times,serif" font-size="14.00">[task] Fetch database definition</text>
</g>
<!-- Play #1: Create new postgres database (4)&#45;&gt;task_862b89e4&#45;c14c&#45;4eaf&#45;8426&#45;e6e0ffbe1472 -->
<g id="edge_f34b8b4c-0215-4a9f-a8e4-eac18cbe4097" class="edge">
<title>Play #1: Create new postgres database (4)-&gt;task_862b89e4-c14c-4eaf-8426-e6e0ffbe1472</title>
<path fill="none" stroke="#a84009" stroke-width="2" d="M328.16,-404.85C337.73,-455.19 372.09,-596.27 464.59,-654.62 521.4,-690.47 934.19,-689.56 1156.4,-686.37"/>
<polygon fill="#a84009" stroke="#a84009" stroke-width="2" points="1156.56,-689.86 1166.51,-686.22 1156.46,-682.87 1156.56,-689.86"/>
<text text-anchor="middle" x="742.59" y="-691.42" font-family="Times,serif" font-size="14.00" fill="#a84009">2</text>
<links><link target="task_862b89e4-c14c-4eaf-8426-e6e0ffbe1472"/></links></g>
<!-- task_7419e0d3&#45;335a&#45;4ef9&#45;b9d4&#45;20c409683e00 -->
<g id="task_7419e0d3-335a-4ef9-b9d4-20c409683e00" class="node">
<title>task_7419e0d3-335a-4ef9-b9d4-20c409683e00</title>
<polygon fill="none" stroke="black" points="1432.41,-622.17 1432.41,-637.08 1353.78,-647.62 1242.57,-647.62 1163.94,-637.08 1163.94,-622.17 1242.57,-611.62 1353.78,-611.62 1432.41,-622.17"/>
<text text-anchor="middle" x="1298.17" y="-625.92" font-family="Times,serif" font-size="14.00">[task] Check database definition</text>
</g>
<!-- Play #1: Create new postgres database (4)&#45;&gt;task_7419e0d3&#45;335a&#45;4ef9&#45;b9d4&#45;20c409683e00 -->
<g id="edge_ab1ecb90-9093-47f4-8884-ff992abc2839" class="edge">
<title>Play #1: Create new postgres database (4)-&gt;task_7419e0d3-335a-4ef9-b9d4-20c409683e00</title>
<path fill="none" stroke="#a84009" stroke-width="2" d="M330.15,-404.94C343.52,-449.25 384.32,-561.98 464.59,-607.62 522.69,-640.67 931.23,-637.45 1153.65,-633.12"/>
<polygon fill="#a84009" stroke="#a84009" stroke-width="2" points="1153.85,-636.62 1163.78,-632.92 1153.71,-629.62 1153.85,-636.62"/>
<text text-anchor="middle" x="742.59" y="-639.42" font-family="Times,serif" font-size="14.00" fill="#a84009">3</text>
<links><link target="task_7419e0d3-335a-4ef9-b9d4-20c409683e00"/></links></g>
<!-- task_1a4b8761&#45;9bde&#45;4eac&#45;a262&#45;9899cc12ddaf -->
<g id="task_1a4b8761-9bde-4eac-a262-9899cc12ddaf" class="node">
<title>task_1a4b8761-9bde-4eac-a262-9899cc12ddaf</title>
<polygon fill="none" stroke="black" points="1357.36,-568.17 1357.36,-583.08 1322.69,-593.62 1273.66,-593.62 1238.99,-583.08 1238.99,-568.17 1273.66,-557.62 1322.69,-557.62 1357.36,-568.17"/>
<text text-anchor="middle" x="1298.17" y="-571.92" font-family="Times,serif" font-size="14.00">[task] debug</text>
</g>
<!-- Play #1: Create new postgres database (4)&#45;&gt;task_1a4b8761&#45;9bde&#45;4eac&#45;a262&#45;9899cc12ddaf -->
<g id="edge_8d23ea6c-36ec-48dd-a475-ff2f80c58225" class="edge">
<title>Play #1: Create new postgres database (4)-&gt;task_1a4b8761-9bde-4eac-a262-9899cc12ddaf</title>
<path fill="none" stroke="#a84009" stroke-width="2" d="M334.35,-404.71C353.3,-439.51 400.23,-515.07 464.59,-545.62 598.94,-609.42 1054.74,-590.08 1228.82,-580"/>
<polygon fill="#a84009" stroke="#a84009" stroke-width="2" points="1229.11,-583.49 1238.89,-579.41 1228.7,-576.5 1229.11,-583.49"/>
<text text-anchor="middle" x="742.59" y="-594.42" font-family="Times,serif" font-size="14.00" fill="#a84009">4</text>
<links><link target="task_1a4b8761-9bde-4eac-a262-9899cc12ddaf"/></links></g>
<!-- task_c7507ab9&#45;203d&#45;40fa&#45;b4b5&#45;073e9a49b22e -->
<g id="task_c7507ab9-203d-40fa-b4b5-073e9a49b22e" class="node">
<title>task_c7507ab9-203d-40fa-b4b5-073e9a49b22e</title>
<polygon fill="none" stroke="black" points="1357.36,-514.17 1357.36,-529.08 1322.69,-539.62 1273.66,-539.62 1238.99,-529.08 1238.99,-514.17 1273.66,-503.62 1322.69,-503.62 1357.36,-514.17"/>
<text text-anchor="middle" x="1298.17" y="-517.92" font-family="Times,serif" font-size="14.00">[task] debug</text>
</g>
<!-- Play #1: Create new postgres database (4)&#45;&gt;task_c7507ab9&#45;203d&#45;40fa&#45;b4b5&#45;073e9a49b22e -->
<g id="edge_2c74be78-f1c6-4859-b6a1-d5e19d7422b9" class="edge">
<title>Play #1: Create new postgres database (4)-&gt;task_c7507ab9-203d-40fa-b4b5-073e9a49b22e</title>
<path fill="none" stroke="#a84009" stroke-width="2" d="M342.91,-404.81C367.66,-428.68 415,-469.53 464.59,-486.62 604.99,-535.03 1055.69,-528.3 1228.68,-523.74"/>
<polygon fill="#a84009" stroke="#a84009" stroke-width="2" points="1229.02,-527.24 1238.93,-523.47 1228.83,-520.24 1229.02,-527.24"/>
<text text-anchor="middle" x="742.59" y="-530.42" font-family="Times,serif" font-size="14.00" fill="#a84009">1  [when: pg_role == 'primary']</text>
<links><link target="task_c7507ab9-203d-40fa-b4b5-073e9a49b22e"/></links></g>
<!-- task_a78b238f&#45;1cb3&#45;4b0b&#45;89bd&#45;004fc2d42ee9 -->
<g id="task_a78b238f-1cb3-4b0b-89bd-004fc2d42ee9" class="node">
<title>task_a78b238f-1cb3-4b0b-89bd-004fc2d42ee9</title>
<polygon fill="none" stroke="black" points="1527.35,-460.17 1527.35,-475.08 1393.1,-485.62 1203.25,-485.62 1069,-475.08 1069,-460.17 1203.25,-449.62 1393.1,-449.62 1527.35,-460.17"/>
<text text-anchor="middle" x="1298.17" y="-463.92" font-family="Times,serif" font-size="14.00">[task] Render database {{ database.name }} creation sql</text>
</g>
<!-- Play #1: Create new postgres database (4)&#45;&gt;task_a78b238f&#45;1cb3&#45;4b0b&#45;89bd&#45;004fc2d42ee9 -->
<g id="edge_14031ae1-b164-4a1d-a430-14b0bc6ec28c" class="edge">
<title>Play #1: Create new postgres database (4)-&gt;task_a78b238f-1cb3-4b0b-89bd-004fc2d42ee9</title>
<path fill="none" stroke="#a84009" stroke-width="2" d="M380.49,-404.65C405.85,-412.14 436.45,-420.12 464.59,-424.62 663.12,-456.41 891.34,-466.36 1058.58,-468.82"/>
<polygon fill="#a84009" stroke="#a84009" stroke-width="2" points="1058.7,-472.32 1068.75,-468.96 1058.8,-465.32 1058.7,-472.32"/>
<text text-anchor="middle" x="742.59" y="-471.42" font-family="Times,serif" font-size="14.00" fill="#a84009">2  [when: pg_role == 'primary']</text>
<links><link target="task_a78b238f-1cb3-4b0b-89bd-004fc2d42ee9"/></links></g>
<!-- task_4cb17868&#45;d864&#45;4be7&#45;a896&#45;37062cf48f10 -->
<g id="task_4cb17868-d864-4be7-a896-37062cf48f10" class="node">
<title>task_4cb17868-d864-4be7-a896-37062cf48f10</title>
<polygon fill="none" stroke="black" points="1527.35,-406.17 1527.35,-421.08 1393.1,-431.62 1203.25,-431.62 1069,-421.08 1069,-406.17 1203.25,-395.62 1393.1,-395.62 1527.35,-406.17"/>
<text text-anchor="middle" x="1298.17" y="-409.92" font-family="Times,serif" font-size="14.00">[task] Render database {{ database.name }} baseline sql</text>
</g>
<!-- Play #1: Create new postgres database (4)&#45;&gt;task_4cb17868&#45;d864&#45;4be7&#45;a896&#45;37062cf48f10 -->
<g id="edge_10590461-41bc-487d-90bd-fe08c4e5d173" class="edge">
<title>Play #1: Create new postgres database (4)-&gt;task_4cb17868-d864-4be7-a896-37062cf48f10</title>
<path fill="none" stroke="#a84009" stroke-width="2" d="M446.73,-390C599.45,-394.24 864.89,-401.62 1058.7,-407"/>
<polygon fill="#a84009" stroke="#a84009" stroke-width="2" points="1058.65,-410.5 1068.74,-407.28 1058.84,-403.5 1058.65,-410.5"/>
<text text-anchor="middle" x="742.59" y="-409.42" font-family="Times,serif" font-size="14.00" fill="#a84009">3  [when: pg_role == 'primary'database.baseline is defined]</text>
<links><link target="task_4cb17868-d864-4be7-a896-37062cf48f10"/></links></g>
<!-- task_478a5c16&#45;cc66&#45;40f1&#45;b95a&#45;c7f93dd5450d -->
<g id="task_478a5c16-cc66-40f1-b95a-c7f93dd5450d" class="node">
<title>task_478a5c16-cc66-40f1-b95a-c7f93dd5450d</title>
<polygon fill="none" stroke="black" points="1557.85,-352.17 1557.85,-367.08 1405.74,-377.62 1190.61,-377.62 1038.5,-367.08 1038.5,-352.17 1190.61,-341.62 1405.74,-341.62 1557.85,-352.17"/>
<text text-anchor="middle" x="1298.17" y="-355.92" font-family="Times,serif" font-size="14.00">[task] Execute database {{ database.name }} creation command</text>
</g>
<!-- Play #1: Create new postgres database (4)&#45;&gt;task_478a5c16&#45;cc66&#45;40f1&#45;b95a&#45;c7f93dd5450d -->
<g id="edge_61ad905f-aa2b-4bfb-99ae-576c71aa241f" class="edge">
<title>Play #1: Create new postgres database (4)-&gt;task_478a5c16-cc66-40f1-b95a-c7f93dd5450d</title>
<path fill="none" stroke="#a84009" stroke-width="2" d="M446.75,-371.94C452.78,-371.44 458.75,-371 464.59,-370.62 652.52,-358.64 864.79,-356 1027.96,-356.3"/>
<polygon fill="#a84009" stroke="#a84009" stroke-width="2" points="1028.13,-359.8 1038.14,-356.33 1028.15,-352.8 1028.13,-359.8"/>
<text text-anchor="middle" x="742.59" y="-374.42" font-family="Times,serif" font-size="14.00" fill="#a84009">4  [when: pg_role == 'primary']</text>
<links><link target="task_478a5c16-cc66-40f1-b95a-c7f93dd5450d"/></links></g>
<!-- task_a4a3027c&#45;3926&#45;4b40&#45;87b5&#45;a937bf3cb72b -->
<g id="task_a4a3027c-3926-4b40-87b5-a937bf3cb72b" class="node">
<title>task_a4a3027c-3926-4b40-87b5-a937bf3cb72b</title>
<polygon fill="none" stroke="black" points="1530.48,-298.17 1530.48,-313.08 1394.4,-323.62 1201.95,-323.62 1065.87,-313.08 1065.87,-298.17 1201.95,-287.62 1394.4,-287.62 1530.48,-298.17"/>
<text text-anchor="middle" x="1298.17" y="-301.92" font-family="Times,serif" font-size="14.00">[task] Execute database {{ database.name }} creation sql</text>
</g>
<!-- Play #1: Create new postgres database (4)&#45;&gt;task_a4a3027c&#45;3926&#45;4b40&#45;87b5&#45;a937bf3cb72b -->
<g id="edge_08d9446c-1716-4648-92ef-f80b5e3ba054" class="edge">
<title>Play #1: Create new postgres database (4)-&gt;task_a4a3027c-3926-4b40-87b5-a937bf3cb72b</title>
<path fill="none" stroke="#a84009" stroke-width="2" d="M365.06,-368.59C392.46,-357.15 429.98,-343.3 464.59,-336.62 672.42,-296.51 914.7,-292.12 1084.13,-295.73"/>
<polygon fill="#a84009" stroke="#a84009" stroke-width="2" points="1084.09,-299.23 1094.17,-295.96 1084.25,-292.23 1084.09,-299.23"/>
<text text-anchor="middle" x="742.59" y="-340.42" font-family="Times,serif" font-size="14.00" fill="#a84009">5  [when: pg_role == 'primary']</text>
<links><link target="task_a4a3027c-3926-4b40-87b5-a937bf3cb72b"/></links></g>
<!-- task_c88db767&#45;6cb6&#45;4336&#45;a0af&#45;d863d145ddec -->
<g id="task_c88db767-6cb6-4336-a0af-d863d145ddec" class="node">
<title>task_c88db767-6cb6-4336-a0af-d863d145ddec</title>
<polygon fill="none" stroke="black" points="1530.89,-244.17 1530.89,-259.08 1394.57,-269.62 1201.78,-269.62 1065.46,-259.08 1065.46,-244.17 1201.78,-233.62 1394.57,-233.62 1530.89,-244.17"/>
<text text-anchor="middle" x="1298.17" y="-247.92" font-family="Times,serif" font-size="14.00">[task] Execute database {{ database.name }} baseline sql</text>
</g>
<!-- Play #1: Create new postgres database (4)&#45;&gt;task_c88db767&#45;6cb6&#45;4336&#45;a0af&#45;d863d145ddec -->
<g id="edge_f69e7121-0fb3-4182-9a44-94f30a14fdc2" class="edge">
<title>Play #1: Create new postgres database (4)-&gt;task_c88db767-6cb6-4336-a0af-d863d145ddec</title>
<path fill="none" stroke="#a84009" stroke-width="2" d="M340.44,-368.58C364.02,-342.38 411.97,-294.86 464.59,-275.62 572.41,-236.21 866.75,-236.45 1074.78,-242.32"/>
<polygon fill="#a84009" stroke="#a84009" stroke-width="2" points="1074.83,-245.83 1084.93,-242.62 1075.03,-238.83 1074.83,-245.83"/>
<text text-anchor="middle" x="742.59" y="-279.42" font-family="Times,serif" font-size="14.00" fill="#a84009">6  [when: pg_role == 'primary'database.baseline is defined]</text>
<links><link target="task_c88db767-6cb6-4336-a0af-d863d145ddec"/></links></g>
<!-- task_589f11d3&#45;6b56&#45;40db&#45;9fa2&#45;642c94023c0a -->
<g id="task_589f11d3-6b56-40db-9fa2-642c94023c0a" class="node">
<title>task_589f11d3-6b56-40db-9fa2-642c94023c0a</title>
<polygon fill="none" stroke="black" points="1452.3,-190.17 1452.3,-205.08 1362.02,-215.62 1234.33,-215.62 1144.04,-205.08 1144.04,-190.17 1234.33,-179.62 1362.02,-179.62 1452.3,-190.17"/>
<text text-anchor="middle" x="1298.17" y="-193.92" font-family="Times,serif" font-size="14.00">[task] Add biz database to pgbouncer</text>
</g>
<!-- Play #1: Create new postgres database (4)&#45;&gt;task_589f11d3&#45;6b56&#45;40db&#45;9fa2&#45;642c94023c0a -->
<g id="edge_debc2ab9-8d5c-470b-970d-205accfa9571" class="edge">
<title>Play #1: Create new postgres database (4)-&gt;task_589f11d3-6b56-40db-9fa2-642c94023c0a</title>
<path fill="none" stroke="#a84009" stroke-width="2" d="M333.64,-368.44C351.81,-332.22 398.1,-251.79 464.59,-219.62 581.87,-162.88 946.6,-175.12 1152.29,-187.35"/>
<polygon fill="#a84009" stroke="#a84009" stroke-width="2" points="1152.38,-190.86 1162.57,-187.96 1152.8,-183.87 1152.38,-190.86"/>
<text text-anchor="middle" x="742.59" y="-223.42" font-family="Times,serif" font-size="14.00" fill="#a84009">7</text>
<links><link target="task_589f11d3-6b56-40db-9fa2-642c94023c0a"/></links></g>
<!-- task_319fd386&#45;87ed&#45;452b&#45;bf84&#45;9708d486e731 -->
<g id="task_319fd386-87ed-452b-bf84-9708d486e731" class="node">
<title>task_319fd386-87ed-452b-bf84-9708d486e731</title>
<polygon fill="none" stroke="black" points="1465.54,-136.17 1465.54,-151.08 1367.5,-161.62 1228.85,-161.62 1130.81,-151.08 1130.81,-136.17 1228.85,-125.62 1367.5,-125.62 1465.54,-136.17"/>
<text text-anchor="middle" x="1298.17" y="-139.92" font-family="Times,serif" font-size="14.00">[task] Reload pgbouncer to add database</text>
</g>
<!-- Play #1: Create new postgres database (4)&#45;&gt;task_319fd386&#45;87ed&#45;452b&#45;bf84&#45;9708d486e731 -->
<g id="edge_eec0583d-e26c-42a5-98ae-17f42988717b" class="edge">
<title>Play #1: Create new postgres database (4)-&gt;task_319fd386-87ed-452b-bf84-9708d486e731</title>
<path fill="none" stroke="#a84009" stroke-width="2" d="M329.72,-368.3C342.33,-322.8 381.98,-204.95 464.59,-157.62 579.93,-91.55 959.19,-113.18 1163.68,-130.6"/>
<polygon fill="#a84009" stroke="#a84009" stroke-width="2" points="1163.62,-134.11 1173.89,-131.48 1164.22,-127.14 1163.62,-134.11"/>
<text text-anchor="middle" x="742.59" y="-161.42" font-family="Times,serif" font-size="14.00" fill="#a84009">8  [when: pg_database_definition.pgbouncer is not defined or pg_database_definition.pgbouncer|bool]</text>
<links><link target="task_319fd386-87ed-452b-bf84-9708d486e731"/></links></g>
<!-- task_7327f52d&#45;9bdb&#45;421f&#45;b4b9&#45;86a9bb5e6149 -->
<g id="task_7327f52d-9bdb-421f-b4b9-86a9bb5e6149" class="node">
<title>task_7327f52d-9bdb-421f-b4b9-86a9bb5e6149</title>
<polygon fill="none" stroke="black" points="1498.67,-82.17 1498.67,-97.08 1381.22,-107.62 1215.13,-107.62 1097.68,-97.08 1097.68,-82.17 1215.13,-71.62 1381.22,-71.62 1498.67,-82.17"/>
<text text-anchor="middle" x="1298.17" y="-85.92" font-family="Times,serif" font-size="14.00">[task] Render datasource definition on meta node</text>
</g>
<!-- Play #1: Create new postgres database (4)&#45;&gt;task_7327f52d&#45;9bdb&#45;421f&#45;b4b9&#45;86a9bb5e6149 -->
<g id="edge_ab23ae6d-d560-4e6b-bef0-51696ba33864" class="edge">
<title>Play #1: Create new postgres database (4)-&gt;task_7327f52d-9bdb-421f-b4b9-86a9bb5e6149</title>
<path fill="none" stroke="#a84009" stroke-width="2" d="M327.2,-368.55C334.54,-315.07 364.22,-157.33 464.59,-93.62 517.27,-60.18 877.71,-70.03 1106.75,-79.99"/>
<polygon fill="#a84009" stroke="#a84009" stroke-width="2" points="1106.73,-83.49 1116.88,-80.44 1107.04,-76.5 1106.73,-83.49"/>
<text text-anchor="middle" x="742.59" y="-97.42" font-family="Times,serif" font-size="14.00" fill="#a84009">9  [when: register_datasource|bool]</text>
<links><link target="task_7327f52d-9bdb-421f-b4b9-86a9bb5e6149"/></links></g>
<!-- task_68abea0c&#45;152a&#45;4bdf&#45;8424&#45;ed3a20dcadbc -->
<g id="task_68abea0c-152a-4bdf-8424-ed3a20dcadbc" class="node">
<title>task_68abea0c-152a-4bdf-8424-ed3a20dcadbc</title>
<polygon fill="none" stroke="black" points="1483.21,-28.17 1483.21,-43.08 1374.82,-53.62 1221.53,-53.62 1113.14,-43.08 1113.14,-28.17 1221.53,-17.62 1374.82,-17.62 1483.21,-28.17"/>
<text text-anchor="middle" x="1298.17" y="-31.92" font-family="Times,serif" font-size="14.00">[task] Load grafana datasource on meta node</text>
</g>
<!-- Play #1: Create new postgres database (4)&#45;&gt;task_68abea0c&#45;152a&#45;4bdf&#45;8424&#45;ed3a20dcadbc -->
<g id="edge_032d0e2d-ddaf-4b07-9ef5-f0490ce4aeb5" class="edge">
<title>Play #1: Create new postgres database (4)-&gt;task_68abea0c-152a-4bdf-8424-ed3a20dcadbc</title>
<path fill="none" stroke="#a84009" stroke-width="2" d="M326.1,-368.6C330.44,-310.37 352.85,-126.68 464.59,-50.62 575.06,24.57 960.21,-1.02 1165.68,-21.04"/>
<polygon fill="#a84009" stroke="#a84009" stroke-width="2" points="1165.63,-24.55 1175.93,-22.05 1166.32,-17.59 1165.63,-24.55"/>
<text text-anchor="middle" x="742.59" y="-54.42" font-family="Times,serif" font-size="14.00" fill="#a84009">10  [when: register_datasource|bool]</text>
<links><link target="task_68abea0c-152a-4bdf-8424-ed3a20dcadbc"/></links></g>
</g>
</svg>