<?xml version='1.0' encoding='UTF-8'?>
<!DOCTYPE svg PUBLIC "-//W3C//DTD SVG 1.1//EN" "http://www.w3.org/Graphics/SVG/1.1/DTD/svg11.dtd">
<!-- Generated by graphviz version 2.44.1 (20200629.0846)
 --><!-- Title: pgsql&#45;createdb.yml  Pages: 1 --><svg xmlns="http://www.w3.org/2000/svg" xmlns:xlink="http://www.w3.org/1999/xlink" width="1566pt" height="786pt" viewBox="0.00 0.00 1565.76 785.62" id="svg">
<script type="text/javascript" href="https://ajax.googleapis.com/ajax/libs/jquery/3.2.1/jquery.min.js" id="jquery"/><script type="text/javascript" id="my_javascript"><![CDATA[const HOVER_CLASS = "my_hover";

var selectedElement = null;

function addClass(rootElement) {
    $(rootElement).find('link').each(function (index, element) {
        var target = $(element).attr('target');
        var currentElement = $('#' + target);
        currentElement.addClass(HOVER_CLASS);

        addClass(currentElement);
    })
}

function removeClass(rootElement, hover) {
    $(rootElement).find('link').each(function (index, element) {
        if ($(rootElement).attr('id') !== $(selectedElement).attr('id') || !hover) {
            var target = $(element).attr('target');
            var currentElement = $('#' + target);
            currentElement.removeClass(HOVER_CLASS);

            removeClass(currentElement);
        }

    })
}

function hoverIn(event) {
    addClass(event.currentTarget);
}

function hoverOut(event) {
    removeClass(event.currentTarget, true);
}

function clickOnElement(event) {
    var newElement = event.currentTarget;

    if ($(newElement).attr('id') === $(selectedElement).attr('id')) {
        removeClass(selectedElement, false);
    } else {
        removeClass(selectedElement);
        addClass(newElement)
    }

    selectedElement = newElement;
}


$("#svg").ready(function () {

    $("g[id^=play_]").hover(hoverIn, hoverOut);
    $("g[id^=role_]").hover(hoverIn, hoverOut);

    $("g[id^=play_]").click(clickOnElement);
    $("g[id^=role_]").click(clickOnElement);

});
]]></script><style type="text/css" id="my_css"><![CDATA[.node:hover, .edge:hover, path:hover, path + polygon:hover {
    cursor: pointer;
    stroke-width: 3;
    font-weight: bolder;
}

.my_hover {
    cursor: pointer;
    stroke-width: 3;
    font-weight: bolder;
}
]]></style><g id="graph0" class="graph" transform="scale(1 1) rotate(0) translate(4 781.62)">
<title>pgsql-createdb.yml </title>
<polygon fill="white" stroke="transparent" points="-4,4 -4,-781.62 1561.76,-781.62 1561.76,4 -4,4"/>
<!-- pgsql&#45;createdb.yml -->
<g id="root_node" class="node">
<title>pgsql-createdb.yml</title>
<ellipse fill="none" stroke="black" stroke-dasharray="1,5" cx="79.29" cy="-386.62" rx="79.09" ry="18"/>
<text text-anchor="middle" x="79.29" y="-382.92" font-family="Times,serif" font-size="14.00">pgsql-createdb.yml</text>
</g>
<!-- Play #1: Create new postgres database (4) -->
<g id="play_5ed245e8-24b1-4538-a35b-d48f2c9ab6ff" class="node">
<title>Play #1: Create new postgres database (4)</title>
<g id="a_play_5ed245e8-24b1-4538-a35b-d48f2c9ab6ff"><a xlink:title="10.10.10.10     10.10.10.11     10.10.10.12     10.10.10.13">
<polygon fill="#f16c6e" stroke="#f16c6e" points="446.59,-404.62 201.59,-404.62 201.59,-368.62 446.59,-368.62 446.59,-404.62"/>
<text text-anchor="middle" x="324.09" y="-382.92" font-family="Times,serif" font-size="14.00" fill="#000000">Play #1: Create new postgres database (4)</text>
</a>
</g>
<links><link target="edge_7db48332-da4a-45f2-8425-89686d510e10"/><link target="edge_0c568450-d9a9-450c-bc50-289a2c751a96"/><link target="edge_372db931-2adc-46ee-9910-98bd2e74de0e"/><link target="edge_db3e22be-122a-4fea-b2d1-d1adcf1a6cce"/><link target="edge_1252e06b-4938-4b0b-80b2-6e00a6335a30"/><link target="edge_b4023a4a-2160-4367-8f0a-73f3f4a47d5a"/><link target="edge_b8e1da6e-32cc-4497-9374-b9baf5022bb5"/><link target="edge_cfe14d60-c1db-4eef-a4a2-738dc29483af"/><link target="edge_3b632abc-a283-41f7-94c6-3e51d675d9d2"/><link target="edge_3048f0ad-319f-4ea0-b774-b60ad52df7cc"/><link target="edge_287ac2d9-9163-47f5-b658-029d6ddae9b3"/><link target="edge_0f86fc3e-99d8-4a23-abd9-0c663a0fc02d"/><link target="edge_725b1747-9268-44bd-acf8-53848c28d695"/><link target="edge_c90a2806-b56c-47c7-a96c-5cef1977f018"/></links></g>
<!-- pgsql&#45;createdb.yml&#45;&gt;Play #1: Create new postgres database (4) -->
<g id="edge_c9774c9e-14cf-4a25-ae1f-a963b71d253c" class="edge">
<title>pgsql-createdb.yml-&gt;Play #1: Create new postgres database (4)</title>
<path fill="none" stroke="#f16c6e" stroke-width="2" d="M158.79,-386.62C169.18,-386.62 180.06,-386.62 191.05,-386.62"/>
<polygon fill="#f16c6e" stroke="#f16c6e" stroke-width="2" points="191.17,-390.12 201.17,-386.62 191.17,-383.12 191.17,-390.12"/>
<text text-anchor="middle" x="180.09" y="-390.42" font-family="Times,serif" font-size="14.00" fill="#f16c6e">1</text>
</g>
<!-- task_b64c8b09&#45;56e6&#45;4047&#45;a548&#45;268a64a4ece5 -->
<g id="task_b64c8b09-56e6-4047-a548-268a64a4ece5" class="node">
<title>task_b64c8b09-56e6-4047-a548-268a64a4ece5</title>
<polygon fill="none" stroke="black" points="1414.73,-730.17 1414.73,-745.08 1346.46,-755.62 1249.89,-755.62 1181.61,-745.08 1181.61,-730.17 1249.89,-719.62 1346.46,-719.62 1414.73,-730.17"/>
<text text-anchor="middle" x="1298.17" y="-733.92" font-family="Times,serif" font-size="14.00">[task] Validate pg_database</text>
</g>
<!-- Play #1: Create new postgres database (4)&#45;&gt;task_b64c8b09&#45;56e6&#45;4047&#45;a548&#45;268a64a4ece5 -->
<g id="edge_7db48332-da4a-45f2-8425-89686d510e10" class="edge">
<title>Play #1: Create new postgres database (4)-&gt;task_b64c8b09-56e6-4047-a548-268a64a4ece5</title>
<path fill="none" stroke="#f16c6e" stroke-width="2" d="M326.58,-404.92C332.31,-461.48 358.18,-634.07 464.59,-706.62 578.38,-784.22 983.62,-763.52 1183.71,-747.83"/>
<polygon fill="#f16c6e" stroke="#f16c6e" stroke-width="2" points="1184.27,-751.3 1193.96,-747.02 1183.72,-744.32 1184.27,-751.3"/>
<text text-anchor="middle" x="742.59" y="-766.42" font-family="Times,serif" font-size="14.00" fill="#f16c6e">1</text>
<links><link target="task_b64c8b09-56e6-4047-a548-268a64a4ece5"/></links></g>
<!-- task_c4a47341&#45;955c&#45;4270&#45;825d&#45;93cc15c60c76 -->
<g id="task_c4a47341-955c-4270-825d-93cc15c60c76" class="node">
<title>task_c4a47341-955c-4270-825d-93cc15c60c76</title>
<polygon fill="none" stroke="black" points="1429.78,-676.17 1429.78,-691.08 1352.69,-701.62 1243.66,-701.62 1166.57,-691.08 1166.57,-676.17 1243.66,-665.62 1352.69,-665.62 1429.78,-676.17"/>
<text text-anchor="middle" x="1298.17" y="-679.92" font-family="Times,serif" font-size="14.00">[task] Fetch database definition</text>
</g>
<!-- Play #1: Create new postgres database (4)&#45;&gt;task_c4a47341&#45;955c&#45;4270&#45;825d&#45;93cc15c60c76 -->
<g id="edge_0c568450-d9a9-450c-bc50-289a2c751a96" class="edge">
<title>Play #1: Create new postgres database (4)-&gt;task_c4a47341-955c-4270-825d-93cc15c60c76</title>
<path fill="none" stroke="#f16c6e" stroke-width="2" d="M328.16,-404.85C337.73,-455.19 372.09,-596.27 464.59,-654.62 521.4,-690.47 934.19,-689.56 1156.4,-686.37"/>
<polygon fill="#f16c6e" stroke="#f16c6e" stroke-width="2" points="1156.56,-689.86 1166.51,-686.22 1156.46,-682.87 1156.56,-689.86"/>
<text text-anchor="middle" x="742.59" y="-691.42" font-family="Times,serif" font-size="14.00" fill="#f16c6e">2</text>
<links><link target="task_c4a47341-955c-4270-825d-93cc15c60c76"/></links></g>
<!-- task_d0eff61a&#45;8b17&#45;4bee&#45;8629&#45;b93762bb287d -->
<g id="task_d0eff61a-8b17-4bee-8629-b93762bb287d" class="node">
<title>task_d0eff61a-8b17-4bee-8629-b93762bb287d</title>
<polygon fill="none" stroke="black" points="1432.41,-622.17 1432.41,-637.08 1353.78,-647.62 1242.57,-647.62 1163.94,-637.08 1163.94,-622.17 1242.57,-611.62 1353.78,-611.62 1432.41,-622.17"/>
<text text-anchor="middle" x="1298.17" y="-625.92" font-family="Times,serif" font-size="14.00">[task] Check database definition</text>
</g>
<!-- Play #1: Create new postgres database (4)&#45;&gt;task_d0eff61a&#45;8b17&#45;4bee&#45;8629&#45;b93762bb287d -->
<g id="edge_372db931-2adc-46ee-9910-98bd2e74de0e" class="edge">
<title>Play #1: Create new postgres database (4)-&gt;task_d0eff61a-8b17-4bee-8629-b93762bb287d</title>
<path fill="none" stroke="#f16c6e" stroke-width="2" d="M330.15,-404.94C343.52,-449.25 384.32,-561.98 464.59,-607.62 522.69,-640.67 931.23,-637.45 1153.65,-633.12"/>
<polygon fill="#f16c6e" stroke="#f16c6e" stroke-width="2" points="1153.85,-636.62 1163.78,-632.92 1153.71,-629.62 1153.85,-636.62"/>
<text text-anchor="middle" x="742.59" y="-639.42" font-family="Times,serif" font-size="14.00" fill="#f16c6e">3</text>
<links><link target="task_d0eff61a-8b17-4bee-8629-b93762bb287d"/></links></g>
<!-- task_d1b2d892&#45;8414&#45;41c9&#45;a8e5&#45;f4ff19ce759a -->
<g id="task_d1b2d892-8414-41c9-a8e5-f4ff19ce759a" class="node">
<title>task_d1b2d892-8414-41c9-a8e5-f4ff19ce759a</title>
<polygon fill="none" stroke="black" points="1357.36,-568.17 1357.36,-583.08 1322.69,-593.62 1273.66,-593.62 1238.99,-583.08 1238.99,-568.17 1273.66,-557.62 1322.69,-557.62 1357.36,-568.17"/>
<text text-anchor="middle" x="1298.17" y="-571.92" font-family="Times,serif" font-size="14.00">[task] debug</text>
</g>
<!-- Play #1: Create new postgres database (4)&#45;&gt;task_d1b2d892&#45;8414&#45;41c9&#45;a8e5&#45;f4ff19ce759a -->
<g id="edge_db3e22be-122a-4fea-b2d1-d1adcf1a6cce" class="edge">
<title>Play #1: Create new postgres database (4)-&gt;task_d1b2d892-8414-41c9-a8e5-f4ff19ce759a</title>
<path fill="none" stroke="#f16c6e" stroke-width="2" d="M334.35,-404.71C353.3,-439.51 400.23,-515.07 464.59,-545.62 598.94,-609.42 1054.74,-590.08 1228.82,-580"/>
<polygon fill="#f16c6e" stroke="#f16c6e" stroke-width="2" points="1229.11,-583.49 1238.89,-579.41 1228.7,-576.5 1229.11,-583.49"/>
<text text-anchor="middle" x="742.59" y="-594.42" font-family="Times,serif" font-size="14.00" fill="#f16c6e">4</text>
<links><link target="task_d1b2d892-8414-41c9-a8e5-f4ff19ce759a"/></links></g>
<!-- task_3e3e704c&#45;f153&#45;44f7&#45;9543&#45;668bf9320228 -->
<g id="task_3e3e704c-f153-44f7-9543-668bf9320228" class="node">
<title>task_3e3e704c-f153-44f7-9543-668bf9320228</title>
<polygon fill="none" stroke="black" points="1357.36,-514.17 1357.36,-529.08 1322.69,-539.62 1273.66,-539.62 1238.99,-529.08 1238.99,-514.17 1273.66,-503.62 1322.69,-503.62 1357.36,-514.17"/>
<text text-anchor="middle" x="1298.17" y="-517.92" font-family="Times,serif" font-size="14.00">[task] debug</text>
</g>
<!-- Play #1: Create new postgres database (4)&#45;&gt;task_3e3e704c&#45;f153&#45;44f7&#45;9543&#45;668bf9320228 -->
<g id="edge_1252e06b-4938-4b0b-80b2-6e00a6335a30" class="edge">
<title>Play #1: Create new postgres database (4)-&gt;task_3e3e704c-f153-44f7-9543-668bf9320228</title>
<path fill="none" stroke="#f16c6e" stroke-width="2" d="M342.91,-404.81C367.66,-428.68 415,-469.53 464.59,-486.62 604.99,-535.03 1055.69,-528.3 1228.68,-523.74"/>
<polygon fill="#f16c6e" stroke="#f16c6e" stroke-width="2" points="1229.02,-527.24 1238.93,-523.47 1228.83,-520.24 1229.02,-527.24"/>
<text text-anchor="middle" x="742.59" y="-530.42" font-family="Times,serif" font-size="14.00" fill="#f16c6e">1  [when: pg_role == 'primary']</text>
<links><link target="task_3e3e704c-f153-44f7-9543-668bf9320228"/></links></g>
<!-- task_57f8fe9e&#45;4547&#45;420a&#45;a715&#45;49423b87fb6e -->
<g id="task_57f8fe9e-4547-420a-a715-49423b87fb6e" class="node">
<title>task_57f8fe9e-4547-420a-a715-49423b87fb6e</title>
<polygon fill="none" stroke="black" points="1527.35,-460.17 1527.35,-475.08 1393.1,-485.62 1203.25,-485.62 1069,-475.08 1069,-460.17 1203.25,-449.62 1393.1,-449.62 1527.35,-460.17"/>
<text text-anchor="middle" x="1298.17" y="-463.92" font-family="Times,serif" font-size="14.00">[task] Render database {{ database.name }} creation sql</text>
</g>
<!-- Play #1: Create new postgres database (4)&#45;&gt;task_57f8fe9e&#45;4547&#45;420a&#45;a715&#45;49423b87fb6e -->
<g id="edge_b4023a4a-2160-4367-8f0a-73f3f4a47d5a" class="edge">
<title>Play #1: Create new postgres database (4)-&gt;task_57f8fe9e-4547-420a-a715-49423b87fb6e</title>
<path fill="none" stroke="#f16c6e" stroke-width="2" d="M380.49,-404.65C405.85,-412.14 436.45,-420.12 464.59,-424.62 663.12,-456.41 891.34,-466.36 1058.58,-468.82"/>
<polygon fill="#f16c6e" stroke="#f16c6e" stroke-width="2" points="1058.7,-472.32 1068.75,-468.96 1058.8,-465.32 1058.7,-472.32"/>
<text text-anchor="middle" x="742.59" y="-471.42" font-family="Times,serif" font-size="14.00" fill="#f16c6e">2  [when: pg_role == 'primary']</text>
<links><link target="task_57f8fe9e-4547-420a-a715-49423b87fb6e"/></links></g>
<!-- task_bbe9b1f8&#45;e811&#45;4386&#45;aedc&#45;fe7bbe9297c3 -->
<g id="task_bbe9b1f8-e811-4386-aedc-fe7bbe9297c3" class="node">
<title>task_bbe9b1f8-e811-4386-aedc-fe7bbe9297c3</title>
<polygon fill="none" stroke="black" points="1527.35,-406.17 1527.35,-421.08 1393.1,-431.62 1203.25,-431.62 1069,-421.08 1069,-406.17 1203.25,-395.62 1393.1,-395.62 1527.35,-406.17"/>
<text text-anchor="middle" x="1298.17" y="-409.92" font-family="Times,serif" font-size="14.00">[task] Render database {{ database.name }} baseline sql</text>
</g>
<!-- Play #1: Create new postgres database (4)&#45;&gt;task_bbe9b1f8&#45;e811&#45;4386&#45;aedc&#45;fe7bbe9297c3 -->
<g id="edge_b8e1da6e-32cc-4497-9374-b9baf5022bb5" class="edge">
<title>Play #1: Create new postgres database (4)-&gt;task_bbe9b1f8-e811-4386-aedc-fe7bbe9297c3</title>
<path fill="none" stroke="#f16c6e" stroke-width="2" d="M446.73,-390C599.45,-394.24 864.89,-401.62 1058.7,-407"/>
<polygon fill="#f16c6e" stroke="#f16c6e" stroke-width="2" points="1058.65,-410.5 1068.74,-407.28 1058.84,-403.5 1058.65,-410.5"/>
<text text-anchor="middle" x="742.59" y="-409.42" font-family="Times,serif" font-size="14.00" fill="#f16c6e">3  [when: pg_role == 'primary'database.baseline is defined]</text>
<links><link target="task_bbe9b1f8-e811-4386-aedc-fe7bbe9297c3"/></links></g>
<!-- task_11496838&#45;e111&#45;4f29&#45;bccb&#45;1c669b970644 -->
<g id="task_11496838-e111-4f29-bccb-1c669b970644" class="node">
<title>task_11496838-e111-4f29-bccb-1c669b970644</title>
<polygon fill="none" stroke="black" points="1557.85,-352.17 1557.85,-367.08 1405.74,-377.62 1190.61,-377.62 1038.5,-367.08 1038.5,-352.17 1190.61,-341.62 1405.74,-341.62 1557.85,-352.17"/>
<text text-anchor="middle" x="1298.17" y="-355.92" font-family="Times,serif" font-size="14.00">[task] Execute database {{ database.name }} creation command</text>
</g>
<!-- Play #1: Create new postgres database (4)&#45;&gt;task_11496838&#45;e111&#45;4f29&#45;bccb&#45;1c669b970644 -->
<g id="edge_cfe14d60-c1db-4eef-a4a2-738dc29483af" class="edge">
<title>Play #1: Create new postgres database (4)-&gt;task_11496838-e111-4f29-bccb-1c669b970644</title>
<path fill="none" stroke="#f16c6e" stroke-width="2" d="M446.75,-371.94C452.78,-371.44 458.75,-371 464.59,-370.62 652.52,-358.64 864.79,-356 1027.96,-356.3"/>
<polygon fill="#f16c6e" stroke="#f16c6e" stroke-width="2" points="1028.13,-359.8 1038.14,-356.33 1028.15,-352.8 1028.13,-359.8"/>
<text text-anchor="middle" x="742.59" y="-374.42" font-family="Times,serif" font-size="14.00" fill="#f16c6e">4  [when: pg_role == 'primary']</text>
<links><link target="task_11496838-e111-4f29-bccb-1c669b970644"/></links></g>
<!-- task_c7bac0ef&#45;bdb0&#45;4386&#45;8077&#45;7372a5fbfd3b -->
<g id="task_c7bac0ef-bdb0-4386-8077-7372a5fbfd3b" class="node">
<title>task_c7bac0ef-bdb0-4386-8077-7372a5fbfd3b</title>
<polygon fill="none" stroke="black" points="1530.48,-298.17 1530.48,-313.08 1394.4,-323.62 1201.95,-323.62 1065.87,-313.08 1065.87,-298.17 1201.95,-287.62 1394.4,-287.62 1530.48,-298.17"/>
<text text-anchor="middle" x="1298.17" y="-301.92" font-family="Times,serif" font-size="14.00">[task] Execute database {{ database.name }} creation sql</text>
</g>
<!-- Play #1: Create new postgres database (4)&#45;&gt;task_c7bac0ef&#45;bdb0&#45;4386&#45;8077&#45;7372a5fbfd3b -->
<g id="edge_3b632abc-a283-41f7-94c6-3e51d675d9d2" class="edge">
<title>Play #1: Create new postgres database (4)-&gt;task_c7bac0ef-bdb0-4386-8077-7372a5fbfd3b</title>
<path fill="none" stroke="#f16c6e" stroke-width="2" d="M365.06,-368.59C392.46,-357.15 429.98,-343.3 464.59,-336.62 672.42,-296.51 914.7,-292.12 1084.13,-295.73"/>
<polygon fill="#f16c6e" stroke="#f16c6e" stroke-width="2" points="1084.09,-299.23 1094.17,-295.96 1084.25,-292.23 1084.09,-299.23"/>
<text text-anchor="middle" x="742.59" y="-340.42" font-family="Times,serif" font-size="14.00" fill="#f16c6e">5  [when: pg_role == 'primary']</text>
<links><link target="task_c7bac0ef-bdb0-4386-8077-7372a5fbfd3b"/></links></g>
<!-- task_4e3c29d6&#45;8491&#45;46dc&#45;99f9&#45;6cdb9304b1cd -->
<g id="task_4e3c29d6-8491-46dc-99f9-6cdb9304b1cd" class="node">
<title>task_4e3c29d6-8491-46dc-99f9-6cdb9304b1cd</title>
<polygon fill="none" stroke="black" points="1530.89,-244.17 1530.89,-259.08 1394.57,-269.62 1201.78,-269.62 1065.46,-259.08 1065.46,-244.17 1201.78,-233.62 1394.57,-233.62 1530.89,-244.17"/>
<text text-anchor="middle" x="1298.17" y="-247.92" font-family="Times,serif" font-size="14.00">[task] Execute database {{ database.name }} baseline sql</text>
</g>
<!-- Play #1: Create new postgres database (4)&#45;&gt;task_4e3c29d6&#45;8491&#45;46dc&#45;99f9&#45;6cdb9304b1cd -->
<g id="edge_3048f0ad-319f-4ea0-b774-b60ad52df7cc" class="edge">
<title>Play #1: Create new postgres database (4)-&gt;task_4e3c29d6-8491-46dc-99f9-6cdb9304b1cd</title>
<path fill="none" stroke="#f16c6e" stroke-width="2" d="M340.44,-368.58C364.02,-342.38 411.97,-294.86 464.59,-275.62 572.41,-236.21 866.75,-236.45 1074.78,-242.32"/>
<polygon fill="#f16c6e" stroke="#f16c6e" stroke-width="2" points="1074.83,-245.83 1084.93,-242.62 1075.03,-238.83 1074.83,-245.83"/>
<text text-anchor="middle" x="742.59" y="-279.42" font-family="Times,serif" font-size="14.00" fill="#f16c6e">6  [when: pg_role == 'primary'database.baseline is defined]</text>
<links><link target="task_4e3c29d6-8491-46dc-99f9-6cdb9304b1cd"/></links></g>
<!-- task_5c0b2898&#45;abe7&#45;4fea&#45;8a85&#45;9befe5c80f2b -->
<g id="task_5c0b2898-abe7-4fea-8a85-9befe5c80f2b" class="node">
<title>task_5c0b2898-abe7-4fea-8a85-9befe5c80f2b</title>
<polygon fill="none" stroke="black" points="1452.3,-190.17 1452.3,-205.08 1362.02,-215.62 1234.33,-215.62 1144.04,-205.08 1144.04,-190.17 1234.33,-179.62 1362.02,-179.62 1452.3,-190.17"/>
<text text-anchor="middle" x="1298.17" y="-193.92" font-family="Times,serif" font-size="14.00">[task] Add biz database to pgbouncer</text>
</g>
<!-- Play #1: Create new postgres database (4)&#45;&gt;task_5c0b2898&#45;abe7&#45;4fea&#45;8a85&#45;9befe5c80f2b -->
<g id="edge_287ac2d9-9163-47f5-b658-029d6ddae9b3" class="edge">
<title>Play #1: Create new postgres database (4)-&gt;task_5c0b2898-abe7-4fea-8a85-9befe5c80f2b</title>
<path fill="none" stroke="#f16c6e" stroke-width="2" d="M333.64,-368.44C351.81,-332.22 398.1,-251.79 464.59,-219.62 581.87,-162.88 946.6,-175.12 1152.29,-187.35"/>
<polygon fill="#f16c6e" stroke="#f16c6e" stroke-width="2" points="1152.38,-190.86 1162.57,-187.96 1152.8,-183.87 1152.38,-190.86"/>
<text text-anchor="middle" x="742.59" y="-223.42" font-family="Times,serif" font-size="14.00" fill="#f16c6e">7</text>
<links><link target="task_5c0b2898-abe7-4fea-8a85-9befe5c80f2b"/></links></g>
<!-- task_f488fa81&#45;109d&#45;415d&#45;a3ba&#45;8156ad9a01b1 -->
<g id="task_f488fa81-109d-415d-a3ba-8156ad9a01b1" class="node">
<title>task_f488fa81-109d-415d-a3ba-8156ad9a01b1</title>
<polygon fill="none" stroke="black" points="1465.54,-136.17 1465.54,-151.08 1367.5,-161.62 1228.85,-161.62 1130.81,-151.08 1130.81,-136.17 1228.85,-125.62 1367.5,-125.62 1465.54,-136.17"/>
<text text-anchor="middle" x="1298.17" y="-139.92" font-family="Times,serif" font-size="14.00">[task] Reload pgbouncer to add database</text>
</g>
<!-- Play #1: Create new postgres database (4)&#45;&gt;task_f488fa81&#45;109d&#45;415d&#45;a3ba&#45;8156ad9a01b1 -->
<g id="edge_0f86fc3e-99d8-4a23-abd9-0c663a0fc02d" class="edge">
<title>Play #1: Create new postgres database (4)-&gt;task_f488fa81-109d-415d-a3ba-8156ad9a01b1</title>
<path fill="none" stroke="#f16c6e" stroke-width="2" d="M329.72,-368.3C342.33,-322.8 381.98,-204.95 464.59,-157.62 579.93,-91.55 959.19,-113.18 1163.68,-130.6"/>
<polygon fill="#f16c6e" stroke="#f16c6e" stroke-width="2" points="1163.62,-134.11 1173.89,-131.48 1164.22,-127.14 1163.62,-134.11"/>
<text text-anchor="middle" x="742.59" y="-161.42" font-family="Times,serif" font-size="14.00" fill="#f16c6e">8  [when: pg_database_definition.pgbouncer is not defined or pg_database_definition.pgbouncer|bool]</text>
<links><link target="task_f488fa81-109d-415d-a3ba-8156ad9a01b1"/></links></g>
<!-- task_c8dad9b2&#45;63d3&#45;4005&#45;a793&#45;7eb5e477f27e -->
<g id="task_c8dad9b2-63d3-4005-a793-7eb5e477f27e" class="node">
<title>task_c8dad9b2-63d3-4005-a793-7eb5e477f27e</title>
<polygon fill="none" stroke="black" points="1498.67,-82.17 1498.67,-97.08 1381.22,-107.62 1215.13,-107.62 1097.68,-97.08 1097.68,-82.17 1215.13,-71.62 1381.22,-71.62 1498.67,-82.17"/>
<text text-anchor="middle" x="1298.17" y="-85.92" font-family="Times,serif" font-size="14.00">[task] Render datasource definition on meta node</text>
</g>
<!-- Play #1: Create new postgres database (4)&#45;&gt;task_c8dad9b2&#45;63d3&#45;4005&#45;a793&#45;7eb5e477f27e -->
<g id="edge_725b1747-9268-44bd-acf8-53848c28d695" class="edge">
<title>Play #1: Create new postgres database (4)-&gt;task_c8dad9b2-63d3-4005-a793-7eb5e477f27e</title>
<path fill="none" stroke="#f16c6e" stroke-width="2" d="M327.2,-368.55C334.54,-315.07 364.22,-157.33 464.59,-93.62 517.27,-60.18 877.71,-70.03 1106.75,-79.99"/>
<polygon fill="#f16c6e" stroke="#f16c6e" stroke-width="2" points="1106.73,-83.49 1116.88,-80.44 1107.04,-76.5 1106.73,-83.49"/>
<text text-anchor="middle" x="742.59" y="-97.42" font-family="Times,serif" font-size="14.00" fill="#f16c6e">9  [when: register_datasource|bool]</text>
<links><link target="task_c8dad9b2-63d3-4005-a793-7eb5e477f27e"/></links></g>
<!-- task_615ab081&#45;1e65&#45;40f7&#45;abae&#45;225d1df14db5 -->
<g id="task_615ab081-1e65-40f7-abae-225d1df14db5" class="node">
<title>task_615ab081-1e65-40f7-abae-225d1df14db5</title>
<polygon fill="none" stroke="black" points="1483.21,-28.17 1483.21,-43.08 1374.82,-53.62 1221.53,-53.62 1113.14,-43.08 1113.14,-28.17 1221.53,-17.62 1374.82,-17.62 1483.21,-28.17"/>
<text text-anchor="middle" x="1298.17" y="-31.92" font-family="Times,serif" font-size="14.00">[task] Load grafana datasource on meta node</text>
</g>
<!-- Play #1: Create new postgres database (4)&#45;&gt;task_615ab081&#45;1e65&#45;40f7&#45;abae&#45;225d1df14db5 -->
<g id="edge_c90a2806-b56c-47c7-a96c-5cef1977f018" class="edge">
<title>Play #1: Create new postgres database (4)-&gt;task_615ab081-1e65-40f7-abae-225d1df14db5</title>
<path fill="none" stroke="#f16c6e" stroke-width="2" d="M326.1,-368.6C330.44,-310.37 352.85,-126.68 464.59,-50.62 575.06,24.57 960.21,-1.02 1165.68,-21.04"/>
<polygon fill="#f16c6e" stroke="#f16c6e" stroke-width="2" points="1165.63,-24.55 1175.93,-22.05 1166.32,-17.59 1165.63,-24.55"/>
<text text-anchor="middle" x="742.59" y="-54.42" font-family="Times,serif" font-size="14.00" fill="#f16c6e">10  [when: register_datasource|bool]</text>
<links><link target="task_615ab081-1e65-40f7-abae-225d1df14db5"/></links></g>
</g>
</svg>