<?xml version='1.0' encoding='UTF-8'?>
<!DOCTYPE svg PUBLIC "-//W3C//DTD SVG 1.1//EN" "http://www.w3.org/Graphics/SVG/1.1/DTD/svg11.dtd">
<!-- Generated by graphviz version 3.0.0 (20220226.1711)
 --><!-- Pages: 1 --><svg xmlns="http://www.w3.org/2000/svg" xmlns:xlink="http://www.w3.org/1999/xlink" width="1027pt" height="832pt" viewBox="0.00 0.00 1026.87 832.00" id="svg">
<script type="text/javascript" href="https://ajax.googleapis.com/ajax/libs/jquery/3.2.1/jquery.min.js" id="jquery"/><script type="text/javascript" id="my_javascript"><![CDATA[/**
 * This file contains the functions responsible to highlight the plays, roles and tasks when rendering the SVG file in a browser
 * or any SVG reader that support Javascript.
 */

/**
 * The name of the CSS class for highlighted elements
 * @type {string}
 */
const HIGHLIGHT_CLASS = "highlight";

/**
 * The current selected element on the graph
 * @type {null}
 */
let currentSelectedElement = null;

/**
 * Highlight the linked nodes of the given root element
 * @param rootElement
 */
function highlightLinkedNodes(rootElement) {
    $(rootElement).find('link').each(function (index, element) {
        let target = $(element).attr('target');
        let currentElement = $('#' + target);
        currentElement.addClass(HIGHLIGHT_CLASS);

        // Recursively highlight
        highlightLinkedNodes(currentElement);
    })
}


/**
 * Unhighlight the linked nodes of the given root element
 * @param {Element} rootElement
 * @param {boolean} isHover True when we are coming from a mouseleave event. In that case, we should not unhighlight if
 * the rootElement is the current selected element
 */
function unHighlightLinkedNodes(rootElement, isHover) {
    const currentSelectedElementId = $(currentSelectedElement).attr('id');

    // Do not unhighlight the current current selected element
    if ($(rootElement).attr('id') !== currentSelectedElementId || !isHover) {

        $(rootElement).find('link').each(function (index, element) {
            let linkedElementId = $(element).attr('target');
            let linkedElement = $('#' + linkedElementId);

            if (linkedElement.attr("id") !== currentSelectedElementId) {
                linkedElement.removeClass(HIGHLIGHT_CLASS);
                // Recursively unhighlight
                unHighlightLinkedNodes(linkedElement, isHover);
            }
            
        })
    }

}

/**
 * Hover handler for mouseenter event
 * @param event
 */
function hoverMouseEnter(event) {
    highlightLinkedNodes(event.currentTarget);
}

/**
 * Hover handler for mouseleave event
 * @param event
 */
function hoverMouseLeave(event) {
    unHighlightLinkedNodes(event.currentTarget, true);
}

/**
 * Handler when clicking on some elements
 * @param event
 */
function clickOnElement(event) {
    let newClickedElement = $(event.currentTarget);

    if (newClickedElement.attr('id') === $(currentSelectedElement).attr('id')) { // clicking again on the same element
        newClickedElement.removeClass(HIGHLIGHT_CLASS);
        unHighlightLinkedNodes(currentSelectedElement, false);
        currentSelectedElement = null;
    } else { // clicking on a different node

        // Remove highlight from all the nodes linked the current selected node
        unHighlightLinkedNodes(currentSelectedElement, false);

        newClickedElement.addClass(HIGHLIGHT_CLASS);
        highlightLinkedNodes(newClickedElement);
        currentSelectedElement = newClickedElement;
    }
}


$("#svg").ready(function () {
    let plays = $("g[id^=play_]");
    let roles = $("g[id^=role_]");
    let blocks = $("g[id^=block_]");

    // Set hover and click events on the plays
    plays.hover(hoverMouseEnter, hoverMouseLeave);
    plays.click(clickOnElement);

    // Set hover and click events on the roles
    roles.hover(hoverMouseEnter, hoverMouseLeave);
    roles.click(clickOnElement);

    // Set hover and click events on the blocks
    blocks.hover(hoverMouseEnter, hoverMouseLeave);
    blocks.click(clickOnElement);

});
]]></script><style type="text/css" id="my_css"><![CDATA[/**
 Hover on nodes, edges, path and polygon
 */
.node:hover, .edge:hover, path:hover, path + polygon:hover {
    cursor: pointer;
    stroke-width: 3;
    font-weight: bolder;
}

/**
 Manually added class by the script highlight-hover.js when hovering on plays and roles
 */
.highlight {
    cursor: pointer;
    stroke-width: 3;
    font-weight: bolder;
}
]]></style><g id="graph0" class="graph" transform="scale(1 1) rotate(0) translate(4 828)">
<polygon fill="white" stroke="transparent" points="-4,4 -4,-828 1022.87,-828 1022.87,4 -4,4"/>
<g id="clust2" class="cluster">
<title>cluster_block_12196c3f</title>
<polygon fill="none" stroke="black" points="452.69,-8 452.69,-816 1010.87,-816 1010.87,-8 452.69,-8"/>
</g>
<!-- pgsql&#45;migration.yml -->
<g id="root_node" class="node">
<title>pgsql-migration.yml</title>
<ellipse fill="none" stroke="black" stroke-dasharray="1,5" cx="83.84" cy="-412" rx="83.69" ry="18"/>
<text text-anchor="middle" x="83.84" y="-408.3" font-family="Times,serif" font-size="14.00">pgsql-migration.yml</text>
</g>
<!-- play_bfb3e1eb -->
<g id="play_bfb3e1eb" class="node">
<title>play_bfb3e1eb</title>
<g id="a_play_bfb3e1eb"><a xlink:title="10.10.10.10">
<polygon fill="#aabd0f" stroke="#aabd0f" points="417.69,-430 214.69,-430 214.69,-394 417.69,-394 417.69,-430"/>
<text text-anchor="middle" x="316.19" y="-408.3" font-family="Times,serif" font-size="14.00" fill="#ffffff">Play: Generate Migration Plan (1)</text>
</a>
</g>
<links><link target="edge_62256a10"/></links></g>
<!-- pgsql&#45;migration.yml&#45;&gt;play_bfb3e1eb -->
<g id="edge_dea52ffb" class="edge">
<title>pgsql-migration.yml-&gt;play_bfb3e1eb</title>
<g id="a_edge_dea52ffb"><a xlink:title="1 ">
<path fill="none" stroke="#aabd0f" d="M168,-412C179.78,-412 192.04,-412 204.25,-412" id="path_edge_dea52ffb"/>
<polygon fill="#aabd0f" stroke="#aabd0f" points="204.47,-415.5 214.47,-412 204.47,-408.5 204.47,-415.5"/>
</a>
</g>
<g id="a_edge_dea52ffb-label"><a xlink:title="1 ">
<text text-anchor="middle" font-family="Times,serif" font-size="14.00" fill="#aabd0f" dy="-1%"><textPath xlink:href="#path_edge_dea52ffb" text-anchor="middle" startOffset="50%">1 </textPath></text>
</a>
</g>
<links><link target="play_bfb3e1eb"/></links></g>
<!-- block_12196c3f -->
<g id="block_12196c3f" class="node">
<title>block_12196c3f</title>
<g id="a_block_12196c3f"><a xlink:title="Gather Facts">
<polygon fill="none" stroke="#aabd0f" points="588.69,-430 460.69,-430 460.69,-394 588.69,-394 588.69,-430"/>
<text text-anchor="middle" x="524.69" y="-408.3" font-family="Times,serif" font-size="14.00">[block] Gather Facts</text>
</a>
</g>
<links><link target="edge_059bdd78"/><link target="edge_3491e984"/><link target="edge_6ddb5802"/><link target="edge_29f3a130"/><link target="edge_98f5e15e"/><link target="edge_8a223fa7"/><link target="edge_e6739f56"/><link target="edge_37f0911d"/><link target="edge_da0ce0eb"/><link target="edge_4d9db9be"/><link target="edge_86be425c"/><link target="edge_925439e6"/><link target="edge_8e5e627b"/><link target="edge_8bccfa74"/><link target="edge_d03a463d"/></links></g>
<!-- play_bfb3e1eb&#45;&gt;block_12196c3f -->
<g id="edge_62256a10" class="edge">
<title>play_bfb3e1eb-&gt;block_12196c3f</title>
<g id="a_edge_62256a10"><a xlink:title="1">
<path fill="none" stroke="#aabd0f" d="M417.71,-412C428.75,-412 439.83,-412 450.45,-412" id="path_edge_62256a10"/>
<polygon fill="#aabd0f" stroke="#aabd0f" points="450.46,-415.5 460.46,-412 450.46,-408.5 450.46,-415.5"/>
</a>
</g>
<g id="a_edge_62256a10-label"><a xlink:title="1">
<text text-anchor="middle" font-family="Times,serif" font-size="14.00" fill="#aabd0f" dy="-1%"><textPath xlink:href="#path_edge_62256a10" text-anchor="middle" startOffset="50%">1</textPath></text>
</a>
</g>
<links><link target="block_12196c3f"/></links></g>
<!-- task_2d00755c -->
<g id="task_2d00755c" class="node">
<title>task_2d00755c</title>
<g id="a_task_2d00755c"><a xlink:title="Generate compare reporting script">
<polygon fill="none" stroke="#aabd0f" points="965.4,-26.54 965.4,-41.46 881.85,-52 763.7,-52 680.16,-41.46 680.16,-26.54 763.7,-16 881.85,-16 965.4,-26.54"/>
<text text-anchor="middle" x="822.78" y="-30.3" font-family="Times,serif" font-size="14.00">Generate compare reporting script</text>
</a>
</g>
</g>
<!-- block_12196c3f&#45;&gt;task_2d00755c -->
<g id="edge_d03a463d" class="edge">
<title>block_12196c3f-&gt;task_2d00755c</title>
<g id="a_edge_d03a463d"><a xlink:title="15 ">
<path fill="none" stroke="#aabd0f" d="M528.61,-393.95C539.85,-327.33 582.62,-97.28 642.69,-61 653.41,-54.52 665.14,-49.41 677.29,-45.39" id="path_edge_d03a463d"/>
<polygon fill="#aabd0f" stroke="#aabd0f" points="678.57,-48.65 687.12,-42.39 676.53,-41.96 678.57,-48.65"/>
</a>
</g>
<g id="a_edge_d03a463d-label"><a xlink:title="15 ">
<text text-anchor="middle" font-family="Times,serif" font-size="14.00" fill="#aabd0f" dy="-1%"><textPath xlink:href="#path_edge_d03a463d" text-anchor="middle" startOffset="50%">15 </textPath></text>
</a>
</g>
<links><link target="task_2d00755c"/></links></g>
<!-- task_2db33103 -->
<g id="task_2db33103" class="node">
<title>task_2db33103</title>
<g id="a_task_2db33103"><a xlink:title="Generate progress reporting script">
<polygon fill="none" stroke="#aabd0f" points="964.99,-80.54 964.99,-95.46 881.68,-106 763.87,-106 680.57,-95.46 680.57,-80.54 763.87,-70 881.68,-70 964.99,-80.54"/>
<text text-anchor="middle" x="822.78" y="-84.3" font-family="Times,serif" font-size="14.00">Generate progress reporting script</text>
</a>
</g>
</g>
<!-- block_12196c3f&#45;&gt;task_2db33103 -->
<g id="edge_8bccfa74" class="edge">
<title>block_12196c3f-&gt;task_2db33103</title>
<g id="a_edge_8bccfa74"><a xlink:title="14 ">
<path fill="none" stroke="#aabd0f" d="M526.02,-393.78C528.15,-339.12 542.94,-176.55 642.69,-115 653.24,-108.49 664.8,-103.34 676.8,-99.29" id="path_edge_8bccfa74"/>
<polygon fill="#aabd0f" stroke="#aabd0f" points="677.99,-102.58 686.5,-96.27 675.91,-95.9 677.99,-102.58"/>
</a>
</g>
<g id="a_edge_8bccfa74-label"><a xlink:title="14 ">
<text text-anchor="middle" font-family="Times,serif" font-size="14.00" fill="#aabd0f" dy="-1%"><textPath xlink:href="#path_edge_8bccfa74" text-anchor="middle" startOffset="50%">14 </textPath></text>
</a>
</g>
<links><link target="task_2db33103"/></links></g>
<!-- task_ecb057d5 -->
<g id="task_ecb057d5" class="node">
<title>task_ecb057d5</title>
<g id="a_task_ecb057d5"><a xlink:title="Create remove-sub script">
<polygon fill="none" stroke="#aabd0f" points="930.96,-134.54 930.96,-149.46 867.59,-160 777.97,-160 714.6,-149.46 714.6,-134.54 777.97,-124 867.59,-124 930.96,-134.54"/>
<text text-anchor="middle" x="822.78" y="-138.3" font-family="Times,serif" font-size="14.00">Create remove-sub script</text>
</a>
</g>
</g>
<!-- block_12196c3f&#45;&gt;task_ecb057d5 -->
<g id="edge_8e5e627b" class="edge">
<title>block_12196c3f-&gt;task_ecb057d5</title>
<g id="a_edge_8e5e627b"><a xlink:title="13 ">
<path fill="none" stroke="#aabd0f" d="M527.81,-393.82C534.46,-346.29 559.68,-218.58 642.69,-169 661.3,-157.88 682.87,-150.8 704.46,-146.37" id="path_edge_8e5e627b"/>
<polygon fill="#aabd0f" stroke="#aabd0f" points="705.19,-149.8 714.38,-144.52 703.9,-142.92 705.19,-149.8"/>
</a>
</g>
<g id="a_edge_8e5e627b-label"><a xlink:title="13 ">
<text text-anchor="middle" font-family="Times,serif" font-size="14.00" fill="#aabd0f" dy="-1%"><textPath xlink:href="#path_edge_8e5e627b" text-anchor="middle" startOffset="50%">13 </textPath></text>
</a>
</g>
<links><link target="task_ecb057d5"/></links></g>
<!-- task_7166bd6c -->
<g id="task_7166bd6c" class="node">
<title>task_7166bd6c</title>
<g id="a_task_7166bd6c"><a xlink:title="Generate create-sub script">
<polygon fill="none" stroke="#aabd0f" points="934.08,-188.54 934.08,-203.46 868.88,-214 776.68,-214 711.48,-203.46 711.48,-188.54 776.68,-178 868.88,-178 934.08,-188.54"/>
<text text-anchor="middle" x="822.78" y="-192.3" font-family="Times,serif" font-size="14.00">Generate create-sub script</text>
</a>
</g>
</g>
<!-- block_12196c3f&#45;&gt;task_7166bd6c -->
<g id="edge_925439e6" class="edge">
<title>block_12196c3f-&gt;task_7166bd6c</title>
<g id="a_edge_925439e6"><a xlink:title="12 ">
<path fill="none" stroke="#aabd0f" d="M530.7,-393.92C542.63,-354.74 576.76,-262.38 642.69,-223 660.51,-212.35 681.06,-205.4 701.74,-200.95" id="path_edge_925439e6"/>
<polygon fill="#aabd0f" stroke="#aabd0f" points="702.43,-204.38 711.56,-199.01 701.08,-197.51 702.43,-204.38"/>
</a>
</g>
<g id="a_edge_925439e6-label"><a xlink:title="12 ">
<text text-anchor="middle" font-family="Times,serif" font-size="14.00" fill="#aabd0f" dy="-1%"><textPath xlink:href="#path_edge_925439e6" text-anchor="middle" startOffset="50%">12 </textPath></text>
</a>
</g>
<links><link target="task_7166bd6c"/></links></g>
<!-- task_63bb8737 -->
<g id="task_63bb8737" class="node">
<title>task_63bb8737</title>
<g id="a_task_63bb8737"><a xlink:title="Generate create-pub script">
<polygon fill="none" stroke="#aabd0f" points="935.4,-242.54 935.4,-257.46 869.43,-268 776.13,-268 710.16,-257.46 710.16,-242.54 776.13,-232 869.43,-232 935.4,-242.54"/>
<text text-anchor="middle" x="822.78" y="-246.3" font-family="Times,serif" font-size="14.00">Generate create-pub script</text>
</a>
</g>
</g>
<!-- block_12196c3f&#45;&gt;task_63bb8737 -->
<g id="edge_86be425c" class="edge">
<title>block_12196c3f-&gt;task_63bb8737</title>
<g id="a_edge_86be425c"><a xlink:title="11 ">
<path fill="none" stroke="#aabd0f" d="M535.53,-393.96C552.87,-364.11 591.88,-304.97 642.69,-277 660.12,-267.4 679.89,-260.9 699.76,-256.55" id="path_edge_86be425c"/>
<polygon fill="#aabd0f" stroke="#aabd0f" points="700.72,-259.93 709.84,-254.52 699.34,-253.06 700.72,-259.93"/>
</a>
</g>
<g id="a_edge_86be425c-label"><a xlink:title="11 ">
<text text-anchor="middle" font-family="Times,serif" font-size="14.00" fill="#aabd0f" dy="-1%"><textPath xlink:href="#path_edge_86be425c" text-anchor="middle" startOffset="50%">11 </textPath></text>
</a>
</g>
<links><link target="task_63bb8737"/></links></g>
<!-- task_20b100a3 -->
<g id="task_20b100a3" class="node">
<title>task_20b100a3</title>
<g id="a_task_20b100a3"><a xlink:title="Create next-seq script">
<polygon fill="none" stroke="#aabd0f" points="917.72,-296.54 917.72,-311.46 862.11,-322 783.45,-322 727.84,-311.46 727.84,-296.54 783.45,-286 862.11,-286 917.72,-296.54"/>
<text text-anchor="middle" x="822.78" y="-300.3" font-family="Times,serif" font-size="14.00">Create next-seq script</text>
</a>
</g>
</g>
<!-- block_12196c3f&#45;&gt;task_20b100a3 -->
<g id="edge_4d9db9be" class="edge">
<title>block_12196c3f-&gt;task_20b100a3</title>
<g id="a_edge_4d9db9be"><a xlink:title="10 ">
<path fill="none" stroke="#aabd0f" d="M545.56,-393.92C567.6,-374.98 605.02,-345.94 642.69,-331 666.17,-321.69 692.55,-315.56 717.7,-311.54" id="path_edge_4d9db9be"/>
<polygon fill="#aabd0f" stroke="#aabd0f" points="718.27,-314.99 727.64,-310.04 717.23,-308.07 718.27,-314.99"/>
</a>
</g>
<g id="a_edge_4d9db9be-label"><a xlink:title="10 ">
<text text-anchor="middle" font-family="Times,serif" font-size="14.00" fill="#aabd0f" dy="-1%"><textPath xlink:href="#path_edge_4d9db9be" text-anchor="middle" startOffset="50%">10 </textPath></text>
</a>
</g>
<links><link target="task_20b100a3"/></links></g>
<!-- task_7d1d3d74 -->
<g id="task_7d1d3d74" class="node">
<title>task_7d1d3d74</title>
<g id="a_task_7d1d3d74"><a xlink:title="Generate copy-seq script">
<polygon fill="none" stroke="#aabd0f" points="929.64,-350.54 929.64,-365.46 867.04,-376 778.52,-376 715.92,-365.46 715.92,-350.54 778.52,-340 867.04,-340 929.64,-350.54"/>
<text text-anchor="middle" x="822.78" y="-354.3" font-family="Times,serif" font-size="14.00">Generate copy-seq script</text>
</a>
</g>
</g>
<!-- block_12196c3f&#45;&gt;task_7d1d3d74 -->
<g id="edge_da0ce0eb" class="edge">
<title>block_12196c3f-&gt;task_7d1d3d74</title>
<g id="a_edge_da0ce0eb"><a xlink:title="9 ">
<path fill="none" stroke="#aabd0f" d="M588.9,-397.1C594.91,-395.7 600.91,-394.32 606.69,-393 622.66,-389.35 626.57,-388 642.69,-385 670.49,-379.82 700.87,-374.95 728.58,-370.8" id="path_edge_da0ce0eb"/>
<polygon fill="#aabd0f" stroke="#aabd0f" points="729.28,-374.24 738.66,-369.31 728.25,-367.32 729.28,-374.24"/>
</a>
</g>
<g id="a_edge_da0ce0eb-label"><a xlink:title="9 ">
<text text-anchor="middle" font-family="Times,serif" font-size="14.00" fill="#aabd0f" dy="-1%"><textPath xlink:href="#path_edge_da0ce0eb" text-anchor="middle" startOffset="50%">9 </textPath></text>
</a>
</g>
<links><link target="task_7d1d3d74"/></links></g>
<!-- task_cc3dfcfa -->
<g id="task_cc3dfcfa" class="node">
<title>task_cc3dfcfa</title>
<g id="a_task_cc3dfcfa"><a xlink:title="Create copy-schema script">
<polygon fill="none" stroke="#aabd0f" points="935.8,-404.54 935.8,-419.46 869.6,-430 775.96,-430 709.75,-419.46 709.75,-404.54 775.96,-394 869.6,-394 935.8,-404.54"/>
<text text-anchor="middle" x="822.78" y="-408.3" font-family="Times,serif" font-size="14.00">Create copy-schema script</text>
</a>
</g>
</g>
<!-- block_12196c3f&#45;&gt;task_cc3dfcfa -->
<g id="edge_37f0911d" class="edge">
<title>block_12196c3f-&gt;task_cc3dfcfa</title>
<g id="a_edge_37f0911d"><a xlink:title="8 ">
<path fill="none" stroke="#aabd0f" d="M588.84,-412C621.12,-412 661.52,-412 699.57,-412" id="path_edge_37f0911d"/>
<polygon fill="#aabd0f" stroke="#aabd0f" points="699.71,-415.5 709.71,-412 699.71,-408.5 699.71,-415.5"/>
</a>
</g>
<g id="a_edge_37f0911d-label"><a xlink:title="8 ">
<text text-anchor="middle" font-family="Times,serif" font-size="14.00" fill="#aabd0f" dy="-1%"><textPath xlink:href="#path_edge_37f0911d" text-anchor="middle" startOffset="50%">8 </textPath></text>
</a>
</g>
<links><link target="task_cc3dfcfa"/></links></g>
<!-- task_82937a0e -->
<g id="task_82937a0e" class="node">
<title>task_82937a0e</title>
<g id="a_task_82937a0e"><a xlink:title="Create check-special-object script">
<polygon fill="none" stroke="#aabd0f" points="963.68,-458.54 963.68,-473.46 881.14,-484 764.42,-484 681.88,-473.46 681.88,-458.54 764.42,-448 881.14,-448 963.68,-458.54"/>
<text text-anchor="middle" x="822.78" y="-462.3" font-family="Times,serif" font-size="14.00">Create check-special-object script</text>
</a>
</g>
</g>
<!-- block_12196c3f&#45;&gt;task_82937a0e -->
<g id="edge_e6739f56" class="edge">
<title>block_12196c3f-&gt;task_82937a0e</title>
<g id="a_edge_e6739f56"><a xlink:title="7 ">
<path fill="none" stroke="#aabd0f" d="M588.9,-426.9C594.91,-428.3 600.91,-429.68 606.69,-431 622.66,-434.65 626.57,-436 642.69,-439 666.46,-443.43 692.11,-447.63 716.37,-451.35" id="path_edge_e6739f56"/>
<polygon fill="#aabd0f" stroke="#aabd0f" points="715.89,-454.82 726.31,-452.85 716.94,-447.89 715.89,-454.82"/>
</a>
</g>
<g id="a_edge_e6739f56-label"><a xlink:title="7 ">
<text text-anchor="middle" font-family="Times,serif" font-size="14.00" fill="#aabd0f" dy="-1%"><textPath xlink:href="#path_edge_e6739f56" text-anchor="middle" startOffset="50%">7 </textPath></text>
</a>
</g>
<links><link target="task_82937a0e"/></links></g>
<!-- task_f34687da -->
<g id="task_f34687da" class="node">
<title>task_f34687da</title>
<g id="a_task_f34687da"><a xlink:title="Create check-replica-identity-solution script">
<polygon fill="none" stroke="#aabd0f" points="1002.97,-512.54 1002.97,-527.46 897.42,-538 748.14,-538 642.59,-527.46 642.59,-512.54 748.14,-502 897.42,-502 1002.97,-512.54"/>
<text text-anchor="middle" x="822.78" y="-516.3" font-family="Times,serif" font-size="14.00">Create check-replica-identity-solution script</text>
</a>
</g>
</g>
<!-- block_12196c3f&#45;&gt;task_f34687da -->
<g id="edge_8a223fa7" class="edge">
<title>block_12196c3f-&gt;task_f34687da</title>
<g id="a_edge_8a223fa7"><a xlink:title="6 ">
<path fill="none" stroke="#aabd0f" d="M545.56,-430.08C567.6,-449.02 605.02,-478.06 642.69,-493 655.15,-497.94 668.43,-501.99 681.92,-505.3" id="path_edge_8a223fa7"/>
<polygon fill="#aabd0f" stroke="#aabd0f" points="681.23,-508.73 691.76,-507.58 682.81,-501.91 681.23,-508.73"/>
</a>
</g>
<g id="a_edge_8a223fa7-label"><a xlink:title="6 ">
<text text-anchor="middle" font-family="Times,serif" font-size="14.00" fill="#aabd0f" dy="-1%"><textPath xlink:href="#path_edge_8a223fa7" text-anchor="middle" startOffset="50%">6 </textPath></text>
</a>
</g>
<links><link target="task_f34687da"/></links></g>
<!-- task_41054416 -->
<g id="task_41054416" class="node">
<title>task_41054416</title>
<g id="a_task_41054416"><a xlink:title="Create check-replica-identity script">
<polygon fill="none" stroke="#aabd0f" points="968.93,-566.54 968.93,-581.46 883.32,-592 762.24,-592 676.63,-581.46 676.63,-566.54 762.24,-556 883.32,-556 968.93,-566.54"/>
<text text-anchor="middle" x="822.78" y="-570.3" font-family="Times,serif" font-size="14.00">Create check-replica-identity script</text>
</a>
</g>
</g>
<!-- block_12196c3f&#45;&gt;task_41054416 -->
<g id="edge_98f5e15e" class="edge">
<title>block_12196c3f-&gt;task_41054416</title>
<g id="a_edge_98f5e15e"><a xlink:title="5 ">
<path fill="none" stroke="#aabd0f" d="M535.53,-430.04C552.87,-459.89 591.88,-519.03 642.69,-547 654.1,-553.28 666.51,-558.24 679.3,-562.13" id="path_edge_98f5e15e"/>
<polygon fill="#aabd0f" stroke="#aabd0f" points="678.57,-565.56 689.14,-564.91 680.47,-558.83 678.57,-565.56"/>
</a>
</g>
<g id="a_edge_98f5e15e-label"><a xlink:title="5 ">
<text text-anchor="middle" font-family="Times,serif" font-size="14.00" fill="#aabd0f" dy="-1%"><textPath xlink:href="#path_edge_98f5e15e" text-anchor="middle" startOffset="50%">5 </textPath></text>
</a>
</g>
<links><link target="task_41054416"/></links></g>
<!-- task_ad5eab47 -->
<g id="task_ad5eab47" class="node">
<title>task_ad5eab47</title>
<g id="a_task_ad5eab47"><a xlink:title="Create context activate script">
<polygon fill="none" stroke="#aabd0f" points="946,-620.54 946,-635.46 873.82,-646 771.74,-646 699.56,-635.46 699.56,-620.54 771.74,-610 873.82,-610 946,-620.54"/>
<text text-anchor="middle" x="822.78" y="-624.3" font-family="Times,serif" font-size="14.00">Create context activate script</text>
</a>
</g>
</g>
<!-- block_12196c3f&#45;&gt;task_ad5eab47 -->
<g id="edge_29f3a130" class="edge">
<title>block_12196c3f-&gt;task_ad5eab47</title>
<g id="a_edge_29f3a130"><a xlink:title="4 ">
<path fill="none" stroke="#aabd0f" d="M530.73,-430.03C542.71,-469.11 576.95,-561.29 642.69,-601 656.97,-609.63 673.03,-615.84 689.52,-620.27" id="path_edge_29f3a130"/>
<polygon fill="#aabd0f" stroke="#aabd0f" points="688.72,-623.68 699.27,-622.67 690.4,-616.88 688.72,-623.68"/>
</a>
</g>
<g id="a_edge_29f3a130-label"><a xlink:title="4 ">
<text text-anchor="middle" font-family="Times,serif" font-size="14.00" fill="#aabd0f" dy="-1%"><textPath xlink:href="#path_edge_29f3a130" text-anchor="middle" startOffset="50%">4 </textPath></text>
</a>
</g>
<links><link target="task_ad5eab47"/></links></g>
<!-- task_356aa1b0 -->
<g id="task_356aa1b0" class="node">
<title>task_356aa1b0</title>
<g id="a_task_356aa1b0"><a xlink:title="Create context directory">
<polygon fill="none" stroke="#aabd0f" points="927.01,-674.54 927.01,-689.46 865.95,-700 779.6,-700 718.55,-689.46 718.55,-674.54 779.6,-664 865.95,-664 927.01,-674.54"/>
<text text-anchor="middle" x="822.78" y="-678.3" font-family="Times,serif" font-size="14.00">Create context directory</text>
</a>
</g>
</g>
<!-- block_12196c3f&#45;&gt;task_356aa1b0 -->
<g id="edge_6ddb5802" class="edge">
<title>block_12196c3f-&gt;task_356aa1b0</title>
<g id="a_edge_6ddb5802"><a xlink:title="3 ">
<path fill="none" stroke="#aabd0f" d="M527.83,-430.13C534.55,-477.55 559.92,-605.01 642.69,-655 662.38,-666.9 685.45,-674.2 708.35,-678.56" id="path_edge_6ddb5802"/>
<polygon fill="#aabd0f" stroke="#aabd0f" points="708.05,-682.06 718.5,-680.31 709.24,-675.16 708.05,-682.06"/>
</a>
</g>
<g id="a_edge_6ddb5802-label"><a xlink:title="3 ">
<text text-anchor="middle" font-family="Times,serif" font-size="14.00" fill="#aabd0f" dy="-1%"><textPath xlink:href="#path_edge_6ddb5802" text-anchor="middle" startOffset="50%">3 </textPath></text>
</a>
</g>
<links><link target="task_356aa1b0"/></links></g>
<!-- task_e8993ed5 -->
<g id="task_e8993ed5" class="node">
<title>task_e8993ed5</title>
<g id="a_task_e8993ed5"><a xlink:title="debug">
<polygon fill="none" stroke="#aabd0f" points="858.13,-728.54 858.13,-743.46 837.42,-754 808.14,-754 787.43,-743.46 787.43,-728.54 808.14,-718 837.42,-718 858.13,-728.54"/>
<text text-anchor="middle" x="822.78" y="-732.3" font-family="Times,serif" font-size="14.00">debug</text>
</a>
</g>
</g>
<!-- block_12196c3f&#45;&gt;task_e8993ed5 -->
<g id="edge_3491e984" class="edge">
<title>block_12196c3f-&gt;task_e8993ed5</title>
<g id="a_edge_3491e984"><a xlink:title="2 ">
<path fill="none" stroke="#aabd0f" d="M526.07,-430.14C528.34,-484.57 543.49,-646.55 642.69,-709 683.06,-734.42 738.49,-739.19 776.95,-738.86" id="path_edge_3491e984"/>
<polygon fill="#aabd0f" stroke="#aabd0f" points="777.39,-742.35 787.32,-738.65 777.25,-735.36 777.39,-742.35"/>
</a>
</g>
<g id="a_edge_3491e984-label"><a xlink:title="2 ">
<text text-anchor="middle" font-family="Times,serif" font-size="14.00" fill="#aabd0f" dy="-1%"><textPath xlink:href="#path_edge_3491e984" text-anchor="middle" startOffset="50%">2 </textPath></text>
</a>
</g>
<links><link target="task_e8993ed5"/></links></g>
<!-- task_5af1ab1c -->
<g id="task_5af1ab1c" class="node">
<title>task_5af1ab1c</title>
<g id="a_task_5af1ab1c"><a xlink:title="Build parameters from vars">
<polygon fill="none" stroke="#aabd0f" points="940.25,-782.54 940.25,-797.46 871.44,-808 774.12,-808 705.31,-797.46 705.31,-782.54 774.12,-772 871.44,-772 940.25,-782.54"/>
<text text-anchor="middle" x="822.78" y="-786.3" font-family="Times,serif" font-size="14.00">Build parameters from vars</text>
</a>
</g>
</g>
<!-- block_12196c3f&#45;&gt;task_5af1ab1c -->
<g id="edge_059bdd78" class="edge">
<title>block_12196c3f-&gt;task_5af1ab1c</title>
<g id="a_edge_059bdd78"><a xlink:title="1 ">
<path fill="none" stroke="#aabd0f" d="M528.64,-430.02C539.96,-496.5 582.96,-726.15 642.69,-763 658.56,-772.8 676.7,-779.5 695.2,-784.03" id="path_edge_059bdd78"/>
<polygon fill="#aabd0f" stroke="#aabd0f" points="694.68,-787.5 705.2,-786.26 696.2,-780.66 694.68,-787.5"/>
</a>
</g>
<g id="a_edge_059bdd78-label"><a xlink:title="1 ">
<text text-anchor="middle" font-family="Times,serif" font-size="14.00" fill="#aabd0f" dy="-1%"><textPath xlink:href="#path_edge_059bdd78" text-anchor="middle" startOffset="50%">1 </textPath></text>
</a>
</g>
<links><link target="task_5af1ab1c"/></links></g>
</g>
</svg>